<?xml version="1.0" encoding="utf-8"?>
<!-- Generator: Adobe Illustrator 16.0.0, SVG Export Plug-In . SVG Version: 6.00 Build 0)  -->
<!DOCTYPE svg PUBLIC "-//W3C//DTD SVG 1.1//EN" "http://www.w3.org/Graphics/SVG/1.1/DTD/svg11.dtd">
<svg version="1.1" id="图层_1" xmlns="http://www.w3.org/2000/svg" xmlns:xlink="http://www.w3.org/1999/xlink" x="0px" y="0px"
	 width="64px" height="64px" viewBox="0 0 64 64" enable-background="new 0 0 64 64" xml:space="preserve">
<g>
	<g>
		<line fill="none" stroke="#497CAD" stroke-width="2" stroke-miterlimit="10" x1="5.5" y1="54.5" x2="10.978" y2="40.385"/>
		<g>
			<polygon fill="#497CAD" points="11.805,47.046 10.804,47.023 10.942,40.477 6.627,45.402 5.875,44.745 12,37.75 			"/>
		</g>
	</g>
</g>
<g>
	<g>
		<line fill="none" stroke="#497CAD" stroke-width="2" stroke-miterlimit="10" x1="4.165" y1="32.568" x2="13.326" y2="22.729"/>
		<g>
			<polygon fill="#497CAD" points="11.626,29.223 10.705,28.832 13.259,22.8 7.426,25.779 6.971,24.889 15.251,20.661 			"/>
		</g>
	</g>
</g>
<g>
	<g>
		<line fill="none" stroke="#497CAD" stroke-width="2" stroke-miterlimit="10" x1="17.964" y1="32.73" x2="34.643" y2="22.481"/>
		<g>
			<polygon fill="#497CAD" points="31.271,28.286 30.487,27.664 34.559,22.532 28.141,23.847 27.94,22.868 37.049,21.001 			"/>
		</g>
	</g>
</g>
<g>
	<g>
		<line fill="none" stroke="#497CAD" stroke-width="2" stroke-miterlimit="10" x1="21.009" y1="16.099" x2="39.074" y2="11.671"/>
		<g>
			<polygon fill="#497CAD" points="34.09,16.168 33.534,15.336 38.979,11.695 32.467,10.984 32.576,9.99 41.818,10.999 			"/>
		</g>
	</g>
</g>
<g>
	<g>
		<line fill="none" stroke="#497CAD" stroke-width="2" stroke-miterlimit="10" x1="25.952" y1="41.012" x2="40.063" y2="35.516"/>
		<g>
			<polygon fill="#497CAD" points="35.708,40.624 35.049,39.872 39.971,35.551 33.422,35.697 33.398,34.698 42.693,34.489 			"/>
		</g>
	</g>
</g>
<g>
	<g>
		<line fill="none" stroke="#497CAD" stroke-width="2" stroke-miterlimit="10" x1="13.923" y1="62.145" x2="21.877" y2="49.26"/>
		<g>
			<polygon fill="#497CAD" points="21.479,55.961 20.499,55.758 21.826,49.343 16.686,53.404 16.066,52.619 23.361,46.855 			"/>
		</g>
	</g>
</g>
<g>
	<g>
		<line fill="none" stroke="#497CAD" stroke-width="2" stroke-miterlimit="10" x1="40.221" y1="26.866" x2="57.834" y2="18.431"/>
		<g>
			<polygon fill="#497CAD" points="53.877,23.853 53.162,23.152 57.746,18.473 51.229,19.111 51.13,18.116 60.383,17.21 			"/>
		</g>
	</g>
</g>
<g>
	<g>
		<line fill="none" stroke="#497CAD" stroke-width="2" stroke-miterlimit="10" x1="28.414" y1="49.538" x2="52.055" y2="44.909"/>
		<g>
			<polygon fill="#497CAD" points="46.863,49.166 46.35,48.311 51.958,44.928 45.486,43.912 45.643,42.925 54.827,44.366 			"/>
		</g>
	</g>
</g>
</svg>
