<?xml version="1.0" encoding="utf-8"?>
<!-- Generator: Adobe Illustrator 16.0.0, SVG Export Plug-In . SVG Version: 6.00 Build 0)  -->
<!DOCTYPE svg PUBLIC "-//W3C//DTD SVG 1.1//EN" "http://www.w3.org/Graphics/SVG/1.1/DTD/svg11.dtd">
<svg version="1.1" id="图层_1" xmlns="http://www.w3.org/2000/svg" xmlns:xlink="http://www.w3.org/1999/xlink" x="0px" y="0px"
	 width="219.531px" height="200px" viewBox="0 0 219.531 200" enable-background="new 0 0 219.531 200" xml:space="preserve">
<circle fill="#669E8B" cx="3.799" cy="155.423" r="3.799"/>
<path fill="#497CAD" d="M148.332,15.872c0,2.938,2.381,5.319,5.318,5.319s5.318-2.381,5.318-5.319s-2.381-5.319-5.318-5.319
	S148.332,12.934,148.332,15.872z"/>
<path fill="#CE6043" d="M167.749,15.872c0,2.938,2.382,5.319,5.318,5.319c2.938,0,5.319-2.381,5.319-5.319s-2.382-5.319-5.319-5.319
	C170.131,10.553,167.749,12.934,167.749,15.872z"/>
<path fill="#E6C27C" d="M126.788,187.333c0,1.959,1.588,3.547,3.545,3.547c1.959,0,3.547-1.588,3.547-3.547
	c0-1.957-1.588-3.545-3.547-3.545C128.376,183.788,126.788,185.376,126.788,187.333z"/>
<path fill="#E6C27C" d="M190.712,110.341c0,1.958,1.587,3.546,3.546,3.546c1.958,0,3.546-1.588,3.546-3.546l0,0
	c0-1.958-1.588-3.546-3.546-3.546C192.299,106.795,190.712,108.383,190.712,110.341z"/>
<path fill="#727272" d="M183.705,0H14.099C6.313,0,0,6.312,0,14.099l0,0v126.635c0,1.958,1.587,3.546,3.546,3.546
	c1.939-0.045,3.501-1.606,3.546-3.546V31.828h183.705v78.682h7.007V14.099C197.804,6.312,191.491,0,183.705,0z M190.797,24.736
	H7.092V14.099c0-3.87,3.137-7.007,7.007-7.007h169.606c3.884,0,7.045,3.124,7.092,7.007V24.736z M7.092,176.613v-6.247
	c0-1.958-1.588-3.546-3.546-3.546c-1.958,0-3.546,1.588-3.546,3.546v6.247c0.045,7.781,6.318,14.092,14.099,14.184h114.056v-7.092
	H14.099C10.215,183.658,7.091,180.497,7.092,176.613z"/>
<path fill="#727272" d="M31.912,95.229h24.82c4.97-0.046,8.987-4.063,9.033-9.033V68.129c-0.046-4.97-4.063-8.987-9.033-9.033
	h-24.82c-4.989,0-9.033,4.044-9.033,9.033l0,0v18.067C22.879,91.185,26.923,95.229,31.912,95.229L31.912,95.229z M27.353,68.129
	c0-2.471,2.002-4.475,4.474-4.475c0.029,0,0.057,0,0.085,0.001h24.82c2.471,0,4.475,2.003,4.475,4.474v18.067
	c0,2.471-2.003,4.474-4.475,4.474h-24.82c-2.485,0-4.513-1.99-4.559-4.474V68.129z M86.787,95.229h24.82
	c4.989,0,9.033-4.044,9.033-9.033V68.129c0-4.989-4.044-9.033-9.033-9.033h-24.82c-4.989,0-9.033,4.044-9.033,9.033l0,0v18.067
	C77.754,91.185,81.798,95.229,86.787,95.229L86.787,95.229z M82.228,68.129c0-2.471,2.003-4.475,4.474-4.475
	c0.029,0,0.057,0,0.085,0.001h24.82c2.471,0,4.475,2.003,4.475,4.474v18.067c0,2.471-2.004,4.474-4.475,4.474h-24.82
	c-2.485,0-4.513-1.99-4.559-4.474V68.129z M141.662,95.229h24.82c4.989,0,9.033-4.044,9.033-9.033V68.129
	c0-4.989-4.044-9.033-9.033-9.033h-24.82c-4.988,0-9.033,4.044-9.033,9.033v18.067C132.629,91.185,136.674,95.229,141.662,95.229z
	 M137.188,68.129c-0.047-2.424,1.88-4.427,4.305-4.474c0.057-0.001,0.113-0.001,0.17,0h24.82c2.424-0.047,4.428,1.88,4.475,4.304
	c0.001,0.057,0.001,0.114,0,0.17v18.067c0,2.471-2.004,4.474-4.475,4.474h-24.82c-2.471,0-4.475-2.003-4.475-4.474V68.129z
	 M86.787,165.301h24.82c4.989,0,9.033-4.045,9.033-9.033v-17.982c0-4.988-4.044-9.033-9.033-9.033h-24.82
	c-4.989,0-9.033,4.045-9.033,9.033v17.982C77.754,161.256,81.798,165.301,86.787,165.301z M82.228,138.285
	c0-2.518,2.042-4.559,4.559-4.559h24.82c2.484,0.046,4.475,2.073,4.475,4.559v17.982c0,2.484-1.99,4.513-4.475,4.559h-24.82
	c-2.518,0-4.559-2.041-4.559-4.559V138.285z M31.912,165.301h24.82c4.97-0.046,8.987-4.063,9.033-9.033v-17.982
	c-0.046-4.97-4.063-8.987-9.033-9.033h-24.82c-4.989,0-9.033,4.045-9.033,9.033v17.982
	C22.879,161.256,26.923,165.301,31.912,165.301z M27.353,138.285c0-2.518,2.041-4.559,4.559-4.559h24.82
	c2.485,0.046,4.475,2.073,4.475,4.559v17.982c0,2.484-1.99,4.513-4.475,4.559h-24.82c-2.518,0-4.559-2.041-4.559-4.559V138.285z"/>
<path fill="#727272" d="M44.238,92.781h0.169c2.308,0,3.461,1.154,3.461,3.461v31.996c0,2.309-1.154,3.462-3.461,3.462h-0.169
	c-2.308,0-3.461-1.153-3.461-3.462V96.242C40.776,93.935,41.93,92.781,44.238,92.781z"/>
<path fill="#727272" d="M99.113,92.781h0.169c2.308,0,3.461,1.154,3.461,3.461v31.996c0,2.309-1.154,3.462-3.461,3.462h-0.169
	c-2.308,0-3.461-1.153-3.461-3.462V96.242C95.651,93.935,96.805,92.781,99.113,92.781z"/>
<path fill="#727272" d="M80.118,77.163v0.169c0,2.308-1.154,3.461-3.461,3.461H66.188c-2.308,0-3.461-1.154-3.461-3.461v-0.169
	c0-2.307,1.154-3.461,3.461-3.461h10.468C78.964,73.701,80.118,74.855,80.118,77.163z"/>
<path fill="#727272" d="M135.33,77.078v0.169c0,2.308-1.153,3.461-3.461,3.461H121.4c-2.307,0-3.461-1.154-3.461-3.461v-0.169
	c0-2.307,1.154-3.461,3.461-3.461h10.469C134.177,73.617,135.33,74.771,135.33,77.078z"/>
<path fill="#727272" d="M80.202,147.234v0.168c0,2.309-1.154,3.462-3.461,3.462H66.272c-2.308,0-3.461-1.153-3.461-3.462v-0.168
	c0-2.309,1.154-3.462,3.461-3.462h10.468C79.048,143.772,80.202,144.926,80.202,147.234z"/>
<path fill="#497CAD" d="M171.873,141.426c0,4.491-3.675,8.166-8.166,8.166h-18.663c-4.491,0-8.166-3.675-8.166-8.166v-18.663
	c0-4.491,3.675-8.166,8.166-8.166h18.663c4.491,0,8.165,3.675,8.165,8.166L171.873,141.426L171.873,141.426z M218.531,188.085
	c0,4.49-3.674,8.165-8.165,8.165h-18.663c-4.491,0-8.166-3.675-8.166-8.165v-18.664c0-4.49,3.675-8.165,8.166-8.165h18.663
	c4.491,0,8.165,3.675,8.165,8.165V188.085z M218.531,141.426c0,4.491-3.674,8.166-8.165,8.166h-18.663
	c-4.491,0-8.166-3.675-8.166-8.166v-18.663c0-4.491,3.675-8.166,8.166-8.166h18.663c4.491,0,8.165,3.675,8.165,8.166V141.426z
	 M171.873,188.085c0,4.49-3.675,8.165-8.166,8.165h-18.663c-4.491,0-8.166-3.675-8.166-8.165v-18.664
	c0-4.49,3.675-8.165,8.166-8.165h18.663c4.491,0,8.165,3.675,8.165,8.165L171.873,188.085L171.873,188.085z"/>
</svg>
