<?xml version="1.0" standalone="no"?><!DOCTYPE svg PUBLIC "-//W3C//DTD SVG 1.1//EN" "http://www.w3.org/Graphics/SVG/1.1/DTD/svg11.dtd"><svg t="1628671844627" class="icon" viewBox="0 0 1024 1024" version="1.1" xmlns="http://www.w3.org/2000/svg" p-id="11441" xmlns:xlink="http://www.w3.org/1999/xlink" width="200" height="200"><defs><style type="text/css"></style></defs><path d="M575.716 1021.668c-17.18 0-32.996-3.983-48.242-11.947L396.06 936.448a98.816 98.816 0 0 1-52.224-87.893V430.99a20.708 20.708 0 0 0-7.964-15.815L32.028 171.406l-3.356-3.982C0.284 138.98-6.258 96.768 9.557 59.734A97.394 97.394 0 0 1 100.693 0.283h819.883a100.693 100.693 0 0 1 91.819 59.45c16.497 36.351 9.273 77.937-17.807 107.69l-3.982 3.982-307.94 246.386a21.106 21.106 0 0 0-7.281 15.929v487.538a98.987 98.987 0 0 1-99.726 100.409z m-491.52-909.71l302.592 241.777c23.78 19.172 37.66 47.56 37.66 77.938v417.564c0 7.225 3.3 14.507 9.899 17.807l131.413 72.02a22.414 22.414 0 0 0 20.48 0 20.821 20.821 0 0 0 9.956-17.862V434.347c0-30.379 13.198-58.823 36.977-77.938l303.218-244.452a20.366 20.366 0 0 0 1.991-21.162 19.911 19.911 0 0 0-17.806-11.207H100.693a18.773 18.773 0 0 0-17.806 11.207 20.196 20.196 0 0 0 1.309 21.162z" fill="#1574D4" p-id="11442"></path><path d="M980.708 526.791h-225.28a39.765 39.765 0 0 1-39.652-39.595c0-21.788 17.806-39.651 39.652-39.651h225.28c21.788 0 39.594 17.863 39.594 39.651a38.912 38.912 0 0 1-39.594 39.652z m0 149.333h-225.28a39.765 39.765 0 0 1-39.652-39.651c0-21.789 17.806-39.595 39.652-39.595h225.28c21.788 0 39.594 17.806 39.594 39.595a38.912 38.912 0 0 1-39.594 39.651z m0 148.651h-225.28a39.765 39.765 0 0 1-39.652-39.651c0-21.789 17.806-39.652 39.652-39.652h225.28c21.788 0 39.594 17.863 39.594 39.652a39.31 39.31 0 0 1-39.594 39.651z" fill="#1574D4" p-id="11443"></path></svg>