<?xml version="1.0" encoding="utf-8"?>
<!-- Generator: Adobe Illustrator 16.0.0, SVG Export Plug-In . SVG Version: 6.00 Build 0)  -->
<!DOCTYPE svg PUBLIC "-//W3C//DTD SVG 1.1//EN" "http://www.w3.org/Graphics/SVG/1.1/DTD/svg11.dtd">
<svg version="1.1" id="图层_1" xmlns="http://www.w3.org/2000/svg" xmlns:xlink="http://www.w3.org/1999/xlink" x="0px" y="0px"
	 width="200px" height="200px" viewBox="0 0 200 200" enable-background="new 0 0 200 200" xml:space="preserve">
<path fill="#FFFFFF" fill-opacity="0" d="M0,0h200v200H0V0z"/>
<path fill="#5280C1" d="M154.425,120.575l25,25c2.444,2.438,2.449,6.395,0.011,8.839c-0.003,0.004-0.007,0.008-0.011,0.011l-25,25
	l-8.85-8.85l14.313-14.325H125v-0.025l-68.75,0.025v31.25h-12.5v-31.25H12.5v-12.5l112.5-0.013v0.013h34.912l-14.337-14.325
	L154.425,120.575z M54.425,20.575l25,25l-8.85,8.85L56.25,40.075v103.662h-12.5V40.075l-14.325,14.35l-8.85-8.85l25-25
	c2.438-2.444,6.395-2.449,8.839-0.011C54.417,20.567,54.421,20.571,54.425,20.575z"/>
</svg>
