<?xml version="1.0" encoding="utf-8"?>
<!-- Generator: Adobe Illustrator 16.0.0, SVG Export Plug-In . SVG Version: 6.00 Build 0)  -->
<!DOCTYPE svg PUBLIC "-//W3C//DTD SVG 1.1//EN" "http://www.w3.org/Graphics/SVG/1.1/DTD/svg11.dtd">
<svg version="1.1" id="图层_1" xmlns="http://www.w3.org/2000/svg" xmlns:xlink="http://www.w3.org/1999/xlink" x="0px" y="0px"
	 width="64px" height="64px" viewBox="0 0 64 64" enable-background="new 0 0 64 64" xml:space="preserve">
<path fill="#BDCDE8" d="M59.656,7.374H4.343V3.917h55.313V7.374z"/>
<path fill="#BDCDE8" d="M4.343,56.041h55.313v3.457H4.343V56.041z"/>
<path fill="#CE6043" d="M56.354,16.017h-3.457v-3.458h3.457V16.017z"/>
<path fill="#CE6043" d="M56.354,22.93h-3.457v-3.457h3.457V22.93z"/>
<path fill="#CE6043" d="M56.354,29.844h-3.457v-3.457h3.457V29.844z"/>
<path fill="#CE6043" d="M56.354,36.759h-3.457v-3.458h3.457V36.759z"/>
<path fill="#CE6043" d="M56.354,43.672h-3.457v-3.457h3.457V43.672z"/>
<path fill="#BDCDE8" d="M13.443,52.584H16.9v3.457h-3.457V52.584z"/>
<path fill="#BDCDE8" d="M20.357,52.584h3.457v3.457h-3.457V52.584z"/>
<path fill="#BDCDE8" d="M27.271,52.584h3.457v3.457h-3.457V52.584z"/>
<path fill="#BDCDE8" d="M34.186,52.584h3.457v3.457h-3.457V52.584z"/>
<path fill="#BDCDE8" d="M41.1,52.584h3.457v3.457H41.1V52.584z"/>
<path fill="#BDCDE8" d="M48.014,52.584h3.457v3.457h-3.457V52.584z"/>
<path fill="#BDCDE8" d="M50.557,10.831H47.1V7.374h3.457V10.831z"/>
<path fill="#BDCDE8" d="M43.643,10.831h-3.457V7.374h3.457V10.831z"/>
<path fill="#BDCDE8" d="M36.729,10.831h-3.457V7.374h3.457V10.831z"/>
<path fill="#BDCDE8" d="M29.814,10.831h-3.457V7.374h3.457V10.831z"/>
<path fill="#BDCDE8" d="M22.9,10.831h-3.457V7.374H22.9V10.831z"/>
<path fill="#BDCDE8" d="M15.986,10.831h-3.457V7.374h3.457V10.831z"/>
<path fill="#BDCDE8" d="M4.343,4.188H7.8V59.5H4.343V4.188z"/>
<path fill="#BDCDE8" d="M7.802,47.672h3.457v3.457H7.802V47.672z"/>
<path fill="#BDCDE8" d="M7.802,40.758h3.457v3.457H7.802V40.758z"/>
<path fill="#BDCDE8" d="M7.802,33.844h3.457v3.457H7.802V33.844z"/>
<path fill="#BDCDE8" d="M7.802,26.93h3.457v3.457H7.802V26.93z"/>
<path fill="#BDCDE8" d="M7.802,20.016h3.457v3.457H7.802V20.016z"/>
<path fill="#CE6043" d="M56.354,50.586h-3.457v-3.457h3.457V50.586z"/>
<path fill="#BDCDE8" d="M7.802,13.102h3.457v3.457H7.802V13.102z"/>
<path fill="#CE6043" d="M62.013,59.5h-5.67V4.188h5.67V59.5z"/>
</svg>
