<?xml version="1.0" encoding="utf-8"?>
<!-- Generator: Adobe Illustrator 16.0.0, SVG Export Plug-In . SVG Version: 6.00 Build 0)  -->
<!DOCTYPE svg PUBLIC "-//W3C//DTD SVG 1.1//EN" "http://www.w3.org/Graphics/SVG/1.1/DTD/svg11.dtd">
<svg version="1.1" id="图层_1" xmlns="http://www.w3.org/2000/svg" xmlns:xlink="http://www.w3.org/1999/xlink" x="0px" y="0px"
	 width="64px" height="64px" viewBox="0 0 64 64" enable-background="new 0 0 64 64" xml:space="preserve">
<path fill="#727272" d="M49.04,58.333H14.961c-4.686,0-8.519-3.834-8.519-8.52V15.736c0-4.686,3.833-8.519,8.519-8.519H49.04
	c4.686,0,8.519,3.833,8.519,8.519v34.078C57.559,54.499,53.726,58.333,49.04,58.333z M14.961,11.477
	c-2.342,0-4.259,1.917-4.259,4.259v34.078c0,2.343,1.917,4.26,4.259,4.26H49.04c2.343,0,4.259-1.917,4.259-4.26V15.736
	c0-2.342-1.916-4.259-4.259-4.259H14.961z"/>
<path fill="#497CAD" d="M43.721,23.535H20.62c-1.386,0-2.31-0.924-2.31-2.311s0.924-2.31,2.31-2.31h23.101
	c1.386,0,2.31,0.924,2.31,2.31S45.106,23.535,43.721,23.535z"/>
<path fill="#497CAD" d="M20.62,25.844c-1.386,0-2.31-0.924-2.31-2.31v-2.311c0-1.386,0.924-2.31,2.31-2.31s2.31,0.924,2.31,2.31
	v2.311C22.93,24.92,22.005,25.844,20.62,25.844z"/>
<path fill="#497CAD" d="M43.721,25.844c-1.387,0-2.312-0.924-2.312-2.31v-2.311c0-1.386,0.925-2.31,2.312-2.31
	c1.386,0,2.31,0.924,2.31,2.31v2.311C46.03,24.92,45.106,25.844,43.721,25.844z"/>
<path fill="#497CAD" d="M32.17,46.635c-1.386,0-2.31-0.924-2.31-2.31V21.224c0-1.386,0.924-2.31,2.31-2.31
	c1.386,0,2.31,0.924,2.31,2.31v23.101C34.479,45.711,33.556,46.635,32.17,46.635z"/>
<path fill="#497CAD" d="M34.479,46.635h-4.62c-1.386,0-2.31-0.924-2.31-2.31c0-1.387,0.924-2.312,2.31-2.312h4.62
	c1.387,0,2.311,0.925,2.311,2.312C36.79,45.711,35.866,46.635,34.479,46.635z"/>
</svg>
