<?xml version="1.0" encoding="utf-8"?>
<!-- Generator: Adobe Illustrator 16.0.0, SVG Export Plug-In . SVG Version: 6.00 Build 0)  -->
<!DOCTYPE svg PUBLIC "-//W3C//DTD SVG 1.1//EN" "http://www.w3.org/Graphics/SVG/1.1/DTD/svg11.dtd">
<svg version="1.1" id="图层_1" xmlns="http://www.w3.org/2000/svg" xmlns:xlink="http://www.w3.org/1999/xlink" x="0px" y="0px"
	 width="64px" height="64px" viewBox="0 0 64 64" enable-background="new 0 0 64 64" xml:space="preserve">
<path fill="#727272" stroke="#727272" stroke-width="6" stroke-linecap="round" stroke-linejoin="round" stroke-miterlimit="10" d="
	M22.378,45.289L7.862,58.335 M41.796,52.789l-19.417-7.5 M59.228,22.955L41.796,52.789"/>
<path fill="#497CAD" d="M21.629,39.939C11.706,25.548,9.862,24.072,9.862,18.783c0-7.244,5.874-13.118,13.118-13.118
	c7.245,0,13.119,5.874,13.119,13.118c0,5.289-1.844,6.765-11.771,21.156C23.675,40.881,22.281,40.881,21.629,39.939z M22.98,24.248
	c3.019,0,5.467-2.449,5.467-5.468c0-3.019-2.449-5.468-5.467-5.468s-5.467,2.449-5.467,5.468
	C17.513,21.799,19.962,24.248,22.98,24.248z"/>
</svg>
