<?xml version="1.0" encoding="utf-8"?>
<!-- Generator: Adobe Illustrator 16.0.0, SVG Export Plug-In . SVG Version: 6.00 Build 0)  -->
<!DOCTYPE svg PUBLIC "-//W3C//DTD SVG 1.1//EN" "http://www.w3.org/Graphics/SVG/1.1/DTD/svg11.dtd">
<svg version="1.1" id="图层_1" xmlns="http://www.w3.org/2000/svg" xmlns:xlink="http://www.w3.org/1999/xlink" x="0px" y="0px"
	 width="200px" height="173px" viewBox="0 6.5 200 173" enable-background="new 0 6.5 200 173" xml:space="preserve">
<path fill="#5280C1" d="M198.249,90.334c-3.062-3.528-6.323-6.944-9.696-10.184c4.504-3.128,8.032-5.813,8.742-6.368
	c3.462-2.152,4.594-6.679,2.508-10.184c-2.108-3.506-6.746-4.727-10.361-2.729l-0.156,0.088l-0.155,0.111
	c-0.066,0.044-5.569,4.171-12.358,8.675c-8.121-6.679-16.886-12.603-26.115-17.662l7.521-13.047c1.02-1.731,1.287-3.75,0.775-5.681
	c-0.51-1.952-1.774-3.572-3.527-4.593l-0.066-0.044c-3.661-1.975-8.187-0.754-10.295,2.796l-8.122,14.111
	c-8.963-3.616-18.371-5.924-28.001-6.856V26.587c0-4.149-3.439-7.522-7.654-7.522c-4.216,0-7.656,3.373-7.656,7.522V38.48
	c-9.718,0.932-19.237,3.173-28.356,6.656l-7.789-13.491l-0.021-0.044c-2.108-3.506-6.746-4.727-10.362-2.729l-0.044,0.022
	c-1.753,1.021-3.018,2.641-3.528,4.594c-0.51,1.93-0.244,3.949,0.776,5.68l6.967,11.915c-7.61,3.794-14.955,8.21-21.9,13.114
	c-2.884-1.953-5.103-3.617-6.923-4.992c-1.93-1.443-3.328-2.485-4.571-3.173c-3.639-1.975-8.143-0.754-10.251,2.751
	c-1.131,1.752-1.486,3.905-0.954,5.902c0.51,1.953,1.797,3.639,3.572,4.637c0.666,0.511,3.218,2.418,6.657,4.859
	c-4.349,3.617-8.542,7.5-12.448,11.538l-0.133,0.133l-0.111,0.155c-2.019,2.796-4.548,9.274,0.377,13.757
	c2.418,2.197,4.749,1.664,5.925,1.131c1.397-0.599,2.574-1.73,3.971-3.039c0.178-0.178,0.355-0.355,0.555-0.533l0.111-0.11
	l0.111-0.111c4.704-5.547,9.984-10.628,15.732-15.11l6.257-4.77c7.478-5.458,15.532-10.207,23.963-14.068l8.832-3.661
	c10.029-3.661,20.546-5.569,31.242-5.658c40.182,0,75.64,34.325,85.957,47.616c1.354,1.864,3.483,4.327,6.391,4.526
	c0.11,0,0.244,0.023,0.354,0.023c1.131,0,2.685-0.355,4.149-1.887l0.11-0.111l0.089-0.11c3.063-3.972,3.063-9.497,0-13.468
	L198.249,90.334L198.249,90.334z"/>
<path fill="#5280C1" d="M162.526,93.409c-8.965-6.856-18.105-12.358-27.181-16.286c-11.516-5.014-22.987-7.544-34.037-7.544
	c-11.049,0-22.499,2.53-34.015,7.544c-9.075,3.95-18.217,9.43-27.181,16.286c-15.177,11.626-24.541,23.142-24.94,23.608
	l-2.418,2.974l2.396,2.973c0.399,0.489,9.74,11.982,24.896,23.609c8.964,6.879,18.105,12.358,27.18,16.286
	c11.538,5.015,22.988,7.544,34.06,7.544c11.071,0,22.543-2.529,34.059-7.544c9.075-3.949,18.239-9.431,27.181-16.286
	c15.177-11.627,24.518-23.143,24.895-23.609l2.396-2.973l-2.374-2.95C187.044,116.551,177.681,105.035,162.526,93.409z"/>
<path fill="#BDCDE8" d="M156.18,139.161c-12.913,9.874-32.927,21.634-54.916,21.634c-21.988,0-42.002-11.76-54.916-21.634
	c-9.83-7.5-17.152-15.089-20.813-19.148c8.675-9.586,38.097-39.029,72.666-40.716c-17.306,1.531-30.93,15.976-30.93,33.505
	c0,18.55,15.243,33.637,33.992,33.637c18.749,0,33.993-15.087,33.993-33.637c0-8.965-3.528-17.396-9.918-23.742
	c-5.637-5.591-13.181-9.053-21.102-9.763c20.791,0.999,39.584,12.137,51.898,21.545c9.83,7.5,17.174,15.11,20.835,19.148
	C173.354,124.051,166.01,131.661,156.18,139.161L156.18,139.161z"/>
</svg>
