<?xml version="1.0" encoding="utf-8"?>
<!-- Generator: Adobe Illustrator 16.0.0, SVG Export Plug-In . SVG Version: 6.00 Build 0)  -->
<!DOCTYPE svg PUBLIC "-//W3C//DTD SVG 1.1//EN" "http://www.w3.org/Graphics/SVG/1.1/DTD/svg11.dtd">
<svg version="1.1" id="图层_1" xmlns="http://www.w3.org/2000/svg" xmlns:xlink="http://www.w3.org/1999/xlink" x="0px" y="0px"
	 width="64px" height="64px" viewBox="0 0 64 64" enable-background="new 0 0 64 64" xml:space="preserve">
<path fill="#497CAD" d="M26.667,37.334H13.333c-1.779-0.305-2.667-1.195-2.667-2.668c0-1.471,0.888-2.362,2.667-2.666H32v18.666
	c0,1.779-0.888,2.668-2.667,2.668c-1.779,0-2.667-0.889-2.667-2.668V37.334z M40,24h13.334C55.111,24.304,56,25.195,56,26.667
	c0,1.472-0.889,2.363-2.666,2.667H34.666V10.667C34.666,8.888,35.555,8,37.334,8C39.111,8,40,8.888,40,10.667V24z"/>
<path opacity="0.3" fill="#727272" enable-background="new    " d="M10.344,49.885l7.542-7.541c1.06-1.023,2.748-0.994,3.771,0.066
	c0.998,1.033,0.998,2.671,0,3.705l-7.542,7.538c-1.06,1.022-2.748,0.993-3.771-0.065c-0.998-1.033-0.998-2.672,0-3.705V49.885z
	 M45.011,15.219l7.541-7.542c1.023-1.059,2.712-1.088,3.771-0.065c1.06,1.023,1.089,2.711,0.066,3.771
	c-0.021,0.022-0.044,0.044-0.066,0.066l-7.541,7.539c-1.023,1.059-2.711,1.088-3.771,0.065s-1.089-2.711-0.065-3.771
	c0.021-0.022,0.043-0.044,0.065-0.066V15.219z"/>
</svg>
