<?xml version="1.0" encoding="utf-8"?>
<!-- Generator: Adobe Illustrator 16.0.0, SVG Export Plug-In . SVG Version: 6.00 Build 0)  -->
<!DOCTYPE svg PUBLIC "-//W3C//DTD SVG 1.1//EN" "http://www.w3.org/Graphics/SVG/1.1/DTD/svg11.dtd">
<svg version="1.1" id="图层_1" xmlns="http://www.w3.org/2000/svg" xmlns:xlink="http://www.w3.org/1999/xlink" x="0px" y="0px"
	 width="64px" height="64px" viewBox="0 0 64 64" enable-background="new 0 0 64 64" xml:space="preserve">
<path fill="#497CAD" d="M56,39.162c0-0.35-0.182-0.673-0.48-0.854L44.742,31.74c-0.426-0.26-0.979-0.166-1.294,0.22l-4.75,5.788
	l-0.064,0.072c-0.39,0.391-1.022,0.392-1.413,0.002L21.418,22.068c-0.378-0.376-0.985-0.39-1.38-0.032L8.328,32.702
	C8.119,32.891,8,33.16,8,33.441V50h48V39.162z"/>
<path fill="#CE6043" d="M46,20c0,2.209,1.791,4,4,4s4-1.791,4-4s-1.791-4-4-4S46,17.791,46,20z"/>
<path fill="#727272" d="M2,8v48h60V8H2z M58,52H6V12h52V52z"/>
</svg>
