<?xml version="1.0" encoding="utf-8"?>
<!-- Generator: Adobe Illustrator 16.0.0, SVG Export Plug-In . SVG Version: 6.00 Build 0)  -->
<!DOCTYPE svg PUBLIC "-//W3C//DTD SVG 1.1//EN" "http://www.w3.org/Graphics/SVG/1.1/DTD/svg11.dtd">
<svg version="1.1" id="图层_1" xmlns="http://www.w3.org/2000/svg" xmlns:xlink="http://www.w3.org/1999/xlink" x="0px" y="0px"
	 width="64px" height="64px" viewBox="0 0 64 64" enable-background="new 0 0 64 64" xml:space="preserve">
<path fill="#497CAD" d="M18.375,32C10.85,32,4.75,38.101,4.75,45.625s6.1,13.625,13.625,13.625S32,53.149,32,45.625
	S25.9,32,18.375,32L18.375,32z"/>
<path fill="#CE6043" d="M58.718,26.161L47.336,6.697c-1.115-1.885-3.548-2.509-5.434-1.395c-0.575,0.34-1.054,0.82-1.395,1.395
	L29.126,26.161C27.61,28.756,29.507,32,32.543,32h22.759C58.337,32,60.233,28.756,58.718,26.161z"/>
<path fill="#669E8B" d="M55.844,35.406H38.813c-1.881,0-3.406,1.525-3.406,3.406l0,0v17.031c0,1.881,1.525,3.406,3.406,3.406l0,0
	h17.031c1.881,0,3.406-1.525,3.406-3.406l0,0V38.813C59.25,36.932,57.725,35.406,55.844,35.406L55.844,35.406z"/>
</svg>
