<?xml version="1.0" encoding="utf-8"?>
<!-- Generator: Adobe Illustrator 16.0.0, SVG Export Plug-In . SVG Version: 6.00 Build 0)  -->
<!DOCTYPE svg PUBLIC "-//W3C//DTD SVG 1.1//EN" "http://www.w3.org/Graphics/SVG/1.1/DTD/svg11.dtd">
<svg version="1.1" id="图层_1" xmlns="http://www.w3.org/2000/svg" xmlns:xlink="http://www.w3.org/1999/xlink" x="0px" y="0px"
	 width="200px" height="200px" viewBox="0 0 200 200" enable-background="new 0 0 200 200" xml:space="preserve">
<path fill="#E6C27C" d="M142.402,98.047c22.246,35.371,26.191-75.723,39.414,8.965v56.016H15.117v-39.668
	c0,0,7.598-5.273,13.457-41.152s24.238-63.574,37.207-13.184c0,0,12.988,43.105,26.035,20.82S109.238,45.313,142.402,98.047z"/>
<path fill="#669E8B" d="M142.402,98.047c-33.164-52.734-37.539-30.488-50.586-8.203s-26.035-20.82-26.035-20.82
	C52.813,18.633,34.453,46.328,28.574,82.207s-13.457,41.152-13.457,41.152v19.531c0,0,7.598-5.273,13.457-41.152
	s24.238-63.574,37.207-13.184c0,0,12.988,43.105,26.035,20.82s17.422-44.512,50.586,8.203c22.246,35.371,26.191-75.723,39.414,8.965
	v-19.531C168.594,22.324,164.648,133.418,142.402,98.047z"/>
<path fill="#727272" d="M181.816,166.934H15.117c-2.148,0-3.906-1.758-3.906-3.906v-39.668c0-1.211,0.547-2.344,1.504-3.066
	c0.391-0.391,6.855-7.148,12.012-38.711c1.836-11.25,4.883-21.66,8.555-29.336c4.512-9.414,9.707-14.316,15.43-14.59
	c4.492-0.195,8.574,2.461,12.109,7.891c3.242,4.961,6.172,12.5,8.73,22.422c0.215,0.703,2.09,6.66,4.922,12.617
	c5.117,10.742,8.594,11.66,9.238,11.738c1.25,0.156,3.027-1.523,4.746-4.453c1.406-2.402,2.734-4.844,4.004-7.188
	c2.52-4.668,4.922-9.063,7.559-12.402c3.418-4.316,7.051-6.484,11.094-6.602h0.391c8.984,0,18.945,10,34.219,34.297
	c2.734,4.355,4.688,5.43,5.391,5.371c0.273-0.02,1.719-0.332,4.16-4.395c1.973-3.281,3.77-7.578,5.488-11.719
	c1.445-3.457,2.813-6.719,4.199-9.199c0.918-1.641,3.379-5.996,7.676-5.469c4.219,0.508,6.289,5.43,7.754,10.176
	c1.699,5.508,3.418,13.926,5.273,25.723c0.039,0.195,0.039,0.41,0.039,0.605v56.016
	C185.723,165.195,183.965,166.934,181.816,166.934L181.816,166.934z M19.023,159.121H177.91v-51.816
	c-1.523-9.707-2.93-16.914-4.297-22.031c-0.723-2.656-1.328-4.375-1.797-5.488c-0.215,0.371-0.449,0.82-0.723,1.367
	c-0.977,1.953-2.012,4.434-3.105,7.051c-4.16,9.961-8.438,20.254-16.23,20.898c-6.641,0.547-11.172-6.621-12.656-8.984
	c-16.074-25.547-23.965-30.762-27.754-30.645c-4.004,0.137-7.91,7.324-12.031,14.922c-1.309,2.402-2.656,4.883-4.121,7.402
	c-3.535,6.035-7.715,8.828-12.402,8.262c-5.488-0.645-10.527-5.957-15.391-16.211c-3.242-6.836-5.254-13.438-5.332-13.711
	c-0.02-0.059-0.02-0.098-0.039-0.156c-4.688-18.125-9.844-24.512-12.871-24.512h-0.098c-1.914,0.078-5.215,2.793-8.73,10.156
	c-3.359,7.031-6.172,16.699-7.891,27.227c-4.629,28.262-10.449,38.535-13.418,42.09V159.121z"/>
<path fill="#5280C1" d="M14.844,154.336c0,0,13.145-3.574,18.496-40.098c0,0,10.215-40.586,32.832,2.5
	c0,0,18.73,46.211,35.039-4.688c0,0,11.914-61.816,40.137-10.625c0,0,21.406,44.336,33.32,11.543c0,0,4.141-6.563,7.539,0.313
	v64.004H14.844V154.336z"/>
<path fill="#BDCDE8" d="M174.668,112.988c-11.914,32.773-33.32-11.543-33.32-11.543c-28.223-51.211-40.137,10.625-40.137,10.625
	c-16.289,50.898-35.039,4.688-35.039,4.688c-22.637-43.125-32.852-2.52-32.852-2.52c-5.352,36.523-18.496,40.098-18.496,40.098
	v12.656c3.867-2.559,12.461-11.27,16.543-39.102c0,0,10.215-40.586,32.832,2.5c0,0,18.73,46.211,35.039-4.688
	c0,0,11.914-61.816,40.137-10.625c0,0,21.406,44.336,33.32,11.543c0,0,4.141-6.563,7.539,0.313v50.332h1.953v-63.965
	C178.789,106.426,174.668,112.988,174.668,112.988L174.668,112.988z"/>
<path fill="#727272" d="M182.207,181.211H14.844c-2.148,0-3.906-1.758-3.906-3.906v-22.969c0-1.855,0.996-3.379,2.793-3.75
	c0.938-0.41,11.152-5.684,15.723-36.914c0.02-0.137,0.039-0.254,0.078-0.391c0.039-0.176,1.152-4.531,3.438-9.043
	c3.438-6.797,7.695-10.547,12.695-11.152c7.91-0.938,15.742,6.191,23.945,21.836c0.059,0.117,0.117,0.234,0.156,0.352
	c0.02,0.039,1.914,4.668,4.922,9.141c3.32,4.941,6.719,7.734,9.297,7.637c2.031-0.078,7.383-2.285,13.398-20.977
	c0.273-1.367,1.719-8.086,4.492-15.117c4.473-11.27,10.098-17.52,16.758-18.555c8.594-1.348,17.129,5.898,26.094,22.168
	c0.039,0.059,0.059,0.117,0.098,0.195c0.02,0.059,2.871,5.879,6.914,11.523c6.582,9.141,10.547,9.961,11.953,9.902
	c2.5-0.137,5.098-3.496,7.266-9.512c0.098-0.254,0.215-0.508,0.371-0.742c0.508-0.82,3.301-4.863,7.598-4.629
	c1.934,0.098,4.668,1.094,6.738,5.293c0.273,0.547,0.41,1.133,0.41,1.738v64.004C186.113,179.453,184.355,181.211,182.207,181.211
	L182.207,181.211z M18.75,173.398h159.551v-58.75c-0.059,0.059-0.098,0.117-0.156,0.176c-3.398,9.082-8.125,13.828-14.043,14.141
	c-0.195,0-0.371,0.02-0.566,0.02c-5.781,0-11.895-4.453-18.184-13.242c-4.18-5.82-7.07-11.621-7.5-12.5
	c-6.777-12.266-13.32-18.867-17.988-18.125c-3.574,0.566-7.48,5.566-10.703,13.73c-2.793,7.031-4.121,13.887-4.141,13.965
	c-0.039,0.156-0.059,0.313-0.117,0.449c-5.625,17.598-12.383,26.289-20.625,26.602c-5.605,0.215-11.055-3.555-16.152-11.191
	c-3.086-4.629-5.098-9.258-5.527-10.254c-8.711-16.523-14.102-17.773-16.035-17.539c-4.473,0.527-8.301,9.805-9.434,14.16
	c-4.277,28.984-13.594,38.613-18.418,41.719v16.641H18.75z"/>
<path fill="#727272" d="M185.313,181.465H14.688c-2.148,0-3.906-1.758-3.906-3.906V22.441c0-2.148,1.758-3.906,3.906-3.906
	s3.906,1.758,3.906,3.906v151.211h166.699c2.148,0,3.906,1.758,3.906,3.906S187.461,181.465,185.313,181.465z"/>
</svg>
