<?xml version="1.0" encoding="utf-8"?>
<!-- Generator: Adobe Illustrator 16.0.0, SVG Export Plug-In . SVG Version: 6.00 Build 0)  -->
<!DOCTYPE svg PUBLIC "-//W3C//DTD SVG 1.1//EN" "http://www.w3.org/Graphics/SVG/1.1/DTD/svg11.dtd">
<svg version="1.1" id="图层_1" xmlns="http://www.w3.org/2000/svg" xmlns:xlink="http://www.w3.org/1999/xlink" x="0px" y="0px"
	 width="64px" height="64px" viewBox="0 0 64 64" enable-background="new 0 0 64 64" xml:space="preserve">
<path fill="#CE6043" d="M38,11v3.522H15.09V11H38z"/>
<path fill="#E6C27C" d="M30.217,16.08v3.522H15.09V16.08H30.217L30.217,16.08z"/>
<path fill="#80559F" d="M27.313,21.16v3.522H15.09V21.16H27.313z"/>
<path fill="#669E8B" d="M35.758,26.24v3.522H15.09V26.24H35.758z"/>
<path fill="#727272" stroke="#727272" stroke-width="0.75" stroke-miterlimit="10" d="M11,58.5c-0.276,0-0.5-0.224-0.5-0.5V6
	c0-0.276,0.224-0.5,0.5-0.5s0.5,0.224,0.5,0.5v52C11.5,58.276,11.276,58.5,11,58.5z"/>
<path fill="#497CAD" d="M12.5,53l6.5-9.668l6.5-3.25l6.5,2.822l6.5-8.994l6.5,0.758L51.5,17.5V53H12.5z"/>
<path fill="#BDCDE8" d="M31.25,45.785l6.5,2.822l6.5-8.995l6.5,0.758l0.75-1.982V17.5L45,34.668l-6.5-0.758L32,42.904l-6.5-2.822
	l-6.5,3.25l-4.348,6.465l9.593-0.012l0.505-0.75L31.25,45.785z"/>
<path fill="#497CAD" d="M51.5,53.5h-39c-0.276,0-0.5-0.223-0.501-0.499c0-0.101,0.03-0.198,0.086-0.28l6.5-9.668
	c0.049-0.072,0.115-0.129,0.192-0.168l6.5-3.25c0.134-0.063,0.289-0.063,0.423,0l6.13,2.662l6.266-8.67
	c0.105-0.146,0.282-0.223,0.462-0.202l6.112,0.713l6.363-16.803c0.098-0.258,0.386-0.388,0.645-0.291
	c0.189,0.072,0.317,0.252,0.322,0.456V53C52,53.276,51.776,53.5,51.5,53.5z M13.438,52.5H51V20.232l-5.533,14.609
	c-0.08,0.215-0.297,0.348-0.524,0.32l-6.208-0.723l-6.327,8.75c-0.138,0.191-0.39,0.26-0.605,0.166l-6.285-2.73l-6.175,3.098
	L13.438,52.5z"/>
<path fill="#727272" stroke="#727272" stroke-width="0.75" stroke-miterlimit="10" d="M58,53.5H6c-0.276,0-0.5-0.224-0.5-0.5
	s0.224-0.5,0.5-0.5h52c0.276,0,0.5,0.224,0.5,0.5S58.276,53.5,58,53.5z"/>
<path fill="#D4FFD4" d="M7,57.5c0,0.139,0.112,0.25,0.25,0.25S7.5,57.639,7.5,57.5s-0.112-0.25-0.25-0.25S7,57.361,7,57.5z"/>
<path fill="#FFF4C5" d="M24.25,58.25c0,0.139,0.112,0.25,0.25,0.25s0.25-0.111,0.25-0.25S24.638,58,24.5,58
	S24.25,58.111,24.25,58.25z"/>
</svg>
