<?xml version="1.0" encoding="utf-8"?>
<!-- Generator: Adobe Illustrator 16.0.0, SVG Export Plug-In . SVG Version: 6.00 Build 0)  -->
<!DOCTYPE svg PUBLIC "-//W3C//DTD SVG 1.1//EN" "http://www.w3.org/Graphics/SVG/1.1/DTD/svg11.dtd">
<svg version="1.1" id="图层_1" xmlns="http://www.w3.org/2000/svg" xmlns:xlink="http://www.w3.org/1999/xlink" x="0px" y="0px"
	 width="64px" height="64px" viewBox="0 0 64 64" enable-background="new 0 0 64 64" xml:space="preserve">
<path fill="#727272" fill-opacity="0.65" d="M31.751,39.001c3.866-0.001,7-3.137,6.999-7.003c0-0.202-0.009-0.404-0.026-0.606
	l-7.583,7.581c0.201,0.018,0.404,0.026,0.61,0.026V39.001z M54.921,10.347L52.25,7.68c-0.194-0.196-0.51-0.196-0.706-0.001
	c0,0-0.001,0.001-0.001,0.001l-6.832,6.833c-3.769-1.925-8.006-2.887-12.711-2.887c-12.013,0-20.974,6.258-26.887,18.768
	c-0.481,1.02-0.481,2.201,0,3.22c2.363,4.978,5.209,8.966,8.533,11.964l-6.611,6.61c-0.195,0.194-0.196,0.511-0.001,0.706
	c0,0.001,0,0.001,0.001,0.002l2.668,2.666c0.195,0.195,0.511,0.196,0.707,0.002c0-0.001,0-0.002,0.001-0.002l44.51-44.506
	c0.195-0.195,0.196-0.511,0.001-0.707c0,0,0-0.001-0.001-0.001V10.347z M20.752,32c0.001-6.077,4.929-11.001,11.006-11
	c1.804,0,3.58,0.444,5.172,1.293l-3.038,3.04c-3.684-1.18-7.627,0.85-8.807,4.534c-0.445,1.39-0.445,2.883,0,4.273l-3.04,3.04
	C21.192,35.587,20.749,33.807,20.752,32z"/>
<path fill="#727272" fill-opacity="0.65" d="M58.887,30.388c-2.201-4.633-4.817-8.413-7.855-11.335l-9.008,9.01
	c2.171,5.678-0.672,12.041-6.35,14.211c-2.531,0.969-5.331,0.969-7.862,0l-7.641,7.641c3.544,1.64,7.488,2.461,11.829,2.461
	c12.013,0,20.975-6.258,26.887-18.77C59.368,32.586,59.368,31.406,58.887,30.388z"/>
<path fill="#497CAD" fill-opacity="0.65" d="M28.036,37.935C29.112,38.609,30.386,39,31.75,39c3.866,0,7-3.134,7-7
	c0-1.364-0.391-2.638-1.065-3.714"/>
<path fill="#497CAD" fill-opacity="0.65" d="M33.894,25.334C33.218,25.117,32.498,25,31.75,25c-3.866,0-7,3.134-7,7l0,0l0,0
	c0,0.748,0.117,1.468,0.334,2.144"/>
</svg>
