<?xml version="1.0" encoding="utf-8"?>
<!-- Generator: Adobe Illustrator 16.0.0, SVG Export Plug-In . SVG Version: 6.00 Build 0)  -->
<!DOCTYPE svg PUBLIC "-//W3C//DTD SVG 1.1//EN" "http://www.w3.org/Graphics/SVG/1.1/DTD/svg11.dtd">
<svg version="1.1" id="图层_1" xmlns="http://www.w3.org/2000/svg" xmlns:xlink="http://www.w3.org/1999/xlink" x="0px" y="0px"
	 width="200px" height="171px" viewBox="0 10.5 200 171" enable-background="new 0 10.5 200 171" xml:space="preserve">
<path fill="#5280C1" d="M192.431,88.392c-0.042-0.021-0.085-0.042-0.105-0.085c-0.786-0.594-3.608-2.716-7.3-5.263
	c-0.34-0.233-0.425-0.573-0.425-0.742c-0.021-0.17,0-0.488,0.297-0.785c2.864-2.759,5.646-5.645,8.276-8.615
	c0.127-0.128,0.212-0.255,0.318-0.382c2.652-3.522,2.759-8.318,0.254-11.947c-0.424-0.615-0.934-1.146-1.527-1.549
	c-1.146-0.807-2.483-1.104-3.819-0.891c-2.547,0.403-4.414,2.568-5.603,4.181c-9.825,12.435-43.564,44.604-81.824,44.625
	c-10.185-0.105-20.18-1.888-29.729-5.306l-8.424-3.416c-8.021-3.628-15.703-8.064-22.812-13.199l-5.963-4.478
	c-5.411-4.159-10.419-8.871-14.854-14.005c-0.148-0.17-0.297-0.339-0.467-0.488l-0.382-0.36c-1.315-1.231-2.44-2.292-3.777-2.865
	c-1.125-0.488-3.353-0.976-5.645,1.061c-4.032,3.607-3.013,8.764-0.7,12.393c0.233,0.361,0.51,0.701,0.807,1.019
	c3.374,3.395,6.939,6.684,10.631,9.762c0.318,0.275,0.361,0.615,0.361,0.785s-0.064,0.51-0.424,0.764
	c-2.695,1.91-4.689,3.374-5.242,3.777c-0.021,0-0.042,0.021-0.148,0.085c-1.655,0.955-2.822,2.482-3.289,4.286
	c-0.509,1.889-0.169,3.904,0.912,5.538c2.017,3.289,6.303,4.414,9.762,2.568c1.188-0.637,2.503-1.613,4.35-2.971
	c1.571-1.168,3.522-2.61,5.984-4.266c0.361-0.255,0.849-0.233,1.231,0.021c6.111,4.222,12.604,8.042,19.268,11.374
	c0.34,0.171,0.488,0.467,0.53,0.616c0.043,0.148,0.106,0.444-0.084,0.763l-6.09,10.249c-0.976,1.613-1.231,3.523-0.743,5.327
	c0.488,1.825,1.676,3.353,3.374,4.307l0.042,0.022c3.438,1.889,7.851,0.742,9.867-2.547l6.981-11.926
	c0.254-0.445,0.806-0.615,1.294-0.445c8.106,2.971,16.573,4.924,25.188,5.814c0.552,0.064,0.955,0.488,0.955,0.998v10.355
	c0,3.883,3.268,7.065,7.278,7.065c4.011,0,7.278-3.162,7.278-7.065v-10.526c0-0.509,0.404-0.934,0.956-0.996
	c8.509-0.893,16.869-2.908,24.827-5.985c0.487-0.19,1.062,0,1.315,0.424l7.257,12.415l0.021,0.021
	c2.016,3.332,6.303,4.478,9.783,2.632l0.063-0.043c1.676-0.955,2.864-2.482,3.354-4.307c0.488-1.805,0.233-3.693-0.744-5.307
	l-6.641-11.372c-0.276-0.468-0.106-1.083,0.402-1.358c8.213-4.478,16.064-9.719,23.343-15.555c0.36-0.297,0.892-0.318,1.273-0.064
	c5.325,3.501,9.654,6.621,10.843,7.512c0.403,0.297,0.807,0.531,1.231,0.701c3.373,1.421,7.32,0.189,9.188-2.887
	C196.718,94.609,195.699,90.45,192.431,88.392z"/>
</svg>
