<?xml version="1.0" encoding="utf-8"?>
<!-- Generator: Adobe Illustrator 16.0.0, SVG Export Plug-In . SVG Version: 6.00 Build 0)  -->
<!DOCTYPE svg PUBLIC "-//W3C//DTD SVG 1.1//EN" "http://www.w3.org/Graphics/SVG/1.1/DTD/svg11.dtd">
<svg version="1.1" id="图层_1" xmlns="http://www.w3.org/2000/svg" xmlns:xlink="http://www.w3.org/1999/xlink" x="0px" y="0px"
	 width="64px" height="64px" viewBox="0 0 64 64" enable-background="new 0 0 64 64" xml:space="preserve">
<path fill="#727272" d="M30.445,7.537h6.662v2.211h-6.662V7.537z"/>
<path fill="#727272" d="M33.104,8.657h1.344v46.156h-1.344V8.657z"/>
<path fill="#727272" d="M30.445,54.253h6.662v2.211h-6.662V54.253z M12.645,11.987h6.661v2.21h-6.661V11.987z"/>
<path fill="#727272" d="M15.332,12.378h1.315v35.941h-1.315V12.378z"/>
<path fill="#727272" d="M12.645,47.59h6.661v2.212h-6.661V47.59z M48.248,14.226h6.662v2.21h-6.662V14.226z"/>
<path fill="#727272" d="M50.907,14.758h1.344v29.53h-1.344V14.758z"/>
<rect x="48.248" y="43.141" fill="#727272" width="6.662" height="2.212"/>
<g>
	<rect x="10.432" y="26.206" fill="#669E8B" width="11.112" height="17.41"/>
	<rect x="28.207" y="23.294" fill="#669E8B" width="11.11" height="26.115"/>
	<rect x="46.009" y="26.206" fill="#669E8B" width="11.111" height="11.615"/>
</g>
<path fill="#CE6043" d="M10.432,17.501h11.112v8.705H10.432V17.501z M28.207,14.619h11.11v8.706h-11.11V14.619z M46.009,20.412
	H57.12v5.794H46.009V20.412z"/>
</svg>
