<?xml version="1.0" encoding="utf-8"?>
<!-- Generator: Adobe Illustrator 16.0.0, SVG Export Plug-In . SVG Version: 6.00 Build 0)  -->
<!DOCTYPE svg PUBLIC "-//W3C//DTD SVG 1.1//EN" "http://www.w3.org/Graphics/SVG/1.1/DTD/svg11.dtd">
<svg version="1.1" id="图层_1" xmlns="http://www.w3.org/2000/svg" xmlns:xlink="http://www.w3.org/1999/xlink" x="0px" y="0px"
	 width="64px" height="64px" viewBox="0 0 64 64" enable-background="new 0 0 64 64" xml:space="preserve">
<path fill="#727272" fill-opacity="0.65" d="M58.887,30.388C52.963,17.908,44.009,11.625,32,11.625
	c-12.013,0-20.962,6.281-26.887,18.768c-0.481,1.019-0.481,2.201,0,3.219C11.04,46.092,19.993,52.375,32,52.375
	c12.012,0,20.963-6.281,26.887-18.768C59.369,32.594,59.369,31.418,58.887,30.388z"/>
<circle fill="#FFFFFF" fill-opacity="0.65" cx="31.751" cy="32" r="11.001"/>
<path fill="#497CAD" fill-opacity="0.65" d="M24.75,32c0,3.866,3.134,7,7,7c3.866,0,7-3.134,7-7s-3.134-7-7-7
	C27.884,25,24.75,28.134,24.75,32L24.75,32L24.75,32z"/>
</svg>
