<?xml version="1.0" standalone="no"?><!DOCTYPE svg PUBLIC "-//W3C//DTD SVG 1.1//EN" "http://www.w3.org/Graphics/SVG/1.1/DTD/svg11.dtd"><svg t="1768905630549" class="icon" viewBox="0 0 1024 1024" version="1.1" xmlns="http://www.w3.org/2000/svg" p-id="6532" xmlns:xlink="http://www.w3.org/1999/xlink" width="200" height="200"><path d="M511.589 956.593l-468.8-252.5 468.8-252.5 468.8 252.5-468.8 252.5z" fill="#FFFFFF" p-id="6533"></path><path d="M511.6 996.767c-6.7 0-13.2-1.7-19.1-4.8l-468.8-252.6c-13-7-21.1-20.6-21.1-35.4 0-14.8 8.1-28.4 21.1-35.4l468.8-252.5c11.9-6.4 26.2-6.4 38.1 0l468.8 252.5c13 7 21.1 20.6 21.1 35.4 0 14.8-8.1 28.3-21.1 35.4l-468.8 252.6c-5.9 3.1-12.4 4.8-19 4.8z m-364.1-282l358.3 193c3.6 2 8 2 11.6 0l358.3-193c5.9-3.2 8.2-10.6 5-16.5-1.1-2.1-2.9-3.9-5-5l-358.3-193c-3.6-1.9-8-1.9-11.6 0l-358.3 193c-5.9 3.2-8.1 10.6-5 16.5 1.1 2.2 2.9 3.9 5 5z" fill="#FFB640" p-id="6534"></path><path d="M511.589 758.693l-468.8-252.5 468.8-252.5 468.8 252.5-468.8 252.5z" fill="#FFFFFF" p-id="6535"></path><path d="M511.6 798.911c-6.7 0-13.2-1.7-19.1-4.8l-468.8-252.5c-13-7-21.1-20.6-21.1-35.4 0-14.8 8.1-28.4 21.1-35.4l468.8-252.5c11.9-6.4 26.2-6.4 38.1 0l468.7 252.5c13 7 21.1 20.6 21.1 35.4 0 14.8-8.1 28.4-21.1 35.4l-468.7 252.5c-5.9 3.1-12.4 4.8-19 4.8z m-364.1-282l358.3 193c3.6 2 8 2 11.6 0l358.3-193c5.9-3.2 8.2-10.6 5-16.5-1.1-2.1-2.9-3.9-5-5l-358.3-193c-3.6-1.9-8-1.9-11.6 0l-358.3 193c-5.9 3.2-8.1 10.6-5 16.5 1.1 2.1 2.9 3.9 5 5z" fill="#D9D9D9" p-id="6536"></path><path d="M511.589 568.693l-468.8-252.5 468.8-252.5 468.8 252.5-468.8 252.5z" fill="#FFFFFF" p-id="6537"></path><path d="M511.6 608.9c-6.7 0-13.2-1.7-19.1-4.8L23.7 351.5c-13-7-21.1-20.6-21.1-35.4 0-14.8 8.1-28.4 21.1-35.4L492.5 28.2c11.9-6.4 26.2-6.4 38.1 0l468.8 252.5c13 7 21.1 20.6 21.1 35.4 0 14.8-8.1 28.3-21.1 35.4L530.6 604c-5.9 3.2-12.4 4.8-19 4.9z m-364.1-282l358.3 193c3.6 1.9 8 1.9 11.6 0l358.3-193c5.9-3.3 8.1-10.8 4.8-16.7-1.1-2-2.8-3.7-4.8-4.8l-358.3-193c-3.6-2-8-2-11.6 0l-358.3 193c-5.9 3.3-8.1 10.8-4.8 16.7 1.1 2 2.7 3.7 4.8 4.8z" fill="#FFB640" p-id="6538"></path></svg>