<?xml version="1.0" standalone="no"?><!DOCTYPE svg PUBLIC "-//W3C//DTD SVG 1.1//EN" "http://www.w3.org/Graphics/SVG/1.1/DTD/svg11.dtd"><svg t="1765187101041" class="icon" viewBox="0 0 1024 1024" version="1.1" xmlns="http://www.w3.org/2000/svg" p-id="5490" xmlns:xlink="http://www.w3.org/1999/xlink" width="200" height="200"><path d="M512 0C229.248 0 0 229.248 0 512s229.248 512 512 512 512-229.248 512-512S794.752 0 512 0z m0 85.333333c235.648 0 426.666667 191.018667 426.666667 426.666667s-191.018667 426.666667-426.666667 426.666667S85.333333 747.648 85.333333 512 276.352 85.333333 512 85.333333z" fill="#497cad" p-id="5491"></path><path d="M512 512m-213.333333 0a213.333333 213.333333 0 1 0 426.666666 0 213.333333 213.333333 0 1 0-426.666666 0Z" fill="#497cad" p-id="5492"></path></svg>