<?xml version="1.0" encoding="utf-8"?>
<!-- Generator: Adobe Illustrator 16.0.0, SVG Export Plug-In . SVG Version: 6.00 Build 0)  -->
<!DOCTYPE svg PUBLIC "-//W3C//DTD SVG 1.1//EN" "http://www.w3.org/Graphics/SVG/1.1/DTD/svg11.dtd">
<svg version="1.1" id="图层_1" xmlns="http://www.w3.org/2000/svg" xmlns:xlink="http://www.w3.org/1999/xlink" x="0px" y="0px"
	 width="32px" height="32px" viewBox="0 0 32 32" enable-background="new 0 0 32 32" xml:space="preserve">
<path fill="#497CAD" d="M31.939,18.231c0,0.345-0.126,0.644-0.379,0.896c-0.252,0.253-0.551,0.379-0.896,0.379h-4.463
	c0,2.271-0.444,4.197-1.334,5.778l4.144,4.164c0.253,0.252,0.379,0.551,0.379,0.896s-0.126,0.645-0.379,0.896
	c-0.239,0.252-0.538,0.379-0.896,0.379s-0.657-0.127-0.896-0.379l-3.945-3.925c-0.066,0.065-0.166,0.152-0.299,0.259
	s-0.411,0.296-0.837,0.568c-0.425,0.271-0.857,0.514-1.295,0.727c-0.438,0.213-0.983,0.405-1.635,0.578
	c-0.65,0.172-1.295,0.259-1.932,0.259V11.856h-2.551v17.852c-0.677,0-1.352-0.09-2.022-0.269c-0.671-0.18-1.249-0.398-1.734-0.658
	c-0.485-0.259-0.923-0.518-1.315-0.777c-0.392-0.259-0.681-0.475-0.867-0.646l-0.299-0.279l-3.646,4.125
	c-0.266,0.278-0.584,0.418-0.957,0.418c-0.319,0-0.604-0.106-0.856-0.319c-0.252-0.239-0.389-0.534-0.409-0.886
	c-0.02-0.353,0.083-0.661,0.309-0.928l4.024-4.521c-0.77-1.516-1.156-3.335-1.156-5.461H1.335c-0.345,0-0.644-0.125-0.896-0.378
	S0.06,18.576,0.06,18.231c0-0.346,0.126-0.645,0.379-0.897c0.252-0.252,0.551-0.378,0.896-0.378h4.463v-5.857L2.352,7.652
	C2.099,7.399,1.973,7.101,1.973,6.755c0-0.345,0.126-0.644,0.378-0.896c0.252-0.252,0.551-0.379,0.896-0.379
	c0.346,0,0.645,0.127,0.897,0.379l3.447,3.447h16.816l3.447-3.447c0.252-0.252,0.551-0.379,0.896-0.379s0.645,0.127,0.896,0.379
	c0.252,0.252,0.379,0.551,0.379,0.896c0,0.346-0.127,0.645-0.379,0.897l-3.447,3.447v5.858h4.463c0.346,0,0.645,0.125,0.896,0.378
	C31.813,17.587,31.939,17.887,31.939,18.231L31.939,18.231L31.939,18.231L31.939,18.231z M22.375,6.755H9.624
	c0-1.767,0.621-3.271,1.863-4.513C12.729,1,14.233,0.379,16,0.379S19.271,1,20.513,2.242C21.755,3.484,22.375,4.988,22.375,6.755
	L22.375,6.755L22.375,6.755L22.375,6.755z"/>
</svg>
