<?xml version="1.0" encoding="utf-8"?>
<!-- Generator: Adobe Illustrator 16.0.0, SVG Export Plug-In . SVG Version: 6.00 Build 0)  -->
<!DOCTYPE svg PUBLIC "-//W3C//DTD SVG 1.1//EN" "http://www.w3.org/Graphics/SVG/1.1/DTD/svg11.dtd">
<svg version="1.1" id="图层_1" xmlns="http://www.w3.org/2000/svg" xmlns:xlink="http://www.w3.org/1999/xlink" x="0px" y="0px"
	 width="32px" height="32px" viewBox="0 0 32 32" enable-background="new 0 0 32 32" xml:space="preserve">
<path fill="#497CAD" d="M16,30.666c-8.066,0-14.666-6.6-14.666-14.666c0-8.066,6.6-14.666,14.666-14.666
	c8.066,0,14.666,6.6,14.666,14.666C30.666,24.066,24.066,30.666,16,30.666z M16,4.266C9.546,4.266,4.266,9.546,4.266,16
	S9.546,27.734,16,27.734S27.734,22.454,27.734,16S22.454,4.266,16,4.266z"/>
<path fill="#669E8B" d="M16,24.898c-0.795,0.014-1.452-0.619-1.466-1.414c0-0.019,0-0.035,0-0.053V15.02
	c-0.014-0.795,0.62-1.451,1.416-1.464c0.017,0,0.034,0,0.05,0c0.795-0.015,1.451,0.618,1.466,1.414c0.001,0.017,0.001,0.035,0,0.052
	v8.41c0.015,0.795-0.618,1.451-1.414,1.467C16.035,24.898,16.018,24.898,16,24.898z M16,11.404
	c-0.795,0.015-1.452-0.618-1.466-1.414c0-0.017,0-0.035,0-0.052v-1.37c-0.015-0.795,0.618-1.451,1.414-1.466
	c0.017,0,0.035,0,0.052,0c0.795-0.015,1.451,0.618,1.466,1.414c0.001,0.018,0.001,0.035,0,0.052v1.37
	C17.464,10.747,16.809,11.402,16,11.404z"/>
</svg>
