<?xml version="1.0" standalone="no"?><!DOCTYPE svg PUBLIC "-//W3C//DTD SVG 1.1//EN" "http://www.w3.org/Graphics/SVG/1.1/DTD/svg11.dtd"><svg t="1713748385165" class="icon" viewBox="0 0 1024 1024" version="1.1" xmlns="http://www.w3.org/2000/svg" p-id="4325" xmlns:xlink="http://www.w3.org/1999/xlink" width="200" height="200"><path d="M377.060193 426.106748 376.704083 425.738357 383.560234 419.11552 383.738289 419.298691 383.578654 419.098123 391.036509 413.160901 391.196145 413.361469 391.056975 413.147598 399.05002 407.953296 399.190213 408.16819 399.07151 407.941016 407.524019 403.536706 407.641699 403.76388 407.546531 403.526473 416.386874 399.953088 416.483064 400.189472 416.41041 399.944901 425.548534 397.23621 425.621189 397.48078 425.57207 397.23007 434.931229 395.410632 434.980347 395.661342 434.955788 395.406538 444.441836 394.493749 444.466396 394.748552 444.466396 394.492726 454.001563 394.492726 454.001563 394.748552 454.026122 394.493749 463.515241 395.406538 463.490681 395.661342 463.538777 395.410632 472.894865 397.23007 472.845747 397.48078 472.918401 397.23621 482.060619 399.944901 481.987964 400.189472 482.083132 399.953088 490.921427 403.526473 490.825236 403.76388 490.94394 403.536706 499.397473 407.941016 499.278769 408.16819 499.417939 407.953296 507.412007 413.147598 507.272837 413.361469 507.431449 413.160901 514.890328 419.098123 514.731716 419.298691 514.909771 419.11552 521.762853 425.738357 521.406742 426.106748 514.56287 419.491073 507.123434 413.5692 499.149832 408.389224 490.717789 403.996171 481.90303 400.431995 472.785372 397.730467 463.453842 395.915122 453.989283 395.004379 444.478675 395.004379 435.017186 395.915122 425.682587 397.730467 416.566976 400.431995 407.749146 403.996171 399.31915 408.389224 391.346571 413.5692 383.907135 419.491073Z" p-id="4326"></path><path d="M454.001563 394.492726l0 0.255827 0.024559-0.254803 9.489118 0.912789-0.024559 0.254803 0.048095-0.25071 9.357112 1.819438-0.050142 0.25071 0.072655-0.24457 9.142218 2.708692-0.071631 0.24457 0.095167-0.236384 8.838296 3.573385-0.096191 0.236384 0.118704-0.227174 8.453533 4.40431-0.118704 0.228197 0.140193-0.214894 7.994068 5.193279-0.13917 0.213871 0.158612-0.199545 7.457856 5.937223-0.157589 0.200568 0.178055-0.184195 6.853082 6.623861-0.357134 0.367367-6.843872-6.615675-7.440459-5.921873-7.973602-5.179976-8.432043-4.393054-8.813736-3.564175-9.117658-2.701528-9.331529-1.815345-9.464559-0.910743-9.510608 0-9.461489 0.910743-9.334599 1.815345-9.115612 2.701528-8.816806 3.564175-8.429996 4.393054-7.972579 5.179976-7.440459 5.921873-6.845918 6.615675-0.356111-0.367367 6.855128-6.623861 0.178055 0.184195-0.158612-0.200568 7.457856-5.937223 0.158612 0.199545-0.13917-0.213871 7.994068-5.193279 0.140193 0.214894-0.118704-0.228197 8.452509-4.40431 0.11768 0.227174-0.095167-0.236384 8.840342-3.573385 0.096191 0.236384-0.071631-0.24457 9.138124-2.708692 0.072655 0.24457-0.049119-0.25071 9.359158-1.819438 0.049119 0.25071-0.023536-0.254803 9.486048-0.912789 0.024559 0.254803 0-0.255827L454.001563 394.492726M451.791222 385.562333l-2.558265 0.245593-2.557242-0.245593-0.048095 0.496304-2.568499 0.246617-2.564405 0-0.096191-0.493234-2.537799 0.493234-2.579755 0 0 0.50142-2.509147 0.488117-2.568499 0.24764-0.143263-0.479931-2.463098 0.730641-2.557242 0.245593 0.047072 0.49835-2.473331 0.733711-2.520403 0.490164-0.188288-0.464581-2.387373 0.964978-2.549056 0.49528 0.097214 0.49528-2.373047 0.959861-2.449795 0.725524-0.233314-0.448208-2.307555 1.202385-2.446725 0.725524 0.140193 0.476861-2.298346 1.197268-2.376117 0.959861-0.272199-0.418532-2.153036 1.39886-2.38328 0.962931 0.186242 0.464581-2.161223 1.404999-2.27481 1.184989-0.314155-0.394996-2.032286 1.617847-2.292206 1.194198 0.232291 0.445138-2.00261 1.594311-2.149966 1.396813-0.347924-0.360204-1.850138 1.787716-2.172479 1.411139 0.275269 0.422625-1.841951 1.779529-6.070252 4.832052 0.463558 0.585331-1.541099 1.489934-5.891174 5.691629 5.694699 5.887081 0.356111 0.367367 5.688559 5.880941 5.884011-5.685489 6.563486-6.342452 6.824429-5.431709 7.312546-4.751211 7.733125-4.02978 8.087189-3.269463 8.361435-2.477424 8.562003-1.664919 8.67866-0.835018 8.724709 0 8.680706 0.835018 8.559956 1.664919 8.362458 2.477424 8.084119 3.269463 7.735172 4.02978 7.314593 4.751211 6.822382 5.430686 6.560416 6.342452 5.875824 5.680373 5.690606-5.865591 0.357134-0.367367 5.710049-5.887081-5.897314-5.699816-1.557472-1.505283 0.460488-0.585331-6.04467-4.811586-1.847068-1.785669 0.274246-0.421602-2.167363-1.408069-1.854231-1.791809-0.349971 0.361227-2.15099-1.397836-2.00261-1.594311 0.232291-0.446162-2.293229-1.194198-2.030239-1.616824-0.314155 0.394996-2.275833-1.184989-2.137687-1.388627 0.189312-0.467651-2.406816-0.973164-2.156106-1.400906-0.273223 0.418532-2.37714-0.960885-2.295276-1.196245 0.141216-0.478907-2.459005-0.728594-2.272763-1.184989-0.232291 0.442068-2.477424-0.734734-2.344395-0.947582 0.099261-0.499373-2.572592-0.500397-2.420119-0.979304-0.189312 0.470721-2.49789-0.48607-2.438539-0.722454 0.049119-0.506537-2.600221-0.249687-2.455935-0.727571-0.14224 0.477884-2.568499-0.246617-2.509147-0.488117 0-0.50142-2.576685 0-2.570545-0.499373-0.095167 0.499373-2.536776 0-2.568499-0.246617L451.791222 385.562333 451.791222 385.562333z" p-id="4327"></path><path d="M598.410534 458.0646 588.880483 457.975573 588.88253 457.719746 588.8549 457.974549 579.372945 456.972732 579.399551 456.717929 579.348386 456.968639 570.00867 455.06222 570.059835 454.810486 569.985134 455.057103 560.872592 452.262454 560.947294 452.017884 560.849056 452.253244 552.045553 448.601064 552.142767 448.364681 552.02304 448.588785 543.609417 444.107727 543.729144 443.8826 543.587927 444.096471 535.639908 438.829514 535.781124 438.616666 535.620465 438.815187 528.217868 432.807357 528.379551 432.609859 528.199449 432.792007 521.404696 426.104701 521.764899 425.740404 528.550443 432.419524 535.933597 438.409958 543.860127 443.662589 552.253284 448.133414 561.034275 451.777407 570.12328 454.56387 579.438437 456.465173 588.896856 457.463919 598.402347 457.552947 607.875093 456.727139 617.226065 454.998775 626.367259 452.380134 635.215788 448.89987 643.686716 444.585611 651.708414 439.479313 659.204132 433.629071 666.108379 427.075819 666.460396 427.446255 659.546939 434.006671 659.370931 433.822476 659.529543 434.024068 652.014382 439.889659 651.856793 439.689091 651.993916 439.905008 643.950729 445.023586 643.813606 444.807668 643.930263 445.035866 635.436822 449.361381 635.321188 449.133184 635.414309 449.370591 626.542244 452.862111 626.449123 452.623681 626.518708 452.869275 617.355001 455.493032 617.285416 455.248462 617.331465 455.500195 607.955934 457.233676 607.908862 456.980919 607.931375 457.236745 598.435093 458.063577 598.41258 457.808774Z" p-id="4328"></path><path d="M521.764899 425.740404l6.785543 6.678096 7.383154 5.990434 7.92653 5.252631 8.393157 4.470825 8.78099 3.643993 9.089006 2.787486 9.315156 1.90028 9.458419 0.99977 9.505491 0.089028 9.472745-0.825808 9.351995-1.728364 9.141194-2.618641 8.847505-3.480264 8.470929-4.314259 8.021697-5.106298 7.495718-5.850242 6.904247-6.553253 0.352017 0.370437-6.913457 6.560416-0.176009-0.185218 0.158612 0.201591-7.516184 5.865591-0.156566-0.200568 0.137123 0.215918-8.043187 5.118578-0.137123-0.215918 0.116657 0.228197-8.493441 4.326539-0.115634-0.229221 0.093121 0.237407-8.872065 3.491521-0.093121-0.23843 0.069585 0.245593-9.163707 2.623757-0.069585-0.24457 0.046049 0.251733-9.375531 1.732457-0.047072-0.251733 0.022513 0.254803-9.496282 0.827855-0.022513-0.254803-0.002047 0.255827-9.530051-0.089028 0.002047-0.255827-0.027629 0.254803-9.481955-1.001817 0.025583-0.254803-0.051165 0.25071-9.339716-1.906419 0.051165-0.25071-0.073678 0.245593-9.112542-2.793626 0.074701-0.24457-0.099261 0.23536-8.803503-3.65218 0.097214-0.236384-0.119727 0.225127-8.413624-4.481058 0.119727-0.226151-0.14224 0.213871-7.948019-5.265934 0.141216-0.212848-0.159636 0.197498-7.402597-6.006807 0.161682-0.197498-0.180102 0.182149-6.795776-6.687306L521.764899 425.740404M521.695315 414.18523l-5.742794 5.79089-0.361227 0.363274-5.785773 5.835915 5.857405 5.764284 1.488911 1.465374-0.474814 0.580215 6.069229 4.924149 1.830695 1.802042-0.279363 0.422625 2.169409 1.437745 1.812275 1.783623 0.348947-0.352017 2.159176 1.430582 1.991354 1.616824-0.233314 0.440022 2.25639 1.202385 2.031263 1.648546 0.320295-0.396019 2.242064 1.194198 2.175549 1.441838-0.188288 0.459464 2.357697 0.978281 2.145873 1.421372 0.276293-0.416486 2.38021 0.98749 2.25332 1.200338-0.147356 0.479931 2.469238 0.757247 2.27788 1.213641 0.23536-0.442068 2.456958 0.753153 2.367931 0.982374-0.100284 0.49221 2.533706 0.51677 2.352581 0.976234 0.192382-0.456395 2.53166 0.51677 2.486634 0.762363-0.050142 0.493234 2.534729 0.268106 2.517333 0.771573 0.148379-0.490164 2.508123 0.265036 2.524496 0.514723-0.004093 0.499373 2.566452 0.023536 2.541893 0.518816 0.101307-0.494257 2.553149 0.023536 2.577708 0.272199 0.045025 0.497327 2.553149-0.222057 2.533706 0.267083 0.055259-0.493234 2.582825-0.225127 2.576685 0.023536 0.091074 0.490164 2.520403-0.465604 2.604314 0.023536 0.004093-0.506537 2.512217-0.464581 2.547009-0.222057 0.13917 0.484024 2.490727-0.713244 2.598174-0.226151-0.046049-0.50449 2.428306-0.695848 2.503007-0.462534 0.185218 0.472767 2.429329-0.956791 2.52859-0.467651-0.090051-0.49221 2.408863-0.948605 2.441609-0.698918 0.230244 0.454348 2.330068-1.187035 2.456958-0.704035-0.1361-0.478907 2.308579-1.175779 2.358721-0.927115 0.26913 0.424672 2.184759-1.38965 2.397606-0.943488-0.182149-0.465604 2.171456-1.382487 2.291183-1.167592 0.309038 0.394996 2.037403-1.590218 2.323928-1.183965-0.231267-0.449231 1.992377-1.556449 2.180666-1.38658 0.345877 0.363274 1.865487-1.77032 2.169409-1.38044-0.26913-0.423649 1.855254-1.76111 6.173606-4.817726-0.468674-0.595564 1.51654-1.439792 5.937223-5.634324-5.633301-5.938246-0.352017-0.370437-5.636371-5.940292-5.939269 5.637394-6.616698 6.281053-6.874571 5.365194-7.359618 4.684696-7.769964 3.957125-8.116865 3.192715-8.383948 2.4017-8.578376 1.586125-8.68787 0.757247-8.718569-0.081864-8.676613-0.916882-8.54256-1.74269-8.336876-2.557242-8.054443-3.342118-7.699356-4.101411-7.269567-4.817726-6.771217-5.495154-6.506181-6.402827L521.695315 414.18523 521.695315 414.18523z" p-id="4329"></path><path d="M530.706549 483.077274 523.86063 476.461599 516.422218 470.539726 508.450662 465.35975 500.015549 460.968743 491.198743 457.404568 482.084155 454.702016 472.750579 452.887694 463.288067 451.973882 453.777459 451.973882 444.31597 452.887694 434.981371 454.702016 425.865759 457.404568 417.048953 460.968743 408.615886 465.35975 400.643308 470.539726 393.204895 476.461599 386.358977 483.077274 386.002866 482.71093 392.859018 476.083999 393.03605 476.269217 392.877437 476.068649 400.333246 470.131427 400.492882 470.330972 400.353712 470.116077 408.346757 464.923822 408.48695 465.138716 408.368246 464.911542 416.823825 460.509279 416.941506 460.735429 416.846338 460.499046 425.685657 456.924637 425.780825 457.161021 425.70817 456.916451 434.847318 454.208782 434.919972 454.453353 434.870854 454.202643 444.230012 452.381158 444.279131 452.632891 444.254571 452.378088 453.74062 451.463252 453.765179 451.718055 453.765179 451.462229 463.300346 451.462229 463.300346 451.718055 463.323882 451.463252 472.810954 452.378088 472.787418 452.632891 472.835514 452.381158 482.194672 454.202643 482.145553 454.453353 482.218208 454.208782 491.356332 456.916451 491.283678 457.161021 491.378845 456.924637 500.219187 460.499046 500.122997 460.735429 500.2417 460.509279 508.697279 464.911542 508.579599 465.138716 508.718769 464.923822 516.71079 470.116077 516.572644 470.330972 516.731256 470.131427 524.188088 476.068649 524.029476 476.269217 524.207531 476.083999 531.06266 482.71093Z" p-id="4330"></path><path d="M463.300346 451.462229l0 0.255827 0.023536-0.254803 9.487072 0.915859-0.023536 0.254803 0.048095-0.251733 9.359158 1.820462-0.050142 0.25071 0.072655-0.24457 9.138124 2.707668-0.071631 0.24457 0.095167-0.236384 8.840342 3.574409-0.096191 0.236384 0.118704-0.227174 8.455579 4.402263-0.11768 0.228197 0.140193-0.214894 7.992021 5.192256-0.138146 0.214894 0.158612-0.199545 7.456832 5.937223-0.158612 0.200568 0.178055-0.185218 6.855128 6.626931-0.357134 0.366344-6.844895-6.616698-7.439436-5.921873-7.971555-5.179976-8.43409-4.391007-8.816806-3.564175-9.114588-2.702552-9.333576-1.814322-9.462512-0.913812-9.510608 0-9.461489 0.913812-9.334599 1.814322-9.115612 2.702552-8.815783 3.564175-8.433066 4.391007-7.972579 5.179976-7.438413 5.921873-6.845918 6.616698-0.356111-0.366344 6.855128-6.626931 0.178055 0.185218-0.158612-0.200568 7.455809-5.937223 0.158612 0.199545-0.13917-0.214894 7.994068-5.192256 0.140193 0.214894-0.118704-0.228197 8.455579-4.402263 0.11768 0.227174-0.095167-0.236384 8.839319-3.574409 0.096191 0.236384-0.072655-0.24457 9.139148-2.707668 0.072655 0.24457-0.049119-0.25071 9.359158-1.820462 0.049119 0.251733-0.023536-0.254803 9.486048-0.915859 0.024559 0.254803 0-0.255827L463.300346 451.462229M455.943798 442.526719l-0.047072 0.50449-2.538823 0.24457-2.558265 0-0.096191-0.493234-2.536776 0.493234-2.587941 0 0 0.503467-2.520403 0.490164-2.557242 0.246617-0.143263-0.479931-2.468215 0.731664-2.551102 0.246617 0.047072 0.49528-2.474354 0.733711-2.52245 0.490164-0.189312-0.466628-2.396583 0.969071-2.536776 0.493234 0.096191 0.493234-2.371 0.958838-2.452865 0.726547-0.231267-0.445138-2.288113 1.191128-2.498914 0.740874 0.144286 0.48607-2.26867 1.180895-2.378164 0.961908-0.274246-0.420579-2.167363 1.408069-2.366907 0.956791 0.184195 0.460488-2.161223 1.403976-2.27788 1.186012-0.314155-0.394996-2.026146 1.613754-2.297322 1.196245 0.233314 0.447185-1.995447 1.589195-2.137687 1.388627-0.349971-0.363274-1.864464 1.802042-2.161223 1.404999 0.273223 0.421602-1.859347 1.796926-6.062066 4.826935 0.462534 0.585331-1.543146 1.49198-5.89629 5.698792 5.709025 5.886057 0.356111 0.366344 5.689582 5.865591 5.875824-5.678326 6.563486-6.343475 6.822382-5.431709 7.311523-4.750187 7.736195-4.027733 8.087189-3.269463 8.361435-2.478448 8.562003-1.663896 8.67866-0.838088 8.721639 0 8.679683 0.838088 8.562003 1.663896 8.359388 2.478448 8.089235 3.270487 7.736195 4.027733 7.311523 4.750187 6.823406 5.431709 6.562463 6.342452 5.867638 5.672186 5.689582-5.850242 0.357134-0.366344 5.726421-5.886057-5.9055-5.706979-1.543146-1.49198 0.462534-0.585331-6.063089-4.826935-1.87879-1.816369 0.268106-0.416486-2.130524-1.38351-1.86958-1.808182-0.352017 0.364297-2.133593-1.385557-2.02103-1.609661 0.230244-0.444115-2.27481-1.183965-2.025123-1.612731-0.314155 0.394996-2.27174-1.181919-2.14178-1.391696 0.188288-0.464581-2.38942-0.966001-2.171456-1.410116-0.275269 0.421602-2.379187-0.961908-2.296299-1.195222 0.141216-0.479931-2.466168-0.730641-2.264577-1.178849-0.230244 0.440022-2.480494-0.735757-2.341325-0.946558 0.099261-0.499373-2.572592-0.500397-2.422166-0.979304-0.189312 0.471744-2.494821-0.485047-2.472308-0.732687 0.047072-0.496304-2.552126-0.245593-2.469238-0.731664-0.143263 0.479931-2.557242-0.246617-2.51938-0.490164 0-0.503467-2.587941 0-2.566452-0.499373-0.095167 0.499373-2.529613 0-2.567475-0.24764-0.049119-0.49835-2.559289 0.24764L455.943798 442.526719 455.943798 442.526719z" p-id="4331"></path><path d="M607.71034 515.037173 598.176197 514.949168 598.178243 514.693342 598.150614 514.948145 588.672752 513.945305 588.699358 513.689479 588.648193 513.941212 579.308477 512.034792 579.359642 511.785106 579.284941 512.028653 570.170353 509.235027 570.245054 508.990456 570.146816 509.22684 561.343313 505.572614 561.440527 505.335207 561.3208 505.562381 552.9082 501.081323 553.02895 500.855172 552.887734 501.06802 544.939715 495.80004 545.080931 495.587192 544.920272 495.78469 537.515628 489.780953 537.677311 489.582431 537.497209 489.76458 530.704502 483.07625 531.064706 482.712977 537.848203 489.39005 545.23238 495.380484 553.159934 500.636185 561.550021 505.104963 570.332035 508.748956 579.423087 511.536442 588.738243 513.435699 598.192569 514.437515 607.702154 514.52552 617.173876 513.698688 626.523825 511.972371 635.666042 509.354753 644.515594 505.872442 652.986523 501.559207 661.006174 496.449839 668.498822 490.597551 675.406139 484.046345 675.758156 484.416781 668.841629 490.977197 668.666644 490.791979 668.824233 490.992547 661.311119 496.861208 661.154553 496.659617 661.291676 496.875534 653.251559 501.997182 653.113413 501.781264 653.23007 502.008438 644.736629 506.333954 644.619972 506.104733 644.714116 506.343163 635.842051 509.834684 635.74893 509.596254 635.818515 509.842871 626.652761 512.467651 626.583177 512.222057 626.629225 512.473791 617.255741 514.204202 617.208669 513.952468 617.231181 514.207271 607.7349 515.036149 607.712387 514.781346Z" p-id="4332"></path><path d="M531.064706 482.712977l6.783497 6.677073 7.384178 5.990434 7.927553 5.255701 8.390088 4.468778 8.782014 3.645017 9.091052 2.787486 9.315156 1.899256 9.454326 1.001817 9.509585 0.088004 9.471722-0.826831 9.350972-1.727341 9.142218-2.617617 8.849552-3.482311 8.469905-4.313236 8.019651-5.109368 7.492648-5.852288 6.907317-6.551206 0.352017 0.370437-6.916527 6.560416-0.174985-0.186242 0.157589 0.200568-7.513114 5.868661-0.156566-0.201591 0.137123 0.215918-8.040117 5.121648-0.138146-0.215918 0.116657 0.228197-8.493441 4.325515-0.116657-0.229221 0.094144 0.237407-8.872065 3.491521-0.093121-0.237407 0.069585 0.245593-9.165754 2.62478-0.069585-0.245593 0.046049 0.251733-9.373485 1.730411-0.047072-0.251733 0.022513 0.254803-9.496282 0.828878-0.022513-0.254803-0.002047 0.255827-9.533121-0.088004 0.002047-0.255827-0.027629 0.254803-9.477862-1.00284 0.025583-0.255827-0.051165 0.251733-9.339716-1.905396 0.051165-0.249687-0.073678 0.243547-9.114588-2.793626 0.074701-0.24457-0.099261 0.236384-8.803503-3.654226 0.097214-0.236384-0.119727 0.227174-8.4126-4.481058 0.12075-0.227174-0.141216 0.213871-7.949043-5.26798 0.141216-0.212848-0.159636 0.197498-7.404644-6.003737 0.161682-0.198521-0.180102 0.182149-6.79373-6.687306L531.064706 482.712977M530.995121 471.15678l-5.742794 5.791913-0.361227 0.363274-5.78475 5.834892 5.855358 5.764284 1.503237 1.478677-0.475837 0.584308 6.061043 4.913916 1.823532 1.795902-0.277316 0.418532 2.152013 1.426489 1.826602 1.797949 0.350994-0.355087 2.160199 1.431605 1.983167 1.606591-0.237407 0.445138 2.291183 1.220804 2.01182 1.63115 0.316202-0.390903 2.261507 1.204431 2.159176 1.430582-0.188288 0.458441 2.352581 0.976234 2.171456 1.439792 0.278339-0.422625 2.337231 0.970094 2.27174 1.210571-0.147356 0.478907 2.464121 0.7552 2.309602 1.230014 0.236384-0.449231 2.419096 0.741897 2.37407 0.986467-0.101307 0.49221 2.532683 0.51677 2.368954 0.983397 0.192382-0.460488 2.53166 0.51677 2.478448 0.759293-0.050142 0.49221 2.529613 0.268106 2.503007 0.766456 0.148379-0.487094 2.52552 0.268106 2.520403 0.514723-0.004093 0.50142 2.581802 0.023536 2.536776 0.517793 0.100284-0.493234 2.543939 0.023536 2.580778 0.273223 0.045025 0.496304 2.544963-0.222057 2.536776 0.26913 0.055259-0.49528 2.587941-0.226151 2.574638 0.023536 0.091074 0.48914 2.51324-0.464581 2.612501 0.023536 0.004093-0.506537 2.512217-0.463558 2.536776-0.222057 0.13917 0.490164 2.518357-0.721431 2.580778-0.225127-0.045025-0.50142 2.434445-0.696872 2.508123-0.463558 0.183172 0.469698 2.410909-0.948605 2.535753-0.468674-0.090051-0.493234 2.4017-0.945535 2.476401-0.709151 0.228197 0.448208 2.300392-1.171686 2.463098-0.705058-0.1361-0.479931 2.308579-1.175779 2.382257-0.937348 0.270153 0.423649 2.178619-1.38658 2.405793-0.946558-0.185218-0.468674 2.153036-1.37123 2.266623-1.154289 0.311085 0.400113 2.050706-1.601474 2.328022-1.186012-0.232291-0.452301 2.001587-1.563612 2.131547-1.356904 0.347924 0.369414 1.89721-1.799996 2.171456-1.38351-0.268106-0.422625 1.866511-1.77032 6.155187-4.808516-0.463558-0.590448 1.520633-1.442862 5.940292-5.634324-5.635347-5.939269-0.352017-0.370437-5.634324-5.937223-5.938246 5.632277-6.622838 6.281053-6.874571 5.368264-7.355525 4.686742-7.767917 3.956102-8.117888 3.194762-8.384971 2.400676-8.577353 1.584078-8.688893 0.75827-8.720615-0.080841-8.67252-0.917906-8.544607-1.74269-8.337899-2.556219-8.05649-3.343141-7.696286-4.099365-7.270591-4.819772-6.773264-5.494131-6.502088-6.401804L530.995121 471.15678 530.995121 471.15678z" p-id="4333"></path><path d="M530.706549 553.663912 523.86063 547.049261 516.422218 541.129434 508.449639 535.946388 500.015549 531.554358 491.198743 527.991206 482.084155 525.286608 472.749556 523.474332 463.288067 522.561543 453.777459 522.561543 444.31597 523.474332 434.981371 525.286608 425.865759 527.991206 417.048953 531.554358 408.615886 535.946388 400.642285 541.129434 393.204895 547.049261 386.358977 553.663912 386.002866 553.296545 392.859018 546.672684 393.03605 546.856879 392.877437 546.655288 400.333246 540.721135 400.492882 540.921703 400.353712 540.706809 408.346757 535.511483 408.48695 535.726378 408.368246 535.499204 416.823825 531.092847 416.941506 531.321044 416.846338 531.084661 425.685657 527.511275 425.780825 527.749706 425.70817 527.504112 434.847318 524.793374 434.919972 525.036921 434.870854 524.787234 444.230012 522.969842 444.279131 523.220552 444.254571 522.965749 453.74062 522.050913 453.765179 522.305717 453.765179 522.04989 463.300346 522.04989 463.300346 522.305717 463.323882 522.050913 472.810954 522.965749 472.787418 523.220552 472.835514 522.969842 482.194672 524.787234 482.145553 525.036921 482.218208 524.793374 491.356332 527.504112 491.283678 527.749706 491.378845 527.511275 500.219187 531.084661 500.122997 531.321044 500.2417 531.092847 508.697279 535.499204 508.579599 535.726378 508.718769 535.511483 516.711813 540.706809 516.572644 540.921703 516.731256 540.721135 524.188088 546.655288 524.029476 546.856879 524.207531 546.672684 531.06266 553.296545Z" p-id="4334"></path><path d="M463.300346 522.04989l0 0.255827 0.023536-0.254803 9.487072 0.914836-0.023536 0.254803 0.048095-0.25071 9.359158 1.817392-0.050142 0.249687 0.072655-0.243547 9.138124 2.709715-0.071631 0.245593 0.095167-0.237407 8.840342 3.572362-0.096191 0.236384 0.118704-0.228197 8.455579 4.406356-0.11768 0.227174 0.140193-0.214894 7.993045 5.195326-0.13917 0.214894 0.158612-0.200568 7.456832 5.935176-0.158612 0.200568 0.178055-0.184195 6.855128 6.623861-0.357134 0.367367-6.844895-6.614651-7.439436-5.919826-7.972579-5.183046-8.433066-4.39203-8.816806-3.562129-9.114588-2.705622-9.334599-1.812275-9.461489-0.912789-9.510608 0-9.461489 0.912789-9.334599 1.812275-9.115612 2.705622-8.815783 3.562129-8.433066 4.39203-7.973602 5.183046-7.437389 5.919826-6.845918 6.614651-0.356111-0.367367 6.855128-6.623861 0.178055 0.184195-0.158612-0.200568 7.455809-5.935176 0.158612 0.200568-0.13917-0.214894 7.994068-5.195326 0.140193 0.214894-0.118704-0.227174 8.455579-4.406356 0.11768 0.228197-0.095167-0.236384 8.839319-3.572362 0.096191 0.237407-0.072655-0.245593 9.139148-2.709715 0.072655 0.243547-0.049119-0.249687 9.359158-1.817392 0.049119 0.25071-0.023536-0.254803 9.486048-0.914836 0.024559 0.254803 0-0.255827L463.300346 522.04989M455.942775 513.115404l-0.047072 0.503467-2.537799 0.24457-2.563382 0-0.095167-0.490164-2.52245 0.490164-2.596128 0 0 0.50449-2.509147 0.487094-2.577708 0.248663-0.144286-0.480954-2.471284 0.732687-2.537799 0.24457 0.046049 0.494257-2.474354 0.733711-2.512217 0.488117-0.187265-0.464581-2.385327 0.963954-2.566452 0.49835 0.098237 0.499373-2.365884 0.955768-2.437515 0.723477-0.234337-0.453325-2.329045 1.213641-2.461051 0.730641 0.14224 0.478907-2.285043 1.190105-2.371 0.958838-0.274246-0.420579-2.160199 1.403976-2.372024 0.959861 0.185218 0.462534-2.172479 1.412163-2.25025 1.172709-0.315178-0.398066-2.043542 1.627057-2.308579 1.203408 0.234337 0.448208-1.991354 1.585101-2.146896 1.394766-0.348947-0.360204-1.856277 1.792832-2.15406 1.399883 0.271176 0.419556-1.852184 1.788739-6.070252 4.832052 0.463558 0.585331-1.541099 1.489934-5.891174 5.691629 5.694699 5.888104 0.356111 0.367367 5.688559 5.879917 5.884011-5.684466 6.564509-6.341429 6.822382-5.431709 7.313569-4.754281 7.734148-4.027733 8.088212-3.26844 8.360412-2.481518 8.56098-1.660826 8.679683-0.837064 8.722662 0 8.679683 0.837064 8.56098 1.660826 8.359388 2.481518 8.089235 3.26844 7.733125 4.027733 7.313569 4.754281 6.824429 5.431709 6.562463 6.340405 5.874801 5.677303 5.689582-5.863545 0.357134-0.367367 5.711072-5.888104-5.89936-5.698792-1.542122-1.489934 0.463558-0.585331-6.071276-4.832052-1.853208-1.790786 0.271176-0.417509-2.148943-1.396813-1.859347-1.795902-0.348947 0.361227-2.14792-1.39579-2.013867-1.601474 0.231267-0.445138-2.284019-1.190105-2.042519-1.626034-0.315178 0.398066-2.243087-1.170662-2.153036-1.39886 0.189312-0.466628-2.397606-0.969071-2.163269-1.406023-0.274246 0.421602-2.371-0.958838-2.312672-1.205455 0.138146-0.472767-2.428306-0.720408-2.305509-1.201361-0.234337 0.448208-2.465145-0.731664-2.336208-0.943488 0.101307-0.505513-2.602268-0.505513-2.409886-0.974188-0.187265 0.469698-2.484587-0.483001-2.471284-0.732687 0.046049-0.494257-2.538823-0.24457-2.473331-0.733711-0.144286 0.481977-2.577708-0.248663-2.508123-0.487094 0-0.50449-2.597151 0-2.552126-0.49528-0.095167 0.49528-2.534729 0-2.567475-0.24764-0.048095-0.497327-2.559289 0.246617L455.942775 513.115404 455.942775 513.115404z" p-id="4335"></path><path d="M607.71034 585.620741 598.176197 585.53376 598.178243 585.277934 598.150614 585.53376 588.672752 584.531943 588.699358 584.27714 588.648193 584.52785 579.308477 582.621431 579.359642 582.370721 579.284941 582.615291 570.170353 579.820642 570.245054 579.574025 570.146816 579.811432 561.343313 576.157205 561.440527 575.922868 561.3208 576.149019 552.9082 571.666938 553.02895 571.440787 552.887734 571.653635 544.939715 566.386678 545.080931 566.17383 544.920272 566.372352 537.515628 560.366567 537.677311 560.165999 537.497209 560.349171 530.704502 553.661865 531.064706 553.298592 537.848203 559.976688 545.23238 565.965076 553.159934 571.220776 561.551044 575.689554 570.332035 579.334571 579.423087 582.123081 588.738243 584.024383 598.192569 585.022107 607.702154 585.109088 617.174899 584.288396 626.523825 582.555939 635.666042 579.940368 644.515594 576.458057 652.986523 572.144822 661.006174 567.038524 668.498822 561.187259 675.406139 554.634006 675.758156 555.005466 668.841629 561.566906 668.666644 561.380664 668.824233 561.582255 661.311119 567.450916 661.154553 567.247278 661.290653 567.463196 653.250536 572.582797 653.113413 572.365856 653.23007 572.595077 644.736629 576.920592 644.619972 576.693418 644.714116 576.929802 635.842051 580.419276 635.74893 580.182892 635.818515 580.427462 626.652761 583.053266 626.583177 582.805626 626.629225 583.059406 617.255741 584.79391 617.208669 584.542176 617.231181 584.79698 607.7349 585.619718 607.712387 585.364915Z" p-id="4336"></path><path d="M531.064706 553.298592l6.783497 6.678096 7.384178 5.989411 7.927553 5.255701 8.391111 4.468778 8.78099 3.645017 9.091052 2.788509 9.315156 1.901303 9.454326 0.997724 9.509585 0.088004 9.472745-0.821715 9.349949-1.731434 9.142218-2.616594 8.849552-3.481288 8.469905-4.314259 8.019651-5.105275 7.492648-5.852288 6.907317-6.55223 0.352017 0.370437-6.916527 6.561439-0.174985-0.186242 0.157589 0.201591-7.513114 5.867638-0.156566-0.202615 0.1361 0.215918-8.040117 5.119601-0.137123-0.216941 0.116657 0.229221-8.493441 4.325515-0.116657-0.227174 0.094144 0.236384-8.872065 3.489474-0.093121-0.236384 0.069585 0.24457-9.165754 2.62478-0.069585-0.246617 0.046049 0.252757-9.373485 1.734504-0.047072-0.251733 0.022513 0.254803-9.496282 0.823761-0.022513-0.254803-0.002047 0.255827-9.533121-0.088004 0.002047-0.255827-0.027629 0.255827-9.477862-1.001817 0.025583-0.254803-0.051165 0.25071-9.339716-1.906419 0.051165-0.25071-0.073678 0.24457-9.114588-2.794649 0.074701-0.245593-0.099261 0.236384-8.803503-3.653203 0.097214-0.234337-0.119727 0.226151-8.4126-4.482081 0.12075-0.226151-0.141216 0.212848-7.949043-5.266957 0.141216-0.212848-0.159636 0.198521-7.404644-6.005784 0.161682-0.199545-0.180102 0.183172-6.79373-6.687306L531.064706 553.298592M530.996145 541.742395l-5.742794 5.79089-0.361227 0.363274-5.786797 5.834892 5.856381 5.764284 1.515516 1.49198-0.471744 0.582261 6.043646 4.90266 1.824555 1.796926-0.278339 0.419556 2.157129 1.428535 1.837858 1.809205 0.352017-0.358157 2.136663 1.416256 1.978051 1.603521-0.237407 0.445138 2.289136 1.219781 2.040473 1.654686 0.320295-0.398066 2.242064 1.194198 2.139733 1.418302-0.191358 0.463558 2.379187 0.98749 2.153036 1.427512 0.277316-0.418532 2.344395 0.973164 2.287089 1.217734-0.145309 0.475837 2.445702 0.750083 2.305509 1.227967 0.237407-0.448208 2.441609 0.748037 2.371 0.984421-0.101307 0.49221 2.536776 0.517793 2.360767 0.980327 0.191358-0.458441 2.530636 0.515746 2.476401 0.759293-0.051165 0.49528 2.540869 0.26913 2.503007 0.76748 0.148379-0.488117 2.517333 0.26606 2.520403 0.514723-0.004093 0.49835 2.564405 0.023536 2.548032 0.520863 0.101307-0.496304 2.538823 0.023536 2.591011 0.274246 0.045025 0.491187 2.530636-0.220011 2.556219 0.270153 0.054235-0.496304 2.582825-0.224104 2.575662 0.023536 0.092098 0.496304 2.551102-0.471744 2.574638 0.022513 0.004093-0.500397 2.511193-0.464581 2.530636-0.220011 0.138146 0.48607 2.491751-0.713244 2.616594-0.227174-0.046049-0.508583 2.437515-0.698918 2.51631-0.465604 0.183172 0.467651 2.407839-0.947582 2.523473-0.466628-0.090051-0.490164 2.406816-0.946558 2.503007-0.716314 0.228197 0.443092 2.279926-1.161453 2.466168-0.706081-0.137123-0.479931 2.292206-1.167592 2.352581-0.925069 0.271176 0.428765 2.199085-1.399883 2.434445-0.957815-0.188288-0.473791 2.139733-1.360997 2.25332-1.14815 0.314155 0.405229 2.074242-1.620917 2.307555-1.174756-0.230244-0.448208 2.023076-1.578961 2.119267-1.349741 0.348947 0.370437 1.90028-1.803066 2.145873-1.366114-0.264013-0.419556 1.879813-1.783623 6.145977-4.799306-0.462534-0.591471 1.534959-1.456165 5.939269-5.634324-5.634324-5.939269-0.352017-0.370437-5.634324-5.939269-5.939269 5.634324-6.621814 6.282077-6.873548 5.367241-7.355525 4.683672-7.768941 3.956102-8.117888 3.193739-8.385994 2.399653-8.576329 1.589195-8.686846 0.753153-8.723685-0.080841-8.67252-0.914836-8.54256-1.744737-8.337899-2.557242-8.05649-3.343141-7.696286-4.099365-7.270591-4.820796-6.773264-5.493108-6.502088-6.402827L530.996145 541.742395 530.996145 541.742395z" p-id="4337"></path><path d="M514.114135 436.944252l-0.418021-0.295019 7.676399-10.876896 0.418021 0.295019-7.676399 10.876896Z" p-id="4338"></path><path d="M521.364787 425.759847l0.417509 0.294712-7.676843 10.876722-0.417509-0.294712L521.364787 425.759847M519.396969 414.351006l-4.720511 6.688329-7.676843 10.876722-4.720511 6.689353 6.689353 4.720511 0.417509 0.294712 6.688329 4.720511 4.720511-6.688329 7.676843-10.876722 4.720511-6.689353-6.689353-4.720511-0.417509-0.294712L519.396969 414.351006 519.396969 414.351006z" p-id="4339"></path><path d="M514.099502 436.979059l-0.41756-0.295684 15.65412-22.106467 0.41756 0.295684-15.65412 22.106467Z" p-id="4340"></path><path d="M529.330202 414.5659l0.417509 0.295735-15.637142 22.11774-0.417509-0.294712L529.330202 414.5659M527.375687 403.15092l-4.729721 6.690376-15.637142 22.118763-4.729721 6.690376 6.694469 4.724605 0.417509 0.294712 6.683213 4.716418 4.721535-6.67912 15.637142-22.11774 4.722558-6.67912-6.67605-4.727675-0.417509-0.295735L527.375687 403.15092 527.375687 403.15092z" p-id="4341"></path><path d="M523.26718 564.681384l-0.41756-0.295684 15.65412-22.106467 0.41756 0.295684-15.65412 22.106467Z" p-id="4342"></path><path d="M538.508235 542.274514l0.417509 0.295735-15.654538 22.106484-0.417509-0.295735L538.508235 542.274514M536.557814 530.862603l-4.730745 6.681166-15.654538 22.106484-4.731768 6.680143 6.681166 4.730745 0.417509 0.295735 6.680143 4.731768 4.730745-6.681166 15.654538-22.106484 4.731768-6.680143-6.681166-4.730745-0.417509-0.295735L536.557814 530.862603 536.557814 530.862603z" p-id="4343"></path><path d="M760.090866 479.265458l189.865255 0 0 0.511653-189.865255 0 0-0.511653Z" p-id="4344"></path><path d="M949.956122 479.265458l0 0.511653L760.090866 479.777111l0-0.511653L949.956122 479.265458M958.142571 471.079008l-8.18645 0L760.090866 471.079008l-8.18645 0 0 8.18645 0 0.511653 0 8.18645 8.18645 0L949.956122 487.963561l8.18645 0 0-8.18645 0-0.511653L958.142571 471.079008 958.142571 471.079008z" p-id="4345"></path><path d="M963.35734 491.445872l-3.557012 0 0-0.255827-0.071631 0.24457-3.414773-1.001817 0.071631-0.245593-0.13917 0.214894-2.990101-1.923816 0.13917-0.214894-0.192382 0.167822-2.329045-2.688225 0.192382-0.167822-0.233314 0.106424-1.477654-3.235694 0.234337-0.106424-0.252757 0.036839-0.505513-3.51915 0.252757-0.036839-0.252757-0.035816 0.505513-3.521197 0.252757 0.036839-0.234337-0.106424 1.477654-3.235694 0.233314 0.106424-0.192382-0.167822 2.329045-2.689249 0.192382 0.167822-0.138146-0.214894 2.990101-1.921769 0.138146 0.214894-0.071631-0.245593 3.414773-1.00284 0.071631 0.24457 0-0.255827 3.557012 0 0 0.255827 0.071631-0.24457 3.414773 1.00284-0.070608 0.245593 0.138146-0.214894 2.991124 1.921769-0.138146 0.214894 0.192382-0.167822 2.330068 2.689249-0.192382 0.167822 0.234337-0.106424 1.476631 3.235694-0.233314 0.106424 0.252757-0.036839 0.505513 3.521197-0.252757 0.035816 0.252757 0.036839-0.505513 3.51915-0.252757-0.036839 0.233314 0.106424-1.476631 3.235694-0.234337-0.106424 0.192382 0.167822-2.330068 2.688225-0.192382-0.167822 0.13917 0.214894-2.991124 1.923816-0.13917-0.214894 0.070608 0.245593-3.414773 1.001817-0.071631-0.24457L963.35734 491.445872zM959.83819 490.934219l3.482311 0 3.345188-0.981351 2.928702-1.88493 2.28095-2.631944 1.447978-3.170203 0.494257-3.446495-0.494257-3.447519-1.447978-3.169179-2.28095-2.63399-2.928702-1.882883-3.345188-0.982374-3.482311 0-3.345188 0.982374-2.927679 1.882883-2.28095 2.63399-1.447978 3.169179-0.493234 3.447519 0.493234 3.446495 1.447978 3.170203 2.28095 2.631944 2.927679 1.88493L959.83819 490.934219z" p-id="4346"></path><path d="M963.35734 466.192721l0 0.255827 0.071631-0.24457 3.414773 1.00284-0.070608 0.245593 0.138146-0.214894 2.991124 1.921769-0.138146 0.214894 0.192382-0.167822 2.330068 2.689249-0.192382 0.167822 0.234337-0.106424 1.476631 3.235694-0.233314 0.106424 0.252757-0.036839 0.505513 3.521197-0.252757 0.035816 0.252757 0.036839-0.505513 3.51915-0.252757-0.036839 0.233314 0.106424-1.476631 3.235694-0.234337-0.106424 0.192382 0.167822-2.330068 2.688225-0.192382-0.167822 0.13917 0.214894-2.991124 1.923816-0.13917-0.214894 0.070608 0.245593-3.414773 1.001817-0.071631-0.24457 0 0.255827-3.557012 0 0-0.255827-0.071631 0.24457-3.414773-1.001817 0.071631-0.245593-0.13917 0.214894-2.990101-1.923816 0.13917-0.214894-0.192382 0.167822-2.329045-2.688225 0.192382-0.167822-0.233314 0.106424-1.477654-3.235694 0.234337-0.106424-0.252757 0.036839-0.505513-3.51915 0.252757-0.036839-0.252757-0.035816 0.505513-3.521197 0.252757 0.036839-0.234337-0.106424 1.477654-3.235694 0.233314 0.106424-0.192382-0.167822 2.329045-2.689249 0.192382 0.167822-0.138146-0.214894 2.990101-1.921769 0.138146 0.214894-0.071631-0.245593 3.414773-1.00284 0.071631 0.24457 0-0.255827L963.35734 466.192721M959.83819 490.934219l3.482311 0 3.345188-0.981351 2.928702-1.88493 2.28095-2.631944 1.447978-3.170203 0.494257-3.446495-0.494257-3.447519-1.447978-3.169179-2.28095-2.63399-2.928702-1.882883-3.345188-0.982374-3.482311 0-3.345188 0.982374-2.927679 1.882883-2.28095 2.63399-1.447978 3.169179-0.493234 3.447519 0.493234 3.446495 1.447978 3.170203 2.28095 2.631944 2.927679 1.88493L959.83819 490.934219M958.71153 455.92282l-0.38681 0.248663-0.443092-0.12996-0.149403 0.51063-2.26253 1.454118-2.665713 0-0.416486-0.36225-0.313132 0.36225-0.460488 0 0 0.531096-1.76418 2.036379-2.554172 0.751107-0.50142-0.230244-0.198521 0.435928-0.435928 0.127913 0.147356 0.502443-1.121544 2.455935-2.237971 1.437745-0.549515-0.080841-0.067538 0.476861-0.38067 0.24457 0.282433 0.440022-0.384763 2.675946-1.777483 2.052752-0.50449 0.073678 0.063445 0.435928-0.276293 0.318248 0.367367 0.321318 0.38988 2.713808-1.105171 2.419096-0.508583 0.230244 0.201591 0.442068-0.189312 0.415462 0.478907 0.218988 1.12359 2.457981-0.38988 2.711761-0.369414 0.323365 0.277316 0.320295-0.066515 0.466628 0.538259 0.076748 1.74883 2.01796 0.3776 2.632967-0.298805 0.462534 0.403183 0.258896 0.068562 0.481977 0.553609-0.080841 2.231831 1.434675 1.12359 2.459005-0.149403 0.508583 0.440022 0.128937 0.184195 0.402159 0.465604-0.211824 2.609431 0.765433 1.757017 2.02717 0 0.533143 0.461511 0 0.313132 0.361227 0.415462-0.361227 2.65855 0 2.273786 1.462305 0.146333 0.497327 0.430812-0.12689 0.37453 0.240477 0.278339-0.431835 2.613524-0.766456 2.613524 0.766456 0.278339 0.430812 0.372483-0.239454 0.431835 0.12689 0.147356-0.49835 2.272763-1.461281 2.628874 0 0.429789 0.375553 0.325411-0.375553 0.463558 0 0-0.534166 1.757017-2.026146 2.628874-0.77055 0.455371 0.206708 0.179079-0.39295 0.405229-0.118704-0.137123-0.471744 1.143033-2.50403 2.231831-1.434675 0.552585 0.080841 0.068562-0.479931 0.403183-0.25992-0.298805-0.463558 0.3776-2.63092 1.7519-2.020006 0.535189-0.076748-0.066515-0.464581 0.291642-0.337691-0.388856-0.338714-0.385786-2.686179 1.127683-2.470261 0.466628-0.213871-0.184195-0.404206 0.195451-0.429789-0.49528-0.226151-1.110287-2.431376 0.38681-2.687202 0.38681-0.336668-0.290619-0.334621 0.063445-0.433882-0.50142-0.073678-1.780553-2.054799-0.384763-2.673899 0.283456-0.441045-0.381693-0.245593-0.068562-0.475837-0.546446 0.079818-2.238994-1.437745-1.140986-2.50096 0.135076-0.466628-0.402159-0.11768-0.194428-0.426719-0.490164 0.225127-2.574638-0.756223-1.76418-2.034333 0-0.533143-0.461511 0-0.326435-0.376577-0.430812 0.376577-2.63706 0-2.26253-1.453095-0.149403-0.511653-0.443092 0.12996-0.38681-0.24764-0.285502 0.446162-2.579755 0.75827-2.579755-0.75827L958.71153 455.92282 958.71153 455.92282zM961.014992 474.889801l1.128707 0 1.085728 0.319272 0.947582 0.608867 0.740874 0.855484 0.470721 1.028423 0.159636 1.11745-0.159636 1.11745-0.469698 1.027399-0.741897 0.854461-0.948605 0.610914-1.083681 0.318248-1.12973 0-1.083681-0.318248-0.948605-0.610914-0.741897-0.855484-0.468674-1.026376-0.159636-1.118474 0.159636-1.118474 0.468674-1.026376 0.741897-0.855484 0.947582-0.608867L961.014992 474.889801 961.014992 474.889801z" p-id="4347"></path><path d="M105.656877 480.072847l189.864232 0 0 0.511653-189.864232 0 0-0.511653Z" p-id="4348"></path><path d="M295.521109 480.072847l0 0.511653L105.656877 480.5845l0-0.511653L295.521109 480.072847M303.707558 471.886397l-8.18645 0L105.656877 471.886397l-8.18645 0 0 8.18645 0 0.511653 0 8.18645 8.18645 0 189.864232 0 8.18645 0 0-8.18645 0-0.511653L303.707558 471.886397 303.707558 471.886397z" p-id="4349"></path><path d="M95.818811 494.230288l-3.559059 0 0-0.255827-0.071631 0.245593-3.412726-1.003863 0.071631-0.245593-0.138146 0.214894-2.990101-1.921769 0.138146-0.214894-0.193405 0.167822-2.330068-2.688225 0.193405-0.167822-0.233314 0.106424-1.477654-3.235694 0.233314-0.106424-0.25378 0.036839-0.506537-3.520173 0.25378-0.036839-0.25378-0.036839 0.506537-3.520173 0.25378 0.036839-0.233314-0.106424 1.477654-3.234671 0.233314 0.106424-0.193405-0.167822 2.330068-2.688225 0.193405 0.167822-0.138146-0.214894 2.990101-1.924839 0.138146 0.214894-0.071631-0.245593 3.412726-1.000793 0.071631 0.245593 0-0.255827 3.559059 0 0 0.255827 0.071631-0.245593 3.412726 1.000793-0.071631 0.245593 0.138146-0.214894 2.991124 1.924839-0.138146 0.214894 0.193405-0.167822 2.329045 2.688225-0.193405 0.167822 0.233314-0.106424 1.478677 3.234671-0.233314 0.106424 0.25378-0.036839 0.505513 3.520173-0.25378 0.036839 0.25378 0.036839-0.505513 3.520173-0.25378-0.036839 0.233314 0.106424-1.478677 3.235694-0.233314-0.106424 0.193405 0.167822-2.329045 2.688225-0.193405-0.167822 0.138146 0.214894-2.991124 1.921769-0.138146-0.214894 0.071631 0.245593-3.412726 1.003863-0.071631-0.245593L95.818811 494.230288zM92.296591 493.718635l3.484358 0 3.343141-0.982374 2.928702-1.882883 2.28095-2.632967 1.447978-3.169179 0.49528-3.448542-0.49528-3.447519-1.447978-3.168156-2.28095-2.632967-2.928702-1.88493-3.343141-0.980327-3.484358 0-3.343141 0.980327-2.927679 1.88493-2.281973 2.632967-1.447978 3.168156-0.49528 3.447519 0.49528 3.448542 1.447978 3.169179 2.281973 2.632967 2.927679 1.882883L92.296591 493.718635z" p-id="4350"></path><path d="M95.818811 468.979184l0 0.255827 0.071631-0.245593 3.412726 1.000793-0.071631 0.245593 0.138146-0.214894 2.991124 1.924839-0.138146 0.214894 0.193405-0.167822 2.329045 2.688225-0.193405 0.167822 0.233314-0.106424 1.478677 3.234671-0.233314 0.106424 0.25378-0.036839 0.505513 3.520173-0.25378 0.036839 0.25378 0.036839-0.505513 3.520173-0.25378-0.036839 0.233314 0.106424-1.478677 3.235694-0.233314-0.106424 0.193405 0.167822-2.329045 2.688225-0.193405-0.167822 0.138146 0.214894-2.991124 1.921769-0.138146-0.214894 0.071631 0.245593-3.412726 1.003863-0.071631-0.245593 0 0.255827-3.559059 0 0-0.255827-0.071631 0.245593-3.412726-1.003863 0.071631-0.245593-0.138146 0.214894-2.990101-1.921769 0.138146-0.214894-0.193405 0.167822-2.330068-2.688225 0.193405-0.167822-0.233314 0.106424-1.477654-3.235694 0.233314-0.106424-0.25378 0.036839-0.506537-3.520173 0.25378-0.036839-0.25378-0.036839 0.506537-3.520173 0.25378 0.036839-0.233314-0.106424 1.477654-3.234671 0.233314 0.106424-0.193405-0.167822 2.330068-2.688225 0.193405 0.167822-0.138146-0.214894 2.990101-1.924839 0.138146 0.214894-0.071631-0.245593 3.412726-1.000793 0.071631 0.245593 0-0.255827L95.818811 468.979184M92.296591 493.718635l3.484358 0 3.343141-0.982374 2.928702-1.882883 2.28095-2.632967 1.447978-3.169179 0.49528-3.448542-0.49528-3.447519-1.447978-3.168156-2.28095-2.632967-2.928702-1.88493-3.343141-0.980327-3.484358 0-3.343141 0.980327-2.927679 1.88493-2.281973 2.632967-1.447978 3.168156-0.49528 3.447519 0.49528 3.448542 1.447978 3.169179 2.281973 2.632967 2.927679 1.882883L92.296591 493.718635M96.906585 458.701097l-0.295735 0.461511-2.571568 0.754177-2.589988-0.759293-0.289596-0.449231-0.388856 0.25071-0.450255-0.132006-0.150426 0.518816-2.249227 1.447978-2.668783 0-0.407276-0.353041-0.305969 0.353041-0.463558 0 0 0.534166-1.753947 2.0241-2.622734 0.768503-0.456395-0.207731-0.180102 0.393973-0.441045 0.128937 0.149403 0.509606-1.124614 2.463098-2.230808 1.435699-0.552585-0.080841-0.069585 0.480954-0.378623 0.243547 0.280386 0.436952-0.38374 2.668783-1.777483 2.050706-0.51063 0.074701 0.063445 0.441045-0.295735 0.340761 0.393973 0.341784 0.384763 2.676969-1.12359 2.460028-0.471744 0.215918 0.186242 0.408299-0.198521 0.435928 0.502443 0.228197 1.105171 2.421142-0.384763 2.679016-0.393973 0.340761 0.295735 0.340761-0.063445 0.440022 0.509606 0.074701 1.778506 2.051729 0.38374 2.668783-0.283456 0.442068 0.382717 0.246617 0.067538 0.471744 0.543376-0.079818 2.240017 1.439792 1.122567 2.459005-0.145309 0.497327 0.429789 0.12689 0.198521 0.435928 0.50142-0.229221 2.558265 0.75213 1.763157 2.034333 0 0.535189 0.464581 0 0.304945 0.352017 0.405229-0.352017 2.683109 0 2.233877 1.435699 0.156566 0.539282 0.468674-0.138146 0.37146 0.23843 0.277316-0.428765 2.600221-0.765433 2.580778 0.760317 0.283456 0.441045 0.382717-0.245593 0.455371 0.134053 0.153496-0.525979 2.25025-1.445932 2.685155 0 0.406253 0.353041 0.305969-0.353041 0.461511 0 0-0.533143 1.765203-2.038426 2.555196-0.751107 0.499373 0.229221 0.198521-0.433882 0.417509-0.122797-0.140193-0.484024 1.12973-2.473331 2.243087-1.440815 0.546446 0.079818 0.067538-0.474814 0.381693-0.24457-0.282433-0.441045 0.38374-2.675946 1.77339-2.046612 0.509606-0.073678-0.063445-0.441045 0.295735-0.341784-0.393973-0.341784-0.38374-2.670829 1.113357-2.436492 0.49528-0.225127-0.196475-0.428765 0.183172-0.401136-0.464581-0.212848-1.131777-2.476401 0.38374-2.668783 0.393973-0.342808-0.296759-0.341784 0.063445-0.442068-0.51063-0.073678-1.772366-2.046612-0.38374-2.675946 0.279363-0.435928-0.376577-0.242524-0.069585-0.483001-0.555655 0.080841-2.232854-1.436722-1.1328-2.477424 0.144286-0.49528-0.427742-0.125867-0.179079-0.391926-0.454348 0.206708-2.619664-0.76748-1.755993-2.02717 0-0.532119-0.460488 0-0.306992-0.354064-0.408299 0.354064-2.670829 0-2.2656-1.458211-0.148379-0.505513-0.437975 0.127913L96.906585 458.701097 96.906585 458.701097zM93.47237 477.67524l1.1328 0 1.081635 0.317225 0.947582 0.60989 0.741897 0.856507 0.469698 1.026376 0.160659 1.116427-0.160659 1.118474-0.469698 1.027399-0.740874 0.854461-0.948605 0.60989-1.083681 0.318248-1.12973 0-1.082658-0.318248-0.949628-0.60989-0.741897-0.855484-0.468674-1.026376-0.160659-1.118474 0.160659-1.116427 0.468674-1.025353 0.74292-0.857531 0.947582-0.60989L93.47237 477.67524 93.47237 477.67524z" p-id="4351"></path><path d="M760.090866 675.870208 295.519062 675.870208l0-0.255827-0.255827 0L295.263236 316.89644l0.255827 0 0-0.255827 464.571804 0 0 0.255827 0.255827 0 0 358.716918-0.255827 0L760.090866 675.870208 760.090866 675.870208zM295.774889 675.358555l464.060151 0L759.83504 317.152267 295.774889 317.152267 295.774889 675.358555z" p-id="4352"></path><path d="M760.090866 316.640614l0 0.255827 0.255827 0 0 358.716918-0.255827 0 0 0.25685L295.519062 675.870208l0-0.255827-0.255827 0L295.263236 316.89644l0.255827 0 0-0.255827L760.090866 316.640614M295.774889 675.358555l464.060151 0L759.83504 317.152267 295.774889 317.152267 295.774889 675.358555M768.277316 308.454164l-8.18645 0L295.519062 308.454164l-8.18645 0 0 0.255827-0.255827 0 0 8.18645 0 358.717941 0 8.18645 0.255827 0 0 0.255827 8.18645 0 464.571804 0 8.18645 0 0-0.25685 0.255827 0 0-8.18645L768.533143 316.89644l0-8.18645-0.255827 0L768.277316 308.454164 768.277316 308.454164zM303.961338 325.338716l447.687252 0 0 341.833389L303.961338 667.172105 303.961338 325.338716 303.961338 325.338716z" p-id="4353"></path></svg>