<?xml version="1.0" standalone="no"?><!DOCTYPE svg PUBLIC "-//W3C//DTD SVG 1.1//EN" "http://www.w3.org/Graphics/SVG/1.1/DTD/svg11.dtd"><svg t="1740105108141" class="icon" viewBox="0 0 1024 1024" version="1.1" xmlns="http://www.w3.org/2000/svg" p-id="16988" width="128" height="128" xmlns:xlink="http://www.w3.org/1999/xlink"><path d="M688.8448 322.816c-99.0208 0-166.144-45.312-243.2512-97.28l-11.1104-7.5264c-11.776-8.0896-23.7056-16.5888-35.1232-24.832-52.6848-37.7344-107.1104-76.8-173.1584-76.8-53.2992 0.0512-108.4416 106.3936-126.7712 157.8496a29.7472 29.7472 0 1 1-56.32-19.968c7.2192-20.1728 73.472-197.3248 182.7328-197.3248 85.1968 0 150.3232 46.6432 207.8208 87.8592 11.6736 8.3968 22.7328 16.2816 33.792 23.7568l11.2128 7.5776c78.4896 52.992 135.2192 91.2384 223.7952 87.04 126.1568-6.4 230.7584-130.1504 231.7824-131.4304a29.7472 29.7472 0 1 1 45.7216 38.144c-5.12 5.888-122.624 145.0496-274.4832 152.7296-5.4784-0.0512-11.1104 0.2048-16.64 0.2048zM686.4384 647.5776c-99.0208 0-166.144-45.3632-243.2-97.28L432.0768 542.72c-11.776-7.936-23.7056-16.4864-35.2256-24.7296-52.6336-37.7344-107.0592-76.8-173.1584-76.8C170.496 441.1904 115.4048 547.4816 97.28 599.04a29.7472 29.7472 0 0 1-56.32-19.968c7.168-20.48 73.472-197.376 182.6816-197.376 85.1968 0 150.3744 46.6944 207.8208 87.9104 11.7248 8.3456 22.784 16.2816 33.8432 23.7056l11.2128 7.5776c78.4896 53.0432 135.168 91.2384 223.7952 87.04 125.5936-6.3488 230.7072-130.1504 231.7824-131.4304a29.7472 29.7472 0 0 1 45.824 37.888c-5.12 5.9392-122.5728 145.0496-274.4832 152.7296q-8.704 0.4608-16.9984 0.4608zM684.0832 953.2416c-99.0208 0-166.144-45.312-243.2-97.28l-11.1616-7.5264c-11.776-7.936-23.7056-16.4352-35.2256-24.7296-52.6336-37.6832-107.1104-76.8-173.1584-76.8-53.1968 0-108.288 106.2912-126.6688 157.7984a29.7472 29.7472 0 0 1-56.064-19.968c7.2192-20.48 73.472-197.376 182.7328-197.376 85.1968 0 150.3232 46.6944 207.8208 87.8592 11.6736 8.3968 22.7328 16.3328 33.792 23.7568l11.2128 7.5776c78.4896 52.992 135.2192 91.2384 223.7952 87.04 126.1568-6.4 230.7584-130.1504 231.7824-131.3792a29.7472 29.7472 0 1 1 45.7216 38.0928c-5.12 5.9392-122.5728 145.0496-274.4832 152.7296-5.7344 0.1024-11.3664 0.2048-16.896 0.2048z" p-id="16989" fill="#1296db"></path><path d="M472.1664 315.3408a29.8496 29.8496 0 0 1-21.1456-50.7392l119.552-120.7296a29.7472 29.7472 0 1 1 42.2912 41.8816L493.3632 306.4832a29.7984 29.7984 0 0 1-21.1968 8.8576zM467.456 967.0656a29.7472 29.7472 0 0 1-21.1456-50.688l119.5008-120.7296a29.7472 29.7472 0 1 1 42.2912 41.8816l-119.5008 120.7296a29.696 29.696 0 0 1-21.1456 8.8064z" p-id="16990" fill="#1296db"></path></svg>