<?xml version="1.0" encoding="utf-8"?>
<!-- Generator: Adobe Illustrator 16.0.0, SVG Export Plug-In . SVG Version: 6.00 Build 0)  -->
<!DOCTYPE svg PUBLIC "-//W3C//DTD SVG 1.1//EN" "http://www.w3.org/Graphics/SVG/1.1/DTD/svg11.dtd">
<svg version="1.1" id="图层_1" xmlns="http://www.w3.org/2000/svg" xmlns:xlink="http://www.w3.org/1999/xlink" x="0px" y="0px"
	 width="200px" height="200px" viewBox="0 0 200 200" enable-background="new 0 0 200 200" xml:space="preserve">
<path opacity="0.65" fill="#727272" enable-background="new    " d="M44.984,163.594v6.331c0,3.452,2.798,6.25,6.25,6.25h95.997
	c3.452,0,6.25-2.798,6.25-6.25l-0.003-6.331H44.984z M167.2,101.125H32.813c-3.452,0-6.25,2.799-6.25,6.25v36.894
	c0,3.452,2.798,6.25,6.25,6.25H167.2c3.452,0,6.25-2.798,6.25-6.25v-36.894C173.45,103.924,170.652,101.125,167.2,101.125z
	 M100.284,12.5c3.851,0,6.969,3.172,6.969,7.081l0.007,44.072h9.563c2.859,0,4.196,3.603,2.043,5.516l-16.537,14.703
	c-1.162,1.037-2.917,1.037-4.078,0L81.709,69.169c-2.15-1.913-0.819-5.516,2.041-5.516h9.565V19.581
	C93.315,15.672,96.438,12.5,100.284,12.5z M31.05,34.444V34.44l0.013-0.625c0.332-6.653,5.823-11.876,12.484-11.875h24.594
	c3.913,0,7.084,3.172,7.084,7.084s-3.172,7.084-7.084,7.084H51.234c-3.452,0-6.25,2.798-6.25,6.25v45.688h108.494V47.516
	l-10.757-11.406h-12.513c-3.85,0-6.969-3.172-6.969-7.084c0-3.909,3.119-7.081,6.969-7.081h12.844
	c3.602,0.006,7.039,1.499,9.504,4.125l11.206,11.878c2.354,2.507,3.661,5.818,3.656,9.256l0.013,40.844h7.581
	c6.903,0,12.5,5.597,12.5,12.5v50.55c0,6.903-5.597,12.5-12.5,12.5l-7.56-0.003l0.003,13.972h0.003c0,6.906-5.594,12.503-12.5,12.5
	H43.584c-6.9,0-12.5-5.597-12.5-12.5l-0.006-13.972H25c-6.903,0-12.5-5.597-12.5-12.5V100.55c0-6.903,5.597-12.5,12.5-12.5h6.063
	L31.05,34.444z"/>
<rect x="26.507" y="111.5" fill="none" width="147" height="39.019"/>
<text transform="matrix(1.0008 0 0 1 67.875 140.6689)" fill="#5280C1" font-family="'Arial-BoldMT'" font-size="34">TXT</text>
</svg>
