<?xml version="1.0" encoding="utf-8"?>
<!-- Generator: Adobe Illustrator 16.0.0, SVG Export Plug-In . SVG Version: 6.00 Build 0)  -->
<!DOCTYPE svg PUBLIC "-//W3C//DTD SVG 1.1//EN" "http://www.w3.org/Graphics/SVG/1.1/DTD/svg11.dtd">
<svg version="1.1" id="图层_1" xmlns="http://www.w3.org/2000/svg" xmlns:xlink="http://www.w3.org/1999/xlink" x="0px" y="0px"
	 width="200px" height="200px" viewBox="0 0 200 200" enable-background="new 0 0 200 200" xml:space="preserve">
<path fill="#669E8B" enable-background="new    " d="M100.284,12.5c3.851,0,6.969,3.172,6.969,7.081l0.007,44.072h9.563
	c2.858,0,4.196,3.603,2.043,5.516l-16.537,14.703c-1.162,1.037-2.917,1.037-4.078,0L81.709,69.169
	c-2.15-1.913-0.819-5.516,2.041-5.516h9.565V19.581C93.315,15.672,96.438,12.5,100.284,12.5z"/>
<path fill="#727272" enable-background="new    " d="M31.05,34.444V34.44l0.013-0.625c0.332-6.653,5.823-11.876,12.484-11.875
	h24.594c3.913,0,7.084,3.172,7.084,7.084s-3.172,7.084-7.084,7.084H51.234c-3.452,0-6.25,2.798-6.25,6.25v45.688h108.495v-40.53
	L142.721,36.11h-12.513c-3.851,0-6.97-3.172-6.97-7.084c0-3.909,3.119-7.081,6.97-7.081h12.844c3.603,0.006,7.039,1.499,9.505,4.125
	l11.205,11.878c2.354,2.507,3.661,5.818,3.656,9.256l0.014,40.844h7.58c6.903,0,12.5,5.597,12.5,12.5v50.55
	c0,6.903-5.597,12.5-12.5,12.5l-7.56-0.003l0.003,13.972h0.003c0,6.906-5.595,12.504-12.5,12.5H43.584c-6.9,0-12.5-5.597-12.5-12.5
	l-0.006-13.972H25c-6.903,0-12.5-5.597-12.5-12.5V100.55c0-6.903,5.597-12.5,12.5-12.5h6.063L31.05,34.444z"/>
<path fill="#BDCDE8" enable-background="new    " d="M44.984,163.594v6.331c0,3.452,2.798,6.25,6.25,6.25h95.997
	c3.453,0,6.25-2.798,6.25-6.25l-0.002-6.331H44.984z"/>
<path fill="#BDCDE8" enable-background="new    " d="M167.2,101.125H32.813c-3.452,0-6.25,2.799-6.25,6.25v36.895
	c0,3.451,2.798,6.25,6.25,6.25H167.2c3.452,0,6.25-2.799,6.25-6.25v-36.895C173.45,103.924,170.652,101.125,167.2,101.125z"/>
<g enable-background="new    ">
	<path fill="#5280C1" d="M67.22,143.002v-28.828H56.916v-5.869h27.596v5.869H74.231v28.828H67.22z"/>
	<path fill="#5280C1" d="M85.506,143.002l11.868-18.106l-10.755-16.591h8.196l6.964,11.146l6.82-11.146h8.127l-10.803,16.852
		l11.869,17.846h-8.457l-7.699-12l-7.721,12H85.506z"/>
	<path fill="#5280C1" d="M129.209,143.002v-28.828h-10.305v-5.869H146.5v5.869h-10.279v28.828H129.209z"/>
</g>
</svg>
