<?xml version="1.0" standalone="no"?><!DOCTYPE svg PUBLIC "-//W3C//DTD SVG 1.1//EN" "http://www.w3.org/Graphics/SVG/1.1/DTD/svg11.dtd"><svg t="1710000763052" class="icon" viewBox="0 0 1024 1024" version="1.1" xmlns="http://www.w3.org/2000/svg" p-id="14514" xmlns:xlink="http://www.w3.org/1999/xlink" width="200" height="200"><path d="M764.9 64H225.4l1.4 224.2 64-0.4-1-159.8h383.6v224H896v544H289.8l1-159.8-64-0.4-1.4 224.2H960V277.7L764.9 64z m-27.6 64.7L882.8 288H737.3V128.7z" fill="#727272" p-id="14515"></path><path d="M356.5 224h255.9v64H356.5z" fill="#497CAD" p-id="14516"></path><path d="M576.4 416h255.9v64H576.4zM512.5 576h319.8v64H512.5zM384.5 736h447.8v64H384.5z" fill="#B2B2B2" p-id="14517"></path><path d="M336.9 349H198.6l98.9 98.9H64v128.2h233.5L198.6 675h138.3l162.9-163z" fill="#497CAD" p-id="14518"></path></svg>