<?xml version="1.0" standalone="no"?><!DOCTYPE svg PUBLIC "-//W3C//DTD SVG 1.1//EN" "http://www.w3.org/Graphics/SVG/1.1/DTD/svg11.dtd"><svg t="1744081099363" class="icon" viewBox="0 0 1536 1024" version="1.1" xmlns="http://www.w3.org/2000/svg" p-id="4469" xmlns:xlink="http://www.w3.org/1999/xlink" width="192" height="128"><path d="M938.965333 266.666667c30.293333 0 33.578667 9.386667 43.946667 61.013333 4.522667 22.570667 9.642667 54.912 17.28 107.776 24.277333 168.576 61.141333 318.037333 83.712 357.12l0.426667 0.810667c8.277333 14.08 13.568 16.853333 93.909333 17.109333h28.501333a14984.789333 14984.789333 0 0 0 49.834667-0.128H1280a32 32 0 0 1 0 64h-23.296c-8.064 0-16.853333 0-27.562667 0.085333-158.037333 0.554667-172.458667-1.877333-199.978666-48.64l-0.682667-1.237333c-26.197333-45.397333-61.482667-184.576-86.741333-347.178667l-0.896-5.802666-0.469334 3.968c-20.736 157.781333-51.242667 303.957333-72.064 351.36l-2.048 4.394666c-28.714667 58.112-217.856 56.106667-247.509333 1.024-16.213333-30.122667-41.728-103.765333-62.208-178.645333l-0.768-2.730667-2.56 11.392c-16.768 72.96-40.277333 143.914667-58.453333 172.245334l-2.986667 4.309333c-3.456 4.650667-6.826667 8.746667-10.24 12.501333-31.146667 34.261333-46.933333 36.48-154.154667 34.005334A2933.290667 2933.290667 0 0 0 256 884.48a32 32 0 1 1 0-64c24.32 0 45.312 0.341333 72.832 0.938667 85.888 2.005333 92.544 1.066667 105.344-13.056 1.962667-2.133333 4.053333-4.693333 6.314667-7.765334 15.488-20.693333 47.317333-124.416 61.866666-209.450666 21.802667-127.402667 73.557333-127.402667 103.637334-2.048 20.309333 84.778667 52.48 182.016 69.12 212.906666 5.461333 10.24 128.554667 11.52 133.802666 0.981334 17.834667-36.096 51.541333-199.210667 71.936-366.805334 6.4-52.906667 10.837333-85.248 14.848-107.776 2.389333-13.354667 4.650667-23.338667 7.125334-30.890666 6.4-19.541333 13.738667-30.848 36.138666-30.848z" fill="#333333" p-id="4470"></path><path d="M512 256h85.333333v170.666667h-85.333333V256z m384-213.333333h85.333333v170.666666h-85.333333V42.666667z" fill="#E06100" p-id="4471"></path></svg>