<?xml version="1.0" encoding="utf-8"?>
<!-- Generator: Adobe Illustrator 16.0.0, SVG Export Plug-In . SVG Version: 6.00 Build 0)  -->
<!DOCTYPE svg PUBLIC "-//W3C//DTD SVG 1.1//EN" "http://www.w3.org/Graphics/SVG/1.1/DTD/svg11.dtd">
<svg version="1.1" id="图层_1" xmlns="http://www.w3.org/2000/svg" xmlns:xlink="http://www.w3.org/1999/xlink" x="0px" y="0px"
	 width="216.602px" height="200px" viewBox="0 0 216.602 200" enable-background="new 0 0 216.602 200" xml:space="preserve">
<path fill="#CE6043" d="M172.468,179.331l38.833,0.5v8.166l-27.664-0.106c-16.166-0.5-41.669-0.399-66.973-0.392
	c-19.041,0.006-30.033-18.133-36.383-52.149l-0.9-5.084c-0.283-1.75-0.558-3.517-0.833-5.324l-0.767-5.541l-0.708-5.76l-0.659-5.982
	l-0.601-6.208l-0.6-7.034l-0.583-7.983l-0.55-8.517l-1.9-36.5l-0.458-7.25l-0.242-3.042L71.242,28.4l-0.15-1.383l-0.367,6.333
	l-1.283,31.233l-0.408,8.183l-0.208,3.642l-0.458,6.667l-0.525,6.208l-0.467,4.65l-0.75,6.558l-0.775,6.1
	c-7.434,54.041-25.7,85.074-61.684,85.074C1.866,191.666,0,189.801,0,187.5s1.866-4.166,4.167-4.166
	c29.066,0,45.217-25.484,52.566-72.018l0.858-5.801l0.775-6.008l0.616-5.4l0.566-5.617l0.508-5.975l0.634-9.617l0.476-9.667
	l1.191-29.475l0.367-7.233l0.208-3.05l0.226-2.692l0.258-2.367l0.149-1.066l0.316-1.909c0.8-4.116,1.983-5.95,3.958-6.683
	l0.892-0.25l1-0.133l1.101-0.041l1.033,0.042c2.815,0.258,4.583,1.717,5.808,5.9l0.417,1.6l0.367,1.833L78.8,19.8l0.309,2.375
	l0.292,2.65l0.268,2.958l0.367,5.033l0.6,10.125l1.525,30l0.441,7.567l0.467,7.083l0.5,6.708l0.559,6.467L84.733,107l0.667,5.992
	l0.358,2.898l0.75,5.616c0.267,1.834,0.533,3.625,0.817,5.375L88.208,132l0.933,4.867c5.667,27.633,14.56,42.299,27.524,42.299
	c13.233,0,22.803,0.164,37.636-0.002L172.468,179.331z"/>
<path fill="none" stroke="#000000" stroke-miterlimit="10" d="M205.135,44.5"/>
<path fill="none" stroke="#000000" stroke-miterlimit="10" d="M125.135,44.5"/>
<path fill="none" stroke="#000000" stroke-miterlimit="10" d="M114.301,192.333"/>
<path fill="none" stroke="#000000" stroke-miterlimit="10" d="M125.135,44.5"/>
<rect x="114.301" y="25.833" fill="#5280C1" width="6.833" height="165.832"/>
<rect x="114.301" y="25.833" fill="#5280C1" width="97" height="6.333"/>
</svg>
