<?xml version="1.0" encoding="utf-8"?>
<!-- Generator: Adobe Illustrator 16.0.0, SVG Export Plug-In . SVG Version: 6.00 Build 0)  -->
<!DOCTYPE svg PUBLIC "-//W3C//DTD SVG 1.1//EN" "http://www.w3.org/Graphics/SVG/1.1/DTD/svg11.dtd">
<svg version="1.1" id="图层_1" xmlns="http://www.w3.org/2000/svg" xmlns:xlink="http://www.w3.org/1999/xlink" x="0px" y="0px"
	 width="216.602px" height="200px" viewBox="0 0 216.602 200" enable-background="new 0 0 216.602 200" xml:space="preserve">
<path fill="#CE6043" d="M70.833,8.333l1.033,0.042c2.816,0.258,4.583,1.717,5.808,5.9l0.417,1.6l0.367,1.833L78.8,19.8l0.309,2.375
	l0.292,2.65l0.267,2.958l0.367,5.033l0.6,10.125l1.525,30l0.442,7.567l0.467,7.083l0.5,6.708l0.558,6.467L84.733,107l0.667,5.992
	l0.358,2.899l0.75,5.616c0.267,1.834,0.533,3.625,0.817,5.375L88.208,132l0.933,4.867c5.667,27.633,14.559,42.299,27.524,42.299
	c13.234,0,21.984-17.049,27.668-48.658l0.916-5.283l0.858-5.6l0.875-6.117l2.625-19.725l0.917-6.033l0.5-2.742l0.5-2.35
	c1.35-5.775,3.041-7.658,6.809-7.658c3.883,0,5.416,1.375,6.441,7.2l0.342,2.25l0.316,2.642l0.475,4.783l1.358,15.6l0.325,3.367
	c0.733,7.283,1.566,13.642,2.658,19.666c5.666,31.5,17.217,48.658,38.084,48.658c2.301,0,4.166,1.866,4.166,4.168
	c0,2.301-1.865,4.166-4.166,4.166l0,0c-26.184,0-39.984-20.5-46.293-55.508c-0.976-5.521-1.762-11.075-2.357-16.65l-0.551-5.367
	l-1.308-14.85l-2.583,19.525l-0.893,6.225l-0.441,2.908l-0.9,5.525l-0.467,2.684l-1.049,5.482
	c-6.459,32.134-16.601,50.025-34.826,50.025c-19.041,0-30.033-18.133-36.383-52.15l-0.9-5.083c-0.283-1.75-0.558-3.517-0.833-5.325
	l-0.767-5.541l-0.708-5.759l-0.659-5.983l-0.6-6.208l-0.6-7.034l-0.583-7.983l-0.55-8.517l-1.9-36.5l-0.458-7.25l-0.242-3.042
	L71.242,28.4l-0.15-1.383l-0.367,6.333l-1.283,31.233l-0.409,8.183l-0.208,3.642l-0.458,6.667l-0.525,6.208l-0.467,4.65l-0.75,6.558
	l-0.775,6.1c-7.434,54.041-25.7,85.074-61.684,85.074C1.866,191.666,0,189.801,0,187.5s1.866-4.166,4.167-4.166
	c29.067,0,45.217-25.484,52.567-72.018l0.858-5.8l0.775-6.008l0.617-5.4l0.566-5.617l0.508-5.975l0.634-9.617l0.475-9.667
	l1.192-29.475l0.367-7.233l0.208-3.05l0.225-2.692l0.258-2.367l0.15-1.066l0.316-1.909c0.8-4.116,1.983-5.95,3.958-6.683l0.892-0.25
	l1-0.133L70.833,8.333z"/>
</svg>
