<?xml version="1.0" standalone="no"?><!DOCTYPE svg PUBLIC "-//W3C//DTD SVG 1.1//EN" "http://www.w3.org/Graphics/SVG/1.1/DTD/svg11.dtd"><svg t="1747031325513" class="icon" viewBox="0 0 1026 1024" version="1.1" xmlns="http://www.w3.org/2000/svg" p-id="2868" xmlns:xlink="http://www.w3.org/1999/xlink" width="200.390625" height="200"><path d="M514.56 1024a512 512 0 1 1 512-512 512.5632 512.5632 0 0 1-512 512z m0-972.8a460.8 460.8 0 1 0 460.8 460.8 461.312 461.312 0 0 0-460.8-460.8z" fill="#0AA8D5" p-id="2869"></path><path d="M209.92 243.2a25.6 25.6 0 1 1-25.6 25.6 25.6 25.6 0 0 1 25.6-25.6m0-30.72a56.32 56.32 0 1 0 56.32 56.32 56.32 56.32 0 0 0-56.32-56.32zM209.92 729.6a25.6 25.6 0 1 1-25.6 25.6 25.6 25.6 0 0 1 25.6-25.6m0-30.72a56.32 56.32 0 1 0 56.32 56.32 56.32 56.32 0 0 0-56.32-56.32zM819.2 243.2a25.6 25.6 0 1 1-25.6 25.6 25.6 25.6 0 0 1 25.6-25.6m0-30.72a56.32 56.32 0 1 0 56.32 56.32 56.32 56.32 0 0 0-56.32-56.32zM819.2 729.6a25.6 25.6 0 1 1-25.6 25.6 25.6 25.6 0 0 1 25.6-25.6m0-30.72a56.32 56.32 0 1 0 56.32 56.32 56.32 56.32 0 0 0-56.32-56.32zM522.24 596.48a25.6 25.6 0 1 1-25.6 25.6 25.6 25.6 0 0 1 25.6-25.6m0-30.72a56.32 56.32 0 1 0 56.32 56.32 56.32 56.32 0 0 0-56.32-56.32zM522.24 355.84a25.6 25.6 0 1 1-25.6 25.6 25.6 25.6 0 0 1 25.6-25.6m0-30.72a56.32 56.32 0 1 0 56.32 56.32 56.32 56.32 0 0 0-56.32-56.32z" fill="#0AA8D5" p-id="2870"></path><path d="M517.12 592.9472L234.752 310.528l21.7088-21.7088L517.12 549.4784l260.6592-260.6592 21.7088 21.7088L517.12 592.9472z" fill="#0AA8D5" p-id="2871"></path><path d="M793.1392 730.0608L522.24 459.1616l-270.8992 270.8992-21.7088-21.7088L522.24 415.6928l292.608 292.6592-21.7088 21.7088z" fill="#0AA8D5" p-id="2872"></path></svg>