<?xml version="1.0" standalone="no"?><!DOCTYPE svg PUBLIC "-//W3C//DTD SVG 1.1//EN" "http://www.w3.org/Graphics/SVG/1.1/DTD/svg11.dtd"><svg t="1744679755841" class="icon" viewBox="0 0 1024 1024" version="1.1" xmlns="http://www.w3.org/2000/svg" p-id="52849" xmlns:xlink="http://www.w3.org/1999/xlink" width="128" height="128"><path d="M166.4 166.4h691.2v691.2h-691.2z" fill="#FFFFFF" p-id="52850"></path><path d="M844.8 179.2v665.6H179.2V179.2h665.6m25.6-25.6H153.6v716.8h716.8V153.6z" fill="#777677" p-id="52851"></path><path d="M691.2 332.8m-102.4 0a102.4 102.4 0 1 0 204.8 0 102.4 102.4 0 1 0-204.8 0Z" fill="#FBEAAE" p-id="52852"></path><path d="M678.4 665.6c-91.904 0-166.4-45.824-166.4-102.4s-74.496-102.4-166.4-102.4S179.2 506.624 179.2 563.2v281.6h665.6V563.2c0 56.576-74.496 102.4-166.4 102.4z" fill="#C8DAF4" p-id="52853"></path><path d="M460.8 179.2h25.6v665.6h-25.6z" fill="#777677" p-id="52854"></path><path d="M537.6 179.2h25.6v665.6h-25.6z" fill="#777677" p-id="52855"></path><path d="M486.4 153.6h51.2v716.8h-51.2z" fill="#FFFFFF" p-id="52856"></path><path d="M563.2 332.8v25.6h281.6v-25.6H563.2z m0 102.4h281.6v-25.6H563.2v25.6z m0 179.2h281.6v-25.6H563.2v25.6z m0 76.8h281.6v-25.6H563.2v25.6z" fill="#777677" p-id="52857"></path><path d="M537.6 358.4v51.2h332.8v-51.2H537.6z m0 307.2h332.8v-51.2H537.6v51.2z" fill="#FFFFFF" p-id="52858"></path><path d="M716.8 307.2V179.2h-51.2v25.6h25.6v102.4h-25.6v25.6h76.8v-25.6z" fill="#949394" p-id="52859"></path><path d="M665.6 435.2v25.6h76.8v51.2h25.6v-76.8h-102.4z m51.2 102.4h25.6v-25.6h-25.6v25.6z m-25.6 25.6h-25.6v25.6h102.4v-25.6h-51.2v-25.6h-25.6v25.6z" fill="#949394" p-id="52860"></path><path d="M768 691.2h-76.8v25.6h51.2v25.6h25.6v-51.2z m-76.8 51.2v25.6h51.2v-25.6h-51.2z m-25.6 76.8v25.6h102.4v-76.8h-25.6v51.2h-76.8z" fill="#949394" p-id="52861"></path><path d="M333.568 640.256h205.824v128h-205.824z" fill="#FFFFFF" p-id="52862"></path><path d="M513.024 563.456v285.696l165.376-142.848z" fill="#FFFFFF" p-id="52863"></path><path d="M359.424 665.344h186.624v76.8h-186.624z" fill="#FF806C" p-id="52864"></path><path d="M539.392 615.68v178.176l101.632-90.112z" fill="#FF806C" p-id="52865"></path></svg>