<svg xmlns="http://www.w3.org/2000/svg" xmlns:xlink="http://www.w3.org/1999/xlink" width="129.376450" height="120.462364" viewBox="0 0 129.376 120.462"><path d="M38.0335 0L38.5883 0.0223726C40.1007 0.161083 41.0493 0.944125 41.7071 3.19034L41.9308 4.04945L42.1277 5.03384L42.3111 6.15695L42.4767 7.43219L42.6333 8.85509L42.7765 10.4435L42.9734 13.1462L43.2955 18.5827L44.1144 34.691L44.3515 38.7539L44.6021 42.5572L44.8706 46.1592L45.1703 49.6315L45.497 52.9784L45.8549 56.1956L46.0474 57.7527L46.4501 60.7685C46.5932 61.7529 46.7364 62.715 46.8886 63.6546L47.3629 66.402L47.864 69.0151C50.9067 83.8526 55.681 91.7278 62.6434 91.7278C69.7489 91.7278 74.4472 82.5729 77.4988 65.601L77.991 62.7642L78.4519 59.7573L78.9217 56.473L80.3312 45.8818L80.8234 42.6422L81.0919 41.1701L81.3603 39.9083C82.0852 36.8075 82.9935 35.7962 85.016 35.7962C87.1011 35.7962 87.9245 36.5345 88.4748 39.6622L88.6583 40.8703L88.8283 42.2888L89.0834 44.8571L89.8127 53.2334L89.9872 55.0412C90.381 58.9519 90.8284 62.3659 91.4146 65.601C94.4573 82.5147 100.659 91.7278 111.863 91.7278C112.481 91.7278 113.008 91.9462 113.445 92.3831C113.882 92.8199 114.1 93.3473 114.1 93.9651C114.1 94.5829 113.882 95.1102 113.445 95.547C113.008 95.9839 112.481 96.2023 111.863 96.2023C97.8042 96.2023 90.3944 85.195 87.0072 66.3975C86.4828 63.432 86.0607 60.4519 85.7409 57.4574L85.4456 54.5758L84.7431 46.6022L83.356 57.086L82.8772 60.4285L82.64 61.9901L82.1568 64.9567L81.9062 66.3975L81.3424 69.3418C77.8747 86.5955 72.4292 96.2023 62.6434 96.2023C52.4191 96.2023 46.5172 86.4658 43.1076 68.2007L42.6243 65.4713C42.4722 64.5316 42.3245 63.583 42.1769 62.6121L41.7652 59.6365L41.3849 56.5446L41.0314 53.3319L40.7092 49.9984L40.3871 46.2219L40.0739 41.9353L39.7785 37.3623L38.7584 17.7639L38.5123 13.871L38.3825 12.2378L38.2527 10.7747L38.1722 10.0319L37.9753 13.4325L37.2862 30.2031L37.067 34.597L36.9551 36.5524L36.709 40.132L36.4271 43.4655L36.1765 45.9623L35.7738 49.4838L35.3577 52.7591C31.3664 81.7765 21.5583 98.4396 2.23726 98.4396C1.61946 98.4396 1.09213 98.2212 0.65528 97.7843C0.218426 97.3475 0 96.8201 0 96.2023C0 95.5845 0.218426 95.0572 0.65528 94.6203C1.09213 94.1835 1.61946 93.9651 2.23726 93.9651C17.8444 93.9651 26.516 80.282 30.4626 55.2962L30.9235 52.1819L31.3396 48.9558L31.6707 46.0563L31.975 43.0405L32.2479 39.8322L32.588 34.6686L32.843 29.4782L33.4829 13.6518L33.6798 9.76789L33.7916 8.13021L33.9124 6.68494L34.0512 5.41417L34.1317 4.84143L34.3017 3.81677C34.7313 1.60635 35.3667 0.621956 36.4271 0.228198L36.9059 0.0939619L37.4428 0.0223694L38.0335 0L38.0335 0Z" fill="#3F7AE8" fill-opacity="1.000000" transform="matrix(1 0 0 1 6.53685 11.0114)"/><path d="M38.0335 0L38.5883 0.0223726C40.1007 0.161083 41.0493 0.944125 41.7071 3.19034L41.9308 4.04945L42.1277 5.03384L42.3111 6.15695L42.4767 7.43219L42.6333 8.85509L42.7765 10.4435L42.9734 13.1462L43.2955 18.5827L44.1144 34.691L44.3515 38.7539L44.6021 42.5572L44.8706 46.1592L45.1703 49.6315L45.497 52.9784L45.8549 56.1956L46.0474 57.7527L46.4501 60.7685C46.5932 61.7529 46.7364 62.715 46.8886 63.6546L47.3629 66.402L47.864 69.0151C50.9067 83.8526 55.681 91.7278 62.6434 91.7278C69.7489 91.7278 74.4472 82.5729 77.4988 65.601L77.991 62.7642L78.4519 59.7573L78.9217 56.473L80.3312 45.8818L80.8234 42.6422L81.0919 41.1701L81.3603 39.9083C82.0852 36.8075 82.9935 35.7962 85.016 35.7962C87.1011 35.7962 87.9245 36.5345 88.4748 39.6622L88.6583 40.8703L88.8283 42.2888L89.0834 44.8571L89.8127 53.2334L89.9872 55.0412C90.381 58.9519 90.8284 62.3659 91.4146 65.601C94.4573 82.5147 100.659 91.7278 111.863 91.7278C112.481 91.7278 113.008 91.9462 113.445 92.3831C113.882 92.8199 114.1 93.3473 114.1 93.9651C114.1 94.5829 113.882 95.1102 113.445 95.547C113.008 95.9839 112.481 96.2023 111.863 96.2023C97.8042 96.2023 90.3944 85.195 87.0072 66.3975C86.4828 63.432 86.0607 60.4519 85.7409 57.4574L85.4456 54.5758L84.7431 46.6022L83.356 57.086L82.8772 60.4285L82.64 61.9901L82.1568 64.9567L81.9062 66.3975L81.3424 69.3418C77.8747 86.5955 72.4292 96.2023 62.6434 96.2023C52.4191 96.2023 46.5172 86.4658 43.1076 68.2007L42.6243 65.4713C42.4722 64.5316 42.3245 63.583 42.1769 62.6121L41.7652 59.6365L41.3849 56.5446L41.0314 53.3319L40.7092 49.9984L40.3871 46.2219L40.0739 41.9353L39.7785 37.3623L38.7584 17.7639L38.5123 13.871L38.3825 12.2378L38.2527 10.7747L38.1722 10.0319L37.9753 13.4325L37.2862 30.2031L37.067 34.597L36.9551 36.5524L36.709 40.132L36.4271 43.4655L36.1765 45.9623L35.7738 49.4838L35.3577 52.7591C31.3664 81.7765 21.5583 98.4396 2.23726 98.4396C1.61946 98.4396 1.09213 98.2212 0.65528 97.7843C0.218426 97.3475 0 96.8201 0 96.2023C0 95.5845 0.218426 95.0572 0.65528 94.6203C1.09213 94.1835 1.61946 93.9651 2.23726 93.9651C17.8444 93.9651 26.516 80.282 30.4626 55.2962L30.9235 52.1819L31.3396 48.9558L31.6707 46.0563L31.975 43.0405L32.2479 39.8322L32.588 34.6686L32.843 29.4782L33.4829 13.6518L33.6798 9.76789L33.7916 8.13021L33.9124 6.68494L34.0512 5.41417L34.1317 4.84143L34.3017 3.81677C34.7313 1.60635 35.3667 0.621956 36.4271 0.228198L36.9059 0.0939619L37.4428 0.0223694L38.0335 0L38.0335 0Z" fill="#3F7AE8" fill-opacity="1.000000" transform="matrix(1 0 0 1 6.53685 11.0114)"/><path d="M7.7945 29.3297C9.45542 29.3297 11.0355 28.6952 12.2547 27.5755L11.2594 26.0203C10.3947 26.8103 9.27502 27.3951 7.99978 27.3951C5.45553 27.3951 3.71996 25.28 3.71996 22.0951C3.71996 18.9101 5.55506 16.7453 8.04955 16.7453C9.17549 16.7453 10.0153 17.2554 10.8302 17.9956L12.0246 16.4405C11.0355 15.5696 9.78512 14.8106 7.9749 14.8106C4.43534 14.8106 1.30012 17.4855 1.30012 22.0951C1.30012 26.6797 4.13053 29.3297 7.7945 29.3297ZM17.6769 29L20.4015 29L22.3424 21.585C22.6969 20.26 22.9769 18.9598 23.2817 17.5602L23.4123 17.5602C23.742 18.9598 23.9971 20.2351 24.3516 21.5352L26.3671 29L29.1664 29L32.8864 15.1652L30.6967 15.1652L28.6564 23.165C28.3515 24.49 28.0965 25.7404 27.7917 27.0405L27.6921 27.0405C27.3625 25.7404 27.0514 24.49 26.7217 23.165L24.5569 15.1652L22.2864 15.1652L20.1465 23.165C19.7919 24.4651 19.512 25.7404 19.2072 27.0405L19.0765 27.0405C18.8215 25.7404 18.5415 24.49 18.2616 23.165L16.2026 15.1652L13.8325 15.1652L17.6769 29ZM40.2677 29.3297C41.1074 29.3297 42.0281 29.0746 42.8181 28.8196L42.3578 27.0903C41.8975 27.2644 41.263 27.4448 40.7778 27.4448C39.1728 27.4448 38.6378 26.4744 38.6378 24.7699L38.6378 17.0501L42.3827 17.0501L42.3827 15.1652L38.6378 15.1652L38.6378 11.2897L36.7032 11.2897L36.4233 15.1652L34.2585 15.2896L34.2585 17.0501L36.3175 17.0501L36.3175 24.7202C36.3175 27.4946 37.3128 29.3297 40.2677 29.3297Z" fill="#3F7AE8" fill-opacity="1.000000" transform="matrix(1 0 0 1 64.6882 6.53687)"/></svg>