<svg xmlns="http://www.w3.org/2000/svg" xmlns:xlink="http://www.w3.org/1999/xlink" width="129.776459" height="120.862358" viewBox="0 0 129.776 120.862"><path d="M38.0335 0L38.5883 0.0223694C40.1007 0.161079 41.0493 0.944122 41.7071 3.19034L41.9308 4.04945L42.1277 5.03384L42.3111 6.15695L42.4767 7.43219L42.6333 8.85509L42.7765 10.4435L42.9734 13.1462L43.2955 18.5827L44.1144 34.691L44.3515 38.7539L44.6021 42.5572L44.8706 46.1592L45.1703 49.6315L45.497 52.9784L45.8549 56.1956L46.0473 57.7527L46.4501 60.7685C46.5932 61.7529 46.7364 62.715 46.8886 63.6546L47.3629 66.402L47.864 69.0151C50.9067 83.8526 55.681 91.7278 62.6434 91.7278C69.7489 91.7278 74.4472 82.5729 77.4988 65.601L77.991 62.7642L78.4519 59.7573L78.9217 56.473L80.3312 45.8818L80.8234 42.6422L81.0918 41.1701L81.3603 39.9083C82.0852 36.8075 82.9935 35.7962 85.016 35.7962C87.1012 35.7962 87.9245 36.5345 88.4748 39.6622L88.6583 40.8703L88.8283 42.2888L89.0834 44.8571L89.8127 53.2334L89.9872 55.0412C90.381 58.9519 90.8284 62.3659 91.4146 65.601C94.4573 82.5147 100.659 91.7278 111.863 91.7278C112.481 91.7278 113.008 91.9462 113.445 92.3831C113.882 92.8199 114.1 93.3473 114.1 93.9651C114.1 94.5829 113.882 95.1102 113.445 95.547C113.008 95.9839 112.481 96.2023 111.863 96.2023C97.8042 96.2023 90.3944 85.195 87.0072 66.3975C86.4828 63.432 86.0607 60.4519 85.7409 57.4574L85.4456 54.5758L84.7431 46.6022L83.356 57.086L82.8772 60.4285L82.64 61.9901L82.1568 64.9567L81.9062 66.3975L81.3424 69.3418C77.8747 86.5955 72.4292 96.2023 62.6434 96.2023C52.4191 96.2023 46.5172 86.4658 43.1076 68.2007L42.6243 65.4713C42.4722 64.5316 42.3245 63.583 42.1769 62.6121L41.7652 59.6365L41.3849 56.5446L41.0314 53.3319L40.7092 49.9984L40.3871 46.2219L40.0739 41.9353L39.7785 37.3623L38.7583 17.7639L38.5123 13.871L38.3825 12.2378L38.2527 10.7747L38.1722 10.0319L37.9753 13.4325L37.2862 30.2031L37.067 34.597L36.9551 36.5524L36.709 40.132L36.4271 43.4655L36.1765 45.9623L35.7738 49.4838L35.3577 52.7591C31.3664 81.7765 21.5583 98.4396 2.23726 98.4396C1.61946 98.4396 1.09213 98.2212 0.655273 97.7843C0.21843 97.3475 0 96.8201 0 96.2023C0 95.5845 0.21843 95.0572 0.655273 94.6203C1.09213 94.1835 1.61946 93.9651 2.23726 93.9651C17.8444 93.9651 26.5161 80.282 30.4626 55.2962L30.9235 52.1819L31.3396 48.9558L31.6707 46.0563L31.975 43.0405L32.2479 39.8322L32.588 34.6686L32.843 29.4782L33.4829 13.6518L33.6798 9.76789L33.7916 8.13021L33.9124 6.68494L34.0511 5.41418L34.1317 4.84144L34.3017 3.81676C34.7313 1.60635 35.3667 0.621956 36.4271 0.228195L36.9059 0.0939636L37.4428 0.0223694L38.0335 0L38.0335 0Z" fill="#3F7AE8" fill-opacity="1.000000" transform="matrix(1 0 0 1 6.73686 11.2114)"/><path d="M38.0335 0L38.5883 0.0223694C40.1007 0.161079 41.0493 0.944122 41.7071 3.19034L41.9308 4.04945L42.1277 5.03384L42.3111 6.15695L42.4767 7.43219L42.6333 8.85509L42.7765 10.4435L42.9734 13.1462L43.2955 18.5827L44.1144 34.691L44.3515 38.7539L44.6021 42.5572L44.8706 46.1592L45.1703 49.6315L45.497 52.9784L45.8549 56.1956L46.0473 57.7527L46.4501 60.7685C46.5932 61.7529 46.7364 62.715 46.8886 63.6546L47.3629 66.402L47.864 69.0151C50.9067 83.8526 55.681 91.7278 62.6434 91.7278C69.7489 91.7278 74.4472 82.5729 77.4988 65.601L77.991 62.7642L78.4519 59.7573L78.9217 56.473L80.3312 45.8818L80.8234 42.6422L81.0918 41.1701L81.3603 39.9083C82.0852 36.8075 82.9935 35.7962 85.016 35.7962C87.1012 35.7962 87.9245 36.5345 88.4748 39.6622L88.6583 40.8703L88.8283 42.2888L89.0834 44.8571L89.8127 53.2334L89.9872 55.0412C90.381 58.9519 90.8284 62.3659 91.4146 65.601C94.4573 82.5147 100.659 91.7278 111.863 91.7278C112.481 91.7278 113.008 91.9462 113.445 92.3831C113.882 92.8199 114.1 93.3473 114.1 93.9651C114.1 94.5829 113.882 95.1102 113.445 95.547C113.008 95.9839 112.481 96.2023 111.863 96.2023C97.8042 96.2023 90.3944 85.195 87.0072 66.3975C86.4828 63.432 86.0607 60.4519 85.7409 57.4574L85.4456 54.5758L84.7431 46.6022L83.356 57.086L82.8772 60.4285L82.64 61.9901L82.1568 64.9567L81.9062 66.3975L81.3424 69.3418C77.8747 86.5955 72.4292 96.2023 62.6434 96.2023C52.4191 96.2023 46.5172 86.4658 43.1076 68.2007L42.6243 65.4713C42.4722 64.5316 42.3245 63.583 42.1769 62.6121L41.7652 59.6365L41.3849 56.5446L41.0314 53.3319L40.7092 49.9984L40.3871 46.2219L40.0739 41.9353L39.7785 37.3623L38.7583 17.7639L38.5123 13.871L38.3825 12.2378L38.2527 10.7747L38.1722 10.0319L37.9753 13.4325L37.2862 30.2031L37.067 34.597L36.9551 36.5524L36.709 40.132L36.4271 43.4655L36.1765 45.9623L35.7738 49.4838L35.3577 52.7591C31.3664 81.7765 21.5583 98.4396 2.23726 98.4396C1.61946 98.4396 1.09213 98.2212 0.655273 97.7843C0.21843 97.3475 0 96.8201 0 96.2023C0 95.5845 0.21843 95.0572 0.655273 94.6203C1.09213 94.1835 1.61946 93.9651 2.23726 93.9651C17.8444 93.9651 26.5161 80.282 30.4626 55.2962L30.9235 52.1819L31.3396 48.9558L31.6707 46.0563L31.975 43.0405L32.2479 39.8322L32.588 34.6686L32.843 29.4782L33.4829 13.6518L33.6798 9.76789L33.7916 8.13021L33.9124 6.68494L34.0511 5.41418L34.1317 4.84144L34.3017 3.81676C34.7313 1.60635 35.3667 0.621956 36.4271 0.228195L36.9059 0.0939636L37.4428 0.0223694L38.0335 0L38.0335 0Z" fill="#3F7AE8" fill-opacity="1.000000" transform="matrix(1 0 0 1 6.73686 11.2114)"/><path d="M7.06046 29.3297C8.71516 29.3297 10.1646 28.4401 11.2594 27.3702L11.3154 27.3702L11.5393 29L13.4304 29L13.4304 8.72061L11.1101 8.72061L11.1101 14.0455L11.2345 16.4405C10.0153 15.4203 8.97021 14.8106 7.34039 14.8106C4.18029 14.8106 1.34989 17.61 1.34989 22.0951C1.34989 26.7046 3.59555 29.3297 7.06046 29.3297ZM7.57056 27.3951C5.11961 27.3951 3.74484 25.4045 3.74484 22.0702C3.74484 18.9101 5.50529 16.7702 7.74474 16.7702C8.89556 16.7702 9.93441 17.1745 11.1101 18.2196L11.1101 25.4853C9.96552 26.7606 8.83957 27.3951 7.57056 27.3951ZM20.3256 29L23.0502 29L24.9911 21.585C25.3456 20.26 25.6256 18.9598 25.9304 17.5602L26.061 17.5602C26.3907 18.9598 26.6458 20.2351 27.0003 21.5352L29.0158 29L31.8151 29L35.5351 15.1652L33.3454 15.1652L31.305 23.165C31.0002 24.49 30.7452 25.7404 30.4404 27.0405L30.3408 27.0405C30.0111 25.7404 29.7001 24.49 29.3704 23.165L27.2056 15.1652L24.9351 15.1652L22.7952 23.165C22.4406 24.4651 22.1606 25.7404 21.8558 27.0405L21.7252 27.0405C21.4702 25.7404 21.1902 24.49 20.9103 23.165L18.8512 15.1652L16.4812 15.1652L20.3256 29ZM42.9163 29.3297C43.7561 29.3297 44.6768 29.0746 45.4668 28.8196L45.0065 27.0903C44.5462 27.2644 43.9116 27.4448 43.4264 27.4448C41.8215 27.4448 41.2865 26.4744 41.2865 24.7699L41.2865 17.0501L45.0314 17.0501L45.0314 15.1652L41.2865 15.1652L41.2865 11.2897L39.3519 11.2897L39.072 15.1652L36.9072 15.2896L36.9072 17.0501L38.9662 17.0501L38.9662 24.7202C38.9662 27.4946 39.9615 29.3297 42.9163 29.3297Z" fill="#3F7AE8" fill-opacity="1.000000" transform="matrix(1 0 0 1 64.8882 6.73686)"/></svg>