<?xml version="1.0" standalone="no"?><!DOCTYPE svg PUBLIC "-//W3C//DTD SVG 1.1//EN" "http://www.w3.org/Graphics/SVG/1.1/DTD/svg11.dtd"><svg t="1726925325157" class="icon" viewBox="0 0 1024 1024" version="1.1" xmlns="http://www.w3.org/2000/svg" p-id="9280" data-spm-anchor-id="a313x.search_index.0.i17.631d3a81o9I9aI" xmlns:xlink="http://www.w3.org/1999/xlink" width="200" height="200"><path d="M822.913938 406.734035l21.887956-21.811157V140.801766H140.803302V896.000256h261.375478l28.671942-103.193394" fill="#333333" opacity=".3" p-id="9281" data-spm-anchor-id="a313x.search_index.0.i14.631d3a81o9I9aI" class="selected"></path><path d="M473.705037 742.400563H473.602637l307.199385-307.199385" fill="#333333" opacity=".3" p-id="9282"></path><path d="M285.007814 892.006664H183.913616a94.156612 94.156612 0 0 0-51.507097-51.225498V183.220882c23.859152-9.139182 42.239916-29.260741 51.507097-51.225498H840.193904a96.665407 96.665407 0 0 0 88.243023 58.547083A95.436609 95.436609 0 0 0 1024.001536 95.285057 95.436609 95.436609 0 0 0 928.436927 0.002048c-40.499119 0-75.391849 23.807952-88.243023 58.572683H183.913616A96.665407 96.665407 0 0 0 95.593793 0.002048 94.97581 94.97581 0 0 0 0.003584 94.13306v1.279997c0 40.24312 23.859152 75.00785 58.879882 87.807825v657.560284A93.900612 93.900612 0 0 0 0.003584 928.716991C0.003584 981.913684 42.345899 1024 95.696193 1024c40.499119 0 75.391849-23.807952 88.217423-58.547083h101.094198a36.607927 36.607927 0 0 0 36.710327-36.607927c0-20.351959-16.511967-36.838326-36.710327-36.838326z" fill="#515151" p-id="9283" data-spm-anchor-id="a313x.search_index.0.i15.631d3a81o9I9aI" class=""></path><path d="M426.626731 785.536477l-28.671943 103.679793-13.439973 48.127903h0.128c-3.660793 12.799974 9.087982 25.599949 21.836756 22.067156l151.372497-42.086316-28.006344-28.108743-103.218993-103.679793z m585.291629-386.277628l-67.481465-67.788664c-16.383967-16.460767-43.801512-14.643171-62.028676 1.817596l-41.881516 42.188716-21.836756 21.964756 21.836756 22.041556 105.727788 106.214188 63.846273-63.999872c18.227164-18.431963 18.227164-45.977508 1.817596-62.438276z m-229.75954 34.764731l-311.935376 305.663389h0.102399l124.057352 131.916536 246.143508-241.407517 69.196662-68.044664-69.196662-69.503861-58.367883-58.623883z" fill="#497cad" p-id="9284" data-spm-anchor-id="a313x.search_index.0.i13.631d3a81o9I9aI" class=""></path></svg>