<?xml version="1.0" encoding="utf-8"?>
<!-- Generator: Adobe Illustrator 16.0.0, SVG Export Plug-In . SVG Version: 6.00 Build 0)  -->
<!DOCTYPE svg PUBLIC "-//W3C//DTD SVG 1.1//EN" "http://www.w3.org/Graphics/SVG/1.1/DTD/svg11.dtd">
<svg version="1.1" id="图层_1" xmlns="http://www.w3.org/2000/svg" xmlns:xlink="http://www.w3.org/1999/xlink" x="0px" y="0px"
	 width="200px" height="200px" viewBox="0 0 200 200" enable-background="new 0 0 200 200" xml:space="preserve">
<path fill="#5280C1" d="M99.854,81.038c5.021,0,9.091,4.07,9.091,9.091l0,0l0.032,55.385c-0.002,5.021-4.074,9.09-9.095,9.088
	c-5.018-0.002-9.085-4.069-9.087-9.088l-0.032-55.385C90.763,85.107,94.833,81.038,99.854,81.038L99.854,81.038z M90.085,54.37
	c0-5.397,4.375-9.773,9.773-9.773s9.772,4.375,9.772,9.773l0.036,0.295c-0.002,5.397-4.379,9.771-9.776,9.769
	c-5.394-0.002-9.767-4.375-9.769-9.769L90.085,54.37z M99.999,200c-20.515-0.01-40.523-6.375-57.272-18.223
	c-3.938-1.072-6.674-4.646-6.682-8.727l-0.082-0.842c-0.02-5.006,4.023-9.078,9.029-9.098c2.55-0.01,4.987,1.055,6.712,2.935
	c36.675,26.696,88.048,18.606,114.743-18.068c26.696-36.675,18.607-88.047-18.068-114.743
	C111.705,6.538,60.332,14.627,33.636,51.302c-17.683,24.292-20.689,56.301-7.84,83.461l-1.473,1.473
	c3.424,1.393,5.665,4.719,5.668,8.414l0.086,0.846c0.009,5.008-4.043,9.075-9.052,9.084c-4.06,0.008-7.629-2.684-8.739-6.589
	C-14.218,99.539,3.574,38.774,52.027,12.27s109.217-8.712,135.721,39.74c26.505,48.453,8.713,109.217-39.74,135.722
	C133.287,195.784,116.777,200.003,99.999,200z"/>
</svg>
