<?xml version="1.0" standalone="no"?><!DOCTYPE svg PUBLIC "-//W3C//DTD SVG 1.1//EN" "http://www.w3.org/Graphics/SVG/1.1/DTD/svg11.dtd"><svg t="1650004145161" class="icon" viewBox="0 0 1024 1024" version="1.1" xmlns="http://www.w3.org/2000/svg" p-id="9329" xmlns:xlink="http://www.w3.org/1999/xlink" width="200" height="200"><defs><style type="text/css"></style></defs><path d="M715.8 300.6L420.4 103.9 125.1 300.6l-28.8 19.2 295.4 196.7 28.8 19.2 28.8-19.2 295.4-196.7-28.9-19.2zM420.4 497.4L153.9 319.8l266.5-177.5L687 319.8 420.4 497.4z" fill="#BDCDE8" p-id="9330"></path><path d="M687 319.8L420.4 497.4 153.9 319.8l266.5-177.5z" fill="#BDCDE8" p-id="9331"></path><path d="M832 960h-63.9V832.1h-128v-64h128V640.2H832v127.9h128v64H832z" fill="#669E8B" p-id="9332"></path><path d="M744.3 279.9L420.2 64 96 279.9l-32 21.3v358.1l324.2 215.9 32 21.3 32-21.3 124-82.6v-76.8l-124 82.6v-247L712.4 378v198.2h63.9v-275l-32-21.3zM388.2 798.5L127.9 625.1V378l260.2 173.3v247.2z m32-302.6L153.6 318.3l266.5-177.5 266.5 177.5-266.4 177.6z m283.9 208.2v-73.5l-110.3 73.5h110.3z" fill="#727272" p-id="9333"></path><path d="M832 960h-63.9V832.1h-128v-64h128V640.2H832v127.9h128v64H832z" fill="#669E8B" p-id="9334"></path></svg>