<?xml version="1.0" encoding="UTF-8" standalone="no"?>
<svg
   t="1679019401489"
   class="icon"
   viewBox="0 0 1024 1024"
   version="1.1"
   p-id="7169"
   width="200"
   height="200"
   id="svg146"
   sodipodi:docname="addFigure.svg"
   inkscape:version="1.2 (dc2aedaf03, 2022-05-15)"
   xmlns:inkscape="http://www.inkscape.org/namespaces/inkscape"
   xmlns:sodipodi="http://sodipodi.sourceforge.net/DTD/sodipodi-0.dtd"
   xmlns="http://www.w3.org/2000/svg"
   xmlns:svg="http://www.w3.org/2000/svg">
  <defs
     id="defs150" />
  <sodipodi:namedview
     id="namedview148"
     pagecolor="#ffffff"
     bordercolor="#000000"
     borderopacity="0.25"
     inkscape:showpageshadow="2"
     inkscape:pageopacity="0.0"
     inkscape:pagecheckerboard="0"
     inkscape:deskcolor="#d1d1d1"
     showgrid="false"
     inkscape:zoom="2.5314423"
     inkscape:cx="69.525582"
     inkscape:cy="94.412581"
     inkscape:window-width="1280"
     inkscape:window-height="961"
     inkscape:window-x="-8"
     inkscape:window-y="-8"
     inkscape:window-maximized="1"
     inkscape:current-layer="svg146" />
  <path
     d="M 696.08045,556.92067 A 29.810056,29.407821 0 0 1 673.72291,507.80961 L 833.5048,331.36268 a 29.810056,29.407821 0 0 1 42.03218,-2.6467 29.810056,29.407821 0 0 1 2.68291,41.7591 l -159.7819,176.44693 a 29.810056,29.407821 0 0 1 -22.35754,9.99866 z M 954.83173,983.04 h -536.581 a 29.810056,29.407821 0 0 1 0,-58.81564 h 536.581 a 29.810056,29.407821 0 0 1 0,58.81564 z m -655.82123,0 H 120.15017 A 89.430168,88.223464 0 0 1 30.72,894.81654 v -823.419 a 29.810056,29.407821 0 0 1 59.620112,0 v 823.419 a 29.810056,29.407821 0 0 0 29.810058,29.40782 H 299.0105 a 29.810056,29.407821 0 0 1 0,58.81564 z M 278.44156,615.44223 a 29.810056,29.407821 0 0 1 -22.35754,-48.81698 l 130.56805,-147.0391 a 29.810056,29.407821 0 0 1 44.71508,38.81832 L 300.79911,605.44358 a 29.810056,29.407821 0 0 1 -22.35755,9.99865 z m 333.27643,-52.93407 c -14.90503,0 -11.02972,0 -138.02056,-107.04447 A 29.811546,29.409292 0 0 1 512.4505,410.7638 l 119.24023,99.98659 a 29.810056,29.407821 0 0 1 -19.97274,51.75777 z"
     fill="#727272"
     p-id="7170"
     id="path142" />
  <path
     d="m 239.39039,718.36961 a 89.430168,88.223464 0 1 1 89.43017,-88.22346 89.430168,88.223464 0 0 1 -89.43017,88.22346 z m 0,-117.63129 a 29.810056,29.407821 0 1 0 29.81006,29.40783 29.810056,29.407821 0 0 0 -29.81006,-29.40783 z M 448.06078,483.10704 a 89.430168,88.223464 0 1 1 89.43017,-88.22346 89.430168,88.223464 0 0 1 -89.43017,88.22346 z m 0,-117.63129 a 29.810056,29.407821 0 1 0 29.81006,29.40783 29.810056,29.407821 0 0 0 -29.81006,-29.40783 z m 208.67039,294.07822 a 89.430168,88.223464 0 1 1 89.43017,-88.22347 89.430168,88.223464 0 0 1 -89.43017,88.22347 z m 0,-117.63129 a 29.810056,29.407821 0 1 0 29.81006,29.40782 29.810056,29.407821 0 0 0 -29.81006,-29.40782 z m 238.48045,-147.0391 a 89.430168,88.223464 0 1 1 89.43017,-88.22347 89.430168,88.223464 0 0 1 -89.43017,88.22347 z m 0,-117.63129 a 29.810056,29.407821 0 1 0 29.81006,29.40782 29.810056,29.407821 0 0 0 -29.81006,-29.40782 z"
     fill="#497cad"
     p-id="7171"
     id="path144" />
  <path
     d="m 387.92098,956.78959 h -63.9 v -127.9 h -128 v -64 h 128 v -127.9 h 63.9 v 127.9 h 128 v 64 h -128 z"
     fill="#669e8b"
     p-id="9334"
     id="path14866" />
</svg>
