<?xml version="1.0" encoding="utf-8"?>
<!-- Generator: Adobe Illustrator 16.0.0, SVG Export Plug-In . SVG Version: 6.00 Build 0)  -->
<!DOCTYPE svg PUBLIC "-//W3C//DTD SVG 1.1//EN" "http://www.w3.org/Graphics/SVG/1.1/DTD/svg11.dtd">
<svg version="1.1" id="图层_1" xmlns="http://www.w3.org/2000/svg" xmlns:xlink="http://www.w3.org/1999/xlink" x="0px" y="0px"
	 width="64px" height="64px" viewBox="0 0 64 64" enable-background="new 0 0 64 64" xml:space="preserve">
<path fill="#497CAD" d="M60,24v28H36.12c6.534-8.91,4.608-21.432-4.303-27.967C28.39,21.52,24.25,20.163,20,20.16
	c-2.84,0-5.56,0.6-8,1.64V4h28v20H60z"/>
<polygon fill="#E6C27C" points="60,20 44,20 44,4 "/>
<polygon fill="#669E8B" points="32,36.16 32,44.16 24,44.16 24,52.16 16,52.16 16,44.16 8,44.16 8,36.16 16,36.16 16,28.16 
	24,28.16 24,36.16 "/>
</svg>
