<?xml version="1.0" standalone="no"?><!DOCTYPE svg PUBLIC "-//W3C//DTD SVG 1.1//EN" "http://www.w3.org/Graphics/SVG/1.1/DTD/svg11.dtd"><svg t="1766741711240" class="icon" viewBox="0 0 1024 1024" version="1.1" xmlns="http://www.w3.org/2000/svg" p-id="5579" xmlns:xlink="http://www.w3.org/1999/xlink" width="200" height="200"><path d="M704 256l192.192 192v129.984a32 32 0 1 1-64 0V474.688L832 474.368 832 512h-192V320H320v512.128h193.792a32 32 0 1 1 0 64H320a64 64 0 0 1-64-64V320a64 64 0 0 1 64-64h384z m199.744 434.752a32 32 0 0 1 0 45.248L768 871.744a32 32 0 0 1-45.248 0l-90.496-90.496a32 32 0 0 1 45.248-45.248l67.84 67.84 113.152-113.088a32 32 0 0 1 45.248 0zM672 127.744a32 32 0 1 1 0 64H192.384V736a32 32 0 1 1-64 0V191.744a64 64 0 0 1 64-64H672z m32 218.688V448h101.568L704 346.432z" fill="#497cad" fill-opacity=".9" p-id="5580"></path></svg>