<?xml version="1.0" encoding="utf-8"?>
<!-- Generator: Adobe Illustrator 16.0.0, SVG Export Plug-In . SVG Version: 6.00 Build 0)  -->
<!DOCTYPE svg PUBLIC "-//W3C//DTD SVG 1.1//EN" "http://www.w3.org/Graphics/SVG/1.1/DTD/svg11.dtd">
<svg version="1.1" id="图层_1" xmlns="http://www.w3.org/2000/svg" xmlns:xlink="http://www.w3.org/1999/xlink" x="0px" y="0px"
	 width="200px" height="200px" viewBox="0 0 200 200" enable-background="new 0 0 200 200" xml:space="preserve">
<path fill="#727272" d="M76.955,170.045H22.727c-5,0-9.091-4.09-9.091-9.09V38.228c0-5,4.091-9.091,9.091-9.091h97.818
	c2.5,0,4.546,2.045,4.546,4.545s-2.046,4.546-4.546,4.546H22.727v122.728h51.864l57.183-80.546c1.727-2.409,4.5-3.818,7.408-3.818
	c2.909,0,5.682,1.409,7.409,3.818l26.136,36.818v-79h-22.682c-2.5,0-4.545-2.046-4.545-4.546s2.045-4.545,4.545-4.545h22.682
	c5,0,9.092,4.091,9.092,9.091v93.228c0,2-1.273,3.727-3.182,4.317c-1.863,0.591-3.955-0.091-5.092-1.682l-34.363-48.409
	l-58.545,82.455C79.804,169.346,78.423,170.063,76.955,170.045L76.955,170.045z"/>
<path fill="#727272" d="M76.955,170.045H22.727c-5,0-9.091-4.09-9.091-9.09V157c0-1.137,0.455-2.272,1.228-3.091l40.591-43.772
	c3.545-3.682,9.864-3.637,13.318-0.046l27.591,29.772c1.455,1.592,1.591,3.955,0.363,5.728l-16.045,22.546
	C79.824,169.342,78.434,170.053,76.955,170.045z M22.727,158.818V161h51.864l12.545-17.637l-25.045-27L22.727,158.818z"/>
<path fill="#727272" d="M172.727,170.045H76.955c-1.682,0-3.273-0.954-4.045-2.454c-0.773-1.5-0.636-3.317,0.318-4.728
	l58.546-82.454c1.727-2.409,4.5-3.818,7.408-3.818c2.909,0,5.682,1.409,7.409,3.818l34.364,48.409
	c0.545,0.772,0.818,1.682,0.818,2.637v29.5C181.818,166,177.727,170.045,172.727,170.045z"/>
<polygon fill="#BDCDE8" points="85.773,160.955 172.727,160.955 172.727,132.909 139.182,85.682 "/>
<path fill="#497CAD" d="M56.818,79.136c-8.773,0-15.909-7.136-15.909-15.909c0-8.773,7.136-15.909,15.909-15.909
	c8.772,0,15.909,7.136,15.909,15.909C72.727,72,65.591,79.136,56.818,79.136z"/>
<path fill="#BDCDE8" d="M56.818,56.409c-3.773,0-6.818,3.045-6.818,6.818c0,3.772,3.045,6.818,6.818,6.818
	c3.772,0,6.818-3.045,6.818-6.818C63.636,59.455,60.591,56.409,56.818,56.409z"/>
</svg>
