<?xml version="1.0" encoding="utf-8"?>
<!-- Generator: Adobe Illustrator 16.0.0, SVG Export Plug-In . SVG Version: 6.00 Build 0)  -->
<!DOCTYPE svg PUBLIC "-//W3C//DTD SVG 1.1//EN" "http://www.w3.org/Graphics/SVG/1.1/DTD/svg11.dtd">
<svg version="1.1" id="图层_1" xmlns="http://www.w3.org/2000/svg" xmlns:xlink="http://www.w3.org/1999/xlink" x="0px" y="0px"
	 width="48px" height="48px" viewBox="0 0 48 48" enable-background="new 0 0 48 48" xml:space="preserve">
<path fill="#333333" d="M21.064,33.648l-7.392,6.408V4.08H9.928v35.977l-7.392-6.408v4.416l9.24,8.016l9.264-8.016v-4.416H21.064z"
	/>
<path fill="#497CAD" d="M32.267,29.855c-7.387,0-13.375-5.988-13.375-13.375S24.88,3.105,32.267,3.105S45.642,9.094,45.642,16.48
	S39.653,29.855,32.267,29.855z M32.267,27.798c6.25,0,11.316-5.068,11.316-11.317c0-6.25-5.066-11.317-11.316-11.317
	c-6.25,0.001-11.316,5.069-11.314,11.318C20.952,22.731,26.019,27.796,32.267,27.798L32.267,27.798z M32.267,17.508h6.172
	c0.567,0.024,1.009,0.505,0.984,1.074c-0.022,0.533-0.451,0.961-0.984,0.984h-7.199c-0.568,0-1.028-0.461-1.028-1.028V9.277
	c0-0.567,0.46-1.027,1.028-1.027c0.566,0,1.027,0.46,1.027,1.027v8.229V17.508z"/>
<g>
	<path fill="#497CAD" d="M20.324,41.48c0.66,0.643,1.431,0.963,2.313,0.963c0.558,0,1.001-0.16,1.329-0.48
		c0.328-0.321,0.492-0.778,0.492-1.37c0-0.608-0.195-1.073-0.584-1.395s-0.936-0.481-1.639-0.481h-0.882V36.65h0.812
		c1.329,0,1.993-0.582,1.993-1.744c0-1.096-0.509-1.643-1.527-1.643c-0.665,0-1.31,0.281-1.936,0.846v-2.216
		c0.682-0.459,1.484-0.688,2.409-0.688c0.937,0,1.697,0.28,2.281,0.842s0.876,1.341,0.876,2.337c0,1.683-0.656,2.739-1.968,3.171
		v0.041c0.69,0.1,1.242,0.428,1.655,0.984c0.413,0.556,0.62,1.232,0.62,2.029c0,1.223-0.345,2.178-1.032,2.863
		c-0.688,0.687-1.605,1.029-2.75,1.029c-1.018,0-1.838-0.218-2.46-0.655V41.48z"/>
	<path fill="#497CAD" d="M28.022,36.393c0-0.409,0.122-0.747,0.364-1.013c0.243-0.266,0.532-0.398,0.869-0.398
		c0.341,0,0.628,0.133,0.862,0.398s0.352,0.604,0.352,1.013c0,0.426-0.117,0.771-0.352,1.033s-0.53,0.395-0.888,0.395
		c-0.341,0-0.628-0.136-0.859-0.406C28.139,37.143,28.022,36.802,28.022,36.393z M28.022,43.074c0-0.414,0.122-0.755,0.364-1.021
		c0.243-0.266,0.532-0.398,0.869-0.398c0.341,0,0.628,0.136,0.862,0.407c0.234,0.271,0.352,0.608,0.352,1.012
		c0,0.427-0.117,0.771-0.352,1.034s-0.53,0.394-0.888,0.394c-0.332,0-0.617-0.135-0.854-0.406S28.022,43.484,28.022,43.074z"/>
	<path fill="#497CAD" d="M31.619,38.061c0-2.225,0.315-3.923,0.946-5.096c0.63-1.174,1.541-1.76,2.734-1.76
		c2.274,0,3.411,2.186,3.411,6.557c0,2.153-0.309,3.814-0.926,4.985c-0.618,1.17-1.511,1.755-2.678,1.755
		C32.782,44.502,31.619,42.355,31.619,38.061z M33.709,37.994c0,2.967,0.487,4.449,1.463,4.449c0.958,0,1.438-1.527,1.438-4.582
		c0-3.065-0.467-4.598-1.399-4.598C34.209,33.264,33.709,34.84,33.709,37.994z"/>
	<path fill="#497CAD" d="M39.688,38.061c0-2.225,0.315-3.923,0.946-5.096c0.63-1.174,1.541-1.76,2.734-1.76
		c2.274,0,3.411,2.186,3.411,6.557c0,2.153-0.309,3.814-0.926,4.985c-0.618,1.17-1.511,1.755-2.678,1.755
		C40.852,44.502,39.688,42.355,39.688,38.061z M41.778,37.994c0,2.967,0.487,4.449,1.463,4.449c0.958,0,1.438-1.527,1.438-4.582
		c0-3.065-0.467-4.598-1.399-4.598C42.278,33.264,41.778,34.84,41.778,37.994z"/>
</g>
</svg>
