<?xml version="1.0" encoding="utf-8"?>
<!-- Generator: Adobe Illustrator 21.0.0, SVG Export Plug-In . SVG Version: 6.00 Build 0)  -->
<svg version="1.1" xmlns="http://www.w3.org/2000/svg" xmlns:xlink="http://www.w3.org/1999/xlink" x="0px" y="0px"
	 viewBox="0 0 200 200" style="enable-background:new 0 0 200 200;" xml:space="preserve">
<style type="text/css">
	.st0{fill:#497CAD;}
	.st1{fill:#333333;}
</style>
<path class="st0" d="M145.7,36.1c-3.8,1.1-8.1,2-13.1,2.7c-7.5,1.1-13,3.2-16.6,6.4c-3.6,3.2-5.4,7.5-5.3,12.8c0,5.4,2,9.5,5.9,12.3
	c3.9,2.9,8.7,4.3,14.5,4.3c3.9,0,7.7-0.7,11.2-2.1c3.6-1.4,6.6-3.6,9.1-6.4c0,1.8,0.2,3.3,0.5,4.6c0.4,1.2,0.9,2.2,1.6,2.9l12.9,0
	c-1.4-1.8-2.5-3.6-3.2-5.4s-1.1-3.8-1.1-5.9l0-29.4c0-6.4-2-11.4-5.9-15c-3.9-3.6-9.8-5.4-17.7-5.4c-7.1,0-12.9,1.7-17.4,5.1
	c-4.5,3.4-7,7.9-7.7,13.6l11.8,0c0.7-2.9,2.1-5.1,4-6.7s5.1-2.4,9.4-2.4c5.4,0,8.8,1.1,10.4,3.2c1.6,2.1,2.4,4.3,2.4,6.4
	C151.3,33.6,149.5,35,145.7,36.1z M151.4,43l0,10.7c-2.1,3.9-5.1,6.8-8.8,8.6c-3.8,1.8-7.2,2.7-10.4,2.7s-5.6-0.8-7.2-2.4
	c-1.6-1.6-2.4-3.5-2.4-5.6c0-2.5,0.8-4.6,2.4-6.4c1.6-1.8,5.1-3,10.4-3.7c4.6-0.7,7.9-1.3,9.9-1.9C147.2,44.4,149.2,43.8,151.4,43
	L151.4,43z M142.1,128.4c-3.7,0-6.9,0.7-9.6,2.3c-2.7,1.5-5.1,3.8-7.1,6.8l-0.1-37.4l-10.1,0l0.1,86.4l10.1,0l0-7.6
	c2,3,4.4,5.2,7.1,6.6c2.7,1.3,5.9,2,9.6,2c6.8,0,12.5-2.4,17.2-7.3s7.1-12.2,7.1-22c0-9.8-2.4-17.2-7.1-22.2
	C154.5,130.9,148.8,128.4,142.1,128.4L142.1,128.4z M151.5,173.1c-2.5,3.5-6.3,5.3-11.4,5.3c-4,0-7.5-1.8-10.4-5.3
	c-2.9-3.5-4.3-8.5-4.3-14.9c0-6.4,1.4-11.4,4.3-15.2c2.9-3.7,6.3-5.5,10.4-5.5c5.1,0,8.9,1.9,11.4,5.6s3.8,8.8,3.8,15.2
	C155.3,164.6,154,169.6,151.5,173.1L151.5,173.1z"/>
<path class="st1" d="M96.1,140.2l-30.8,26.7V17H49.7v149.9l-30.8-26.7v18.4L57.4,192l38.6-33.4V140.2z"/>
</svg>
