<?xml version="1.0" standalone="no"?><!DOCTYPE svg PUBLIC "-//W3C//DTD SVG 1.1//EN" "http://www.w3.org/Graphics/SVG/1.1/DTD/svg11.dtd"><svg t="1772504716718" class="icon" viewBox="0 0 1024 1024" version="1.1" xmlns="http://www.w3.org/2000/svg" p-id="10506" xmlns:xlink="http://www.w3.org/1999/xlink" width="200" height="200"><path d="M780.68178 706.740554l51.586902 91.996642H727.375315v77.380352h238.15953L847.744752 668.91016zM335.314861 798.737196h313.82032v77.380352H335.314861zM122.948783 665.471033h-77.380353v210.646515h210.646515v-77.380352H122.948783zM122.948783 401.518052L249.336692 318.119228l-42.989085-64.483628L45.56843 360.248531v192.5911h77.380353zM638.8178 225.262804v-77.380352H366.267003l-85.97817 57.605373 42.989085 64.483628 66.20319-44.708649zM831.4089 331.015953L980.151134 147.882452H727.375315v77.380352h90.277078l-45.56843 56.745592zM634.518892 450.525609l98.015113 172.816121 67.922754-38.690177-72.221662-126.387909 47.287993-58.465155-59.324937-49.007557z" p-id="10507"></path></svg>