<?xml version="1.0" standalone="no"?><!DOCTYPE svg PUBLIC "-//W3C//DTD SVG 1.1//EN" "http://www.w3.org/Graphics/SVG/1.1/DTD/svg11.dtd"><svg t="1772504572293" class="icon" viewBox="0 0 1024 1024" version="1.1" xmlns="http://www.w3.org/2000/svg" p-id="7294" xmlns:xlink="http://www.w3.org/1999/xlink" width="200" height="200"><path d="M512 128h-53.333333c-10.666667 0-20.906667 3.413333-31.146667 5.546667l9.386667 42.666666A367.786667 367.786667 0 0 1 512 170.666667V128z m-165.12 37.12a393.813333 393.813333 0 0 0-72.106667 45.226667l26.453334 33.28a341.333333 341.333333 0 0 1 64-40.106667l-18.346667-38.4zM213.333333 270.08h-9.813333V298.666667H170.666667l-2.56 42.666666 37.973333 18.773334A367.36 367.36 0 0 1 247.04 298.666667L213.333333 270.08zM139.093333 421.546667A426.666667 426.666667 0 0 0 128 487.68v17.066667h42.666667a314.88 314.88 0 0 1 9.386666-75.093334l-42.666666-10.24z m38.826667 160.426666l-42.666667 8.96a372.906667 372.906667 0 0 0 26.88 80.64l38.826667-17.493333a332.8 332.8 0 0 1-23.893333-72.106667z m62.72 136.96l-33.706667 26.026667a379.306667 379.306667 0 0 0 58.453334 61.44l27.733333-32.853333a334.506667 334.506667 0 0 1-52.48-54.613334z m115.2 96.853334l-19.2 37.546666a253.013333 253.013333 0 0 0 30.72 14.506667h12.373333c11.093333 4.266667 22.613333 7.68 34.56 11.093333l10.666667-42.666666a355.84 355.84 0 0 1-70.826667-26.88z m221.44 31.573333A367.786667 367.786667 0 0 1 512 853.333333h-10.24v42.666667h34.986667a398.08 398.08 0 0 0 49.92-5.973333l-8.106667-42.666667z m137.386667-60.586667a341.333333 341.333333 0 0 1-65.28 37.973334l17.066666 38.826666a365.653333 365.653333 0 0 0 67.84-38.4h4.266667l-25.6-34.133333z m98.56-113.92a366.08 366.08 0 0 1-42.666667 62.293334l32 28.16h12.373333c6.826667-10.24 13.226667-21.333333 19.2-32.426667l-37.546666-20.053333z m40.106666-145.066666a341.333333 341.333333 0 0 1-11.946666 74.666666l42.666666 11.52a186.453333 186.453333 0 0 0 5.12-20.906666c0-7.68 2.133333-15.786667 2.986667-23.893334v-5.546666l-42.666667-2.133334z m12.8-164.693334l-39.253333 16.64a329.386667 329.386667 0 0 1 21.333333 72.533334l42.666667-7.68h-2.133333a369.493333 369.493333 0 0 0-16.64-52.053334zM768 225.28l-28.586667 30.72a332.373333 332.373333 0 0 1 50.346667 56.32l34.986667-24.746667v-2.986666h-2.986667l-11.52-13.226667V256h-8.106667a311.466667 311.466667 0 0 0-20.906666-20.053333z m-148.053333-81.92l-11.946667 42.666667a328.96 328.96 0 0 1 69.546667 27.306666l20.906666-37.12a399.786667 399.786667 0 0 0-38.4-18.773333h-15.786666c-8.106667-2.986667-16.213333-5.973333-24.32-8.106667zM512 128v42.666667h21.333333l2.56-42.666667H512z" p-id="7295" fill="#497cad"></path></svg>