<?xml version="1.0" encoding="utf-8"?>
<!-- Generator: Adobe Illustrator 16.0.0, SVG Export Plug-In . SVG Version: 6.00 Build 0)  -->
<!DOCTYPE svg PUBLIC "-//W3C//DTD SVG 1.1//EN" "http://www.w3.org/Graphics/SVG/1.1/DTD/svg11.dtd">
<svg version="1.1" id="图层_1" xmlns="http://www.w3.org/2000/svg" xmlns:xlink="http://www.w3.org/1999/xlink" x="0px" y="0px"
	 width="200px" height="200px" viewBox="0 0 200 200" enable-background="new 0 0 200 200" xml:space="preserve">
<path fill="#5280C1" d="M187.102,103.443l-78.637,35.479c-7.528,3.287-10.526,3.287-17.476,0l-78.64-35.479
	c-4.174-2.226-4.928-13.585-4.928-18.079c5.249,3.009,13.362,6.703,13.088,6.533l79.402,34.653l79.875-35.72
	c0.135-0.034,7.734-2.928,12.791-5.466C192.578,89.963,190.982,101.627,187.102,103.443z M187.102,139.008l-78.637,35.48
	c-7.528,3.287-10.526,3.287-17.476,0l-78.64-35.48c-4.174-2.225-4.928-13.585-4.928-18.078c5.249,3.009,13.362,6.703,13.088,6.533
	l79.402,34.652l79.875-35.72c0.135-0.034,7.734-2.929,12.791-5.466C192.578,125.527,190.982,137.191,187.102,139.008
	L187.102,139.008z M187.102,69.678l-78.637,32.301c-7.528,2.992-10.526,2.992-17.476,0L12.35,69.678
	c-6.177-2.995-5.984-12.428,0-15.95L91.28,25.296c6.949-3.171,11.296-3.347,17.476,0l78.346,28.432
	C193.086,56.723,192.889,67.21,187.102,69.678L187.102,69.678z"/>
</svg>
