<?xml version="1.0" encoding="utf-8"?>
<!-- Generator: Adobe Illustrator 16.0.0, SVG Export Plug-In . SVG Version: 6.00 Build 0)  -->
<!DOCTYPE svg PUBLIC "-//W3C//DTD SVG 1.1//EN" "http://www.w3.org/Graphics/SVG/1.1/DTD/svg11.dtd">
<svg version="1.1" id="图层_1" xmlns="http://www.w3.org/2000/svg" xmlns:xlink="http://www.w3.org/1999/xlink" x="0px" y="0px"
	 width="200px" height="200px" viewBox="0 0 200 200" enable-background="new 0 0 200 200" xml:space="preserve">
<path fill="#727272" d="M62.5,87.469C62.5,80.581,68.081,75,74.969,75h87.563C169.419,75,175,80.581,175,87.469v87.563
	c0,6.887-5.582,12.469-12.469,12.469l0,0H74.969c-6.886,0-12.469-5.582-12.469-12.469l0,0V87.469z"/>
<path fill="#BDCDE8" d="M75,93.794v74.912c0,3.481,2.813,6.294,6.294,6.294h74.912c3.481,0,6.294-2.813,6.294-6.294V93.794
	c0-3.481-2.813-6.294-6.294-6.294H81.294C77.813,87.5,75,90.313,75,93.794z"/>
<path fill="#5280C1" d="M87.5,156.25c0-3.45,2.831-6.25,6.231-6.25h37.537c3.438,0,6.231,2.775,6.231,6.25
	c0,3.45-2.831,6.25-6.231,6.25H93.731c-3.438,0.004-6.228-2.781-6.231-6.219C87.5,156.271,87.5,156.26,87.5,156.25z"/>
<path fill="#5280C1" d="M87.5,131.25c0-3.45,2.85-6.25,6.219-6.25h50.063c3.438,0,6.219,2.775,6.219,6.25
	c0,3.45-2.85,6.25-6.219,6.25H93.719c-3.435,0-6.219-2.784-6.219-6.219C87.5,131.271,87.5,131.26,87.5,131.25z"/>
<path fill="#5280C1" d="M87.5,106.25c0-3.45,2.85-6.25,6.219-6.25h50.063c3.438,0,6.219,2.775,6.219,6.25
	c0,3.45-2.85,6.25-6.219,6.25H93.719c-3.435,0-6.219-2.784-6.219-6.219C87.5,106.271,87.5,106.26,87.5,106.25z"/>
<path fill="#5280C1" d="M137.5,50V37.5h12.475c6.919,0,12.525,5.563,12.525,12.525V62.5H150v-6.256
	c0.021-3.427-2.741-6.223-6.168-6.244c-0.025,0-0.051,0-0.076,0H137.5z"/>
<path fill="#5280C1" d="M50,50h-6.256c-3.427-0.021-6.223,2.741-6.244,6.168c0,0.025,0,0.05,0,0.075V150
	c0,3.5,2.794,6.244,6.244,6.244H50v12.5H37.525c-6.9,0.018-12.508-5.563-12.525-12.463c0-0.019,0-0.037,0-0.057v-106.2
	C25,43.106,30.563,37.5,37.525,37.5H50V50z"/>
<path fill="#5280C1" d="M62.5,43.75c0-3.45,2.85-6.25,6.219-6.25h50.063c3.438,0,6.219,2.775,6.219,6.25
	c0,3.45-2.85,6.25-6.219,6.25H68.719c-3.435,0-6.219-2.784-6.219-6.219C62.5,43.771,62.5,43.76,62.5,43.75z"/>
<path fill="#727272" d="M75,18.75c0-3.428,2.76-6.216,6.188-6.25h25.125c3.412,0,6.188,2.775,6.188,6.25
	c0,3.428-2.76,6.216-6.188,6.25H81.188C77.76,24.99,74.99,22.203,75,18.775C75,18.767,75,18.758,75,18.75z"/>
</svg>
