<?xml version="1.0" standalone="no"?><!DOCTYPE svg PUBLIC "-//W3C//DTD SVG 1.1//EN" "http://www.w3.org/Graphics/SVG/1.1/DTD/svg11.dtd"><svg t="1766127623518" class="icon" viewBox="0 0 1024 1024" version="1.1" xmlns="http://www.w3.org/2000/svg" p-id="7298" xmlns:xlink="http://www.w3.org/1999/xlink" width="200" height="200"><path d="M880.64 0H348.16C268.8 0 204.8 64 204.8 143.36v61.44H143.36C64 204.8 0 268.8 0 348.16v532.48c0 79.36 64 143.36 143.36 143.36h532.48c79.36 0 143.36-64 143.36-143.36v-61.44h61.44c79.36 0 143.36-64 143.36-143.36V143.36c0-79.36-64-143.36-143.36-143.36zM143.36 272.896h532.48c41.472 0 75.264 33.792 75.264 75.264v470.016l-185.856-243.712c-6.144-8.704-15.872-14.336-26.624-14.336-10.752-1.024-21.504 3.072-28.672 11.776L380.416 716.8 215.04 628.224c-15.872-8.704-35.84-4.096-46.592 10.24l-100.352 138.752V348.16c0-41.472 33.792-75.264 75.264-75.264z m532.48 683.008H143.36c-35.84 0-65.536-25.088-73.216-58.368l141.824-193.024 162.304 87.552c14.848 8.192 32.768 5.12 44.032-7.168l118.272-132.096 202.24 268.8c-13.312 20.48-36.352 34.304-62.976 34.304z m280.064-280.064c0 41.472-33.792 75.264-75.264 75.264h-61.44V348.16c0-79.36-64-143.36-143.36-143.36H272.896V143.36c0-41.472 33.792-75.264 75.264-75.264h532.48c41.472 0 75.264 33.792 75.264 75.264v532.48z" p-id="7299" fill="#497cad"></path><path d="M218.112 512c41.984 0 76.288-34.304 76.288-76.288s-34.304-76.288-76.288-76.288-76.288 34.304-76.288 76.288c0 42.496 33.792 76.288 76.288 76.288z" p-id="7300" fill="#497cad"></path></svg>