<?xml version="1.0" encoding="utf-8"?>
<!-- Generator: Adobe Illustrator 16.0.0, SVG Export Plug-In . SVG Version: 6.00 Build 0)  -->
<!DOCTYPE svg PUBLIC "-//W3C//DTD SVG 1.1//EN" "http://www.w3.org/Graphics/SVG/1.1/DTD/svg11.dtd">
<svg version="1.1" id="图层_1" xmlns="http://www.w3.org/2000/svg" xmlns:xlink="http://www.w3.org/1999/xlink" x="0px" y="0px"
	 width="200px" height="200px" viewBox="0 0 200 200" enable-background="new 0 0 200 200" xml:space="preserve">
<path fill="#387FD3" stroke="#5280C1" stroke-miterlimit="10" d="M187.5,12.5v43.75h-175V12.5H187.5z M181.25,18.75H18.75V50h162.5
	V18.75z"/>
<path fill="#B8B8B8" stroke="#727272" stroke-miterlimit="10" d="M112.5,75v50h-100V75H112.5z M106.25,81.25h-87.5v37.5h87.5V81.25z
	"/>
<path fill="#5280C1" stroke="#5280C1" stroke-miterlimit="10" d="M187.5,143.75v43.75h-175v-43.75H187.5z M181.25,150H18.75v31.25
	h162.5V150z"/>
<path fill="#FA7542" stroke="#CE6043" stroke-miterlimit="10" d="M133.807,68.75c5.438,0,14.918,9.419,24.35,20.875
	c15.588-11.95,30.825-21.725,29.231-20.125c-8.796,7.948-17.298,16.216-25.487,24.788c13.881,17.606,26.475,37.556,24.456,35.738
	c-4.538-4.038-18.456-17.919-30.869-28.788c-6.419,7.213-11.469,13.781-12.875,17.851c-2.531,7.262-5.719,12.162-10.493,12.162
	c-4.775,0-5.338-3.675-5.338-8.481c-0.037-5.85,10.563-16.318,22.925-26.45c-5.263-4.332-9.875-7.631-12.813-8.712
	C129.688,85.25,125,82.325,125,77.419c0.025-2.319,0.969-4.538,2.619-6.169C129.269,69.625,131.494,68.725,133.807,68.75z"/>
<g>
	<path fill="#727272" stroke="#727272" stroke-miterlimit="10" d="M22.931,109.83V93.05h2.917v2.386
		c1.404-1.843,3.433-2.765,6.085-2.765c1.152,0,2.211,0.182,3.178,0.545c0.966,0.363,1.689,0.84,2.169,1.43
		c0.48,0.59,0.816,1.291,1.008,2.102c0.12,0.527,0.18,1.448,0.18,2.765v10.318h-3.241V99.623c0-1.158-0.126-2.025-0.378-2.599
		c-0.252-0.574-0.699-1.032-1.341-1.375c-0.643-0.342-1.396-0.514-2.26-0.514c-1.38,0-2.572,0.385-3.574,1.154
		c-1.002,0.769-1.503,2.228-1.503,4.377v9.164H22.931z"/>
	<path fill="#727272" stroke="#727272" stroke-miterlimit="10" d="M42.232,101.439c0-3.107,0.984-5.409,2.953-6.904
		c1.645-1.243,3.649-1.865,6.014-1.865c2.629,0,4.777,0.756,6.446,2.268s2.503,3.6,2.503,6.265c0,2.159-0.369,3.857-1.107,5.096
		c-0.738,1.237-1.813,2.199-3.223,2.884s-2.95,1.026-4.618,1.026c-2.677,0-4.841-0.753-6.491-2.259
		C43.057,106.443,42.232,104.273,42.232,101.439z M45.563,101.439c0,2.149,0.534,3.759,1.603,4.827
		c1.068,1.069,2.413,1.604,4.033,1.604c1.608,0,2.947-0.537,4.015-1.612c1.068-1.074,1.603-2.712,1.603-4.914
		c0-2.075-0.538-3.647-1.612-4.716c-1.074-1.069-2.41-1.604-4.006-1.604c-1.621,0-2.965,0.532-4.033,1.596
		S45.563,99.291,45.563,101.439z"/>
	<path fill="#727272" stroke="#727272" stroke-miterlimit="10" d="M63.946,109.83V93.05h2.917v2.386
		c1.404-1.843,3.433-2.765,6.085-2.765c1.152,0,2.211,0.182,3.178,0.545c0.966,0.363,1.689,0.84,2.169,1.43
		c0.48,0.59,0.816,1.291,1.008,2.102c0.12,0.527,0.18,1.448,0.18,2.765v10.318h-3.241V99.623c0-1.158-0.126-2.025-0.378-2.599
		c-0.252-0.574-0.699-1.032-1.341-1.375c-0.643-0.342-1.396-0.514-2.26-0.514c-1.38,0-2.572,0.385-3.574,1.154
		c-1.002,0.769-1.503,2.228-1.503,4.377v9.164H63.946z"/>
	<path fill="#727272" stroke="#727272" stroke-miterlimit="10" d="M97.544,104.426l3.349,0.364
		c-0.528,1.717-1.506,3.049-2.935,3.997c-1.429,0.948-3.253,1.422-5.474,1.422c-2.797,0-5.014-0.756-6.653-2.268
		c-1.639-1.511-2.458-3.631-2.458-6.359c0-2.823,0.828-5.014,2.484-6.573c1.657-1.559,3.805-2.338,6.446-2.338
		c2.557,0,4.646,0.764,6.266,2.291c1.62,1.528,2.431,3.677,2.431,6.447c0,0.169-0.007,0.422-0.019,0.759h-14.26
		c0.12,1.843,0.714,3.255,1.783,4.234c1.068,0.979,2.4,1.47,3.997,1.47c1.188,0,2.203-0.274,3.043-0.822
		C96.385,106.502,97.051,105.627,97.544,104.426z M86.903,99.828H97.58c-0.144-1.412-0.552-2.47-1.225-3.176
		c-1.032-1.096-2.371-1.644-4.015-1.644c-1.488,0-2.74,0.438-3.754,1.312C87.572,97.195,87.011,98.364,86.903,99.828z"/>
</g>
</svg>
