<?xml version="1.0" encoding="utf-8"?>
<!-- Generator: Adobe Illustrator 16.0.0, SVG Export Plug-In . SVG Version: 6.00 Build 0)  -->
<!DOCTYPE svg PUBLIC "-//W3C//DTD SVG 1.1//EN" "http://www.w3.org/Graphics/SVG/1.1/DTD/svg11.dtd">
<svg version="1.1" id="图层_1" xmlns="http://www.w3.org/2000/svg" xmlns:xlink="http://www.w3.org/1999/xlink" x="0px" y="0px"
	 width="200px" height="200px" viewBox="0 0 200 200" enable-background="new 0 0 200 200" xml:space="preserve">
<path fill="#5280C1" d="M175.6,182.8c-1.6,0-3.199-0.399-4.399-1.6l-32.4-32.4c-2.399-2.399-2.399-6,0-8.399c2.4-2.4,6-2.4,8.4,0
	L179.6,172.8c2.4,2.4,2.4,6,0,8.4C178.8,182.4,177.2,182.8,175.6,182.8z"/>
<path fill="#5280C1" d="M94,170.4c-40.8,0-74-33.2-74-74c0-40.8,33.2-73.6,74-73.6s74,33.2,74,74S134.4,170.4,94,170.4z M94,34.8
	c-34.4,0-62,27.6-62,61.6c0,34,27.6,62,62,62c34.4,0,62-27.601,62-62C155.6,62.4,128,34.8,94,34.8z"/>
<path fill="#669E8B" d="M94.4,124.4c-3.2,0-6-2.801-6-6V62c0-3.2,2.8-6,6-6c3.2,0,6,2.8,6,6v56.4C100.4,121.6,98,124.4,94.4,124.4z
	 M66,124.4c-3.2,0-6-2.801-6-6V95.2c0-3.2,2.8-6,6-6s6,2.8,6,6v23.2C72,121.6,69.2,124.4,66,124.4z M123.2,124.4c-3.2,0-6-2.801-6-6
	V78.8c0-3.2,2.8-6,6-6s6,2.8,6,6V118.4C129.2,121.6,126.8,124.4,123.2,124.4z"/>
</svg>
