<?xml version="1.0" standalone="no"?><!DOCTYPE svg PUBLIC "-//W3C//DTD SVG 1.1//EN" "http://www.w3.org/Graphics/SVG/1.1/DTD/svg11.dtd"><svg t="1747295819396" class="icon" viewBox="0 0 1024 1024" version="1.1" xmlns="http://www.w3.org/2000/svg" p-id="16012" xmlns:xlink="http://www.w3.org/1999/xlink" width="200" height="200"><path d="M555.791149 336.580806H364.841372L301.191447 462.353058c-6.110393 9.674789-17.31278 13.748384-24.950771 7.637991-9.674789-6.110393-13.748384-17.31278-7.637991-24.950771l170.072601-336.071606c11.202387-23.423173 40.735952-23.423173 51.938339 0l160.397812 336.071606c3.564396 9.674789 0 21.386375-9.674789 24.950771-9.674789 3.564396-21.386375 0-24.95077-9.674788l-60.594729-123.735455z m-17.31278-38.699155L465.153655 143.594232 386.227747 297.881651h152.250622zM304.755843 902.810542l253.072103-262.746892H323.596221c-11.202387 0-19.349577-7.637991-19.349578-19.349577s7.637991-19.349577 19.349578-19.349578h260.200895c26.987568 0 38.699155 26.987568 19.349577 46.337146l-253.072103 262.746892h253.072103c11.202387 0 19.349577 7.637991 19.349578 19.349577 0 11.202387-7.637991 19.349577-19.349578 19.349578H323.596221c-26.478369 0-38.699155-26.987568-18.840378-46.337146z" fill="#3E4C83" p-id="16013"></path><path d="M603.146693 954.239682H323.596221c-14.766783 0-26.987568-7.637991-31.570363-19.349578-5.091994-11.711586-1.527598-25.45997 9.165589-35.643958l244.924913-254.090502H323.596221c-14.257583 0-24.441571-10.183988-24.441572-24.441571 0-14.766783 9.674789-24.441571 24.441572-24.441572h260.200895c14.766783 0 26.987568 7.128792 32.079562 19.349578 5.091994 11.711586 1.527598 25.45997-8.65639 35.643958l-244.924913 254.090502h240.851318c14.257583 0 24.441571 10.183988 24.441572 24.441571s-10.183988 24.441571-24.441572 24.441572zM323.596221 606.456489c-9.165589 0-14.257583 5.091994-14.257584 14.257584 0 8.65639 5.601193 14.257583 14.257584 14.257583h246.452511L308.320239 906.374938c-7.637991 7.637991-10.183988 16.80358-7.128792 24.441571 3.564396 8.14719 12.220786 13.239184 22.404774 13.239185h279.550472c8.65639 0 14.257583-5.601193 14.257583-14.257584s-5.601193-14.257583-14.257583-14.257583H337.853804l261.219294-271.403282c7.637991-7.637991 10.183988-16.80358 6.619592-24.950771-3.564396-8.14719-11.711586-12.729985-22.404774-12.729985H323.596221z m-39.208354-128.318249c-4.073595 0-8.14719-1.527598-11.202387-3.564396-6.619592-4.073595-11.202387-10.693187-12.220786-17.821979-1.018399-5.091994 0.509199-10.183988 3.564396-14.257584l170.072601-335.562406c6.110393-12.729985 17.31278-20.367976 30.551964-20.367976s24.441571 7.637991 30.551964 20.367976l160.397812 336.071606c5.091994 13.239184-0.509199 27.496768-12.729985 32.079562-12.729985 4.582795-26.987568-1.018399-31.570363-12.220785L552.735952 341.6728H367.896569L305.774242 464.899055c-4.582795 7.128792-11.202387 11.711586-17.821979 13.239185-1.018399-0.509199-2.545997 0-3.564396 0z m180.256588-381.390353c-9.165589 0-16.80358 5.601193-21.386374 14.766782L272.67628 447.586275v0.5092c-1.527598 2.036798-2.036798 4.073595-1.527598 6.619592 0.509199 4.073595 3.564396 8.14719 8.147191 10.693188l0.509199 0.509199c2.036798 1.527598 4.073595 2.036798 6.619592 1.527598 4.073595-0.509199 8.14719-3.564396 10.693188-8.14719l64.668324-128.31825h197.060169l62.122327 127.299851c2.545997 7.128792 11.711586 9.165589 18.331179 6.619592 7.128792-2.545997 9.165589-11.711586 6.619592-18.331178L486.03083 111.00547c-4.582795-9.165589-12.220786-14.257583-21.386375-14.257583z m81.981104 206.225758H378.080557l87.582297-171.091 80.962705 171.091z m-152.250621-10.183988h135.956241l-65.686724-137.483839-70.269517 137.483839z" fill="#3E4C83" p-id="16014"></path><path d="M162.18001 1024c-61.103928 0-111.00547-49.901542-111.00547-111.00547V111.00547c0-61.103928 49.901542-111.00547 111.00547-111.00547h668.578816c59.067131 0 107.441074 48.373943 107.441075 107.441074 0 14.257583-11.202387 25.45997-25.459971 25.45997s-25.45997-11.202387-25.45997-25.45997c0-31.061164-25.45997-56.521134-56.521134-56.521134H162.18001c-33.097961 0-60.08553 26.987568-60.08553 60.08553v801.98906c0 33.097961 26.987568 60.08553 60.08553 60.08553 14.257583 0 25.45997 11.202387 25.45997 25.45997s-11.202387 25.45997-25.45997 25.45997z" fill="#3E4C83" p-id="16015"></path><path d="M983.518647 313.666832l-92.674291-124.244654-4.582795-4.582795c-0.509199-0.509199-1.018399-0.509199-1.527598-1.018398h-0.509199c-0.509199 0-1.018399-0.509199-1.018399-0.5092-0.509199 0-1.018399-0.509199-1.527598-0.509199h-0.5092c-0.509199 0-1.018399-0.509199-1.527598-0.5092-0.509199 0-1.527598 0-1.527598-0.509199H869.457981c-0.509199 0-1.018399 0-1.018399 0.509199-0.509199 0-1.018399 0.509199-1.527598 0.5092l-0.509199 0.509199c-0.509199 0-1.018399 0.509199-1.527599 0.5092h-0.509199c-0.509199 0.509199-1.018399 0.509199-1.527598 1.018398 0 0-0.509199 0.509199-1.018399 0.5092s-0.509199 0.509199-1.018399 0.509199l-1.527598 1.527598-1.527598 1.527599c-0.509199 0.509199-1.018399 1.018399-1.018399 1.527598 0 0.509199-0.509199 1.018399-1.018399 1.527598 0 0.509199-0.509199 0.509199-0.509199 1.018399 0 0 0 0.509199-0.5092 1.018399 0 0.509199-0.509199 1.018399-0.509199 1.527598-1.018399 2.036798-1.527598 4.073595-1.527598 6.110393v542.806564c0 1.018399 0 1.527598 0.509199 2.036797v171.091l-58.557931-77.39831c-6.619592-8.65639-18.840378-10.183988-27.496768-4.073595s-10.183988 18.840378-4.073595 27.496768l93.183491 124.244654 4.582794 4.582795c0.509199 0.509199 1.018399 0.509199 1.527598 1.018399l0.5092 0.509199c0.509199 0 1.018399 0.509199 1.018399 0.5092 0.509199 0 1.018399 0.509199 1.527598 0.509199h0.509199c0.509199 0 1.018399 0.509199 1.527598 0.509199 0.509199 0 1.527598 0 1.527599 0.5092h8.14719c0.509199 0 1.018399 0 1.018399-0.5092 0.509199 0 1.018399-0.509199 1.527598-0.509199l0.5092-0.509199c0.509199 0 1.018399-0.509199 1.527598-0.5092h0.509199c0.509199-0.509199 1.018399-0.509199 1.527598-1.018399 0 0 0.509199-0.509199 1.018399-0.509199 0 0 0.509199-0.509199 1.018399-0.509199l1.527598-1.527599 1.527598-1.527598c0.509199-0.509199 1.018399-1.018399 1.018399-1.527598v-0.509199c0-0.509199 0.509199-1.018399 1.018399-1.527599 0-0.509199 0.509199-0.509199 0.509199-1.018398 0 0 0-0.509199 0.5092-1.018399 0-0.509199 0.509199-1.018399 0.509199-1.527598 1.018399-2.036798 1.527598-4.073595 1.527598-6.110393V432.819493c0-1.018399 0-1.527598-0.509199-2.036798V259.691696l58.557931 77.398309c6.619592 8.65639 18.840378 10.183988 27.496768 4.073595 8.14719-6.619592 10.693187-18.840378 4.073595-27.496768z" fill="#0455CA" p-id="16016"></path><path d="M877.095972 1001.086027h-13.239184v-1.018399c-0.509199 0-0.509199 0-1.018399-0.509199h-1.018399l-0.509199-0.5092h-0.5092l-1.527598-1.527598c-0.509199-0.509199-1.018399-0.509199-2.036798-1.527598l-5.091994-5.091994-93.18349-124.244655c-8.14719-11.202387-5.601193-26.987568 5.091994-34.625559 11.202387-7.637991 26.478369-5.601193 34.625559 5.091994l49.392342 65.177524v-154.796619c-0.509199-1.527598-0.509199-2.545997-0.509199-3.564396V201.642964c0-2.545997 0.509199-5.091994 1.527598-7.637991 0-0.509199 0-0.509199 0.509199-1.018399v-1.018399l1.018399-1.018399V189.422178l1.527598-1.527598c0.509199-1.527598 1.527598-2.545997 2.036798-3.055197l4.582795-4.582794H860.292392c0.509199-0.509199 1.018399-0.509199 1.018399-0.5092l1.018398-1.018398h1.527599l1.018398-1.018399h1.018399c1.018399-0.509199 2.036798-1.018399 3.564396-1.018399h13.748384v1.018399c0.509199 0 0.509199 0 1.018399 0.509199h1.018399l0.509199 0.5092h1.018399l1.018399 1.018398c0.509199 0.509199 1.018399 0.509199 2.036797 1.527599l5.091994 5.091994 92.674292 124.244654c8.14719 10.183988 5.601193 25.96917-5.091994 34.625559-11.202387 8.14719-26.478369 5.601193-34.62556-5.091994l-49.392342-65.177523V429.764296c0.509199 1.527598 0.509199 2.545997 0.509199 3.564396v542.806564c0 2.545997-0.509199 5.091994-1.527598 7.637991 0 0.509199 0 0.509199-0.509199 1.018399v1.018399l-1.018399 1.018399V988.356042l-1.018399 1.018399c-0.509199 2.036798-1.527598 3.055196-2.545997 4.073595l-4.582794 4.582794h-0.5092l-0.509199 0.5092h-1.018399l-0.509199 0.509199-1.018399 1.018399h-1.527598l-1.018399 1.018399h-1.018399c-0.509199-0.509199-2.036798 0-3.564396 0z m-18.331178-4.073595z m11.711586-6.110393h2.545997v-0.5092h4.073595l1.018399-1.018398h1.018399c0.509199 0 1.018399-0.509199 1.018399-0.5092 0.509199-0.509199 1.018399-1.018399 2.036797-1.018399 0 0 0.509199 0 0.5092-0.509199l2.036797-2.036798c0.509199-1.527598 1.018399-2.545997 1.527598-3.055196 0-0.509199 0.509199-1.018399 0.5092-1.527598v-0.5092l0.509199-1.018398c0.509199-1.527598 1.018399-2.545997 1.018399-4.073596V433.328692l-0.509199-0.509199v-188.403779l67.72352 89.619095c5.091994 6.110393 13.748384 7.637991 20.367976 3.055196 5.091994-4.582795 8.14719-13.239184 3.055197-20.367976l-92.674292-123.735455-4.073595-4.073595c-1.018399 0-1.527598-0.509199-2.036797-1.018399h-0.5092c-1.018399 0-1.527598-0.509199-2.036797-0.5092-1.018399 0-1.527598 0-2.036798-0.509199h-2.036798v0.509199h-4.073595l-1.018399 1.018399h-1.018399c-0.509199 0-1.018399 0.509199-1.018398 0.5092-0.509199 0.509199-1.527598 1.018399-2.545997 1.527598l-2.036798 2.036797c-0.509199 1.018399-1.018399 2.036798-1.527598 2.545997 0 0.509199-0.509199 1.018399-0.5092 1.527599v0.509199l-0.509199 1.018399c-0.509199 1.527598-1.018399 2.545997-1.018399 4.073595v542.297365l0.5092 0.509199v188.403779l-67.723521-89.619095c-5.091994-6.110393-13.748384-7.637991-20.367976-3.055196-6.110393 4.582795-7.637991 13.748384-3.055197 20.367976l92.674292 123.735455 4.073595 4.073595c0.509199 0 1.018399 0.509199 1.527598 1.018399 0 0 0.509199 0 0.5092 0.509199h0.509199c1.018399 0 1.527598 0.509199 2.036798 0.5092 0.509199-0.509199 1.018399 0 1.527598 0zM861.81999 180.256589z" fill="#0455CA" p-id="16017"></path></svg>