<?xml version="1.0" encoding="utf-8"?>
<!-- Generator: Adobe Illustrator 16.0.0, SVG Export Plug-In . SVG Version: 6.00 Build 0)  -->
<!DOCTYPE svg PUBLIC "-//W3C//DTD SVG 1.1//EN" "http://www.w3.org/Graphics/SVG/1.1/DTD/svg11.dtd">
<svg version="1.1" id="图层_1" xmlns="http://www.w3.org/2000/svg" xmlns:xlink="http://www.w3.org/1999/xlink" x="0px" y="0px"
	 width="200px" height="200px" viewBox="0 0 200 200" enable-background="new 0 0 200 200" xml:space="preserve">
<path fill="#387FD3" stroke="#5280C1" stroke-miterlimit="10" d="M188.295,186.697l-43.748,0.398l-1.594-174.992l43.748-0.398
	L188.295,186.697z M181.988,180.505l-1.479-162.493l-31.249,0.285l1.48,162.493L181.988,180.505z"/>
<path fill="#B8B8B8" stroke="#727272" stroke-miterlimit="10" d="M125.114,112.27l-49.998,0.456l-0.911-99.996l49.998-0.456
	L125.114,112.27z M118.808,106.077l-0.797-87.497l-37.498,0.342l0.797,87.497L118.808,106.077z"/>
<path fill="#5280C1" stroke="#5280C1" stroke-miterlimit="10" d="M57.051,187.893l-43.749,0.398L11.708,13.299L55.457,12.9
	L57.051,187.893z M50.744,181.7l-1.48-162.493l-31.249,0.285l1.48,162.493L50.744,181.7z"/>
<path fill="#FA7542" stroke="#CE6043" stroke-miterlimit="10" d="M131.559,133.519c0.05,5.438-9.283,15.003-20.652,24.54
	c12.092,15.479,22.005,30.626,20.391,29.047c-8.028-8.725-16.373-17.15-25.02-25.262c-17.479,14.042-37.313,26.816-35.513,24.781
	c3.996-4.575,17.749-18.619,28.505-31.13c-7.271-6.354-13.885-11.343-17.967-12.712c-7.285-2.465-12.213-5.607-12.257-10.382
	c-0.044-4.774,3.626-5.371,8.432-5.415c5.849-0.09,16.413,10.415,26.658,22.684c4.284-5.303,7.54-9.944,8.595-12.892
	c2.292-7.229,5.174-11.942,10.08-11.987c2.319,0.005,4.547,0.928,6.192,2.563C130.643,128.99,131.563,131.206,131.559,133.519z"/>
<g>
	<path fill="#727272" stroke="#727272" stroke-miterlimit="10" d="M89.47,23.022l16.78-0.153l0.026,2.917l-2.386,0.021
		c1.855,1.387,2.796,3.408,2.82,6.06c0.01,1.152-0.162,2.213-0.517,3.183s-0.824,1.697-1.41,2.182
		c-0.585,0.485-1.283,0.828-2.093,1.027c-0.525,0.125-1.446,0.193-2.763,0.205l-10.317,0.094l-0.03-3.241l10.208-0.093
		c1.158-0.011,2.023-0.145,2.596-0.402c0.571-0.257,1.025-0.708,1.362-1.354c0.336-0.646,0.501-1.401,0.493-2.265
		c-0.012-1.379-0.408-2.568-1.187-3.563c-0.778-0.995-2.241-1.482-4.39-1.463L89.5,26.262L89.47,23.022z"/>
	<path fill="#727272" stroke="#727272" stroke-miterlimit="10" d="M98.036,42.246c3.107-0.028,5.418,0.935,6.931,2.89
		c1.259,1.634,1.898,3.632,1.92,5.997c0.024,2.629-0.712,4.783-2.209,6.466c-1.497,1.683-3.577,2.536-6.242,2.56
		c-2.158,0.02-3.86-0.334-5.105-1.061c-1.244-0.727-2.215-1.793-2.914-3.197c-0.697-1.403-1.052-2.94-1.067-4.608
		c-0.024-2.677,0.709-4.848,2.2-6.512C93.04,43.116,95.203,42.271,98.036,42.246z M98.066,45.577
		c-2.148,0.02-3.753,0.568-4.811,1.647c-1.06,1.077-1.583,2.427-1.568,4.047c0.015,1.608,0.564,2.942,1.649,4
		c1.084,1.059,2.726,1.578,4.928,1.558c2.075-0.019,3.642-0.571,4.701-1.655c1.059-1.084,1.582-2.424,1.567-4.02
		c-0.015-1.621-0.56-2.96-1.633-4.019S100.215,45.557,98.066,45.577z"/>
	<path fill="#727272" stroke="#727272" stroke-miterlimit="10" d="M89.844,64.035l16.779-0.153l0.027,2.917l-2.387,0.022
		c1.856,1.387,2.797,3.408,2.82,6.06c0.011,1.152-0.162,2.213-0.516,3.183c-0.354,0.969-0.825,1.696-1.41,2.182
		c-0.586,0.485-1.284,0.828-2.093,1.027c-0.526,0.125-1.446,0.193-2.764,0.205l-10.317,0.094l-0.03-3.24l10.208-0.093
		c1.158-0.01,2.023-0.144,2.595-0.402c0.571-0.257,1.025-0.708,1.363-1.354c0.336-0.646,0.501-1.4,0.493-2.264
		c-0.013-1.38-0.409-2.569-1.187-3.563c-0.778-0.995-2.242-1.483-4.391-1.463l-9.164,0.083L89.844,64.035z"/>
	<path fill="#727272" stroke="#727272" stroke-miterlimit="10" d="M95.554,97.583l-0.333,3.352
		c-1.722-0.512-3.063-1.478-4.024-2.898c-0.96-1.42-1.451-3.24-1.472-5.461c-0.025-2.796,0.71-5.02,2.207-6.673
		s3.608-2.491,6.337-2.516c2.823-0.025,5.021,0.783,6.596,2.424c1.573,1.643,2.372,3.784,2.396,6.425
		c0.023,2.557-0.722,4.653-2.234,6.286c-1.514,1.634-3.654,2.464-6.425,2.49c-0.169,0.002-0.422-0.003-0.759-0.013l-0.13-14.258
		c-1.841,0.136-3.248,0.744-4.218,1.821c-0.969,1.077-1.448,2.413-1.434,4.01c0.011,1.188,0.295,2.2,0.85,3.035
		C93.467,96.442,94.348,97.101,95.554,97.583z M100.054,86.9l0.098,10.677c1.411-0.157,2.465-0.575,3.165-1.254
		c1.087-1.042,1.623-2.386,1.607-4.03c-0.014-1.488-0.463-2.736-1.346-3.742C102.693,87.545,101.52,86.995,100.054,86.9z"/>
</g>
</svg>
