<?xml version="1.0" standalone="no"?><!DOCTYPE svg PUBLIC "-//W3C//DTD SVG 1.1//EN" "http://www.w3.org/Graphics/SVG/1.1/DTD/svg11.dtd"><svg t="1742471620256" class="icon" viewBox="0 0 1024 1024" version="1.1" xmlns="http://www.w3.org/2000/svg" p-id="2616" width="32" height="32" xmlns:xlink="http://www.w3.org/1999/xlink"><path d="M66.272 66.272h891.456v526.784H1024V0H0v1024h593.056v-66.272H66.272V66.272zM184.32 400.512h110.368v66.272H184.32v-66.272z m0-191.456h640.864v66.272H184.32V209.056zM842.528 788.48a207.744 207.744 0 0 0 35.712-117.024 209.632 209.632 0 1 0-91.872 173.44l-0.736 0.48 9.952-6.816 179.776 179.776 39.264-39.264-179.776-179.776z m-64.864-8.544a153.888 153.888 0 1 1 44.96-108.672v0.768a152.224 152.224 0 0 1-44.672 107.936z" p-id="2617"></path></svg>