<?xml version="1.0" encoding="utf-8"?>
<!-- Generator: Adobe Illustrator 16.0.0, SVG Export Plug-In . SVG Version: 6.00 Build 0)  -->
<!DOCTYPE svg PUBLIC "-//W3C//DTD SVG 1.1//EN" "http://www.w3.org/Graphics/SVG/1.1/DTD/svg11.dtd">
<svg version="1.1" id="图层_1" xmlns="http://www.w3.org/2000/svg" xmlns:xlink="http://www.w3.org/1999/xlink" x="0px" y="0px"
	 width="128px" height="128px" viewBox="0 0 128 128" enable-background="new 0 0 128 128" xml:space="preserve">
<path fill="#5280C1" d="M16,21.333c2.945,0,5.333,2.388,5.333,5.333v74.667c0,2.945-2.388,5.332-5.333,5.332
	s-5.333-2.387-5.333-5.332V26.667C10.667,23.721,13.055,21.333,16,21.333"/>
<path fill="#5280C1" d="M112,21.333c2.945,0,5.334,2.388,5.334,5.333V36c0,2.945-2.389,5.333-5.334,5.333s-5.334-2.388-5.334-5.333
	v-9.333C106.666,23.721,109.055,21.333,112,21.333"/>
<path fill="#5280C1" d="M112,49.333c2.945,0,5.334,2.388,5.334,5.333v18.667c0,2.945-2.389,5.332-5.334,5.332
	s-5.334-2.387-5.334-5.332V54.667C106.666,51.721,109.055,49.333,112,49.333"/>
<path fill="#5280C1" d="M112,86.666c2.945,0,5.334,2.389,5.334,5.334v9.334c0,2.945-2.389,5.332-5.334,5.332
	s-5.334-2.387-5.334-5.332V92C106.666,89.055,109.055,86.666,112,86.666"/>
<path fill="#669E8B" d="M99.771,67.771c2.082-2.083,2.082-5.458,0-7.541L73.104,33.563c-2.046-2.119-5.422-2.177-7.541-0.131
	c-2.119,2.046-2.177,5.422-0.131,7.541c0.043,0.045,0.086,0.088,0.131,0.131l17.563,17.563H32c-2.945,0-5.333,2.388-5.333,5.333
	s2.388,5.334,5.333,5.334h51.125L65.563,86.896c-2.046,2.118-1.987,5.494,0.131,7.541c2.067,1.996,5.344,1.996,7.41,0L99.771,67.771
	z"/>
</svg>
