<?xml version="1.0" encoding="utf-8"?>
<!-- Generator: Adobe Illustrator 16.0.0, SVG Export Plug-In . SVG Version: 6.00 Build 0)  -->
<!DOCTYPE svg PUBLIC "-//W3C//DTD SVG 1.1//EN" "http://www.w3.org/Graphics/SVG/1.1/DTD/svg11.dtd">
<svg version="1.1" id="图层_1" xmlns="http://www.w3.org/2000/svg" xmlns:xlink="http://www.w3.org/1999/xlink" x="0px" y="0px"
	 width="32px" height="32px" viewBox="0 0 32 32" enable-background="new 0 0 32 32" xml:space="preserve">
<polygon fill="#5280C1" points="13.07,14 11.342,14 10.108,10.688 5.068,10.688 3.906,14 2.178,14 6.788,1.898 8.46,1.898 "/>
<path fill="#BDCDE8" d="M9.624,9.32L7.796,4.29C7.712,4.014,7.649,3.732,7.608,3.446h-0.04C7.512,3.81,7.448,4.09,7.374,4.29
	L5.562,9.32H9.624z"/>
<path fill="#5280C1" d="M20.884,30V17.766h4.25c1.271,0,2.286,0.256,3.042,0.771c0.76,0.514,1.141,1.196,1.141,2.042
	c0,0.674-0.227,1.268-0.678,1.786c-0.453,0.516-1.072,0.88-1.865,1.098v0.032c0.984,0.094,1.771,0.408,2.36,0.943
	c0.589,0.537,0.88,1.213,0.88,2.035c0,1.053-0.445,1.905-1.34,2.555C27.786,29.676,26.641,30,25.246,30H20.884z"/>
<path fill="#BDCDE8" d="M22.754,19.148v3.83h1.7c0.901,0,1.612-0.187,2.124-0.557c0.504-0.35,0.795-0.932,0.771-1.544
	c0-1.151-0.908-1.728-2.726-1.728h-1.87V19.148z"/>
<path fill="#BDCDE8" d="M22.754,24.354v4.265h2.24c0.977,0,1.732-0.19,2.266-0.572c0.521-0.359,0.821-0.96,0.797-1.592
	c0-1.399-1.125-2.101-3.373-2.101H22.754z"/>
<path fill="#727272" d="M14,26.82l0.2-1.18C9.694,24.498,6.405,20.631,6,16h2c0.414,3.659,3.011,6.699,6.56,7.68l0.3-1.68l3.74,3.16
	L14,26.82z"/>
</svg>
