<?xml version="1.0" encoding="utf-8"?>
<!-- Generator: Adobe Illustrator 16.0.0, SVG Export Plug-In . SVG Version: 6.00 Build 0)  -->
<!DOCTYPE svg PUBLIC "-//W3C//DTD SVG 1.1//EN" "http://www.w3.org/Graphics/SVG/1.1/DTD/svg11.dtd">
<svg version="1.1" id="图层_1" xmlns="http://www.w3.org/2000/svg" xmlns:xlink="http://www.w3.org/1999/xlink" x="0px" y="0px"
	 width="200px" height="200px" viewBox="0 0 200 200" enable-background="new 0 0 200 200" xml:space="preserve">
<path fill="#727272" d="M37.5,41.667C37.5,32.462,44.962,25,54.167,25l0,0h91.667c9.204,0,16.666,7.462,16.666,16.667v112.5
	c0,9.205-7.462,16.668-16.666,16.668H54.167c-9.205,0-16.667-7.463-16.667-16.668V41.667z M54.167,37.5
	C51.866,37.5,50,39.365,50,41.667l0,0v112.5c0,2.302,1.866,4.168,4.167,4.168h91.667c2.301,0,4.166-1.866,4.166-4.168v-112.5
	c0-2.301-1.865-4.167-4.166-4.167H54.167z"/>
<path fill="#5280C1" d="M41.667,75c0-3.452,2.798-6.25,6.25-6.25H156.25c3.451,0,6.25,2.798,6.25,6.25s-2.799,6.25-6.25,6.25H47.917
	C44.465,81.25,41.667,78.452,41.667,75z M62.5,54.167c0-3.452,2.798-6.25,6.25-6.25h16.667c3.452,0,6.25,2.798,6.25,6.25
	c0,3.452-2.798,6.25-6.25,6.25H68.75C65.298,60.417,62.5,57.619,62.5,54.167z M62.5,95.833c0-3.452,2.798-6.25,6.25-6.25h16.667
	c3.452,0.003,6.248,2.804,6.244,6.256c-0.003,3.447-2.797,6.241-6.244,6.245H68.75C65.298,102.084,62.5,99.285,62.5,95.833z
	 M41.667,116.666c0-3.451,2.798-6.25,6.25-6.25H156.25c3.451,0,6.25,2.799,6.25,6.25c0,3.453-2.799,6.25-6.25,6.25H47.917
	C44.465,122.916,41.667,120.119,41.667,116.666z"/>
<path fill="#CE6043" d="M137.5,141.666c0.004,4.604-3.725,8.337-8.327,8.34c-4.603,0.004-8.336-3.725-8.339-8.327
	c0-0.004,0-0.008,0-0.013c0.003-4.602,3.736-8.33,8.339-8.326C133.771,133.343,137.496,137.068,137.5,141.666z"/>
</svg>
