<?xml version="1.0" standalone="no"?><!DOCTYPE svg PUBLIC "-//W3C//DTD SVG 1.1//EN" "http://www.w3.org/Graphics/SVG/1.1/DTD/svg11.dtd"><svg t="1748482614936" class="icon" viewBox="0 0 1024 1024" version="1.1" xmlns="http://www.w3.org/2000/svg" p-id="3242" xmlns:xlink="http://www.w3.org/1999/xlink" width="200" height="200"><path d="M899.072 935.936c-8.192 0-16.384-2.048-22.528-8.192l-165.888-165.888c-12.288-12.288-12.288-30.72 0-43.008s30.72-12.288 43.008 0l165.888 165.888c12.288 12.288 12.288 30.72 0 43.008-4.096 6.144-12.288 8.192-20.48 8.192z" fill="#1296db" p-id="3243"></path><path d="M481.28 872.448C272.384 872.448 102.4 702.464 102.4 493.568S272.384 116.736 481.28 116.736 860.16 286.72 860.16 495.616s-172.032 376.832-378.88 376.832z m0-694.272C305.152 178.176 163.84 319.488 163.84 493.568s141.312 317.44 317.44 317.44S798.72 669.696 798.72 493.568c-2.048-174.08-143.36-315.392-317.44-315.392z" fill="#1296db" p-id="3244"></path><path d="M483.328 636.928c-16.384 0-30.72-14.336-30.72-30.72V317.44c0-16.384 14.336-30.72 30.72-30.72s30.72 14.336 30.72 30.72v288.768c0 16.384-12.288 30.72-30.72 30.72zM337.92 636.928c-16.384 0-30.72-14.336-30.72-30.72v-118.784c0-16.384 14.336-30.72 30.72-30.72s30.72 14.336 30.72 30.72v118.784c0 16.384-14.336 30.72-30.72 30.72zM630.784 636.928c-16.384 0-30.72-14.336-30.72-30.72v-202.752c0-16.384 14.336-30.72 30.72-30.72s30.72 14.336 30.72 30.72v202.752c0 16.384-12.288 30.72-30.72 30.72z" fill="#1296db" p-id="3245"></path></svg>