<?xml version="1.0" encoding="utf-8"?>
<!-- Generator: Adobe Illustrator 16.0.0, SVG Export Plug-In . SVG Version: 6.00 Build 0)  -->
<!DOCTYPE svg PUBLIC "-//W3C//DTD SVG 1.1//EN" "http://www.w3.org/Graphics/SVG/1.1/DTD/svg11.dtd">
<svg version="1.1" id="图层_1" xmlns="http://www.w3.org/2000/svg" xmlns:xlink="http://www.w3.org/1999/xlink" x="0px" y="0px"
	 width="128px" height="128px" viewBox="0 0 128 128" enable-background="new 0 0 128 128" xml:space="preserve">
<polygon fill="#5280C1" points="59.28,0 59.28,28.3 41.076,10.892 34.396,17.28 63.996,45.5 93.604,17.28 86.964,10.916 
	68.721,28.32 68.721,0 "/>
<polygon fill="#5280C1" points="68.721,128 68.721,99.7 86.96,117.107 93.604,110.744 64,82.52 34.396,110.74 41.076,117.104 
	59.276,99.695 59.276,128 68.716,128 "/>
<polygon fill="#669E8B" points="31.996,70.332 96,70.332 96,76.805 32,76.805 32,70.332 "/>
<polygon fill="#669E8B" points="31.996,51.152 96,51.152 96,57.556 32,57.556 32,51.152 "/>
</svg>
