<?xml version="1.0" standalone="no"?><!DOCTYPE svg PUBLIC "-//W3C//DTD SVG 1.1//EN" "http://www.w3.org/Graphics/SVG/1.1/DTD/svg11.dtd"><svg t="1747964299485" class="icon" viewBox="0 0 1024 1024" version="1.1" xmlns="http://www.w3.org/2000/svg" p-id="2351" xmlns:xlink="http://www.w3.org/1999/xlink" width="200" height="200"><path d="M810.666667 128a42.666667 42.666667 0 0 1 42.666666 42.666667v234.666666H128V170.666667a42.666667 42.666667 0 0 1 42.666667-42.666667h640z" fill="#A9D0FF" p-id="2352"></path><path d="M192 832v-640h597.333333v213.333333H853.333333V170.666667a42.666667 42.666667 0 0 0-42.666666-42.666667H170.666667a42.666667 42.666667 0 0 0-42.666667 42.666667v682.666666a42.666667 42.666667 0 0 0 42.666667 42.666667h426.666666v-64H192zM298.666667 352h298.666666v64H298.666667v-64z m0 213.333333h170.666666v64H298.666667v-64z m437.333333 170.794667a53.802667 53.802667 0 0 1-7.68-6.997333l-144.042667-160.128c-30.890667-34.304-6.570667-89.002667 39.637334-89.002667h288.170666c46.165333 0 70.528 54.698667 39.68 89.002667l-144.128 160.128a53.802667 53.802667 0 0 1-7.637333 6.997333V896h-64v-159.872z m32-58.624l120.149333-133.504h-240.298666L768 677.504z" fill="#1878FF" p-id="2353"></path></svg>