<?xml version="1.0" standalone="no"?><!DOCTYPE svg PUBLIC "-//W3C//DTD SVG 1.1//EN" "http://www.w3.org/Graphics/SVG/1.1/DTD/svg11.dtd"><svg t="1741073770503" class="icon" viewBox="0 0 1024 1024" version="1.1" xmlns="http://www.w3.org/2000/svg" p-id="2658" xmlns:xlink="http://www.w3.org/1999/xlink" width="200" height="200"><path d="M984 341.376h-158.72V273.792a102.4 102.4 0 0 0-102.4-102.4h-57.6V102.4a102.4 102.4 0 0 0-102.4-102.4H102.464a102.4 102.4 0 0 0-102.4 102.4v459.392a102.4 102.4 0 0 0 102.4 102.4h70.016v57.6a102.4 102.4 0 0 0 102.4 102.4h71.808v144.128a38.4 38.4 0 0 0 38.4 38.4 38.4 38.4 0 0 0 38.4-38.4v-524.8a25.6 25.6 0 0 1 25.6-25.6h534.912a38.4 38.4 0 0 0 38.4-38.4 38.4 38.4 0 0 0-38.4-38.144zM172.48 273.792v313.6H102.464a25.6 25.6 0 0 1-25.6-25.6V102.4a25.6 25.6 0 0 1 25.6-25.6h460.416a25.6 25.6 0 0 1 25.6 25.6v68.992h-313.6a102.4 102.4 0 0 0-102.4 102.4z m174.208 169.984v303.616H274.88a25.6 25.6 0 0 1-25.6-25.6v-448a25.6 25.6 0 0 1 25.6-25.6h448a25.6 25.6 0 0 1 25.6 25.6v67.584H449.088a102.4 102.4 0 0 0-102.4 102.4z" fill="#4D4D4D" p-id="2659"></path><path d="M929.792 511.936a38.4 38.4 0 0 0-54.272 0l-133.44 133.056-133.376-133.312a38.4 38.4 0 0 0-54.272 0 38.4 38.4 0 0 0 0 54.272l133.312 133.376-133.312 133.312a38.4 38.4 0 0 0 0 54.336 38.4 38.4 0 0 0 27.136 11.264 38.4 38.4 0 0 0 27.136-11.264l133.376-133.184 133.376 133.376a38.4 38.4 0 0 0 27.136 11.264 38.4 38.4 0 0 0 27.136-11.264 38.4 38.4 0 0 0 0-54.336l-133.312-133.312 133.312-133.376a38.4 38.4 0 0 0 0.064-54.208z" fill="#4D4D4D" p-id="2660"></path></svg>