<?xml version="1.0" encoding="utf-8"?>
<!-- Generator: Adobe Illustrator 16.0.0, SVG Export Plug-In . SVG Version: 6.00 Build 0)  -->
<!DOCTYPE svg PUBLIC "-//W3C//DTD SVG 1.1//EN" "http://www.w3.org/Graphics/SVG/1.1/DTD/svg11.dtd">
<svg version="1.1" id="图层_1" xmlns="http://www.w3.org/2000/svg" xmlns:xlink="http://www.w3.org/1999/xlink" x="0px" y="0px"
	 width="200px" height="200px" viewBox="0 0 200 200" enable-background="new 0 0 200 200" xml:space="preserve">
<g>
	<polygon fill="#497CAD" points="42.64,60.103 59.805,60.103 59.805,100.154 54.083,100.154 54.083,105.875 76.97,105.875 
		76.97,100.154 71.248,100.154 71.248,60.103 88.413,60.103 88.413,65.824 94.134,65.824 94.134,48.66 36.918,48.66 36.918,65.824 
		42.64,65.824 	"/>
</g>
<rect x="105.578" y="71.546" fill="#B2B2B2" width="57.215" height="11.443"/>
<rect x="105.578" y="94.433" fill="#B2B2B2" width="57.215" height="11.442"/>
<polygon fill="#BDCDE8" points="36.918,117.319 162.793,117.319 162.793,128.762 36.918,128.762 36.918,117.319 "/>
<polygon fill="#BDCDE8" points="36.918,140.205 162.793,140.205 162.793,151.648 36.918,151.648 36.918,140.205 "/>
<rect x="105.578" y="48.66" fill="#B2B2B2" width="57.215" height="11.443"/>
<rect x="18.5" y="24.5" fill="none" stroke="#727272" stroke-width="10" stroke-miterlimit="10" width="168" height="155"/>
</svg>
