<?xml version="1.0" encoding="utf-8"?>
<!-- Generator: Adobe Illustrator 16.0.0, SVG Export Plug-In . SVG Version: 6.00 Build 0)  -->
<!DOCTYPE svg PUBLIC "-//W3C//DTD SVG 1.1//EN" "http://www.w3.org/Graphics/SVG/1.1/DTD/svg11.dtd">
<svg version="1.1" id="图层_1" xmlns="http://www.w3.org/2000/svg" xmlns:xlink="http://www.w3.org/1999/xlink" x="0px" y="0px"
	 width="200px" height="200px" viewBox="0 0 200 200" enable-background="new 0 0 200 200" xml:space="preserve">
<path fill="#497CAD" d="M171.186,59.173h-19.545V39.63c0-2.317-1.931-4.249-4.248-4.249c-2.316,0-4.248,1.931-4.248,4.249v19.543
	H123.6c-2.315,0-4.248,1.931-4.248,4.249c0,2.318,1.933,4.249,4.248,4.249h19.545v19.543c0,2.317,1.932,4.249,4.248,4.249
	c2.317,0,4.248-1.931,4.248-4.249V67.671h19.545c2.316,0,4.248-1.932,4.248-4.249C175.434,61.027,173.502,59.173,171.186,59.173z"/>
<path fill="#727272" d="M28.663,75.396c2.163,0,3.862-1.7,3.862-3.862h0.154v-4.249h7.107c2.086,0,3.862-1.7,3.862-3.863
	s-1.776-3.862-3.862-3.862l-11.124-0.077c-2.163,0-3.862,1.699-3.862,3.862v8.343C24.801,73.619,26.5,75.396,28.663,75.396z"/>
<path fill="#727272" d="M55.082,67.207h19.312c2.163,0,3.862-1.699,3.862-3.862c0-2.163-1.699-3.862-3.862-3.862H55.082
	c-2.163,0-3.862,1.777-3.862,3.862C51.219,65.508,52.996,67.207,55.082,67.207z"/>
<path fill="#727272" d="M89.688,67.207H109c2.164,0,3.863-1.699,3.863-3.862c0-2.163-1.699-3.862-3.863-3.862H89.688
	c-2.163,0-3.862,1.777-3.862,3.862C85.981,65.508,87.526,67.207,89.688,67.207z"/>
<path fill="#727272" d="M151.332,109.539c0-2.163-1.699-3.862-3.861-3.862c-2.164,0-3.863,1.699-3.863,3.862v19.313
	c0,2.162,1.699,3.861,3.863,3.861c2.162,0,3.861-1.699,3.861-3.861V109.539z"/>
<path fill="#727272" d="M147.471,140.283c-2.164,0-3.863,1.777-3.863,3.863v12.514h-15.448v0.23c-2.163,0-3.863,1.7-3.863,3.862
	c0,2.163,1.7,3.862,3.863,3.862h19.312c2.163,0,3.862-1.699,3.862-3.862V144.3C151.332,141.982,149.557,140.283,147.471,140.283z"/>
<path fill="#727272" d="M113.48,156.66l-80.956-0.154V82.657h-0.154c0-2.163-1.7-3.862-3.863-3.862
	c-2.163,0-3.862,1.699-3.862,3.862v77.866c0,2.162,1.7,3.861,3.862,3.861h84.741c2.163,0,3.862-1.777,3.862-3.861
	C117.111,158.359,115.335,156.66,113.48,156.66z"/>
</svg>
