<?xml version="1.0" encoding="utf-8"?>
<!-- Generator: Adobe Illustrator 16.0.0, SVG Export Plug-In . SVG Version: 6.00 Build 0)  -->
<!DOCTYPE svg PUBLIC "-//W3C//DTD SVG 1.1//EN" "http://www.w3.org/Graphics/SVG/1.1/DTD/svg11.dtd">
<svg version="1.1" id="图层_1" xmlns="http://www.w3.org/2000/svg" xmlns:xlink="http://www.w3.org/1999/xlink" x="0px" y="0px"
	 width="200px" height="200px" viewBox="0 0 200 200" enable-background="new 0 0 200 200" xml:space="preserve">
<path fill="#BDCDE8" stroke="#BDCDE8" stroke-miterlimit="10" d="M89.766,100.723c0-6.484-5.254-11.738-11.738-11.738
	S66.27,94.238,66.27,100.723s5.254,11.738,11.758,11.738C84.492,112.48,89.766,107.227,89.766,100.723z M114.297,151.582
	c3.066-19.18,18.516-34.199,37.891-36.621l-1.953-6.348l-9.922,3.301l-8.613-16.211l-27.793,40.117l-14.883-9.609l-23.34,25.371
	H114.297z"/>
<path fill="#5280C1" stroke="#669E8B" stroke-miterlimit="10" d="M50.723,161.914v-84.18c0-1.504,1.211-2.715,2.715-2.715h118.574
	c1.504,0,2.715,1.211,2.715,2.715v40.313c4.59,1.934,8.77,4.609,12.422,7.891V68.73c0-3.398-2.754-6.133-6.133-6.133h-26.172
	l-15.488-40.273c-1.211-3.164-4.766-4.746-7.93-3.535L3.945,67.793c-3.164,1.23-4.746,4.785-3.535,7.949l37.891,98.535v0.059h78.359
	c-1.504-3.906-2.461-8.066-2.793-12.422H50.723z M128.984,33.008c0.41-0.059,1.074-0.039,1.426,0.742l11.094,28.828H52.07
	L128.984,33.008z M38.301,139.668l-23.086-60c-0.527-1.387,0.156-2.969,1.563-3.496l21.523-8.281V139.668z"/>
<path fill="#669E8B" d="M199.707,156.25l-29.59-23.73c-0.449-0.332-1.074-0.02-1.074,0.547v14.668h-38.184
	c-1.035,0-1.895,0.84-1.895,1.875v14.785c0,1.035,0.84,1.895,1.895,1.895h38.184v14.668c0,0.547,0.645,0.879,1.074,0.547
	l29.59-23.73C200.215,157.383,200.215,156.621,199.707,156.25z"/>
</svg>
