<?xml version="1.0" encoding="utf-8"?>
<!-- Generator: Adobe Illustrator 16.0.0, SVG Export Plug-In . SVG Version: 6.00 Build 0)  -->
<!DOCTYPE svg PUBLIC "-//W3C//DTD SVG 1.1//EN" "http://www.w3.org/Graphics/SVG/1.1/DTD/svg11.dtd">
<svg version="1.1" id="图层_1" xmlns="http://www.w3.org/2000/svg" xmlns:xlink="http://www.w3.org/1999/xlink" x="0px" y="0px"
	 width="200px" height="200px" viewBox="0 0 200 200" enable-background="new 0 0 200 200" xml:space="preserve">
<path fill="#BDCDE8" d="M0,134c0,35.898,29.102,65,65,65s65-29.102,65-65s-29.102-65-65-65S0,98.102,0,134z"/>
<path fill="#80559F" d="M52.6,77.95h13.35c10,0,16.85,3.35,16.85,13.3c0,9.95-7,14.099-16.6,14.099h-6.65v16.75H52.6V77.95z
	 M65.55,100c7.1,0,10.45-2.7,10.45-8.5c0-5.8-3.65-7.75-10.65-7.75h-5.8V100H65.55z M91.4,77.95h7.15l14.649,25.899l4.601,9.351h0.3
	c-0.35-4.55-0.9-10-0.9-14.7V77.95h6.601V122.1h-7.15L102,96.05l-4.6-9.25h-0.3c0.35,4.55,0.9,9.65,0.9,14.45v20.801h-6.6V77.95z
	 M133.05,100c0-14.4,8.899-23.05,20.55-23.05c4.979-0.077,9.756,1.958,13.15,5.6L162.949,87c-2.313-2.579-5.636-4.021-9.1-3.95
	C145.649,83.2,140,89.55,140,100c0,10.45,5,16.9,13.949,16.9c2.494,0.096,4.946-0.662,6.95-2.15v-10.449h-8.55V98.6h15v19.15
	c-3.838,3.392-8.832,5.182-13.95,5C141.6,122.9,133.05,114.6,133.05,100z"/>
<path fill="#5280C1" stroke="#5280C1" stroke-miterlimit="10" d="M172.5,200h-125c-15.177-0.027-27.473-12.324-27.5-27.5v-145
	C20.027,12.324,32.323,0.028,47.5,0h100.85c4.617-0.038,9.06,1.761,12.35,5l37.051,37.05c1.462,1.434,2.275,3.402,2.25,5.45v125
	C199.972,187.676,187.676,199.973,172.5,200L172.5,200z M47.5,15C40.596,15,35,20.597,35,27.5v145c0,6.904,5.596,12.5,12.5,12.5l0,0
	h125c6.902,0,12.5-5.596,12.5-12.5l0,0V50.601l-35-35c-0.46-0.393-1.046-0.606-1.65-0.6H47.5z"/>
</svg>
