<?xml version="1.0" standalone="no"?><!DOCTYPE svg PUBLIC "-//W3C//DTD SVG 1.1//EN" "http://www.w3.org/Graphics/SVG/1.1/DTD/svg11.dtd"><svg t="1747616137494" class="icon" viewBox="0 0 1024 1024" version="1.1" xmlns="http://www.w3.org/2000/svg" p-id="11047" xmlns:xlink="http://www.w3.org/1999/xlink" width="200" height="200"><path d="M1014.323955 282.442262L740.635388 8.753695a29.875477 29.875477 0 0 0-50.992281 21.116803v138.309062C485.104072 181.1276 385.549143 330.185034 385.549143 622.860727a29.865479 29.865479 0 0 0 57.60128 11.088322c0.78988-1.999697 76.988345-187.561606 246.492684-207.558579V562.06993a29.875477 29.875477 0 0 0 50.382373 21.716712l273.688567-258.480869a29.885476 29.885476 0 0 0 0.609908-42.833516z" p-id="11048"></path><path d="M736.965943 1023.850023H117.589708A116.792319 116.792319 0 0 1 0.92737 907.197682V287.811449a116.772322 116.772322 0 0 1 116.662338-116.612346h82.697481a29.865479 29.865479 0 0 1 29.865479 29.865478V736.043593A56.991372 56.991372 0 0 0 287.034057 792.884988h536.678754a29.865479 29.865479 0 0 1 29.875477 29.865479v84.447215A116.762324 116.762324 0 0 1 736.965943 1023.850023z m-619.386233-792.879969A56.991372 56.991372 0 0 0 60.668326 287.811449v619.386233a56.991372 56.991372 0 0 0 56.921382 56.921383H736.965943a56.991372 56.991372 0 0 0 56.871391-56.921383V852.625944H287.034057A116.772322 116.772322 0 0 1 170.411712 736.043593V230.93006z" p-id="11049"></path><path d="M906.460284 852.625944H287.034057A116.772322 116.772322 0 0 1 170.411712 736.043593V116.617366A116.772322 116.772322 0 0 1 287.034057 0.005019h276.958072a29.875477 29.875477 0 1 1 0 59.740956H287.034057a56.991372 56.991372 0 0 0-56.921383 56.871391V736.043593A56.991372 56.991372 0 0 0 287.034057 792.884988h619.426227A56.991372 56.991372 0 0 0 963.331674 736.043593V459.085521a29.875477 29.875477 0 1 1 59.740956 0v276.958072a116.742327 116.742327 0 0 1-116.612346 116.582351z" p-id="11050"></path></svg>