<?xml version="1.0" encoding="utf-8"?>
<!-- Generator: Adobe Illustrator 16.0.0, SVG Export Plug-In . SVG Version: 6.00 Build 0)  -->
<!DOCTYPE svg PUBLIC "-//W3C//DTD SVG 1.1//EN" "http://www.w3.org/Graphics/SVG/1.1/DTD/svg11.dtd">
<svg version="1.1" id="图层_1" xmlns="http://www.w3.org/2000/svg" xmlns:xlink="http://www.w3.org/1999/xlink" x="0px" y="0px"
	 width="200px" height="200px" viewBox="0 0 200 200" enable-background="new 0 0 200 200" xml:space="preserve">
<path fill="#5280C1" d="M183.422,62.627L137.97,17.176c-1.939-1.938-5.079-1.936-7.017,0.002c-0.93,0.93-1.451,2.19-1.452,3.504
	v22.97C95.533,45.802,79,70.556,79,119.161c-0.001,2.74,2.218,4.961,4.958,4.963c2.03,0.001,3.855-1.236,4.608-3.121
	c0.131-0.332,12.786-31.148,40.936-34.47v22.533c0.001,2.74,2.224,4.96,4.964,4.959c1.266,0,2.482-0.483,3.403-1.353l45.452-42.927
	c1.991-1.883,2.079-5.025,0.195-7.017c-0.03-0.033-0.062-0.065-0.094-0.097V62.627z"/>
<path fill="#727272" d="M137.36,185.755H34.499c-10.695-0.012-19.362-8.678-19.375-19.372V63.52
	c0.015-10.693,8.682-19.356,19.375-19.366h13.734c2.739,0,4.959,2.22,4.959,4.96l0,0v88.845c0.014,5.211,4.236,9.43,9.447,9.44
	h89.126c2.74-0.001,4.961,2.218,4.963,4.958v0.001v14.025C156.718,177.075,148.054,185.741,137.36,185.755z M34.497,54.08
	c-5.212,0.007-9.438,4.227-9.451,9.44v102.863c0.006,5.218,4.235,9.446,9.453,9.452H137.36c5.215-0.011,9.438-4.237,9.445-9.452
	v-9.063H62.639c-10.688-0.015-19.351-8.673-19.368-19.361V54.073L34.497,54.08z"/>
<path fill="#727272" d="M165.509,157.319H62.639c-10.688-0.015-19.351-8.673-19.368-19.361V35.089
	c0.014-10.69,8.677-19.353,19.368-19.366h45.995c2.74-0.05,5.002,2.13,5.052,4.87c0.05,2.739-2.131,5.001-4.87,5.051
	c-0.061,0.001-0.12,0.001-0.182,0H62.639c-5.215,0.007-9.442,4.23-9.453,9.445v102.869c0.014,5.213,4.24,9.435,9.453,9.44h102.87
	c5.209-0.012,9.431-4.23,9.444-9.44V91.963c-0.05-2.739,2.131-5.001,4.87-5.051c2.739-0.051,5.001,2.13,5.051,4.869
	c0.002,0.061,0.002,0.121,0,0.182v45.995C184.86,148.646,176.197,157.308,165.509,157.319z"/>
</svg>
