<?xml version="1.0" standalone="no"?><!DOCTYPE svg PUBLIC "-//W3C//DTD SVG 1.1//EN" "http://www.w3.org/Graphics/SVG/1.1/DTD/svg11.dtd"><svg t="1716784429539" class="icon" viewBox="0 0 1024 1024" version="1.1" xmlns="http://www.w3.org/2000/svg" p-id="3525" xmlns:xlink="http://www.w3.org/1999/xlink" width="200" height="200"><path d="M192 400.0256h39.6288c98.4064 0 89.9072-160 4.608-160H144.0256V448h47.9744v-48.0256z m0-112.0256h31.488c33.9968 0 37.1712 64-3.328 64h-28.16v-64zM409.6 803.2256h80.0256v-160.0512h159.9488V563.2H409.6v240.0256z m38.4-451.2768L392.2944 240.0256h-56.32V448H384V335.9744L444.5184 448h51.456V239.9744H448v111.9744z m-224 176.0768v335.9744h311.808a205.824 205.824 0 0 0 65.8432 73.4208c-9.216 4.3008-19.456 6.5536-29.8496 6.5536H215.7056a71.68 71.68 0 0 1-71.68-71.68v-344.2688h79.9744zM739.3792 665.6l1.536 0.5632 127.8464 102.5024a4.096 4.096 0 0 1 0 6.6048l-127.7952 102.5024c-1.8944 1.4336-4.6592 0-4.6592-2.3552V812.032H571.392a8.192 8.192 0 0 1-8.192-8.192v-63.8464a8.192 8.192 0 0 1 8.192-8.0896h164.9152v-63.3344c0-2.4576 2.7136-3.84 4.608-2.4064z m52.9408-585.6256a71.68 71.68 0 0 1 71.68 71.68v474.0096a204.9024 204.9024 0 0 0-79.9744-51.2V160.0512h-640v-8.3456a71.68 71.68 0 0 1 71.68-71.68z m-175.5648 209.9712c23.04 0 31.2832 14.0288 33.3312 30.0544h52.1216c-8.192-48.0256-37.632-79.5136-84.224-79.5136-124.416 0-116.5824 206.336-2.8672 206.336 20.0192 0 39.424-5.632 52.0192-23.2448l1.792 24.4224h35.072V352h-80.0256V384h30.6176c-4.3008 32-75.52 35.328-75.52-38.2464 0-13.7216-1.024-55.808 37.6832-55.808z" fill="#497cad" p-id="3526"></path></svg>