<?xml version="1.0" standalone="no"?><!DOCTYPE svg PUBLIC "-//W3C//DTD SVG 1.1//EN" "http://www.w3.org/Graphics/SVG/1.1/DTD/svg11.dtd"><svg t="1747616172091" class="icon" viewBox="0 0 1024 1024" version="1.1" xmlns="http://www.w3.org/2000/svg" p-id="13725" xmlns:xlink="http://www.w3.org/1999/xlink" width="200" height="200"><path d="M293.632 645.248c91.456-86.784 183.552-220.544 346.88-211.584a20.8 20.8 0 0 1 20.224 20.8v59.392a21.376 21.376 0 0 0 34.432 16.64l211.2-171.2a21.376 21.376 0 0 0 0-33.28l-210.24-192a21.952 21.952 0 0 0-35.648 16.64v60.096a20.8 20.8 0 0 1-17.856 20.8c-280.704 61.76-351.36 391.104-348.992 413.696zM192 960a138.176 138.176 0 0 1-129.984-152.512L64 832V192a116.48 116.48 0 0 1 128-128c-108.8 1.024 256 0 256 0a28.224 28.224 0 0 1 29.76 27.84A35.968 35.968 0 0 1 448 128H192a53.12 53.12 0 0 0-64 64c1.536-37.504 0 640 0 640a52.8 52.8 0 0 0 64 64c49.536-0.448 640 0 640 0a52.48 52.48 0 0 0 64-64c-0.64 105.152 0-256 0-256a36.48 36.48 0 0 1 27.264-38.4A33.216 33.216 0 0 1 960 576v256a116.48 116.48 0 0 1-128 128c-50.56-0.448-640 0-640 0z" fill="#2c2c2c" p-id="13726"></path></svg>