<?xml version="1.0" standalone="no"?><!DOCTYPE svg PUBLIC "-//W3C//DTD SVG 1.1//EN" "http://www.w3.org/Graphics/SVG/1.1/DTD/svg11.dtd"><svg t="1747287565948" class="icon" viewBox="0 0 1024 1024" version="1.1" xmlns="http://www.w3.org/2000/svg" p-id="13318" xmlns:xlink="http://www.w3.org/1999/xlink" width="200" height="200"><path d="M932.9664 539.0848H384.8704a59.6992 59.6992 0 0 0-58.0608 33.5872c-1.536 3.0208-3.3792 5.9904-5.12 8.96-46.08 81.92-92.16 164.1984-139.1616 245.76a121.3952 121.3952 0 0 1-24.32 29.696 29.4912 29.4912 0 0 1-41.2672-0.256A152.576 152.576 0 0 1 102.4 841.3184v32.4608a193.6896 193.6896 0 0 0 12.032 25.9584A57.5488 57.5488 0 0 0 151.552 921.6h614.4a71.2192 71.2192 0 0 0 49.664-43.3664c49.2544-95.744 99.4816-191.0272 149.2992-286.72 2.8672-5.4784 5.376-11.1616 8.0896-16.7424v-10.24a34.4064 34.4064 0 0 0-40.0384-25.4464z m-791.2448 281.6a25.9584 25.9584 0 0 0 16.9984-28.416V446.5664c0-13.5168 3.4304-16.7936 17.6128-16.7936h318.72V375.04H383.1808V348.672a55.808 55.808 0 0 0-57.6512-55.3984q-82.8928-0.4096-165.7856 0a54.2208 54.2208 0 0 0-47.4112 24.4736A135.1168 135.1168 0 0 0 102.4 340.992v450.816c1.7408 4.1472 3.1232 8.448 5.12 12.3392a31.0784 31.0784 0 0 0 34.2016 16.7424z m615.5264-465.92v82.5856l215.04-167.3728L756.9408 102.4c0 26.368-0.3072 50.7392 0 75.0592a10.7008 10.7008 0 0 1-8.6016 12.1344 318.4128 318.4128 0 0 0-165.0176 135.0144 294.8608 294.8608 0 0 0-41.984 156.3648c0 11.8784 1.8432 23.7568 2.8672 35.84a208.64 208.64 0 0 1 213.0944-161.8432z" fill="#1296db" p-id="13319"></path></svg>