<?xml version="1.0" encoding="utf-8"?>
<!-- Generator: Adobe Illustrator 16.0.0, SVG Export Plug-In . SVG Version: 6.00 Build 0)  -->
<!DOCTYPE svg PUBLIC "-//W3C//DTD SVG 1.1//EN" "http://www.w3.org/Graphics/SVG/1.1/DTD/svg11.dtd">
<svg version="1.1" id="图层_1" xmlns="http://www.w3.org/2000/svg" xmlns:xlink="http://www.w3.org/1999/xlink" x="0px" y="0px"
	 width="200px" height="200px" viewBox="0 0 200 200" enable-background="new 0 0 200 200" xml:space="preserve">
<path fill="#5280C1" d="M60.939,123.951c16.438-15.6,32.993-39.642,62.35-38.032c2.024,0.056,3.636,1.713,3.635,3.739v10.675
	c0.028,2.122,1.771,3.818,3.893,3.791c0.832-0.012,1.638-0.292,2.298-0.8l37.962-30.773c1.652-1.332,1.911-3.751,0.579-5.402
	c-0.173-0.213-0.366-0.407-0.579-0.58l-37.791-34.511c-1.703-1.36-4.186-1.082-5.546,0.621c-0.537,0.674-0.841,1.507-0.861,2.371
	v10.803c0.019,1.875-1.354,3.473-3.21,3.739C73.214,60.692,60.514,119.889,60.939,123.951z"/>
<path fill="#727272" d="M42.671,180.526c-13.697-0.736-24.203-12.438-23.466-26.135c0.022-0.426,0.057-0.854,0.101-1.278
	l0.357,4.405V42.481c-1.207-11.5,7.138-21.8,18.637-23.008c1.453-0.153,2.917-0.153,4.371,0c-19.557,0.184,46.015,0,46.015,0
	c2.797-0.153,5.189,1.992,5.342,4.79c0.004,0.072,0.006,0.142,0.007,0.214c0.064,3.189-2.207,5.949-5.35,6.5H42.671
	c-5.129-1.224-10.28,1.941-11.504,7.071c-0.348,1.457-0.348,2.975,0,4.433c0.276-6.742,0,115.037,0,115.037
	c-1.267,5.086,1.828,10.237,6.915,11.504c1.506,0.376,3.083,0.376,4.589,0c8.904-0.081,115.038,0,115.038,0
	c5.041,1.312,10.192-1.713,11.503-6.755c0.405-1.557,0.405-3.192,0-4.749c-0.114,18.9,0-46.015,0-46.015
	c-0.27-3.188,1.803-6.105,4.901-6.902c3.274-0.394,6.247,1.941,6.641,5.215c0.066,0.561,0.054,1.13-0.038,1.688v46.015
	c1.206,11.501-7.138,21.8-18.638,23.008c-1.452,0.153-2.917,0.153-4.369,0C148.62,180.445,42.671,180.526,42.671,180.526z"/>
</svg>
