<?xml version="1.0" encoding="utf-8"?>
<!-- Generator: Adobe Illustrator 16.0.0, SVG Export Plug-In . SVG Version: 6.00 Build 0)  -->
<!DOCTYPE svg PUBLIC "-//W3C//DTD SVG 1.1//EN" "http://www.w3.org/Graphics/SVG/1.1/DTD/svg11.dtd">
<svg version="1.1" id="图层_1" xmlns="http://www.w3.org/2000/svg" xmlns:xlink="http://www.w3.org/1999/xlink" x="0px" y="0px"
	 width="200px" height="200px" viewBox="0 0 200 200" enable-background="new 0 0 200 200" xml:space="preserve">
<ellipse fill="#E6C27C" cx="121.23" cy="33.937" rx="11.964" ry="11.792"/>
<ellipse fill="#5280C1" cx="165.897" cy="94.935" rx="11.964" ry="11.793"/>
<ellipse fill="#669E8B" cx="143.564" cy="165.602" rx="11.964" ry="11.793"/>
<ellipse fill="#CE6043" cx="44.565" cy="159.602" rx="11.964" ry="11.793"/>
<ellipse fill="#80559F" cx="34.899" cy="62.935" rx="11.964" ry="11.793"/>
<ellipse fill="#BDCDE8" cx="100.076" cy="102.915" rx="27.527" ry="27.309"/>
<path fill="#727272" d="M134.158,104.491l11.22-1.002c3.425,7.581,11.052,12.857,19.911,12.857c12.059,0,21.836-9.776,21.836-21.836
	c0-12.06-9.777-21.836-21.836-21.836c-11.438,0-20.82,8.794-21.758,19.99l-10.357,0.924c-2.437-9.787-8.918-17.975-17.567-22.683
	l4.521-14.927c0.191,0.005,0.383,0.009,0.574,0.009c4.119,0,8.283-1.163,11.98-3.596c10.076-6.628,12.871-20.168,6.242-30.244
	c-4.195-6.377-11.16-9.838-18.263-9.838c-4.118,0-8.282,1.164-11.979,3.596c-10.076,6.628-12.871,20.168-6.243,30.244
	c1.901,2.889,4.371,5.177,7.163,6.819l-4.316,14.252c-2.206-0.42-4.447-0.631-6.693-0.631c-10.769,0-20.422,4.776-26.957,12.326
	l-16.55-9.62c0.609-2.036,0.918-4.149,0.917-6.274c0-12.06-9.776-21.836-21.836-21.836c-12.06,0-21.836,9.776-21.836,21.836
	c0,12.06,9.776,21.836,21.836,21.836c5.931,0,11.309-2.366,15.244-6.204l16.415,9.542c-1.847,4.308-2.872,9.051-2.872,14.035
	c0,7.474,2.302,14.408,6.232,20.137l-15.664,17.457c-2.85-1.363-6.042-2.127-9.412-2.127c-12.06,0-21.836,9.775-21.836,21.836
	c0,12.06,9.776,21.836,21.836,21.836s21.836-9.776,21.836-21.836c0-4.72-1.498-9.09-4.042-12.66l14.812-16.508
	c6.04,4.703,13.631,7.505,21.878,7.505c6.342,0,12.296-1.658,17.455-4.563l11.379,17.382c-3.407,3.852-5.477,8.914-5.477,14.461
	c0,12.06,9.776,21.836,21.836,21.836c12.061,0,21.836-9.776,21.836-21.836c0-12.061-9.775-21.836-21.836-21.836
	c-2.557,0-5.01,0.44-7.289,1.248l-11.818-18.052C130.124,120.66,133.626,112.979,134.158,104.491z M114.697,25.05
	c1.784-1.174,3.847-1.794,5.965-1.794c3.688,0,7.096,1.834,9.118,4.908c1.599,2.43,2.155,5.338,1.567,8.187
	c-0.588,2.849-2.25,5.298-4.682,6.897c-1.784,1.174-3.846,1.794-5.965,1.794c-3.688,0-7.096-1.834-9.117-4.908
	C108.283,35.117,109.68,28.35,114.697,25.05z M34.165,73.911c-6.005,0-10.89-4.886-10.89-10.891s4.885-10.891,10.89-10.891
	c6.005,0,10.891,4.886,10.891,10.891S40.17,73.911,34.165,73.911z M165.289,83.62c6.004,0,10.891,4.885,10.891,10.89
	c0,6.005-4.887,10.89-10.891,10.89c-6.006,0-10.891-4.885-10.891-10.89C154.398,88.505,159.283,83.62,165.289,83.62z
	 M44.108,170.422c-6.005,0-10.89-4.886-10.89-10.891c0-6.006,4.885-10.891,10.89-10.891s10.891,4.885,10.891,10.891
	C54.999,165.536,50.113,170.422,44.108,170.422z M73.898,102.229c0-13.616,11.078-24.693,24.694-24.693s24.693,11.078,24.693,24.693
	c0,13.617-11.077,24.694-24.693,24.694S73.898,115.846,73.898,102.229z M154.676,165.148c0,6.005-4.885,10.891-10.89,10.891
	s-10.891-4.886-10.891-10.891s4.886-10.891,10.891-10.891S154.676,159.144,154.676,165.148z"/>
</svg>
