<?xml version="1.0" encoding="utf-8"?>
<!-- Generator: Adobe Illustrator 16.0.0, SVG Export Plug-In . SVG Version: 6.00 Build 0)  -->
<!DOCTYPE svg PUBLIC "-//W3C//DTD SVG 1.1//EN" "http://www.w3.org/Graphics/SVG/1.1/DTD/svg11.dtd">
<svg version="1.1" id="图层_1" xmlns="http://www.w3.org/2000/svg" xmlns:xlink="http://www.w3.org/1999/xlink" x="0px" y="0px"
	 width="200px" height="200px" viewBox="0 0 200 200" enable-background="new 0 0 200 200" xml:space="preserve">
<path fill="#BFD1EB" d="M31.75,58.377v-37.5h25v37.5H31.75z M31.75,108.377v-37.5h25v37.5H31.75z"/>
<path fill="#727272" d="M19.25,8.377v112.5h50V8.377H19.25z M56.75,70.877v37.5h-25v-37.5H56.75z M56.75,20.877v37.5h-25v-37.5
	H56.75z"/>
<path fill="#497CAD" d="M81.75,137.013l-25,26.894V125h-25v38.888l-25-26.896v22.402l37.52,40.352l37.48-40.332V137.013z"/>
<g>
	<rect x="96.5" y="15.5" fill="none" stroke="#727272" stroke-width="14" stroke-miterlimit="10" width="92" height="175"/>
	<line fill="none" stroke="#727272" stroke-width="14" stroke-miterlimit="10" x1="96.5" y1="132.139" x2="188.5" y2="132.139"/>
	<line fill="none" stroke="#727272" stroke-width="14" stroke-miterlimit="10" x1="96.5" y1="73.862" x2="188.5" y2="73.862"/>
	<line fill="none" stroke="#727272" stroke-width="14" stroke-miterlimit="10" x1="142.5" y1="15.5" x2="142.5" y2="190.5"/>
</g>
</svg>
