<?xml version="1.0" encoding="utf-8"?>
<!-- Generator: Adobe Illustrator 16.0.0, SVG Export Plug-In . SVG Version: 6.00 Build 0)  -->
<!DOCTYPE svg PUBLIC "-//W3C//DTD SVG 1.1//EN" "http://www.w3.org/Graphics/SVG/1.1/DTD/svg11.dtd">
<svg version="1.1" id="图层_1" xmlns="http://www.w3.org/2000/svg" xmlns:xlink="http://www.w3.org/1999/xlink" x="0px" y="0px"
	 width="200px" height="200px" viewBox="0 0 200 200" enable-background="new 0 0 200 200" xml:space="preserve">
<path fill="#BFD1EB" d="M139.25,58.377v-37.5h25v37.5H139.25z M139.25,108.377v-37.5h25v37.5H139.25z"/>
<path fill="#727272" d="M126.75,8.377v112.5h50V8.377H126.75z M164.25,70.877v37.5h-25v-37.5H164.25z M164.25,20.877v37.5h-25v-37.5
	H164.25z"/>
<path fill="#497CAD" d="M189.25,137.013l-25,26.894V125h-25v38.888l-25-26.896v22.402l37.52,40.352l37.48-40.332V137.013z"/>
<g>
	<rect x="12.5" y="14.5" fill="none" stroke="#727272" stroke-width="14" stroke-miterlimit="10" width="92" height="175"/>
	<line fill="none" stroke="#727272" stroke-width="14" stroke-miterlimit="10" x1="12.5" y1="131.139" x2="104.5" y2="131.139"/>
	<line fill="none" stroke="#727272" stroke-width="14" stroke-miterlimit="10" x1="12.5" y1="72.862" x2="104.5" y2="72.862"/>
	<line fill="none" stroke="#727272" stroke-width="14" stroke-miterlimit="10" x1="58.5" y1="14.5" x2="58.5" y2="189.5"/>
</g>
</svg>
