<?xml version="1.0" encoding="utf-8"?>
<!-- Generator: Adobe Illustrator 16.0.0, SVG Export Plug-In . SVG Version: 6.00 Build 0)  -->
<!DOCTYPE svg PUBLIC "-//W3C//DTD SVG 1.1//EN" "http://www.w3.org/Graphics/SVG/1.1/DTD/svg11.dtd">
<svg version="1.1" id="图层_1" xmlns="http://www.w3.org/2000/svg" xmlns:xlink="http://www.w3.org/1999/xlink" x="0px" y="0px"
	 width="200px" height="200px" viewBox="0 0 200 200" enable-background="new 0 0 200 200" xml:space="preserve">
<path fill="#BFD1EB" d="M87.25,57.315v-37.5h25v37.5H87.25z M87.25,107.315v-37.5h25v37.5H87.25z"/>
<path fill="#727272" d="M74.75,7.315v112.5h50V7.315H74.75z M112.25,69.815v37.5h-25v-37.5H112.25z M112.25,19.815v37.5h-25v-37.5
	H112.25z"/>
<path fill="#497CAD" d="M137.25,135.951l-25,26.894v-38.906h-25v38.888l-25-26.896v22.402l37.52,40.352l37.48-40.332V135.951z"/>
<g>
	<rect x="12.5" y="13.5" fill="none" stroke="#727272" stroke-width="14" stroke-miterlimit="10" width="42" height="178"/>
	<line fill="none" stroke="#727272" stroke-width="14" stroke-miterlimit="10" x1="12.5" y1="132.138" x2="54.5" y2="132.138"/>
	<line fill="none" stroke="#727272" stroke-width="14" stroke-miterlimit="10" x1="12.5" y1="72.862" x2="54.5" y2="72.862"/>
</g>
<g>
	<rect x="146" y="13.315" fill="none" stroke="#727272" stroke-width="14" stroke-miterlimit="10" width="42" height="178"/>
	<line fill="none" stroke="#727272" stroke-width="14" stroke-miterlimit="10" x1="146" y1="131.953" x2="188" y2="131.953"/>
	<line fill="none" stroke="#727272" stroke-width="14" stroke-miterlimit="10" x1="146" y1="72.678" x2="188" y2="72.678"/>
</g>
</svg>
