<?xml version="1.0" encoding="utf-8"?>
<!-- Generator: Adobe Illustrator 16.0.0, SVG Export Plug-In . SVG Version: 6.00 Build 0)  -->
<!DOCTYPE svg PUBLIC "-//W3C//DTD SVG 1.1//EN" "http://www.w3.org/Graphics/SVG/1.1/DTD/svg11.dtd">
<svg version="1.1" id="图层_1" xmlns="http://www.w3.org/2000/svg" xmlns:xlink="http://www.w3.org/1999/xlink" x="0px" y="0px"
	 width="200px" height="200px" viewBox="0 0 200 200" enable-background="new 0 0 200 200" xml:space="preserve">
<path fill="#BFD1EB" d="M145.5,150H183v25h-37.5V150z M95.5,150H133v25H95.5V150z"/>
<path fill="#727272" d="M195.5,137.5H83v50h112.5V137.5z M133,175H95.5v-25H133V175z M183,175h-37.5v-25H183V175z"/>
<g>
	<rect x="7" y="7.5" fill="none" stroke="#727272" stroke-width="14" stroke-miterlimit="10" width="125.5" height="117.5"/>
	<line fill="none" stroke="#727272" stroke-width="14" stroke-miterlimit="10" x1="7" y1="85.814" x2="132.5" y2="85.814"/>
	<line fill="none" stroke="#727272" stroke-width="14" stroke-miterlimit="10" x1="7" y1="46.686" x2="132.5" y2="46.686"/>
	<line fill="none" stroke="#727272" stroke-width="14" stroke-miterlimit="10" x1="69.75" y1="7.5" x2="69.75" y2="125"/>
</g>
<path fill="#497CAD" d="M67.234,200L40.34,175h38.906v-25H40.359l26.895-25H44.852L4.5,162.52L44.832,200H67.234z"/>
</svg>
