<?xml version="1.0" standalone="no"?><!DOCTYPE svg PUBLIC "-//W3C//DTD SVG 1.1//EN" "http://www.w3.org/Graphics/SVG/1.1/DTD/svg11.dtd"><svg t="1702050048268" class="icon" viewBox="0 0 1024 1024" version="1.1" xmlns="http://www.w3.org/2000/svg" p-id="2891" xmlns:xlink="http://www.w3.org/1999/xlink" width="200" height="200"><path d="M704 606.688V293.12A37.152 37.152 0 0 0 666.88 256H37.12A37.184 37.184 0 0 0 0 293.12v693.76A37.184 37.184 0 0 0 37.12 1024h542.432v-64H64V320h576v286.688z" fill="#575869" p-id="2892"></path><path d="M791.36 606.688h64V180.928A52.992 52.992 0 0 0 802.368 128H183.328v64h608z" fill="#575869" p-id="2893"></path><path d="M971.072 0H352v64h608v542.688h64V52.928A52.992 52.992 0 0 0 971.072 0zM955.424 666.4l-106.88 106.88-106.88-106.88-45.248 45.248 106.88 106.88-106.88 106.88 45.248 45.248 106.88-106.88 106.88 106.88 45.248-45.248-106.88-106.88 106.88-106.88-45.248-45.248z" fill="#575869" p-id="2894"></path></svg>