<?xml version="1.0" standalone="no"?><!DOCTYPE svg PUBLIC "-//W3C//DTD SVG 1.1//EN" "http://www.w3.org/Graphics/SVG/1.1/DTD/svg11.dtd"><svg t="1702050033139" class="icon" viewBox="0 0 1024 1024" version="1.1" xmlns="http://www.w3.org/2000/svg" p-id="2745" xmlns:xlink="http://www.w3.org/1999/xlink" width="200" height="200"><path d="M666.88 256H37.12A37.152 37.152 0 0 0 0 293.12v693.76A37.184 37.184 0 0 0 37.12 1024h629.76A37.184 37.184 0 0 0 704 986.88V293.12A37.152 37.152 0 0 0 666.88 256zM640 960H64V320h576z" fill="#575869" p-id="2746"></path><path d="M811.072 128H192v64h608v672h64V180.928A52.992 52.992 0 0 0 811.072 128z" fill="#575869" p-id="2747"></path><path d="M971.072 0H352v64h608v672h64V52.928A52.992 52.992 0 0 0 971.072 0z" fill="#575869" p-id="2748"></path></svg>