<?xml version="1.0" standalone="no"?><!DOCTYPE svg PUBLIC "-//W3C//DTD SVG 1.1//EN" "http://www.w3.org/Graphics/SVG/1.1/DTD/svg11.dtd"><svg t="1656915490509" class="icon" viewBox="0 0 1024 1024" version="1.1" xmlns="http://www.w3.org/2000/svg" p-id="1987" xmlns:xlink="http://www.w3.org/1999/xlink" width="200" height="200"><defs><style type="text/css">@font-face { font-family: feedback-iconfont; src: url("//at.alicdn.com/t/font_1031158_u69w8yhxdu.woff2?t=1630033759944") format("woff2"), url("//at.alicdn.com/t/font_1031158_u69w8yhxdu.woff?t=1630033759944") format("woff"), url("//at.alicdn.com/t/font_1031158_u69w8yhxdu.ttf?t=1630033759944") format("truetype"); }
</style></defs><path d="M469.33 640H256V384h213.33v256z m-128-85.33H384v-85.33h-42.67v85.33z" p-id="1988" fill="#727272"></path><path d="M596.5 554.67h-169c-0.46 0-0.83-0.38-0.83-0.83v-83.67c0-0.46 0.38-0.83 0.83-0.83h169c0.46 0 0.83 0.38 0.83 0.83v83.67c0 0.45-0.37 0.83-0.83 0.83z" p-id="1989" fill="#727272"></path><path d="M768 640H554.67V384H768v256z m-128-85.33h42.67v-85.33H640v85.33zM469.33 896H128V128h341.33v213.33H384v-128H213.33v597.34H384v-128h85.33z" p-id="1990" fill="#727272"></path><path d="M896 896H554.67V682.67H640v128h170.67V213.33H640v128h-85.33V128H896z" p-id="1991" fill="#727272"></path></svg>