<?xml version="1.0" encoding="UTF-8" standalone="no"?>
<svg
   t="1701914155634"
   class="icon"
   viewBox="0 0 1024 1024"
   version="1.1"
   p-id="7400"
   width="200"
   height="200"
   id="svg1064"
   sodipodi:docname="联动记录.svg"
   inkscape:version="1.2 (dc2aedaf03, 2022-05-15)"
   xmlns:inkscape="http://www.inkscape.org/namespaces/inkscape"
   xmlns:sodipodi="http://sodipodi.sourceforge.net/DTD/sodipodi-0.dtd"
   xmlns="http://www.w3.org/2000/svg"
   xmlns:svg="http://www.w3.org/2000/svg">
  <defs
     id="defs1068" />
  <sodipodi:namedview
     id="namedview1066"
     pagecolor="#ffffff"
     bordercolor="#000000"
     borderopacity="0.25"
     inkscape:showpageshadow="2"
     inkscape:pageopacity="0.0"
     inkscape:pagecheckerboard="0"
     inkscape:deskcolor="#d1d1d1"
     showgrid="false"
     inkscape:zoom="3.58"
     inkscape:cx="99.860335"
     inkscape:cy="100"
     inkscape:window-width="1280"
     inkscape:window-height="961"
     inkscape:window-x="-8"
     inkscape:window-y="-8"
     inkscape:window-maximized="1"
     inkscape:current-layer="svg1064" />
  <path
     d="M878.276923 1014.153846H508.061538c-63.015385 0-114.215385-51.2-114.215384-114.215384v-7.876924c0-21.661538 17.723077-39.384615 39.384615-39.384615s39.384615 17.723077 39.384616 39.384615v7.876924c0 19.692308 15.753846 35.446154 35.446153 35.446153h370.215385c19.692308 0 35.446154-15.753846 35.446154-35.446153V494.276923v-3.938461-3.938462-9.846154c0-122.092308-98.461538-220.553846-220.553846-220.553846C571.076923 256 472.615385 354.461538 472.615385 476.553846v163.446154c0 21.661538-17.723077 39.384615-39.384616 39.384615s-39.384615-17.723077-39.384615-39.384615v-143.753846-7.876923-11.815385C393.846154 311.138462 527.753846 177.230769 693.169231 177.230769s299.323077 133.907692 299.323077 299.323077v427.323077c-1.969231 61.046154-53.169231 110.276923-114.215385 110.276923z"
     fill="#C7D0DA"
     p-id="7401"
     id="path1060"
     style="fill:#497cad;fill-opacity:1" />
  <path
     d="M319.015385 836.923077C153.6 836.923077 19.692308 703.015385 19.692308 537.6v-11.815385V114.215385C19.692308 51.2 70.892308 0 133.907692 0h370.215385c63.015385 0 114.215385 51.2 114.215385 114.215385v13.784615c0 21.661538-17.723077 39.384615-39.384616 39.384615s-39.384615-17.723077-39.384615-39.384615v-13.784615c0-19.692308-15.753846-35.446154-35.446154-35.446154H133.907692C114.215385 78.769231 98.461538 94.523077 98.461538 114.215385v427.323077c0 122.092308 98.461538 220.553846 220.553847 220.553846s220.553846-98.461538 220.553846-220.553846V531.692308v-5.907693-143.753846c0-21.661538 17.723077-39.384615 39.384615-39.384615s39.384615 17.723077 39.384616 39.384615v159.507693c-1.969231 161.476923-135.876923 295.384615-299.323077 295.384615z"
     fill="#64FF6C"
     p-id="7402"
     id="path1062"
     style="fill:#ce6043;fill-opacity:1" />
</svg>
