<?xml version="1.0" encoding="utf-8"?>
<!-- Generator: Adobe Illustrator 16.0.0, SVG Export Plug-In . SVG Version: 6.00 Build 0)  -->
<!DOCTYPE svg PUBLIC "-//W3C//DTD SVG 1.1//EN" "http://www.w3.org/Graphics/SVG/1.1/DTD/svg11.dtd">
<svg version="1.1" id="图层_1" xmlns="http://www.w3.org/2000/svg" xmlns:xlink="http://www.w3.org/1999/xlink" x="0px" y="0px"
	 width="200px" height="200px" viewBox="0 0 200 200" enable-background="new 0 0 200 200" xml:space="preserve">
<path fill="#727272" d="M178.862,13.969H21.137c-7.918,0-14.338,6.419-14.338,14.338v143.386c0,7.918,6.419,14.338,14.338,14.338
	l0,0h157.725c7.919,0,14.339-6.42,14.339-14.338l0,0V28.307C193.201,20.389,186.781,13.969,178.862,13.969L178.862,13.969z
	 M178.862,164.523c0,3.959-3.21,7.17-7.17,7.17l0,0H28.307c-3.96,0-7.17-3.211-7.17-7.17l0,0V35.477c0-3.96,3.21-7.17,7.17-7.17
	h143.385c3.96,0,7.17,3.21,7.17,7.17l0,0V164.523z"/>
<path fill="#5280C1" d="M35.476,35.477h57.354c4.779,0,7.17,2.39,7.17,7.169v114.709c0,4.779-2.391,7.168-7.17,7.168H35.476
	c-4.779,0-7.17-2.389-7.17-7.168V42.646C28.306,37.867,30.696,35.477,35.476,35.477z"/>
</svg>
