<?xml version="1.0" encoding="utf-8"?>
<!-- Generator: Adobe Illustrator 16.0.0, SVG Export Plug-In . SVG Version: 6.00 Build 0)  -->
<!DOCTYPE svg PUBLIC "-//W3C//DTD SVG 1.1//EN" "http://www.w3.org/Graphics/SVG/1.1/DTD/svg11.dtd">
<svg version="1.1" id="图层_1" xmlns="http://www.w3.org/2000/svg" xmlns:xlink="http://www.w3.org/1999/xlink" x="0px" y="0px"
	 width="200px" height="200px" viewBox="0 0 200 200" enable-background="new 0 0 200 200" xml:space="preserve">
<polygon fill="#727272" points="190.334,173.111 190.334,182.866 11.5,182.866 11.5,15.416 21.254,15.416 21.254,173.115 
	190.334,173.115 "/>
<polygon fill="#5280C1" points="102.948,97.844 43.609,97.844 43.609,108.817 102.948,108.817 102.948,97.844 "/>
<rect x="67.184" y="116.745" fill="#CE6043" width="35.765" height="10.974"/>
<polygon fill="#5280C1" points="140.343,141.739 140.343,130.765 105.792,130.765 105.792,141.739 140.343,141.739 "/>
<polygon fill="#5280C1" points="142.981,155.559 177.531,155.559 177.531,144.585 142.981,144.585 142.981,155.559 "/>
<rect x="37.768" y="34.822" fill="#5280C1" width="17.658" height="40.238"/>
<rect x="62.688" y="21.615" fill="#5280C1" width="17.658" height="40.237"/>
<rect x="89.113" y="21.615" fill="#CE6043" width="17.658" height="59.137"/>
<rect x="113.381" y="28.726" fill="#5280C1" width="17.657" height="38.815"/>
<rect x="137.451" y="15.416" fill="#5280C1" width="17.656" height="38.815"/>
<rect x="162.108" y="28.726" fill="#5280C1" width="17.657" height="38.815"/>
<rect x="98.42" y="15.416" fill="#E6C27C" width="8.773" height="75.084"/>
<rect x="98.421" y="98.71" fill="#E6C27C" width="8.772" height="75.084"/>
</svg>
