<?xml version="1.0" standalone="no"?><!DOCTYPE svg PUBLIC "-//W3C//DTD SVG 1.1//EN" "http://www.w3.org/Graphics/SVG/1.1/DTD/svg11.dtd"><svg t="1723121354535" class="icon" viewBox="0 0 1024 1024" version="1.1" xmlns="http://www.w3.org/2000/svg" p-id="6788" xmlns:xlink="http://www.w3.org/1999/xlink" width="200" height="200"><path d="M971.776 218.901333l1.493333-1.92 0.576-0.832a46.122667 46.122667 0 0 0 1.813334-2.858666 42.496 42.496 0 0 0 5.461333-16.938667l0.149333-2.005333 0.042667-1.28L981.333333 192v-0.170667l-0.064-2.197333-0.149333-1.984a51.093333 51.093333 0 0 0-0.725333-4.586667 42.261333 42.261333 0 0 0-6.549334-15.210666l-0.576-0.832a46.144 46.144 0 0 0-2.410666-3.008l-2.026667-2.176-106.666667-106.666667a42.666667 42.666667 0 0 0-60.330666 60.330667l33.813333 33.856L682.666667 149.333333c-117.824 0-213.333333 95.509333-213.333334 213.333334v320a128 128 0 0 1-128 128h-49.941333a128 128 0 1 0 0 85.333333H341.333333c117.824 0 213.333333-95.509333 213.333334-213.333333V362.666667a128 128 0 0 1 128-128l152.981333 0.021333-33.813333 33.813333a42.666667 42.666667 0 0 0-2.496 57.621334l2.496 2.709333a42.666667 42.666667 0 0 0 60.330666 0l106.666667-106.666667 1.194667-1.237333 0.32-0.341333-1.301334 1.365333 2.133334-2.304 0.597333-0.746667zM170.666667 896a42.666667 42.666667 0 1 1 0-85.333333 42.666667 42.666667 0 0 1 0 85.333333z" fill="#497cad" fill-opacity=".85" p-id="6789"></path></svg>