<?xml version="1.0" standalone="no"?><!DOCTYPE svg PUBLIC "-//W3C//DTD SVG 1.1//EN" "http://www.w3.org/Graphics/SVG/1.1/DTD/svg11.dtd"><svg t="1722406685441" class="icon" viewBox="0 0 1024 1024" version="1.1" xmlns="http://www.w3.org/2000/svg" p-id="11153" xmlns:xlink="http://www.w3.org/1999/xlink" width="200" height="200"><path d="M682.496 493.568v181.76c0 11.264-9.216 19.968-19.968 19.968H379.904c-11.264 0-19.968-8.704-19.968-19.968V493.568h322.56z m30.208-30.208h-40.448v-30.208c0-85.504-69.632-151.04-151.04-151.04-82.432 0-151.04 68.608-151.04 151.04v30.208h-40.448v211.968c0 27.648 22.528 50.176 50.176 50.176h282.624c27.648 0 50.176-22.528 50.176-50.176V453.12v10.24z m-70.656 0H399.872v-30.208c0-66.048 55.296-120.832 120.832-120.832 64 0 120.832 52.736 120.832 120.832l0.512 30.208z" fill="#497cad" p-id="11154"></path><path d="M662.016 735.744H379.904c-33.28 0-60.416-27.136-60.416-60.416V453.12h40.448v-19.968c0-87.552 73.728-161.28 161.28-161.28 89.088 0 161.28 72.704 161.28 161.28v19.968h40.448v222.208c0 33.28-27.136 60.416-60.928 60.416z m-322.56-262.144v201.728c0 22.016 17.92 39.936 39.936 39.936h282.624c22.016 0 39.936-17.92 39.936-39.936V473.6h-40.448v-40.448c0-77.824-63.488-140.8-140.8-140.8-76.288 0-140.8 64.512-140.8 140.8v40.448h-40.448z m323.072 231.936H379.904c-8.192 0-15.36-3.072-21.504-8.704-5.632-5.632-9.216-13.312-9.216-21.504V483.328h343.04v192c0.512 16.384-13.312 30.208-29.696 30.208zM369.664 503.808v171.52c0 2.56 1.024 5.12 3.072 6.656 2.048 2.048 4.608 2.56 7.168 2.56h283.136c5.12 0 9.216-4.608 9.216-9.728V503.808H369.664z m282.624-30.208H389.632v-40.448c0-71.168 59.904-131.072 131.072-131.072 72.192 0 131.072 58.88 131.072 131.072v40.448z m-242.176-20.48h221.696v-19.968c0-59.904-50.688-110.592-110.592-110.592-59.904 0-110.592 50.688-110.592 110.592v19.968z" fill="#497cad" p-id="11155"></path><path d="M939.008 93.696L523.264 10.24H506.88L91.648 93.696c-13.824 2.56-22.528 13.824-22.528 27.648v362.496c0 275.968 220.16 474.112 440.32 529.408h11.264c217.6-55.808 440.32-253.44 440.32-529.408V121.856c0-13.824-8.192-25.088-22.016-28.16z m-33.792 390.656c0 242.688-195.072 420.864-390.144 474.112-195.072-52.736-390.144-228.352-390.144-474.112V143.872l390.144-77.824 390.144 77.824v340.48z" fill="#497cad" p-id="11156"></path></svg>