<?xml version="1.0" encoding="utf-8"?>
<!-- Generator: Adobe Illustrator 16.0.0, SVG Export Plug-In . SVG Version: 6.00 Build 0)  -->
<!DOCTYPE svg PUBLIC "-//W3C//DTD SVG 1.1//EN" "http://www.w3.org/Graphics/SVG/1.1/DTD/svg11.dtd">
<svg version="1.1" id="图层_1" xmlns="http://www.w3.org/2000/svg" xmlns:xlink="http://www.w3.org/1999/xlink" x="0px" y="0px"
	 width="200px" height="200px" viewBox="0 0 200 200" enable-background="new 0 0 200 200" xml:space="preserve">
<path fill="#727272" d="M43.75,87.5c-1.677-0.062-3.305,0.571-4.5,1.75c-1.179,1.195-1.812,2.823-1.75,4.5v75
	c0,1.825,0.587,3.325,1.75,4.5c1.175,1.162,2.675,1.75,4.5,1.75h112.5c1.678,0.063,3.305-0.571,4.5-1.75
	c1.179-1.195,1.813-2.822,1.75-4.5v-75c0.063-1.677-0.571-3.305-1.75-4.5c-1.195-1.179-2.822-1.812-4.5-1.75H43.75z M43.75,75h112.5
	c5.338,0.125,9.763,1.95,13.287,5.475c3.5,3.5,5.338,7.938,5.463,13.275v75c-0.125,5.338-1.95,9.763-5.475,13.287
	c-3.5,3.5-7.938,5.338-13.275,5.463H43.75c-5.337-0.125-9.763-1.95-13.288-5.475c-3.5-3.5-5.337-7.938-5.462-13.275v-75
	c0.125-5.337,1.95-9.763,5.475-13.288C33.975,76.962,38.413,75.125,43.75,75z M100,106.25c1.825,0,3.325,0.588,4.5,1.75
	c1.162,1.175,1.75,2.675,1.75,4.5V150c0.063,1.678-0.571,3.305-1.75,4.5c-1.195,1.179-2.822,1.813-4.5,1.75
	c-1.677,0.063-3.305-0.571-4.5-1.75c-1.179-1.195-1.812-2.822-1.75-4.5v-37.5c0-1.825,0.587-3.325,1.75-4.5
	C96.695,106.821,98.323,106.188,100,106.25z M137.5,75V62.5c-0.263-10.675-3.912-19.538-10.938-26.563S110.688,25.263,100,25
	c-10.675,0.263-19.538,3.913-26.563,10.938S62.763,51.813,62.5,62.5V75H137.5z M100,12.5c14.188,0.388,25.975,5.275,35.35,14.65
	S149.6,48.313,150,62.5v25H50v-25c0.388-14.188,5.275-25.975,14.65-35.35S85.813,12.9,100,12.5z"/>
</svg>
