<?xml version="1.0" standalone="no"?><!DOCTYPE svg PUBLIC "-//W3C//DTD SVG 1.1//EN" "http://www.w3.org/Graphics/SVG/1.1/DTD/svg11.dtd"><svg t="1641739057142" class="icon" viewBox="0 0 1024 1024" version="1.1" xmlns="http://www.w3.org/2000/svg" p-id="3359" width="32" height="32" xmlns:xlink="http://www.w3.org/1999/xlink"><defs><style type="text/css"></style></defs><path d="M1002.92256 767.598L641.00256 102.802C613.40056 57.2 565.40056 29.6 512.00056 29.6s-101.4 27.6-129.002 73.202L21.07856 767.598C-6.51744 815.002-7.11944 871.402 19.88256 918.8c26.998 47.398 75.596 75.6 130.198 75.6h723.84c54.602 0 103.202-28.202 130.198-75.6 27.002-47.398 26.4-103.798-1.196-151.202z" fill="#495A79" p-id="3360"></path><path d="M1004.11856 918.8c-26.998 47.398-75.596 75.6-130.198 75.6H512.00056V29.6c53.4 0 101.4 27.602 129.002 73.202L1002.92256 767.6c27.596 47.402 28.198 103.802 1.196 151.2z" fill="#42516D" p-id="3361"></path><path d="M951.32256 798.2L589.39856 133.398C573.20256 105.8 543.80256 89.6 512.00056 89.6s-61.202 16.202-77.398 43.798L72.67856 798.2c-16.798 28.202-16.798 62.398-0.596 90.6 16.198 28.798 45.596 45.6 78 45.6h723.84c32.402 0 61.802-16.802 78-45.6 16.198-28.202 16.198-62.398-0.6-90.6z" fill="#FFDE33" p-id="3362"></path><path d="M951.92056 888.8c-16.198 28.798-45.596 45.6-78 45.6H512.00056V89.6c31.802 0 61.202 16.202 77.398 43.798L951.32256 798.2c16.798 28.202 16.798 62.398 0.598 90.6z" fill="#FFBC33" p-id="3363"></path><path d="M512.00056 874.4c-33.076 0-60-26.924-60-60s26.924-60 60-60 60 26.924 60 60-26.924 60-60 60zM572.00056 634.4c0 33.076-26.924 60-60 60s-60-26.924-60-60v-300c0-33.076 26.924-60 60-60s60 26.924 60 60v300z" fill="#495A79" p-id="3364"></path><path d="M572.00056 814.4c0-33.076-26.924-60-60-60v120c33.076 0 60-26.924 60-60zM572.00056 634.4v-300c0-33.076-26.924-60-60-60v420c33.076 0 60-26.924 60-60z" fill="#42516D" p-id="3365"></path></svg>