<?xml version="1.0" encoding="utf-8"?>
<!-- Generator: Adobe Illustrator 16.0.0, SVG Export Plug-In . SVG Version: 6.00 Build 0)  -->
<!DOCTYPE svg PUBLIC "-//W3C//DTD SVG 1.1//EN" "http://www.w3.org/Graphics/SVG/1.1/DTD/svg11.dtd">
<svg version="1.1" id="图层_1" xmlns="http://www.w3.org/2000/svg" xmlns:xlink="http://www.w3.org/1999/xlink" x="0px" y="0px"
	 width="64px" height="64px" viewBox="0 0 64 64" enable-background="new 0 0 64 64" xml:space="preserve">
<rect x="9.167" y="5.75" fill="#BDCDE8" width="49.333" height="49.375"/>
<line fill="none" x1="10.125" y1="5.75" x2="59.5" y2="5.75"/>
<line fill="#B2B2B2" stroke="#B2B2B2" stroke-width="2.5" stroke-linecap="round" stroke-miterlimit="10" x1="58.5" y1="5.75" x2="58.5" y2="55.125"/>
<line fill="#B2B2B2" stroke="#B2B2B2" stroke-width="2.5" stroke-miterlimit="10" x1="58.5" y1="5.75" x2="9.167" y2="5.75"/>
<path fill="#727272" d="M10.125,53.875V5.75c0-0.688-0.563-1.25-1.25-1.25s-1.25,0.563-1.25,1.25v4.181H5.75
	c-0.688,0-1.25,0.563-1.25,1.25s0.563,1.25,1.25,1.25h1.875v7.025H5.75c-0.688,0-1.25,0.563-1.25,1.25s0.563,1.25,1.25,1.25h1.875
	v7.031H5.75c-0.688,0-1.25,0.563-1.25,1.25s0.563,1.25,1.25,1.25h1.875v7.025H5.75c-0.688,0-1.25,0.563-1.25,1.25
	c0,0.688,0.563,1.25,1.25,1.25h1.875v7.024H5.75c-0.688,0-1.25,0.563-1.25,1.25s0.563,1.25,1.25,1.25h1.875v4.588
	c0,0.688,0.563,1.25,1.25,1.25h4.181v1.875c0,0.688,0.563,1.25,1.25,1.25s1.25-0.563,1.25-1.25v-1.875h7.025v1.875
	c0,0.688,0.563,1.25,1.25,1.25s1.25-0.563,1.25-1.25v-1.875h7.031v1.875c0,0.688,0.563,1.25,1.25,1.25c0.688,0,1.25-0.563,1.25-1.25
	v-1.875H38.5c0-0.851,0-1.705,0-2.499H10.125z"/>
<path fill="#727272" d="M58.25,53.875H46.5c0,0.833,0,1.666,0,2.499h4.661v1.875c0,0.688,0.563,1.25,1.25,1.25s1.25-0.563,1.25-1.25
	v-1.875h4.588c0.688,0,1.25-0.563,1.25-1.25S58.938,53.875,58.25,53.875z"/>
<path fill="#669E8B" d="M44.814,59.499h-4.517v-9.041H31.25v-4.523h9.048v-9.04h4.517v9.04h9.048v4.523h-9.048V59.499z"/>
</svg>
