<?xml version="1.0" encoding="utf-8"?>
<!-- Generator: Adobe Illustrator 16.0.0, SVG Export Plug-In . SVG Version: 6.00 Build 0)  -->
<!DOCTYPE svg PUBLIC "-//W3C//DTD SVG 1.1//EN" "http://www.w3.org/Graphics/SVG/1.1/DTD/svg11.dtd">
<svg version="1.1"
	 id="svg142" xmlns:inkscape="http://www.inkscape.org/namespaces/inkscape" xmlns:sodipodi="http://sodipodi.sourceforge.net/DTD/sodipodi-0.dtd" xmlns:svg="http://www.w3.org/2000/svg" inkscape:version="1.2 (dc2aedaf03, 2022-05-15)" sodipodi:docname="鏂板缓绐楀彛.svg"
	 xmlns="http://www.w3.org/2000/svg" xmlns:xlink="http://www.w3.org/1999/xlink" x="0px" y="0px" width="200.391px" height="200px"
	 viewBox="0 0 200.391 200" enable-background="new 0 0 200.391 200" xml:space="preserve">
<sodipodi:namedview  id="namedview144" bordercolor="#000000" inkscape:cy="108.10056" pagecolor="#ffffff" inkscape:cx="95.391061" inkscape:zoom="3.58" showgrid="false" borderopacity="0.25" inkscape:window-maximized="1" inkscape:pagecheckerboard="0" inkscape:current-layer="svg142" inkscape:window-y="-8" inkscape:window-x="-8" inkscape:window-height="961" inkscape:window-width="1280" inkscape:deskcolor="#d1d1d1" inkscape:pageopacity="0.0" inkscape:showpageshadow="2">
	</sodipodi:namedview>
<path fill="#727272" d="M32.731,149.68c0,3.467,1.233,6.399,3.7,8.8c2.467,2.399,5.434,3.6,8.9,3.6h49.8v25h-62.4
	c-3.467,0-6.7-0.667-9.7-2s-5.633-3.134-7.9-5.399c-2.267-2.268-4.067-4.9-5.4-7.9c-1.333-3-2-6.233-2-9.7v-125
	c0-3.466,0.667-6.7,2-9.7c1.333-3,3.133-5.633,5.4-7.9s4.9-4.067,7.9-5.4c3-1.333,6.233-2,9.7-2H170.33c3.467,0,6.701,0.667,9.701,2
	c3,1.333,5.633,3.134,7.899,5.4s4.067,4.9,5.399,7.9c1.334,3,2,6.233,2,9.7v49.6l-25,0.6v-12.6c0-3.466-1.232-6.433-3.699-8.9
	s-5.434-3.7-8.9-3.7h-112.4c-3.466,0-6.433,1.233-8.9,3.7s-3.7,5.434-3.7,8.9V149.68z"/>
<path fill="#669E8B" d="M151.73,99.479c6,0,11.667,1.134,17,3.399c5.334,2.268,10,5.4,14,9.4s7.167,8.666,9.5,14
	c2.334,5.334,3.5,11.066,3.5,17.2s-1.166,11.866-3.5,17.2c-2.333,5.333-5.5,10-9.5,14s-8.666,7.133-14,9.399
	c-5.333,2.267-11,3.4-17,3.4c-6.133,0-11.866-1.134-17.199-3.4c-5.334-2.267-10-5.399-14-9.399s-7.167-8.667-9.5-14
	c-2.334-5.334-3.5-11.066-3.5-17.2s1.166-11.866,3.5-17.2c2.333-5.334,5.5-10,9.5-14s8.666-7.133,14-9.4
	C139.864,100.613,145.598,99.479,151.73,99.479z"/>
<polygon fill="#BDCDE8" points="182.73,149.68 182.73,137.079 157.73,137.079 157.73,112.079 145.33,112.079 145.33,137.079 
	120.33,137.079 120.33,149.68 145.33,149.68 145.33,174.68 157.73,174.68 157.73,149.68 "/>
</svg>
