<?xml version="1.0" standalone="no"?><!DOCTYPE svg PUBLIC "-//W3C//DTD SVG 1.1//EN" "http://www.w3.org/Graphics/SVG/1.1/DTD/svg11.dtd"><svg t="1657120767709" class="icon" viewBox="0 0 1367 1024" version="1.1" xmlns="http://www.w3.org/2000/svg" p-id="3903" xmlns:xlink="http://www.w3.org/1999/xlink" width="42.71875" height="32"><defs><style type="text/css">@font-face { font-family: feedback-iconfont; src: url("//at.alicdn.com/t/font_1031158_u69w8yhxdu.woff2?t=1630033759944") format("woff2"), url("//at.alicdn.com/t/font_1031158_u69w8yhxdu.woff?t=1630033759944") format("woff"), url("//at.alicdn.com/t/font_1031158_u69w8yhxdu.ttf?t=1630033759944") format("truetype"); }
</style></defs><path d="M1235.403267 512.03593a130.596433 130.596433 0 0 0-42.68749 7.796802l-193.295715-290.430872A149.113837 149.113837 0 1 0 724.647767 149.48464a151.777744 151.777744 0 0 0 37.229729 97.849864l-194.920048 357.873209a220.519548 220.519548 0 0 0-55.162374-8.511508 207.914718 207.914718 0 0 0-114.807909 34.046035L240.401393 443.683967a126.763005 126.763005 0 0 0-75.564005-182.380192 127.737605 127.737605 0 1 0 12.99467 239.816633l157.625345 188.422713A213.307506 213.307506 0 1 0 643.23616 643.282096l190.956674-350.856087a164.187654 164.187654 0 0 0 39.56877 6.172468 143.591102 143.591102 0 0 0 60.555162-12.99467l192.516034 288.026859a121.760057 121.760057 0 0 0-18.582377 64.973349 128.127445 128.127445 0 1 0 127.152844-126.568085zM129.621832 448.362048a68.157044 68.157044 0 1 1 68.157044-68.092071A68.157044 68.157044 0 0 1 129.621832 448.362048z m528.948039 365.670011a145.86517 145.86517 0 1 1-145.86517-145.86517 145.86517 145.86517 0 0 1 145.86517 145.86517z m215.12676-577.937944a87.389155 87.389155 0 1 1 87.389155-87.389155 87.389155 87.389155 0 0 1-87.389155 87.389155z m365.085251 474.305451a68.157044 68.157044 0 1 1 68.222017-68.416937 68.157044 68.157044 0 0 1-68.222017 68.157044z" p-id="3904" fill="#727272"></path></svg>