<?xml version="1.0" encoding="utf-8"?>
<!-- Generator: Adobe Illustrator 16.0.0, SVG Export Plug-In . SVG Version: 6.00 Build 0)  -->
<!DOCTYPE svg PUBLIC "-//W3C//DTD SVG 1.1//EN" "http://www.w3.org/Graphics/SVG/1.1/DTD/svg11.dtd">
<svg version="1.1" id="图层_1" xmlns="http://www.w3.org/2000/svg" xmlns:xlink="http://www.w3.org/1999/xlink" x="0px" y="0px"
	 width="32px" height="32px" viewBox="0 0 32 32" enable-background="new 0 0 32 32" xml:space="preserve">
<path fill="#5280C1" d="M17.415,21.175c0,2.007-0.765,3.716-2.292,5.127c-1.529,1.412-3.366,2.118-5.513,2.118
	c-1.26,0-2.765-0.385-4.515-1.154c-0.467-0.211-0.817-0.315-1.05-0.315c-0.28,0-0.455,0.338-0.525,1.015
	c-0.023,0.35-0.175,0.525-0.455,0.525c-0.233,0-0.35-0.141-0.35-0.42c0-0.188,0.012-0.327,0.035-0.42
	c0.187-1.424,0.28-2.742,0.28-3.955c0-0.233-0.023-0.887-0.07-1.961c-0.026-0.185-0.038-0.372-0.035-0.56
	c0-0.35,0.14-0.524,0.42-0.524c0.233,0,0.397,0.279,0.49,0.84c0.607,4.152,2.578,6.229,5.915,6.229c1.423,0,2.526-0.401,3.307-1.206
	c0.782-0.807,1.173-1.943,1.173-3.414c0-1.307-0.38-2.42-1.138-3.343c-0.758-0.921-2.059-1.837-3.902-2.747
	c-2.217-1.097-3.757-2.158-4.62-3.185c-0.863-1.027-1.295-2.298-1.295-3.815c0-1.937,0.624-3.535,1.873-4.795
	c1.248-1.26,2.829-1.89,4.742-1.89c0.793,0,1.89,0.268,3.29,0.805c0.49,0.187,0.852,0.28,1.085,0.28c0.257,0,0.426-0.047,0.508-0.14
	C14.854,4.177,14.93,3.932,15,3.535c0.047-0.233,0.175-0.35,0.385-0.35c0.233,0,0.35,0.14,0.35,0.42c0,0.187-0.012,0.327-0.035,0.42
	c-0.076,0.674-0.111,1.352-0.105,2.03c0,1.12,0.058,2.007,0.175,2.66l0.035,0.56c0.023,0.257-0.082,0.385-0.315,0.385
	c-0.257,0-0.432-0.268-0.525-0.805c-0.257-1.377-0.863-2.526-1.82-3.448c-0.957-0.921-2.03-1.382-3.22-1.382
	c-1.167,0-2.094,0.373-2.783,1.12C6.454,5.892,6.11,6.907,6.11,8.19c0,1.493,0.502,2.695,1.505,3.605
	c0.56,0.513,1.773,1.237,3.64,2.17c2.193,1.097,3.768,2.21,4.725,3.344C16.938,18.439,17.415,19.729,17.415,21.175z M18.234,22.249
	c0.211-0.034,0.384-0.093,0.515-0.179c0.128-0.081,0.234-0.193,0.308-0.326c0.074-0.133,0.133-0.301,0.174-0.501
	c0.043-0.201,0.088-0.494,0.135-0.88h0.9v1.568h2.051v0.641h-2.051v2.824c0,0.41,0.018,0.738,0.051,0.981
	c0.035,0.244,0.098,0.435,0.19,0.571c0.079,0.125,0.188,0.227,0.318,0.296c0.118,0.06,0.271,0.088,0.457,0.088
	c0.169,0,0.327-0.034,0.476-0.104c0.148-0.069,0.295-0.17,0.438-0.302l0.285,0.343c-0.299,0.293-0.584,0.504-0.853,0.636
	c-0.259,0.129-0.545,0.196-0.835,0.196c-0.546,0-0.952-0.162-1.219-0.485c-0.266-0.324-0.4-0.83-0.4-1.521v-3.522h-0.939V22.249
	L18.234,22.249z M27.299,21.1c0-0.406-0.003-0.689-0.01-0.85c-0.003-0.139-0.02-0.275-0.051-0.41
	c-0.02-0.094-0.058-0.184-0.113-0.263c-0.053-0.066-0.119-0.119-0.197-0.153c-0.145-0.055-0.295-0.093-0.447-0.113v-0.33
	l1.537-0.063h0.373v7.351c0,0.33,0.006,0.565,0.021,0.707c0.007,0.117,0.034,0.232,0.082,0.34c0.044,0.088,0.114,0.159,0.2,0.207
	c0.09,0.053,0.25,0.102,0.479,0.148V28l-1.498,0.063h-0.381l0.076-1.039l-0.096-0.026c-0.211,0.233-0.443,0.447-0.694,0.638
	c-0.194,0.141-0.405,0.255-0.629,0.34c-0.222,0.084-0.46,0.127-0.714,0.127c-0.694,0-1.229-0.264-1.606-0.789
	c-0.376-0.528-0.565-1.289-0.565-2.283c0-0.694,0.123-1.283,0.369-1.769c0.246-0.483,0.576-0.845,0.994-1.081
	c0.429-0.24,0.914-0.363,1.405-0.355c0.28,0,0.533,0.021,0.763,0.066c0.228,0.045,0.463,0.117,0.703,0.219V21.1z M27.299,24.236
	c0-0.33-0.014-0.596-0.044-0.795c-0.022-0.174-0.073-0.343-0.149-0.5c-0.068-0.134-0.164-0.251-0.282-0.344
	c-0.116-0.092-0.249-0.16-0.39-0.203c-0.167-0.045-0.34-0.066-0.512-0.063c-0.542,0-0.954,0.216-1.238,0.65
	c-0.283,0.434-0.425,1.057-0.425,1.869s0.116,1.431,0.349,1.854c0.233,0.423,0.586,0.635,1.061,0.635
	c0.186,0,0.34-0.016,0.463-0.048s0.244-0.082,0.362-0.151c0.118-0.07,0.239-0.166,0.362-0.289s0.213-0.235,0.27-0.336
	c0.057-0.103,0.1-0.219,0.13-0.351c0.03-0.13,0.044-0.3,0.044-0.507V24.236z"/>
</svg>
