<?xml version="1.0" standalone="no"?><!DOCTYPE svg PUBLIC "-//W3C//DTD SVG 1.1//EN" "http://www.w3.org/Graphics/SVG/1.1/DTD/svg11.dtd"><svg t="1741784589059" class="icon" viewBox="0 0 1024 1024" version="1.1" xmlns="http://www.w3.org/2000/svg" p-id="4304" width="32" height="32" xmlns:xlink="http://www.w3.org/1999/xlink"><path d="M557.28 677.6c0 64.224-24.448 118.912-73.344 164.064-48.928 45.184-107.712 67.776-176.416 67.776-40.32 0-88.48-12.32-144.48-36.96-14.944-6.72-26.144-10.08-33.6-10.08-8.96 0-14.56 10.816-16.8 32.48-0.736 11.2-5.6 16.8-14.56 16.8-7.456 0-11.2-4.48-11.2-13.44 0-5.984 0.384-10.464 1.12-13.44 5.984-45.536 8.96-87.744 8.96-126.56 0-7.456-0.736-28.384-2.24-62.72a113.792 113.792 0 0 1-1.12-17.92c0-11.2 4.48-16.8 13.44-16.8 7.456 0 12.704 8.96 15.68 26.88 19.424 132.896 82.496 199.36 189.28 199.36 45.536 0 80.832-12.864 105.824-38.624 25.024-25.792 37.536-62.176 37.536-109.216 0-41.824-12.16-77.44-36.416-106.976-24.256-29.472-65.888-58.784-124.864-87.904-70.944-35.104-120.224-69.056-147.84-101.92-27.616-32.864-41.44-73.536-41.44-122.08 0-61.984 19.968-113.12 59.936-153.44 39.936-40.32 90.528-60.48 151.744-60.48 25.376 0 60.48 8.576 105.28 25.76 15.68 5.984 27.264 8.96 34.72 8.96 8.224 0 13.632-1.504 16.256-4.48 2.592-2.976 5.024-10.816 7.264-23.52 1.504-7.456 5.6-11.2 12.32-11.2 7.456 0 11.2 4.48 11.2 13.44 0 5.984-0.384 10.464-1.12 13.44a534.4 534.4 0 0 0-3.36 64.96c0 35.84 1.856 64.224 5.6 85.12l1.12 17.92c0.736 8.224-2.624 12.32-10.08 12.32-8.224 0-13.824-8.576-16.8-25.76-8.224-44.064-27.616-80.832-58.24-110.336-30.624-29.472-64.96-44.224-103.04-44.224-37.344 0-67.008 11.936-89.056 35.84-22.016 23.904-33.024 56.384-33.024 97.44 0 47.776 16.064 86.24 48.16 115.36 17.92 16.416 56.736 39.584 116.48 69.44 70.176 35.104 120.576 70.72 151.2 106.976 30.624 36.192 45.92 77.44 45.92 123.744z m26.24 34.368c6.752-1.088 12.256-2.976 16.448-5.696a29.12 29.12 0 0 0 9.856-10.464c2.368-4.256 4.224-9.6 5.568-16.032 1.376-6.432 2.784-15.808 4.288-28.16h28.832v50.208h65.6v20.48h-65.6v90.4c0 13.12 0.544 23.616 1.6 31.392 1.12 7.808 3.136 13.888 6.112 18.272a27.2 27.2 0 0 0 10.176 9.472c3.776 1.888 8.64 2.816 14.624 2.816 5.408 0 10.496-1.088 15.232-3.328 4.736-2.24 9.408-5.44 14.016-9.664l9.12 10.976c-9.6 9.344-18.72 16.128-27.296 20.32a60.192 60.192 0 0 1-26.72 6.304c-17.472 0-30.464-5.184-39.008-15.552-8.512-10.368-12.8-26.56-12.8-48.64v-112.736h-30.08v-10.368z m290.048-36.768c0-12.992-0.096-22.08-0.32-27.2a66.976 66.976 0 0 0-1.6-13.12 22.72 22.72 0 0 0-3.648-8.416 16.416 16.416 0 0 0-6.304-4.896 66.176 66.176 0 0 0-14.336-3.648v-10.56l49.184-2.016h11.968v235.2c0 10.56 0.192 18.112 0.64 22.656a30.72 30.72 0 0 0 2.624 10.88 15.776 15.776 0 0 0 6.4 6.592c2.88 1.696 8 3.264 15.328 4.768V896l-47.936 2.016h-12.192l2.432-33.28-3.04-0.832a163.968 163.968 0 0 1-22.24 20.416 87.68 87.68 0 0 1-20.128 10.88c-7.104 2.688-14.72 4.064-22.848 4.064-22.208 0-39.328-8.448-51.392-25.28-12.032-16.896-18.08-41.216-18.08-73.056 0-22.208 3.936-41.056 11.808-56.576 7.84-15.488 18.432-27.04 31.776-34.624a89.408 89.408 0 0 1 44.992-11.36c8.96 0 17.056 0.704 24.384 2.112 7.296 1.44 14.816 3.776 22.528 7.04V675.2z m0 100.352c0-10.56-0.448-19.04-1.408-25.408a51.648 51.648 0 0 0-4.8-16.032 33.024 33.024 0 0 0-9.024-10.976 37.344 37.344 0 0 0-12.48-6.496 57.632 57.632 0 0 0-16.352-2.016c-17.344 0-30.528 6.912-39.616 20.8-9.056 13.888-13.6 33.824-13.6 59.84 0 25.984 3.712 45.76 11.168 59.296 7.456 13.536 18.752 20.32 33.92 20.32 5.952 0 10.88-0.512 14.816-1.536s7.808-2.624 11.584-4.864c3.808-2.24 7.68-5.312 11.584-9.248 3.936-3.936 6.816-7.52 8.64-10.752 1.824-3.264 3.2-6.976 4.16-11.2 0.96-4.16 1.408-9.6 1.408-16.224v-45.504z" fill="#1296db" p-id="4305"></path></svg>