<?xml version="1.0" standalone="no"?><!DOCTYPE svg PUBLIC "-//W3C//DTD SVG 1.1//EN" "http://www.w3.org/Graphics/SVG/1.1/DTD/svg11.dtd"><svg t="1742195322733" class="icon" viewBox="0 0 1024 1024" version="1.1" xmlns="http://www.w3.org/2000/svg" p-id="4614" xmlns:xlink="http://www.w3.org/1999/xlink" width="128" height="128"><path d="M12.629981 13.277672h999.711575v999.711575H12.629981z" fill="#F2F2F2" p-id="4615"></path><path d="M1012.989247 0H0v1024h1024V0zM22.345351 1001.654649V22.345351h979.309298v979.309298z" fill="#B3B3B3" p-id="4616"></path><path d="M95.858318 97.801392h193.659709V291.461101H95.858318zM341.657179 97.801392h585.189121V291.461101H341.657179zM95.858318 341.981025h193.659709v585.836812H95.858318z" fill="#B3B3B3" p-id="4617"></path><path d="M925.550917 589.399114v-100.716002L826.454143 388.614801l-32.384567-32.384567-32.384567 32.384567-99.420619 99.744465v101.039848l99.420619-99.420619v129.538267a147.025933 147.025933 0 0 1-131.805186 142.168247H485.768501l97.1537-100.716002h-99.42062l-99.744465 99.42062-32.384567 32.384567 32.384567 32.384566L485.768501 926.198608h97.1537l-97.1537-99.420619h145.73055a196.57432 196.57432 0 0 0 195.926629-191.39279v-145.406704z" fill="#4A7DB1" p-id="4618"></path></svg>