<?xml version="1.0" encoding="utf-8"?>
<!-- Generator: Adobe Illustrator 16.0.0, SVG Export Plug-In . SVG Version: 6.00 Build 0)  -->
<!DOCTYPE svg PUBLIC "-//W3C//DTD SVG 1.1//EN" "http://www.w3.org/Graphics/SVG/1.1/DTD/svg11.dtd">
<svg version="1.1" id="图层_1" xmlns="http://www.w3.org/2000/svg" xmlns:xlink="http://www.w3.org/1999/xlink" x="0px" y="0px"
	 width="612px" height="792px" viewBox="0 0 612 792" enable-background="new 0 0 612 792" xml:space="preserve">
<title>plugin</title>
<path fill="#497CAD" d="M612,518.4V640.8c0,33.8-27.4,61.2-61.2,61.2l0,0H428.4v-61.2c0-33.8-27.4-61.2-61.2-61.2l0,0l0,0
	c-33.8,0-61.2,27.4-61.2,61.2l0,0V702H183.6c-33.8,0-61.2-27.4-61.2-61.2l0,0l0,0V518.4H61.2C27.4,518.4,0,491,0,457.2l0,0
	C0,423.4,27.4,396,61.2,396l0,0h61.2V273.6c0.105-33.756,27.444-61.095,61.2-61.2H306v-61.2c0-33.8,27.4-61.2,61.2-61.2l0,0l0,0
	c33.8,0,61.2,27.4,61.2,61.2l0,0l0,0v61.2H550.8c33.8,0,61.2,27.4,61.2,61.2V396h-61.2c-33.8,0-61.2,27.4-61.2,61.2l0,0l0,0
	c0,33.8,27.4,61.2,61.2,61.2l0,0H612L612,518.4z"/>
</svg>
