<?xml version="1.0" encoding="utf-8"?>
<!-- Generator: Adobe Illustrator 16.0.0, SVG Export Plug-In . SVG Version: 6.00 Build 0)  -->
<!DOCTYPE svg PUBLIC "-//W3C//DTD SVG 1.1//EN" "http://www.w3.org/Graphics/SVG/1.1/DTD/svg11.dtd">
<svg version="1.1" id="图层_1" xmlns="http://www.w3.org/2000/svg" xmlns:xlink="http://www.w3.org/1999/xlink" x="0px" y="0px"
	 width="246.094px" height="200px" viewBox="0 0 246.094 200" enable-background="new 0 0 246.094 200" xml:space="preserve">
<path fill="#727272" d="M220.677,119.707H67.308c-7.698,0-13.938-6.24-13.938-13.938l0,0V84.846H25.477
	c-7.692,0-13.93-6.231-13.938-13.923v-48.8c0-7.708,6.246-13.954,13.938-13.954h153.369c7.693,0,13.939,6.246,13.939,13.938v20.923
	h27.892c7.692,0,13.938,6.246,13.938,13.938v48.8C234.615,113.461,228.369,119.707,220.677,119.707z"/>
<path fill="#BDCDE8" d="M67.308,98.785c-0.008,3.849,3.105,6.976,6.954,6.985c0.005,0,0.01,0,0.015,0h62.739v-48.8H74.277
	c-3.849,0-6.969,3.12-6.969,6.969l0,0V98.8V98.785z"/>
<path fill="#BDCDE8" d="M95.2,22.107H32.446c-3.849,0-6.969,3.121-6.969,6.97c0,0.005,0,0.01,0,0.015v34.846
	c0,3.849,3.12,6.969,6.969,6.969l0,0h20.923V56.969c0-7.692,6.231-13.938,13.938-13.938H95.2V22.107L95.2,22.107z"/>
<path fill="#BDCDE8" d="M178.846,29.092c0.009-3.849-3.104-6.976-6.953-6.984c-0.006,0-0.011,0-0.016,0h-62.738v20.923h69.707
	V29.077V29.092z"/>
<path fill="#BDCDE8" d="M220.677,63.938c0-3.849-3.12-6.969-6.97-6.969l0,0h-62.754v48.8h62.754c3.85,0,6.97-3.121,6.97-6.97l0,0
	V63.938z"/>
<polygon fill="#CE6043" points="108.292,143.861 123.077,158.646 137.861,143.861 147.723,153.723 132.938,168.508 147.723,183.293 
	137.877,193.154 123.077,178.369 108.292,193.154 98.431,183.308 113.215,168.508 98.431,153.723 108.277,143.861 "/>
</svg>
