<?xml version="1.0" standalone="no"?><!DOCTYPE svg PUBLIC "-//W3C//DTD SVG 1.1//EN" "http://www.w3.org/Graphics/SVG/1.1/DTD/svg11.dtd"><svg t="1650004238182" class="icon" viewBox="0 0 1024 1024" version="1.1" xmlns="http://www.w3.org/2000/svg" p-id="9631" xmlns:xlink="http://www.w3.org/1999/xlink" width="200" height="200"><defs><style type="text/css"></style></defs><path d="M576 1024H256V768h320v256z m-256-64h192V832H320v128z" fill="#727272" p-id="9632"></path><path d="M320 1024H0V768h320v256zM64 960h192V832H64v128z" fill="#727272" p-id="9633"></path><path d="M320 832H0V576h128v64H64v128h192V642.2h64z" fill="#727272" p-id="9634"></path><path d="M576 832H256V640h64v128h192V640h64z" fill="#727272" p-id="9635"></path><path d="M225 352h256v192H225z" fill="#BFD1EB" p-id="9636"></path><path d="M513 576H193V320h320v256z m-256-64h192V384H257v128zM320 256H0V0h320v256zM64 192h192V64H64v128z" fill="#727272" p-id="9637"></path><path d="M576 256H256V0h320v256z m-256-64h192V64H320v128z" fill="#727272" p-id="9638"></path><path d="M859 512l165-196.5-193.7 162.3L665 281l-69 68.9L789.4 512 596 674.1l69 68.9 165.3-196.8L1024 708.5z" fill="#CE6043" p-id="9639"></path></svg>