<?xml version="1.0" encoding="utf-8"?>
<!-- Generator: Adobe Illustrator 16.0.0, SVG Export Plug-In . SVG Version: 6.00 Build 0)  -->
<!DOCTYPE svg PUBLIC "-//W3C//DTD SVG 1.1//EN" "http://www.w3.org/Graphics/SVG/1.1/DTD/svg11.dtd">
<svg version="1.1" id="图层_1" xmlns="http://www.w3.org/2000/svg" xmlns:xlink="http://www.w3.org/1999/xlink" x="0px" y="0px"
	 width="200px" height="200px" viewBox="0 0 200 200" enable-background="new 0 0 200 200" xml:space="preserve">
<path fill="#BDCDE8" d="M139.805,58.711L82.109,20.293L24.434,58.711l-5.625,3.75l57.695,38.418l5.625,3.75l5.625-3.75
	l57.695-38.418L139.805,58.711L139.805,58.711z M82.109,97.148L30.059,62.461l52.051-34.668l52.07,34.668L82.109,97.148z"/>
<path fill="#BDCDE8" d="M134.18,62.461l-52.07,34.688L30.059,62.461l52.051-34.668L134.18,62.461z"/>
<path fill="#727272" d="M145.371,54.668L82.07,12.5L18.75,54.668l-6.25,4.16v69.941l63.32,42.168l6.25,4.16l6.25-4.16l24.219-16.133
	v-15L88.32,155.938v-48.242l50.82-33.867v38.711h12.48V58.828L145.371,54.668L145.371,54.668z M75.82,155.957L24.98,122.09V73.828
	l50.82,33.848v48.281H75.82z M82.07,96.855L30,62.168L82.051,27.5l52.051,34.668L82.07,96.855z"/>
<path fill="#CE6043" d="M138.589,182.766l-8.825-8.825l17.664-17.664l-17.678-17.678l8.839-8.839l17.678,17.678l17.664-17.664
	l8.825,8.825l-17.664,17.664l17.678,17.678l-8.839,8.839l-17.678-17.678L138.589,182.766z"/>
</svg>
