<?xml version="1.0" standalone="no"?><!DOCTYPE svg PUBLIC "-//W3C//DTD SVG 1.1//EN" "http://www.w3.org/Graphics/SVG/1.1/DTD/svg11.dtd"><svg t="1772162176231" class="icon" viewBox="0 0 1024 1024" version="1.1" xmlns="http://www.w3.org/2000/svg" p-id="6272" xmlns:xlink="http://www.w3.org/1999/xlink" width="200" height="200"><path d="M824.888889 170.666667H199.111111a56.888889 56.888889 0 0 0-56.888889 56.888889v568.888888a56.888889 56.888889 0 0 0 56.888889 56.888889h625.777778a56.888889 56.888889 0 0 0 56.888889-56.888889V227.555556a56.888889 56.888889 0 0 0-56.888889-56.888889z m0 597.333333a28.444444 28.444444 0 0 1-28.444445 28.444444H227.555556a28.444444 28.444444 0 0 1-28.444445-28.444444V256a28.444444 28.444444 0 0 1 28.444445-28.444444h568.888888a28.444444 28.444444 0 0 1 28.444445 28.444444z" p-id="6273"></path><path d="M512 256m28.444444 0l227.555556 0q28.444444 0 28.444444 28.444444l0 455.111112q0 28.444444-28.444444 28.444444l-227.555556 0q-28.444444 0-28.444444-28.444444l0-455.111112q0-28.444444 28.444444-28.444444Z" p-id="6274"></path></svg>