<?xml version="1.0" encoding="utf-8"?>
<!-- Generator: Adobe Illustrator 16.0.0, SVG Export Plug-In . SVG Version: 6.00 Build 0)  -->
<!DOCTYPE svg PUBLIC "-//W3C//DTD SVG 1.1//EN" "http://www.w3.org/Graphics/SVG/1.1/DTD/svg11.dtd">
<svg version="1.1" id="图层_1" xmlns="http://www.w3.org/2000/svg" xmlns:xlink="http://www.w3.org/1999/xlink" x="0px" y="0px"
	 width="200px" height="200px" viewBox="0 0 200 200" enable-background="new 0 0 200 200" xml:space="preserve">
<path fill="#727272" d="M187.621,165.788H54.515c-2.869-10.903-12.726-18.503-24-18.506c-13.694,0-24.812,11.06-24.812,24.671
	s11.118,24.682,24.8,24.682c11.53,0,21.259-7.882,24.012-18.506h133.106c3.411,0.211,6.348-2.383,6.559-5.795
	c0.21-3.41-2.385-6.347-5.796-6.558c-0.254-0.016-0.509-0.016-0.763,0V165.788z"/>
<path fill="#497CAD" d="M30.503,184.294c-6.835,0-12.4-5.529-12.4-12.341c0-6.801,5.565-12.342,12.4-12.342
	c6.847,0,12.4,5.529,12.4,12.342C42.904,178.753,37.351,184.294,30.503,184.294z"/>
<path fill="#727272" d="M187.738,96.353h-19.117c-3.477-13.261-17.047-21.193-30.309-17.715c-8.67,2.273-15.441,9.045-17.715,17.715
	H12.715c-3.417-0.013-6.199,2.747-6.212,6.165l0,0c0,3.412,2.777,6.165,6.2,6.165h107.882c3.465,13.265,17.027,21.208,30.291,17.743
	c8.689-2.27,15.475-9.055,17.744-17.743h19.117c3.405,0.21,6.336-2.38,6.547-5.784c0.21-3.404-2.379-6.335-5.784-6.545
	C188.247,96.337,187.992,96.337,187.738,96.353z"/>
<path fill="#E6C27C" d="M144.609,114.859c-6.835,0-12.4-5.529-12.4-12.354c0-6.8,5.565-12.33,12.4-12.33
	c6.836,0,12.4,5.53,12.4,12.341C157.01,109.317,151.445,114.859,144.609,114.859z"/>
<path fill="#727272" d="M30.503,57.753c11.53,0,21.259-7.882,24.012-18.506h133.106c3.408,0.149,6.291-2.493,6.44-5.901
	c0.148-3.408-2.493-6.291-5.901-6.44c-0.18-0.008-0.359-0.008-0.539,0H54.515C50.991,13.657,37.393,5.774,24.144,9.299
	C13.345,12.172,5.796,21.907,5.704,33.083C5.704,46.683,16.821,57.753,30.503,57.753z"/>
<path fill="#CE6043" d="M30.503,20.741c6.847,0,12.4,5.529,12.4,12.341c0,6.8-5.553,12.329-12.4,12.329
	c-6.835,0-12.4-5.529-12.4-12.329c0-6.824,5.565-12.353,12.4-12.353V20.741z"/>
</svg>
