<?xml version="1.0" encoding="utf-8"?>
<!-- Generator: Adobe Illustrator 21.0.0, SVG Export Plug-In . SVG Version: 6.00 Build 0)  -->
<svg version="1.1" xmlns="http://www.w3.org/2000/svg" xmlns:xlink="http://www.w3.org/1999/xlink" x="0px" y="0px"
	 viewBox="0 0 32 32" style="enable-background:new 0 0 32 32;" xml:space="preserve">
<style type="text/css">
	.st0{fill:#727272;}
	.st1{fill:#497CAD;}
	.st2{fill:#BFD1EB;}
</style>
<path class="st0" d="M17,24c0.6,0,1,0.4,1,1s-0.4,1-1,1h-6c-0.6,0-1,0.4-1,1v2l0,0.2c0.1,0.5,0.5,0.8,1,0.8h6c0.6,0,1,0.4,1,1
	s-0.4,1-1,1h-7c-1.1,0-2-0.9-2-2v-4c0-1.1,0.9-2,2-2H17z"/>
<path class="st0" d="M30.2,22.8c1,0,1.8,0.8,1.8,1.8v5.6c0,1-0.8,1.8-1.8,1.8h-5.6c-1,0-1.8-0.8-1.8-1.8v-5.6c0-1,0.8-1.8,1.8-1.8
	H30.2z"/>
<path class="st0" d="M6,15c0.6,0,1,0.4,1,1c0,0.6-0.4,1-1,1H2v10h2v-1.4c0-0.6,0.3-0.8,0.7-0.5l3.1,2.4C7.9,27.7,8,27.8,8,28v0
	l0,0.1c0,0.1-0.1,0.2-0.1,0.2l-0.1,0.1l-3.1,2.4C4.3,31.1,4,31,4,30.7V29H2c-1.1,0-2-0.9-2-2l0-0.1V17c0-1.1,0.9-2,2-2H6z"/>
<path class="st1" d="M29.3,24.6h-3.7c-0.4,0-0.8,0.3-0.9,0.7l0,0.2v3.7c0,0.4,0.3,0.8,0.7,0.9l0.2,0h3.7c0.4,0,0.8-0.3,0.9-0.7
	l0-0.2v-3.7C30.2,25,29.8,24.6,29.3,24.6L29.3,24.6z"/>
<path class="st0" d="M28.8,20c0.5,0,0.9,0.5,0.9,1c0,0.5-0.4,0.9-0.9,0.9h-6c-0.5,0-0.9,0.4-0.9,0.9V29c0,0.5-0.4,0.9-0.9,0.9
	c-0.5,0-0.9-0.4-0.9-0.9v-7.2c0-1,0.8-1.8,1.8-1.8C21.8,20,28.8,20,28.8,20z"/>
<path class="st0" d="M14.2,12.4c1-0.5,2.6-0.5,3.6,0l5.4,2.7c1,0.5,1,1.3,0,1.8l-5.4,2.7c-1,0.5-2.6,0.5-3.6,0l-5.4-2.7
	c-1-0.5-1-1.3,0-1.8L14.2,12.4z"/>
<path class="st2" d="M16.7,13.7c-0.5-0.2-1.2-0.1-1.6,0.1l-3.6,1.8l-0.1,0.1c-0.3,0.3-0.3,0.6,0.1,0.8l3.6,1.8l0.2,0.1
	c0.5,0.2,1.2,0.1,1.6-0.1l3.6-1.8l0.1-0.1c0.3-0.3,0.3-0.6-0.1-0.8l-3.6-1.8L16.7,13.7z"/>
<path class="st0" d="M27.3,1.2C27.7,0.9,28,1,28,1.3V3h2c1.1,0,1.9,0.8,2,1.9V15c0,1.1-0.9,2-2,2h-4.1c-0.6,0-1-0.4-1-1
	c0-0.6,0.4-1,1-1H30V5h-2v1.4c0,0.6-0.3,0.8-0.7,0.4l-3.1-2.4c-0.1-0.1-0.2-0.2-0.2-0.3L24,4l0-0.1c0.1-0.1,0.1-0.2,0.2-0.3
	L27.3,1.2z"/>
<path class="st0" d="M22,0c1.1,0,2,0.9,2,2v4c0,1.1-0.9,2-2,2H10C8.9,8,8,7.1,8,6V2c0-1.1,0.9-2,2-2H22z"/>
<path class="st2" d="M21,2H11c-0.6,0-1,0.4-1,1v2l0,0.2C10.1,5.7,10.5,6,11,6h10l0.2,0C21.7,5.9,22,5.5,22,5V3l0-0.2
	C21.9,2.3,21.5,2,21,2z"/>
</svg>
