<?xml version="1.0" encoding="utf-8"?>
<!-- Generator: Adobe Illustrator 21.0.0, SVG Export Plug-In . SVG Version: 6.00 Build 0)  -->
<svg version="1.1" xmlns="http://www.w3.org/2000/svg" xmlns:xlink="http://www.w3.org/1999/xlink" x="0px" y="0px"
	 viewBox="0 0 32 32" style="enable-background:new 0 0 32 32;" xml:space="preserve">
<style type="text/css">
	.st0{fill:#727272;}
	.st1{fill:#497CAD;}
	.st2{fill:#CE6043;}
</style>
<path class="st0" d="M29,28H2v-8.5l5.8-5.8C8.2,13.9,8.6,14,9,14s0.9-0.1,1.2-0.3l4,4C14.1,18.1,14,18.6,14,19c0,1.7,1.3,3,3,3
	s3-1.3,3-3c0-0.4-0.1-0.9-0.3-1.2l9.9-9.9c0.4-0.4,0.4-1.1,0-1.6c-0.4-0.4-1.1-0.4-1.6,0l-9.9,9.9C17.8,16.1,17.4,16,17,16
	s-0.8,0.1-1.1,0.2l-4.1-4.1C12,11.8,12,11.4,12,11c0-1.7-1.3-3-3-3s-3,1.3-3,3c0,0.4,0.1,0.8,0.2,1.1L2,16.4V5c0-0.6-0.4-1-1-1
	S0,4.4,0,5v13.7c0,0.1,0,0.3,0,0.4L0,29c0,0.6,0.4,1,1,1h28c0.6,0,1-0.4,1-1S29.6,28,29,28z"/>
<circle class="st1" cx="17" cy="19" r="1"/>
<circle class="st2" cx="9" cy="11" r="1"/>
</svg>
