<?xml version="1.0" encoding="utf-8"?>
<!-- Generator: Adobe Illustrator 21.0.0, SVG Export Plug-In . SVG Version: 6.00 Build 0)  -->
<svg version="1.1" xmlns="http://www.w3.org/2000/svg" xmlns:xlink="http://www.w3.org/1999/xlink" x="0px" y="0px"
	 viewBox="0 0 32 32" style="enable-background:new 0 0 32 32;" xml:space="preserve">
<style type="text/css">
	.st0{fill:#B3B3B3;}
	.st1{fill:#CE6043;}
	.st2{fill:#727272;}
</style>
<path class="st0" d="M8.3,14.1c-0.7,0-1.3-0.6-1.3-1.3c0-0.7,0.6-1.3,1.3-1.3h9c0.7,0,1.3,0.6,1.3,1.3c0,0.7-0.6,1.3-1.3,1.3H8.3z"
	/>
<path class="st1" d="M23.5,14.1c-0.7,0-1.3-0.6-1.3-1.3s0.6-1.3,1.3-1.3c0.7,0,1.3,0.6,1.3,1.3S24.2,14.1,23.5,14.1L23.5,14.1z"/>
<path class="st0" d="M23.7,20.5H8.3c-0.7,0-1.3-0.6-1.3-1.3c0-0.7,0.6-1.3,1.3-1.3h15.4c0.7,0,1.3,0.6,1.3,1.3
	C25,19.9,24.4,20.5,23.7,20.5z"/>
<path class="st2" d="M30.7,21.8c-0.7,0-1.3-0.6-1.3-1.3c0,0,0,0,0,0V9c0-2.1-1.7-3.8-3.8-3.8l0,0H6.4C4.3,5.1,2.6,6.8,2.6,9l0,0V23
	c0,2.1,1.7,3.8,3.8,3.8l0,0h23c0.7,0,1.3,0.6,1.3,1.3c0,0.7-0.6,1.3-1.3,1.3h-23C2.9,29.4,0,26.6,0,23V9c0-3.5,2.9-6.4,6.4-6.4h19.2
	C29.1,2.6,32,5.4,32,9v11.5C32,21.2,31.4,21.8,30.7,21.8C30.7,21.8,30.7,21.8,30.7,21.8z"/>
</svg>
