<?xml version="1.0" encoding="utf-8"?>
<!-- Generator: Adobe Illustrator 16.0.0, SVG Export Plug-In . SVG Version: 6.00 Build 0)  -->
<!DOCTYPE svg PUBLIC "-//W3C//DTD SVG 1.1//EN" "http://www.w3.org/Graphics/SVG/1.1/DTD/svg11.dtd">
<svg version="1.1" id="图层_1" xmlns="http://www.w3.org/2000/svg" xmlns:xlink="http://www.w3.org/1999/xlink" x="0px" y="0px"
	 width="204.883px" height="200px" viewBox="0 0 204.883 200" enable-background="new 0 0 204.883 200" xml:space="preserve">
<path fill="#727272" d="M193.55,118.085c4.133-1.155,6.924-5.008,6.735-9.295c0.123-4.214-2.49-8.026-6.465-9.43
	c-2.422-5.819-7.05-10.442-12.87-12.86V50.665h9.63c5.338,0.447,10.028-3.519,10.475-8.857c0.174-2.064-0.319-4.129-1.404-5.893
	c-1.918-3.115-5.426-4.886-9.07-4.58h-9.63V12c-0.438-5.339-5.122-9.313-10.461-8.874c-4.731,0.388-8.485,4.143-8.874,8.874v19.33
	H116.15c-2.486-5.634-7.045-10.096-12.73-12.46v-6.735c-0.455-5.337-5.15-9.296-10.488-8.841c-4.707,0.401-8.441,4.134-8.842,8.841
	v6.735c-5.6,2.398-10.062,6.86-12.46,12.46H55.4V12c-0.455-5.338-5.15-9.296-10.488-8.842C40.205,3.559,36.471,7.293,36.07,12v19.33
	H16.735c-5.029,0.019-9.21,3.878-9.63,8.89v1.55c0.42,5.012,4.601,8.871,9.63,8.89H36.07v48.3H16.735
	c-5.004,0.016-9.176,3.836-9.63,8.82v1.885c0.417,5.014,4.599,8.876,9.63,8.896H36.07v38.254H16.735
	c-5.054,0.022-9.244,3.921-9.63,8.961v1.615c0.452,4.985,4.624,8.809,9.63,8.824H36.07v9.631
	c-0.455,5.337,3.504,10.033,8.842,10.487c5.338,0.455,10.034-3.504,10.488-8.841c0.047-0.549,0.047-1.1,0-1.646v-9.631h28.965v9.631
	c-0.447,5.338,3.519,10.027,8.857,10.475c2.064,0.172,4.129-0.32,5.893-1.405c3.114-1.918,4.885-5.425,4.58-9.069v-9.631h7.609
	c5.338-0.455,9.297-5.15,8.842-10.488c-0.4-4.707-4.135-8.44-8.842-8.842h-7.88v-38.6L193.55,118.085z"/>
<rect x="55.4" y="118.29" fill="#BDCDE8" width="28.965" height="38.524"/>
<path fill="#BDCDE8" d="M84.365,98.89H55.4V50.66h16.5c2.381,5.615,6.851,10.084,12.465,12.465V98.89z"/>
<path fill="#BDCDE8" d="M99.52,47.59c-3.412,2.986-8.508,2.986-11.92,0l-0.745-0.75c-1.503-1.604-2.309-3.738-2.24-5.935
	c0.17-2.19,1.06-4.265,2.53-5.9l0.75-0.745c1.6-1.5,3.74-2.31,5.935-2.24c2.13,0.035,4.18,0.83,5.775,2.24l0.5,0.5
	c1.445,1.65,2.23,3.78,2.2,5.98c0.075,2.19-0.715,4.325-2.2,5.935L99.52,47.59z"/>
<path fill="#BDCDE8" d="M161.62,86.765c-5.612,2.381-10.079,6.848-12.46,12.46h-45.735v-36.1c5.601-2.399,10.063-6.863,12.46-12.465
	h45.471L161.62,86.765z"/>
<polygon fill="#497CAD" points="170.055,125.025 139.12,142.805 139.12,178.505 170.055,196.355 201,178.5 201,142.8 
	170.061,125.02 "/>
<path fill="#BDCDE8" d="M170.154,174.545c-7.652,0.146-13.975-5.941-14.12-13.594c-0.146-7.654,5.941-13.976,13.595-14.121
	c0.176-0.004,0.351-0.004,0.525,0c7.654,0.146,13.74,6.467,13.596,14.121C183.607,168.399,177.604,174.403,170.154,174.545z"/>
</svg>
