<?xml version="1.0" encoding="utf-8"?>
<!-- Generator: Adobe Illustrator 21.0.0, SVG Export Plug-In . SVG Version: 6.00 Build 0)  -->
<svg version="1.1" id="图层_1" xmlns="http://www.w3.org/2000/svg" xmlns:xlink="http://www.w3.org/1999/xlink" x="0px" y="0px"
	 viewBox="0 0 200 200" style="enable-background:new 0 0 200 200;" xml:space="preserve">
<style type="text/css">
	.st0{fill:#727272;}
	.st1{fill:#497CAD;}
</style>
<path class="st0" d="M170.8,200H29.2C12.9,200,0,187.1,0,170.8V29.2C0,12.9,12.9,0,29.2,0h141.7C187.1,0,200,12.9,200,29.2v141.7
	C200,187.1,187.1,200,170.8,200L170.8,200z M29.2,16.7c-7.1,0-12.5,5.4-12.5,12.5v141.7c0,7.1,5.4,12.5,12.5,12.5h141.7
	c7.1,0,12.5-5.4,12.5-12.5V29.2c0-7.1-5.4-12.5-12.5-12.5C170.8,16.7,29.2,16.7,29.2,16.7z"/>
<path class="st1" d="M150.4,60.8h-8.3c-3.3-7.5-10.4-12.5-19.2-12.5s-15.8,5-19.2,12.5H49.6c-4.6,0-7.9,3.8-7.9,7.9v0.4
	c0,4.6,3.8,7.9,7.9,7.9h54.2c3.3,7.5,10.4,12.5,19.2,12.5s15.8-5,19.2-12.5h8.3c4.6,0,7.9-3.8,7.9-7.9v-0.4
	C158.3,64.6,154.6,60.8,150.4,60.8z M150.4,123.3H96.3c-3.3-7.5-10.4-12.5-19.2-12.5s-15.8,5-19.2,12.5h-8.3c-4.6,0-7.9,3.8-7.9,7.9
	v0.4c0,4.6,3.8,7.9,7.9,7.9h8.3c3.3,7.5,10.4,12.5,19.2,12.5s15.8-5,19.2-12.5h54.2c4.6,0,7.9-3.8,7.9-7.9v-0.4
	C158.3,127.1,154.6,123.3,150.4,123.3z"/>
</svg>
