<?xml version="1.0" encoding="utf-8"?>
<!-- Generator: Adobe Illustrator 21.0.0, SVG Export Plug-In . SVG Version: 6.00 Build 0)  -->
<svg version="1.1" xmlns="http://www.w3.org/2000/svg" xmlns:xlink="http://www.w3.org/1999/xlink" x="0px" y="0px"
	 viewBox="0 0 32 32" style="enable-background:new 0 0 32 32;" xml:space="preserve">
<style type="text/css">
	.st0{fill:#515151;}
	.st1{fill:#727272;}
	.st2{fill:#FFFFFF;}
	.st3{fill:#BFD1EB;}
	.st4{fill:#497CAD;}
</style>
<path class="st0" d="M28,0c2.2,0,4,1.8,4,4v24c0,2.2-1.8,4-4,4H4c-2.2,0-4-1.8-4-4V4c0-2.2,1.8-4,4-4H28z M10,22H2v6
	c0,1,0.8,1.9,1.8,2L4,30h6V22z M20,22h-8v8h8V22z M30,22h-8v8h6c1,0,1.9-0.8,2-1.8l0-0.2V22z M10,12H2v8h8V12z M20,12h-8v8h8V12z
	 M30,12h-8v8h8V12z M28,2H4C3,2,2.1,2.8,2,3.8L2,4v6h28V4C30,2.9,29.1,2,28,2z M6,5c0.6,0,1,0.4,1,1S6.6,7,6,7H4C3.4,7,3,6.6,3,6
	s0.4-1,1-1H6z M11.5,5c0.6,0,1,0.4,1,1s-0.4,1-1,1h-2c-0.6,0-1-0.4-1-1s0.4-1,1-1H11.5z M17,5c0.6,0,1,0.4,1,1s-0.4,1-1,1h-2
	c-0.6,0-1-0.4-1-1s0.4-1,1-1H17z"/>
<path class="st1" d="M28,0c2.2,0,4,1.8,4,4v24c0,2.2-1.8,4-4,4H4c-2.2,0-4-1.8-4-4V4c0-2.2,1.8-4,4-4H28z"/>
<path class="st2" d="M10,22H2v6c0,1,0.8,1.9,1.8,2L4,30h6V22z"/>
<rect x="12" y="22" class="st2" width="8" height="8"/>
<path class="st2" d="M30,22h-8v8h6c1,0,1.9-0.8,2-1.8l0-0.2V22z"/>
<rect x="2" y="12" class="st2" width="8" height="8"/>
<rect x="12" y="12" class="st2" width="8" height="8"/>
<rect x="22" y="12" class="st2" width="8" height="8"/>
<path class="st3" d="M28,2H4C3,2,2.1,2.8,2,3.8L2,4v6h28V4C30,2.9,29.1,2,28,2z"/>
<path class="st4" d="M6,5c0.6,0,1,0.4,1,1S6.6,7,6,7H4C3.4,7,3,6.6,3,6s0.4-1,1-1H6z"/>
<path class="st4" d="M11.5,5c0.6,0,1,0.4,1,1s-0.4,1-1,1h-2c-0.6,0-1-0.4-1-1s0.4-1,1-1H11.5z"/>
<path class="st4" d="M17,5c0.6,0,1,0.4,1,1s-0.4,1-1,1h-2c-0.6,0-1-0.4-1-1s0.4-1,1-1H17z"/>
</svg>
