<?xml version="1.0" encoding="utf-8"?>
<!-- Generator: Adobe Illustrator 16.0.0, SVG Export Plug-In . SVG Version: 6.00 Build 0)  -->
<!DOCTYPE svg PUBLIC "-//W3C//DTD SVG 1.1//EN" "http://www.w3.org/Graphics/SVG/1.1/DTD/svg11.dtd">
<svg version="1.1" id="图层_1" xmlns="http://www.w3.org/2000/svg" xmlns:xlink="http://www.w3.org/1999/xlink" x="0px" y="0px"
	 width="200px" height="200px" viewBox="0 0 200 200" enable-background="new 0 0 200 200" xml:space="preserve">
<path fill="#5280C1" d="M164.376,59.421c-25.696-3.1-29.296,0-34.396-5c-5.059-5.683-6.453-13.744-3.6-20.797
	c0.837-2.819,1.176-5.763,1-8.699C126.68,10.491,114.422-0.649,99.985,0.029C44.765,0.029,0,44.794,0,100.015
	C0,155.234,44.765,200,99.985,200c55.22,0,99.985-44.766,99.985-99.985l0,0C200.406,79.308,184.962,61.694,164.376,59.421z
	 M99.985,185.002c-46.938,0-84.988-38.05-84.988-84.987c0-46.937,38.05-84.987,84.988-84.987c3.754-0.062,7.368,1.42,9.999,4.1
	c2.018,3.25,2.699,7.156,1.898,10.898c-4.398,12.203-1.492,25.845,7.5,35.195c6.087,5.683,14.299,8.518,22.596,7.799
	c6.855,0.128,13.697,0.629,20.498,1.5c13.086,1.162,22.973,12.366,22.496,25.496C184.918,146.93,146.9,184.947,99.985,185.002z"/>
<path fill="#CE6043" d="M49.993,145.008c0,8.283,6.715,14.998,14.998,14.998c8.283,0,14.998-6.715,14.998-14.998
	S73.273,130.01,64.99,130.01C56.708,130.01,49.993,136.725,49.993,145.008z"/>
<path fill="#E6C27C" d="M29.996,105.014c0,8.283,6.715,14.998,14.998,14.998c8.283,0,14.998-6.715,14.998-14.998
	c0-8.283-6.715-14.998-14.998-14.998C36.71,90.016,29.996,96.731,29.996,105.014z"/>
<path fill="#669E8B" d="M49.993,60.021c0,11.044,8.953,19.997,19.997,19.997s19.997-8.953,19.997-19.997S81.034,40.023,69.99,40.023
	S49.993,48.977,49.993,60.021z"/>
</svg>
