<?xml version="1.0" standalone="no"?><!DOCTYPE svg PUBLIC "-//W3C//DTD SVG 1.1//EN" "http://www.w3.org/Graphics/SVG/1.1/DTD/svg11.dtd"><svg t="1700844671702" class="icon" viewBox="0 0 1024 1024" version="1.1" xmlns="http://www.w3.org/2000/svg" p-id="2362" xmlns:xlink="http://www.w3.org/1999/xlink" width="200" height="200"><path d="M841.603863 304.234165c-131.564594-15.869659-149.993876 0-176.102025-25.596224a102.384898 102.384898 0 0 1-18.429281-106.480294 129.516896 129.516896 0 0 0 5.119245-44.537431A134.124217 134.124217 0 0 0 511.924491 0.151018a511.924491 511.924491 0 1 0 511.924491 511.924491 204.769796 204.769796 0 0 0-182.245119-207.841344zM511.924491 947.211326a435.135817 435.135817 0 0 1 0-870.271635 70.133655 70.133655 0 0 1 51.192449 20.988905A75.764825 75.764825 0 0 1 572.843506 153.728365a174.566251 174.566251 0 0 0 38.394336 180.197421 150.5058 150.5058 0 0 0 115.694935 39.93011 968.561137 968.561137 0 0 1 104.944521 7.678868A126.445349 126.445349 0 0 1 947.060309 512.075509a435.647742 435.647742 0 0 1-435.135818 435.135817z" fill="#4B8EE6" p-id="2363"></path><path d="M332.750919 742.44153m-76.788673 0a76.788674 76.788674 0 1 0 153.577347 0 76.788674 76.788674 0 1 0-153.577347 0Z" fill="#2EA7E0" p-id="2364"></path><path d="M230.366021 537.671733m-76.788674 0a76.788674 76.788674 0 1 0 153.577348 0 76.788674 76.788674 0 1 0-153.577348 0Z" fill="#2EA7E0" p-id="2365"></path><path d="M358.347144 307.305712m-102.384898 0a102.384898 102.384898 0 1 0 204.769796 0 102.384898 102.384898 0 1 0-204.769796 0Z" fill="#2EA7E0" p-id="2366"></path></svg>