<?xml version="1.0" encoding="utf-8"?>
<!-- Generator: Adobe Illustrator 21.0.0, SVG Export Plug-In . SVG Version: 6.00 Build 0)  -->
<svg version="1.1" xmlns="http://www.w3.org/2000/svg" xmlns:xlink="http://www.w3.org/1999/xlink" x="0px" y="0px"
	 viewBox="0 0 200 200" style="enable-background:new 0 0 200 200;" xml:space="preserve">
<style type="text/css">
	.st0{fill:#497CAD;}
</style>
<path class="st0" d="M106.1,45.5L153.9,25c1-0.4,1.4-1.3,0.7-2.1c-0.1-0.2-0.4-0.4-0.7-0.5L105.8,1.9c-0.7-0.3-1.4-0.3-2.1,0
	L56.1,22.4c-1,0.4-1.4,1.3-0.7,2.1c0.1,0.2,0.4,0.4,0.7,0.5l48.1,20.5C104.7,45.7,105.5,45.7,106.1,45.5L106.1,45.5z"/>
<path class="st0" d="M109.4,53.2l0.1,40.7c0,1.1,1.6,1.9,3,1.3l48.1-20.5c0.7-0.3,1-0.8,1-1.3l-0.1-40.7c0-0.5-0.4-1-1-1.3
	c-0.7-0.3-1.4-0.3-2.1,0l-48.1,20.5C109.7,52.1,109.4,52.6,109.4,53.2L109.4,53.2z"/>
<path class="st0" d="M50.1,83.4l48.1,20.5c0.7,0.2,1,0.7,1,1.3L99,145.9c0,0.5-0.4,1-1,1.3c-0.7,0.3-1.4,0.3-2.1,0l-48.1-20.5
	c-0.7-0.3-1-0.8-1-1.3L47,84.7C47,83.5,48.7,82.8,50.1,83.4z"/>
<path class="st0" d="M50.2,31.4l48.1,20.5c0.7,0.2,1,0.7,1,1.3l-0.1,40.7c0,0.5-0.4,1-1,1.3c-0.7,0.3-1.4,0.3-2.1,0L48,74.7
	c-0.7-0.3-1-0.8-1-1.3l0.1-40.7C47.2,31.5,48.8,30.8,50.2,31.4z"/>
<path class="st0" d="M109.4,105.2l0.1,40.7c0,1.1,1.6,1.9,3,1.3l48.1-20.5c0.7-0.3,1-0.8,1-1.3l-0.1-40.7c0-0.5-0.4-1-1-1.3
	c-0.7-0.3-1.4-0.3-2.1,0l-48.1,20.5C109.7,104.1,109.4,104.6,109.4,105.2L109.4,105.2z"/>
<path class="st0" d="M50.1,134.3l48.1,20.5c0.7,0.2,1,0.7,1,1.3L99,196.8c0,0.5-0.4,1-1,1.3c-0.7,0.3-1.4,0.3-2.1,0l-48.1-20.5
	c-0.7-0.3-1-0.8-1-1.3l0.1-40.7C47,134.4,48.7,133.7,50.1,134.3z"/>
<path class="st0" d="M109.4,157.8l0.1,40.7c0,1.1,1.6,1.9,3,1.3l48.1-20.5c0.7-0.3,1-0.8,1-1.3l-0.1-40.7c0-0.5-0.4-1-1-1.3
	c-0.7-0.3-1.4-0.3-2.1,0l-48.1,20.5C109.7,156.7,109.4,157.2,109.4,157.8L109.4,157.8z"/>
</svg>
