<?xml version="1.0" encoding="utf-8"?>
<!-- Generator: Adobe Illustrator 16.0.0, SVG Export Plug-In . SVG Version: 6.00 Build 0)  -->
<!DOCTYPE svg PUBLIC "-//W3C//DTD SVG 1.1//EN" "http://www.w3.org/Graphics/SVG/1.1/DTD/svg11.dtd">
<svg version="1.1" id="图层_1" xmlns="http://www.w3.org/2000/svg" xmlns:xlink="http://www.w3.org/1999/xlink" x="0px" y="0px"
	 width="200px" height="200px" viewBox="0 0 200 200" enable-background="new 0 0 200 200" xml:space="preserve">
<path fill="#727272" d="M172.656,122.832h-15.078v-13.75c0-6.25-5.078-11.328-11.328-11.328h-40.098V75.801h15.078
	c5.645,0,10.234-4.609,10.234-10.234V31.523c0-5.645-4.609-10.234-10.234-10.234H80.449c-5.645,0-10.234,4.609-10.234,10.234v34.023
	c0,5.645,4.609,10.234,10.234,10.234h15.078v21.934H55.488c-6.25,0-11.328,5.078-11.328,11.328v15.313H29.063
	c-5.645,0-10.234,4.609-10.234,10.234v34.043c0,5.645,4.609,10.234,10.234,10.234h40.781c5.645,0,10.234-4.609,10.234-10.234
	v-34.023c0-5.645-4.609-10.234-10.234-10.234H54.766v-15.313c0-0.391,0.332-0.703,0.703-0.703h90.762
	c0.391,0,0.703,0.332,0.703,0.703v13.75h-15.098c-5.645,0-10.234,4.609-10.234,10.234v34.043c0,5.645,4.609,10.234,10.234,10.234
	h40.82c5.645,0,10.234-4.609,10.234-10.234v-34.043C182.891,127.402,178.301,122.832,172.656,122.832z M80.859,31.895h39.98v33.262
	h-39.98V31.895z M69.453,168.242h-39.98V135h39.98V168.242z M172.266,166.68h-40.02v-33.223h39.98L172.266,166.68z"/>
</svg>
