<?xml version="1.0" encoding="utf-8"?>
<!-- Generator: Adobe Illustrator 16.0.0, SVG Export Plug-In . SVG Version: 6.00 Build 0)  -->
<!DOCTYPE svg PUBLIC "-//W3C//DTD SVG 1.1//EN" "http://www.w3.org/Graphics/SVG/1.1/DTD/svg11.dtd">
<svg version="1.1" id="图层_1" xmlns="http://www.w3.org/2000/svg" xmlns:xlink="http://www.w3.org/1999/xlink" x="0px" y="0px"
	 width="64px" height="64px" viewBox="0 0 64 64" enable-background="new 0 0 64 64" xml:space="preserve">
<path fill="#727272" d="M32,0C14.277,0,0,14.277,0,32c0,17.723,14.277,32,32,32c17.723,0,32-14.277,32-32C64,14.277,49.723,0,32,0z"
	/>
<path fill="#BDCDE8" d="M32,3.692c6.4,0,12.308,2.215,17.23,5.908L9.6,49.23C5.908,44.554,3.692,38.4,3.692,32
	C3.692,16.492,16.492,3.692,32,3.692z"/>
<path fill="#BDCDE8" d="M32,60.308c-6.4,0-12.308-2.216-17.231-5.907L54.4,14.769C58.092,19.446,60.308,25.6,60.308,32
	C60.308,47.508,47.508,60.308,32,60.308z"/>
</svg>
