<?xml version="1.0" standalone="no"?><!DOCTYPE svg PUBLIC "-//W3C//DTD SVG 1.1//EN" "http://www.w3.org/Graphics/SVG/1.1/DTD/svg11.dtd"><svg t="1670423109933" class="icon" viewBox="0 0 1024 1024" version="1.1" xmlns="http://www.w3.org/2000/svg" p-id="4632" xmlns:xlink="http://www.w3.org/1999/xlink" width="64" height="64"><path d="M283 875V149h213.1c63.7 0 114.6 15.2 152.7 45.7 38.1 30.5 57.1 70.9 57.1 121.2 0 40-11.3 75.3-34 105.9-22.6 30.6-53.8 52.3-93.4 65.1v1.9c49.3 5.6 88.7 24.3 118.2 56S741 616.7 741 665.5c0 62.5-22.4 113-67.2 151.6C629 855.7 571.6 875 501.7 875H283z m93.7-644v227.3h85.2c45.3 0 80.8-11 106.5-33 25.8-22 38.6-52.6 38.6-91.6 0-68.4-45.6-102.6-136.7-102.6h-93.6z m0 308.9V793h112.4c49 0 86.9-11.3 113.6-34 26.7-22.7 40-54.1 40-94.4 0-83.1-56.4-124.7-169.1-124.7h-96.9z" fill="#727272" p-id="4633"></path></svg>