<?xml version="1.0" encoding="utf-8"?>
<!-- Generator: Adobe Illustrator 21.0.0, SVG Export Plug-In . SVG Version: 6.00 Build 0)  -->
<svg version="1.1" id="图层_1" xmlns="http://www.w3.org/2000/svg" xmlns:xlink="http://www.w3.org/1999/xlink" x="0px" y="0px"
	 viewBox="0 0 200 200" style="enable-background:new 0 0 200 200;" xml:space="preserve">
<style type="text/css">
	.st0{fill:#497CAD;}
	.st1{fill:#BDCDE8;}
</style>
<path class="st0" d="M55.6,70.4l34.8-20.5c0.7-0.4,1-1.3,0.5-2.1c-0.1-0.2-0.3-0.4-0.5-0.5l-35-20.5c-0.5-0.3-1-0.3-1.5,0L19.2,47.3
	c-0.7,0.4-1,1.3-0.5,2.1c0.1,0.2,0.3,0.4,0.5,0.5l35,20.5C54.6,70.6,55.2,70.6,55.6,70.4L55.6,70.4z"/>
<path class="st0" d="M146.3,70.4l34.8-20.5c0.7-0.4,1-1.3,0.5-2.1c-0.1-0.2-0.3-0.4-0.5-0.5l-35-20.5c-0.5-0.3-1-0.3-1.5,0
	l-34.7,20.5c-0.7,0.4-1,1.3-0.5,2.1c0.1,0.2,0.3,0.4,0.5,0.5l35,20.5C145.3,70.6,145.9,70.6,146.3,70.4L146.3,70.4z"/>
<path class="st0" d="M141.8,78.1l-0.1,40.7c0,0.5-0.3,1-0.7,1.3c-0.5,0.3-1,0.3-1.5,0l-35-20.5c-0.5-0.3-0.7-0.8-0.7-1.3l0.1-40.7
	c0-1.2,1.2-1.9,2.2-1.3l35,20.5C141.6,77,141.9,77.5,141.8,78.1L141.8,78.1z"/>
<path class="st0" d="M58,78.1l0.1,40.7c0,1.1,1.2,1.9,2.2,1.3l35-20.5c0.5-0.3,0.7-0.8,0.7-1.3l-0.1-40.7c0-0.5-0.3-1-0.7-1.3
	c-0.5-0.3-1-0.3-1.5,0l-35,20.5C58.2,77,58,77.5,58,78.1L58,78.1z"/>
<path class="st1" d="M140.5,135.7l0.5,0.2c0.5,0.3,0.7,0.8,0.7,1.3l0.1,40.7c0,0.5-0.3,1-0.7,1.3l-35,20.5c-0.7,0.4-1.6,0.2-2-0.5
	c-0.1-0.2-0.2-0.5-0.2-0.8l-0.1-40.7c0-0.5,0.3-1,0.7-1.3l35-20.5c0.5-0.3,1-0.3,1.5,0L140.5,135.7z"/>
<path class="st1" d="M60.3,135.9l35,20.5c0.5,0.3,0.7,0.8,0.7,1.3l-0.1,40.7c0,0.5-0.3,1-0.7,1.3c-0.5,0.3-1,0.3-1.5,0l-35-20.5
	c-0.5-0.3-0.7-0.8-0.7-1.3l0.1-40.7C58,136,59.3,135.3,60.3,135.9L60.3,135.9z"/>
<path class="st0" d="M186,109.1l0.5,0.2c0.5,0.3,0.7,0.8,0.7,1.3l0.1,40.7c0,0.5-0.3,1-0.7,1.3l-35,20.5c-0.7,0.4-1.6,0.2-2-0.5
	c-0.1-0.2-0.2-0.5-0.2-0.8l-0.1-40.7c0-0.5,0.3-1,0.7-1.3l35-20.5c0.5-0.3,1-0.3,1.5,0L186,109.1z"/>
<path class="st0" d="M14.8,109.3l35,20.5c0.5,0.2,0.7,0.7,0.7,1.3l-0.1,40.7c0,0.5-0.3,1-0.7,1.3c-0.5,0.3-1,0.3-1.5,0l-35-20.5
	c-0.5-0.3-0.7-0.8-0.7-1.3l0.1-40.7C12.6,109.4,13.8,108.7,14.8,109.3z"/>
<path class="st1" d="M100.1,105.7l0.5,0.2l35,20.5c0.7,0.4,0.9,1.3,0.5,2.1c-0.1,0.2-0.3,0.4-0.5,0.5l-34.7,20.5
	c-0.5,0.3-1,0.3-1.5,0l-35-20.5c-0.7-0.4-1-1.3-0.5-2.1c0.1-0.2,0.3-0.4,0.5-0.5l34.7-20.5c0.5-0.3,1-0.3,1.5,0L100.1,105.7z"/>
<path class="st0" d="M185.9,56.1l0.5,0.2c0.5,0.3,0.7,0.8,0.7,1.3l0.1,40.7c0,0.5-0.3,1-0.7,1.3l-35,20.5c-0.7,0.4-1.6,0.2-2-0.5
	c-0.1-0.2-0.2-0.5-0.2-0.7l-0.1-40.7c0-0.5,0.3-1,0.7-1.3l35-20.5c0.5-0.3,1-0.3,1.5,0L185.9,56.1z"/>
<path class="st0" d="M14.9,56.3l35,20.5c0.5,0.2,0.7,0.7,0.7,1.3l-0.1,40.7c0,0.5-0.3,1-0.7,1.3c-0.5,0.3-1,0.3-1.5,0l-35-20.5
	c-0.5-0.3-0.7-0.8-0.7-1.3l0.1-40.7C12.7,56.4,13.9,55.7,14.9,56.3z"/>
<path class="st0" d="M100.1,0l0.5,0.2l35,20.5c0.7,0.4,1,1.3,0.5,2.1c-0.1,0.2-0.3,0.4-0.5,0.5l-34.7,20.5c-0.5,0.3-1,0.3-1.5,0
	l-35-20.5c-0.7-0.4-1-1.3-0.5-2.1c0.1-0.2,0.3-0.4,0.5-0.5L99.1,0.2c0.5-0.3,1-0.3,1.5,0L100.1,0z"/>
</svg>
