<?xml version="1.0" encoding="utf-8"?>
<!-- Generator: Adobe Illustrator 16.0.0, SVG Export Plug-In . SVG Version: 6.00 Build 0)  -->
<!DOCTYPE svg PUBLIC "-//W3C//DTD SVG 1.1//EN" "http://www.w3.org/Graphics/SVG/1.1/DTD/svg11.dtd">
<svg version="1.1" id="图层_1" xmlns="http://www.w3.org/2000/svg" xmlns:xlink="http://www.w3.org/1999/xlink" x="0px" y="0px"
	 width="200px" height="200px" viewBox="0 0 200 200" enable-background="new 0 0 200 200" xml:space="preserve">
<path fill="#5280C1" d="M192.499,0C196.643,0,200,3.357,200,7.5v185.002c0,4.141-3.357,7.498-7.501,7.498H7.5
	c-4.142,0-7.5-3.357-7.5-7.498V7.5C0,3.357,3.357,0,7.5,0H192.499z"/>
<rect x="11" y="9" fill="#FFFFFF" width="178" height="180"/>
<path fill="#5280C1" d="M100.725,177.423c-42.141,0-76.423-34.278-76.423-76.424c0-42.135,34.287-76.422,76.423-76.422
	c42.146,0,76.433,34.288,76.433,76.422C177.157,143.145,142.877,177.423,100.725,177.423z M100.725,36.291
	c-35.67,0-64.7,29.031-64.7,64.708s29.03,64.709,64.704,64.709c35.68,0,64.711-29.032,64.711-64.709S136.405,36.291,100.725,36.291z
	"/>
<path fill="#CE6043" d="M101.029,105.76c0,2.924-2.579,5.283-5.763,5.283c-3.181,0-5.767-2.359-5.767-5.283V59.148
	c0-2.919,2.588-5.289,5.767-5.289c3.184,0,5.763,2.373,5.763,5.289V105.76z"/>
<path fill="#669E8B" d="M129.823,136.354c2.397,1.68,5.818,0.92,7.645-1.69c1.82-2.604,1.373-6.086-1.027-7.762L98.26,100.164
	c-2.391-1.681-5.817-0.915-7.641,1.69c-1.826,2.609-1.367,6.083,1.022,7.759L129.823,136.354z"/>
</svg>
