<?xml version="1.0" encoding="utf-8"?>
<!-- Generator: Adobe Illustrator 16.0.0, SVG Export Plug-In . SVG Version: 6.00 Build 0)  -->
<!DOCTYPE svg PUBLIC "-//W3C//DTD SVG 1.1//EN" "http://www.w3.org/Graphics/SVG/1.1/DTD/svg11.dtd">
<svg version="1.1" id="图层_1" xmlns="http://www.w3.org/2000/svg" xmlns:xlink="http://www.w3.org/1999/xlink" x="0px" y="0px"
	 width="200px" height="200px" viewBox="0 0 200 200" enable-background="new 0 0 200 200" xml:space="preserve">
<path fill="#5280C1" d="M192.499,0C196.642,0,200,3.357,200,7.5v185.002c0,4.141-3.358,7.498-7.501,7.498H7.5
	c-4.142,0-7.5-3.357-7.5-7.498V7.5C0,3.357,3.357,0,7.5,0H192.499z"/>
<rect x="11" y="9" fill="#BDCDE8" width="178" height="180"/>
<g>
	<path fill="#727272" d="M61.319,27.504v14.293h-1.402c-0.832-3.297-1.752-5.667-2.765-7.108s-2.402-2.59-4.167-3.447
		c-0.987-0.467-2.713-0.701-5.18-0.701h-3.934V71.28c0,2.701,0.149,4.388,0.448,5.063c0.298,0.676,0.882,1.266,1.752,1.772
		c0.87,0.506,2.058,0.76,3.563,0.76h1.753v1.441H23.736v-1.441h1.752c1.532,0,2.765-0.273,3.7-0.818
		c0.675-0.363,1.207-0.987,1.597-1.87c0.285-0.623,0.428-2.259,0.428-4.907V30.542h-3.817c-3.557,0-6.141,0.753-7.75,2.259
		c-2.259,2.103-3.687,5.102-4.284,8.997h-1.48V27.504H61.319z"/>
	<path fill="#727272" d="M79.664,43.9v28.86c0,2.57,0.298,4.213,0.896,4.927c0.597,0.714,1.765,1.124,3.505,1.227v1.402H64.396
		v-1.402c1.61-0.052,2.804-0.52,3.583-1.402c0.519-0.597,0.779-2.181,0.779-4.751V51.495c0-2.57-0.299-4.212-0.896-4.927
		c-0.598-0.714-1.752-1.123-3.466-1.227V43.9H79.664z M74.211,26.257c1.688,0,3.116,0.591,4.284,1.772
		c1.168,1.182,1.753,2.603,1.753,4.265s-0.591,3.077-1.772,4.245c-1.182,1.168-2.604,1.752-4.265,1.752s-3.077-0.584-4.245-1.752
		s-1.752-2.583-1.752-4.245s0.584-3.083,1.752-4.265C71.134,26.849,72.549,26.257,74.211,26.257z"/>
	<path fill="#727272" d="M102.72,43.9v4.791c1.999-2.181,3.85-3.706,5.551-4.576c1.7-0.87,3.563-1.305,5.589-1.305
		c2.337,0,4.297,0.545,5.881,1.636c1.583,1.09,2.804,2.752,3.661,4.985c2.076-2.337,4.069-4.024,5.978-5.063
		c1.909-1.038,3.901-1.558,5.979-1.558c2.519,0,4.524,0.578,6.018,1.733c1.493,1.156,2.531,2.623,3.116,4.401
		c0.584,1.778,0.876,4.615,0.876,8.51v14.917c0,2.804,0.253,4.544,0.76,5.219c0.506,0.675,1.563,1.117,3.174,1.324v1.402h-18.812
		v-1.402c1.48-0.13,2.57-0.701,3.271-1.714c0.468-0.701,0.701-2.311,0.701-4.83V56.714c0-3.245-0.13-5.31-0.39-6.192
		c-0.26-0.882-0.669-1.539-1.227-1.967c-0.559-0.428-1.214-0.643-1.967-0.643c-1.117,0-2.246,0.409-3.389,1.227
		s-2.298,2.045-3.466,3.681v19.551c0,2.623,0.22,4.271,0.662,4.946c0.597,0.961,1.739,1.494,3.427,1.597v1.402h-18.85v-1.402
		c1.012-0.052,1.811-0.305,2.395-0.76c0.585-0.454,0.974-0.999,1.169-1.636c0.194-0.636,0.292-2.019,0.292-4.148V56.714
		c0-3.297-0.13-5.361-0.39-6.192c-0.26-0.831-0.695-1.48-1.305-1.947c-0.61-0.467-1.266-0.701-1.967-0.701
		c-1.039,0-1.986,0.272-2.843,0.818c-1.221,0.805-2.52,2.181-3.896,4.128v19.551c0,2.571,0.254,4.265,0.76,5.083
		c0.507,0.818,1.564,1.305,3.174,1.461v1.402H87.881v-1.402c1.532-0.156,2.622-0.649,3.271-1.48
		c0.441-0.571,0.662-2.259,0.662-5.063V51.807c0-2.752-0.253-4.465-0.759-5.141c-0.506-0.675-1.565-1.116-3.174-1.324V43.9H102.72z"
		/>
	<path fill="#727272" d="M184.898,60.804h-19.979c0.233,4.829,1.519,8.646,3.855,11.45c1.792,2.155,3.946,3.232,6.465,3.232
		c1.559,0,2.974-0.435,4.246-1.305c1.271-0.87,2.635-2.434,4.089-4.693l1.324,0.857c-1.974,4.025-4.154,6.874-6.543,8.549
		c-2.389,1.674-5.154,2.512-8.296,2.512c-5.4,0-9.49-2.077-12.269-6.231c-2.232-3.349-3.349-7.503-3.349-12.463
		c0-6.076,1.642-10.911,4.927-14.508c3.284-3.596,7.133-5.394,11.548-5.394c3.687,0,6.887,1.513,9.6,4.537
		C183.229,50.373,184.69,54.858,184.898,60.804z M175.317,58.194c0-4.18-0.228-7.049-0.682-8.607
		c-0.454-1.558-1.162-2.739-2.122-3.544c-0.546-0.467-1.272-0.701-2.182-0.701c-1.35,0-2.453,0.662-3.311,1.986
		c-1.532,2.312-2.298,5.479-2.298,9.503v1.363H175.317z"/>
</g>
<path fill="#80559F" d="M103.502,180.124c-24.635,0-44.675-20.038-44.675-44.675c0-24.631,20.043-44.674,44.675-44.674
	c24.636,0,44.679,20.043,44.679,44.674C148.181,160.086,128.143,180.124,103.502,180.124z M103.502,97.623
	c-20.852,0-37.822,16.971-37.822,37.826c0,20.856,16.97,37.826,37.824,37.826c20.858,0,37.828-16.97,37.828-37.826
	C141.332,114.594,124.359,97.623,103.502,97.623z"/>
<path fill="#CE6043" d="M103.68,138.233c0,1.709-1.508,3.087-3.369,3.087c-1.86,0-3.371-1.378-3.371-3.087v-27.248
	c0-1.707,1.513-3.092,3.371-3.092c1.861,0,3.369,1.386,3.369,3.092V138.233z"/>
<path fill="#669E8B" d="M120.512,156.116c1.401,0.981,3.401,0.538,4.468-0.988c1.065-1.523,0.803-3.557-0.6-4.537l-22.319-15.63
	c-1.398-0.982-3.401-0.535-4.467,0.988c-1.067,1.526-0.799,3.556,0.598,4.536L120.512,156.116z"/>
</svg>
