<?xml version="1.0" encoding="utf-8"?>
<!-- Generator: Adobe Illustrator 16.0.0, SVG Export Plug-In . SVG Version: 6.00 Build 0)  -->
<!DOCTYPE svg PUBLIC "-//W3C//DTD SVG 1.1//EN" "http://www.w3.org/Graphics/SVG/1.1/DTD/svg11.dtd">
<svg version="1.1" id="图层_1" xmlns="http://www.w3.org/2000/svg" xmlns:xlink="http://www.w3.org/1999/xlink" x="0px" y="0px"
	 width="200px" height="200px" viewBox="0 0 200 200" enable-background="new 0 0 200 200" xml:space="preserve">
<path fill="#5280C1" d="M192.499,0C196.643,0,200,3.357,200,7.5v185.002c0,4.141-3.357,7.498-7.501,7.498H7.5
	c-4.142,0-7.5-3.357-7.5-7.498V7.5C0,3.357,3.357,0,7.5,0H192.499z"/>
<rect x="11" y="9" fill="#FFFFFF" width="178" height="180"/>
<path fill="#5280C1" d="M100.342,35.923v59.485h3.46c5.321,0,9.669-0.962,13.04-2.884c3.371-1.922,6.223-5.161,8.561-9.718
	c2.334-4.555,3.857-10.714,4.568-18.477h3.104v72.728h-3.104c-1.125-13.74-4.185-22.8-9.182-27.179s-10.659-6.569-16.987-6.569
	h-3.46v44.32c0,7.405,0.34,12.031,1.021,13.881c0.678,1.854,2.008,3.472,3.989,4.86c1.982,1.388,4.658,2.084,8.029,2.084h3.991v3.95
	H54.479v-3.95h3.991c3.49,0,6.3-0.749,8.428-2.243c1.537-0.996,2.719-2.707,3.548-5.128c0.649-1.708,0.976-6.195,0.976-13.454V52.37
	c0-7.404-0.326-12.033-0.976-13.883c-0.65-1.852-1.967-3.472-3.947-4.859c-1.98-1.387-4.657-2.082-8.028-2.082h-3.991v-3.951
	h101.485v41.543h-3.638c-0.829-9.754-2.942-16.983-6.344-21.68c-3.4-4.699-8.325-8.009-14.771-9.932
	c-3.548-1.07-10.112-1.602-19.692-1.602h-11.178V35.923z"/>
</svg>
