<?xml version="1.0" encoding="utf-8"?>
<!-- Generator: Adobe Illustrator 16.0.0, SVG Export Plug-In . SVG Version: 6.00 Build 0)  -->
<!DOCTYPE svg PUBLIC "-//W3C//DTD SVG 1.1//EN" "http://www.w3.org/Graphics/SVG/1.1/DTD/svg11.dtd">
<svg version="1.1" id="图层_1" xmlns="http://www.w3.org/2000/svg" xmlns:xlink="http://www.w3.org/1999/xlink" x="0px" y="0px"
	 width="200px" height="200px" viewBox="0 0 200 200" enable-background="new 0 0 200 200" xml:space="preserve">
<path fill="#5280C1" d="M192.499,0C196.642,0,200,3.357,200,7.5v185.002c0,4.141-3.358,7.498-7.501,7.498H7.5
	c-4.142,0-7.5-3.357-7.5-7.498V7.5C0,3.357,3.357,0,7.5,0H192.499z"/>
<rect x="11" y="9" fill="#BDCDE8" width="178" height="180"/>
<g>
	<path fill="#727272" d="M32.927,30.542v21.694h1.519c2.336,0,4.245-0.351,5.725-1.052s2.732-1.882,3.758-3.544
		c1.025-1.661,1.694-3.907,2.006-6.738h1.363v26.523h-1.363c-0.494-5.011-1.837-8.315-4.031-9.912
		c-2.194-1.597-4.68-2.396-7.458-2.396h-1.519V71.28c0,2.701,0.149,4.388,0.448,5.063c0.298,0.676,0.882,1.266,1.752,1.772
		c0.87,0.506,2.045,0.76,3.525,0.76h1.752v1.441H12.792v-1.441h1.752c1.532,0,2.766-0.273,3.7-0.818
		c0.675-0.363,1.194-0.987,1.558-1.87c0.285-0.623,0.428-2.259,0.428-4.907V36.54c0-2.7-0.143-4.388-0.428-5.063
		c-0.286-0.675-0.864-1.266-1.733-1.772c-0.87-0.506-2.045-0.759-3.525-0.759h-1.752v-1.441h44.555v15.15H55.75
		c-0.364-3.557-1.292-6.193-2.785-7.906c-1.493-1.714-3.655-2.921-6.485-3.622c-1.558-0.39-4.44-0.584-8.646-0.584H32.927z"/>
	<path fill="#727272" d="M76.665,27.504V72.76c0,2.57,0.298,4.213,0.896,4.927c0.597,0.714,1.765,1.124,3.505,1.227v1.402H61.397
		v-1.402c1.609-0.052,2.804-0.52,3.583-1.402c0.519-0.597,0.779-2.181,0.779-4.751V35.06c0-2.544-0.299-4.173-0.896-4.888
		c-0.598-0.714-1.753-1.123-3.466-1.227v-1.441H76.665z"/>
	<path fill="#727272" d="M101.746,42.81c3.168,0,6.115,0.818,8.841,2.454c2.727,1.636,4.797,3.96,6.212,6.972
		c1.415,3.012,2.123,6.309,2.123,9.892c0,5.167-1.312,9.491-3.934,12.97c-3.168,4.206-7.543,6.309-13.125,6.309
		c-5.479,0-9.698-1.921-12.658-5.764c-2.96-3.842-4.44-8.295-4.44-13.358c0-5.219,1.513-9.769,4.538-13.651
		C92.327,44.751,96.475,42.81,101.746,42.81z M101.902,45.575c-1.324,0-2.46,0.5-3.408,1.5c-0.948,1-1.571,2.973-1.87,5.92
		c-0.298,2.947-0.448,7.043-0.448,12.288c0,2.779,0.182,5.375,0.545,7.79c0.285,1.844,0.896,3.246,1.831,4.206
		c0.935,0.961,1.999,1.441,3.193,1.441c1.169,0,2.143-0.325,2.921-0.974c1.013-0.883,1.688-2.116,2.025-3.7
		c0.52-2.466,0.779-7.452,0.779-14.956c0-4.414-0.247-7.445-0.74-9.094c-0.493-1.648-1.221-2.849-2.181-3.603
		C103.875,45.848,102.992,45.575,101.902,45.575z"/>
	<path fill="#727272" d="M144.55,74.941c-4.44,3.921-8.426,5.881-11.957,5.881c-2.077,0-3.804-0.682-5.18-2.045
		c-1.377-1.363-2.064-3.07-2.064-5.122c0-2.778,1.194-5.277,3.583-7.497s7.595-5.173,15.618-8.86v-3.661
		c0-2.752-0.149-4.485-0.448-5.199c-0.299-0.714-0.863-1.337-1.694-1.87c-0.831-0.532-1.766-0.798-2.804-0.798
		c-1.688,0-3.077,0.376-4.168,1.129c-0.675,0.467-1.012,1.013-1.012,1.636c0,0.545,0.363,1.221,1.09,2.025
		c0.986,1.117,1.48,2.194,1.48,3.232c0,1.272-0.475,2.356-1.422,3.252c-0.948,0.896-2.188,1.344-3.72,1.344
		c-1.636,0-3.005-0.493-4.108-1.48c-1.104-0.986-1.655-2.142-1.655-3.466c0-1.869,0.74-3.654,2.22-5.355
		c1.48-1.7,3.544-3.005,6.192-3.914c2.648-0.909,5.4-1.363,8.257-1.363c3.453,0,6.187,0.734,8.198,2.2
		c2.012,1.467,3.317,3.058,3.914,4.771c0.363,1.091,0.546,3.597,0.546,7.517v14.138c0,1.662,0.064,2.707,0.194,3.135
		c0.13,0.428,0.324,0.747,0.584,0.954c0.26,0.208,0.559,0.312,0.896,0.312c0.675,0,1.363-0.48,2.063-1.441l1.169,0.935
		c-1.299,1.922-2.643,3.317-4.031,4.187c-1.39,0.87-2.967,1.305-4.731,1.305c-2.078,0-3.7-0.487-4.869-1.46
		C145.523,78.388,144.809,76.915,144.55,74.941z M144.55,72.098v-12.19c-3.143,1.844-5.479,3.817-7.011,5.92
		c-1.013,1.402-1.519,2.817-1.519,4.245c0,1.195,0.428,2.246,1.285,3.155c0.648,0.701,1.558,1.052,2.727,1.052
		C141.33,74.279,142.836,73.553,144.55,72.098z"/>
	<path fill="#727272" d="M178.783,30.581V43.9h8.646v3.856h-8.646v22.472c0,2.103,0.098,3.46,0.292,4.07
		c0.194,0.61,0.539,1.104,1.032,1.48s0.947,0.564,1.363,0.564c1.688,0,3.284-1.285,4.79-3.855l1.169,0.856
		c-2.104,4.985-5.518,7.478-10.243,7.478c-2.312,0-4.265-0.643-5.861-1.928c-1.598-1.286-2.616-2.72-3.058-4.304
		c-0.26-0.882-0.39-3.271-0.39-7.167V47.756h-4.751v-1.363c3.271-2.311,6.056-4.738,8.354-7.283
		c2.298-2.544,4.304-5.387,6.018-8.529H178.783z"/>
</g>
<path fill="#80559F" d="M84.749,109.317l-0.002,0.137h0.002v61.02c0,4.787-5.484,8.677-12.293,8.755l-0.207,0.002v-0.137H41.78
	v-61.02c0-4.787,5.484-8.678,12.293-8.756l0.207-0.001H84.749z"/>
<path fill="#80559F" d="M106.233,159.939v10.397c0,4.787-5.485,8.679-12.293,8.755l-0.207,0.002v-10.398
	c0-4.787,5.484-8.678,12.293-8.755L106.233,159.939z"/>
<polygon fill="#BDCDE8" points="72.25,118.074 54.28,118.074 54.28,170.337 72.249,170.337 72.249,118.211 "/>
<path fill="#80559F" d="M158.22,109.182l-0.002,0.136h0.002v61.02c0,4.787-5.484,8.678-12.293,8.755l-0.207,0.002v-0.137h-30.469
	v-61.02c0-4.787,5.484-8.678,12.293-8.755l0.207-0.001H158.22z"/>
<polygon fill="#BDCDE8" points="145.722,117.938 127.751,117.938 127.751,170.2 145.72,170.2 145.72,118.074 "/>
</svg>
