<?xml version="1.0" encoding="utf-8"?>
<!-- Generator: Adobe Illustrator 16.0.0, SVG Export Plug-In . SVG Version: 6.00 Build 0)  -->
<!DOCTYPE svg PUBLIC "-//W3C//DTD SVG 1.1//EN" "http://www.w3.org/Graphics/SVG/1.1/DTD/svg11.dtd">
<svg version="1.1" id="图层_1" xmlns="http://www.w3.org/2000/svg" xmlns:xlink="http://www.w3.org/1999/xlink" x="0px" y="0px"
	 width="200px" height="200px" viewBox="0 0 200 200" enable-background="new 0 0 200 200" xml:space="preserve">
<path fill="#FFFFFF" fill-opacity="0" d="M0,0h200v200H0V0z"/>
<path fill="#5280C1" d="M192.499,0C196.643,0,200,3.357,200,7.5v185.002c0,4.141-3.357,7.498-7.501,7.498H7.5
	c-4.142,0-7.5-3.357-7.5-7.498V7.5C0,3.357,3.357,0,7.5,0H192.499z"/>
<rect x="11" y="9" fill="#FFFFFF" width="178" height="180"/>
<path fill="#5280C1" d="M128.371,169.016V173H71.628v-3.984h3.601c3.148,0,5.684-0.753,7.605-2.262
	c1.386-1.005,2.452-2.725,3.201-5.168c0.585-1.723,0.879-6.244,0.879-13.564V51.979c0-7.465-0.294-12.128-0.879-13.996
	c-0.588-1.866-1.775-3.5-3.562-4.899c-1.789-1.399-4.203-2.099-7.245-2.099h-3.601V27h56.743v3.985h-3.602
	c-3.149,0-5.684,0.752-7.602,2.26c-1.389,1.008-2.48,2.731-3.281,5.169c-0.588,1.724-0.881,6.245-0.881,13.564v96.042
	c0,7.466,0.307,12.131,0.921,13.995c0.612,1.867,1.813,3.501,3.601,4.9c1.787,1.399,4.201,2.099,7.242,2.099H128.371z"/>
</svg>
