<?xml version="1.0" encoding="utf-8"?>
<!-- Generator: Adobe Illustrator 16.0.0, SVG Export Plug-In . SVG Version: 6.00 Build 0)  -->
<!DOCTYPE svg PUBLIC "-//W3C//DTD SVG 1.1//EN" "http://www.w3.org/Graphics/SVG/1.1/DTD/svg11.dtd">
<svg version="1.1" id="图层_1" xmlns="http://www.w3.org/2000/svg" xmlns:xlink="http://www.w3.org/1999/xlink" x="0px" y="0px"
	 width="200px" height="200px" viewBox="0 0 200 200" enable-background="new 0 0 200 200" xml:space="preserve">
<path fill="#FFFFFF" fill-opacity="0" d="M0,0h200v200H0V0z"/>
<path fill="#5280C1" d="M192.499,0C196.642,0,200,3.357,200,7.5v185.002c0,4.141-3.358,7.498-7.501,7.498H7.5
	c-4.142,0-7.5-3.357-7.5-7.498V7.5C0,3.357,3.357,0,7.5,0H192.499z"/>
<rect x="11" y="9" fill="#BDCDE8" width="178" height="180"/>
<g>
	<path fill="#727272" d="M57.4,76.474v1.562H27.479v-1.562h1.899c1.66,0,2.997-0.295,4.01-0.886
		c0.731-0.394,1.293-1.068,1.688-2.026c0.309-0.675,0.464-2.448,0.464-5.317V30.6c0-2.926-0.155-4.754-0.464-5.486
		c-0.31-0.731-0.936-1.372-1.878-1.92c-0.943-0.549-2.216-0.823-3.82-0.823h-1.899v-1.562H57.4v1.562h-1.899
		c-1.661,0-2.997,0.295-4.009,0.886c-0.732,0.395-1.308,1.07-1.73,2.026c-0.31,0.676-0.464,2.448-0.464,5.317v37.645
		c0,2.927,0.161,4.755,0.485,5.486c0.323,0.732,0.956,1.372,1.899,1.921c0.942,0.548,2.215,0.822,3.819,0.822H57.4z"/>
	<path fill="#727272" d="M80.908,20.809l28.234,35.493V31.698c0-3.433-0.492-5.753-1.478-6.964c-1.35-1.631-3.616-2.419-6.795-2.363
		v-1.562h18.908v1.562c-2.42,0.31-4.045,0.711-4.873,1.203c-0.833,0.493-1.479,1.295-1.944,2.406
		c-0.463,1.112-0.696,3.018-0.696,5.719v47.647h-1.435l-38.7-47.647v36.379c0,3.292,0.752,5.514,2.258,6.668
		c1.505,1.155,3.229,1.729,5.17,1.729h1.351v1.562h-20.3v-1.562c3.151-0.027,5.346-0.675,6.584-1.94
		c1.237-1.266,1.856-3.419,1.856-6.457V27.688l-1.223-1.52c-1.21-1.519-2.279-2.518-3.208-2.996
		c-0.928-0.478-2.265-0.745-4.01-0.802v-1.562H80.908z"/>
	<path fill="#727272" d="M176.329,20.809v15.489h-1.52c-0.9-3.573-1.899-6.141-2.997-7.703c-1.098-1.561-2.602-2.806-4.516-3.734
		c-1.068-0.507-2.94-0.76-5.612-0.76h-4.263v44.144c0,2.927,0.162,4.755,0.485,5.486c0.323,0.732,0.956,1.372,1.899,1.921
		c0.942,0.548,2.229,0.822,3.86,0.822h1.899v1.562h-29.965v-1.562h1.901c1.659,0,2.994-0.295,4.009-0.886
		c0.729-0.394,1.307-1.068,1.729-2.026c0.31-0.675,0.465-2.448,0.465-5.317V24.101h-4.135c-3.856,0-6.655,0.816-8.399,2.448
		c-2.446,2.279-3.995,5.528-4.642,9.749h-1.604V20.809H176.329z"/>
</g>
<polygon fill="#BDCDE8" points="71.483,103.205 53.514,103.205 53.514,155.468 71.482,155.468 71.482,103.342 "/>
<path fill="#80559F" d="M124.184,103.205l-0.002,0.136h0.002v61.02c0,4.787-5.484,8.678-12.293,8.755l-0.207,0.002v-0.137H81.215
	v-61.02c0-4.787,5.484-8.678,12.293-8.755l0.207-0.001H124.184z"/>
<polygon fill="#BDCDE8" points="111.684,112.029 93.713,112.029 93.713,164.292 111.682,164.292 111.682,112.166 "/>
</svg>
