<?xml version="1.0" encoding="utf-8"?>
<!-- Generator: Adobe Illustrator 16.0.0, SVG Export Plug-In . SVG Version: 6.00 Build 0)  -->
<!DOCTYPE svg PUBLIC "-//W3C//DTD SVG 1.1//EN" "http://www.w3.org/Graphics/SVG/1.1/DTD/svg11.dtd">
<svg version="1.1" id="图层_1" xmlns="http://www.w3.org/2000/svg" xmlns:xlink="http://www.w3.org/1999/xlink" x="0px" y="0px"
	 width="200px" height="200px" viewBox="0 0 200 200" enable-background="new 0 0 200 200" xml:space="preserve">
<path fill="#5280C1" d="M192.499,0C196.642,0,200,3.357,200,7.5v185.002c0,4.141-3.358,7.498-7.501,7.498H7.5
	c-4.142,0-7.5-3.357-7.5-7.498V7.5C0,3.357,3.357,0,7.5,0H192.499z"/>
<rect x="11" y="9" fill="#BDCDE8" width="178" height="180"/>
<path fill="#727272" d="M65.868,17.081c8.476-0.314,15.36,2.157,20.657,7.414c5.297,5.258,7.944,11.835,7.944,19.735
	c0,6.747-1.976,12.685-5.923,17.812c-5.231,6.8-12.621,10.2-22.166,10.2c-9.573,0-16.976-3.244-22.205-9.732
	c-4.134-5.128-6.199-11.207-6.199-18.243c0-7.897,2.688-14.483,8.063-19.753C51.413,19.244,58.022,16.766,65.868,17.081z
	 M66.339,19.591c-4.864,0-8.565,2.484-11.103,7.454c-2.066,4.081-3.099,9.939-3.099,17.577c0,9.076,1.595,15.785,4.787,20.126
	c2.222,3.034,5.334,4.55,9.336,4.55c2.693,0,4.943-0.652,6.748-1.961c2.302-1.676,4.094-4.348,5.376-8.024
	c1.28-3.677,1.922-8.468,1.922-14.379c0-7.035-0.655-12.3-1.962-15.792c-1.309-3.492-2.977-5.956-5.003-7.395
	C71.314,20.311,68.982,19.591,66.339,19.591z"/>
<path fill="#727272" d="M114.242,17.826v20.206c3.084-3.191,6.459-4.787,10.123-4.787c2.51,0,4.88,0.739,7.102,2.216
	c2.221,1.477,3.961,3.578,5.217,6.296c1.256,2.72,1.883,5.86,1.883,9.416c0,4.001-0.798,7.637-2.393,10.906
	c-1.594,3.271-3.727,5.762-6.396,7.476c-2.667,1.713-5.713,2.57-9.138,2.57c-1.987,0-3.753-0.314-5.297-0.939
	c-1.544-0.627-3.061-1.648-4.55-3.063l-6.08,3.963h-1.334V25.437c0-2.118-0.092-3.426-0.273-3.923
	c-0.265-0.733-0.676-1.276-1.236-1.628c-0.563-0.353-1.511-0.555-2.845-0.607v-1.452H114.242z M114.242,41.521v16.321
	c0,3.322,0.078,5.44,0.234,6.356c0.263,1.542,0.889,2.792,1.885,3.746c0.992,0.955,2.26,1.43,3.805,1.43
	c1.331,0,2.479-0.377,3.431-1.137c0.955-0.757,1.752-2.261,2.394-4.512c0.639-2.25,0.96-6.303,0.96-12.163
	c0-5.623-0.705-9.481-2.118-11.573c-1.02-1.517-2.393-2.277-4.121-2.277C118.467,37.717,116.309,38.985,114.242,41.521z"/>
<path fill="#727272" d="M161.479,34.342v37.977c0,3.557-0.223,6.185-0.667,7.886c-0.657,2.459-1.956,4.431-3.905,5.924
	c-1.946,1.492-4.52,2.236-7.709,2.236c-3.217,0-5.589-0.653-7.119-1.962c-1.533-1.309-2.297-2.89-2.297-4.747
	c0-1.151,0.398-2.15,1.195-3.002c0.801-0.849,1.733-1.275,2.807-1.275c0.994,0,1.777,0.294,2.354,0.883
	c0.574,0.585,0.864,1.471,0.864,2.647c0,0.313-0.015,0.677-0.039,1.099c-0.054,0.547-0.079,0.926-0.079,1.136
	c0,0.917,0.211,1.595,0.629,2.039s0.955,0.667,1.606,0.667c0.603,0,1.12-0.26,1.551-0.782c0.431-0.521,0.648-1.27,0.648-2.236
	c0-0.522-0.079-1.58-0.237-3.178c-0.261-2.903-0.404-4.655-0.43-5.258l-0.119-9.296V42.424l0.04-2.041
	c0-1.647-0.28-2.777-0.843-3.394c-0.564-0.614-1.746-1.013-3.551-1.196v-1.451H161.479z M155.984,16.609
	c1.677,0,3.093,0.583,4.258,1.746c1.162,1.166,1.748,2.57,1.748,4.217c0,1.674-0.59,3.1-1.769,4.278
	c-1.177,1.176-2.587,1.765-4.237,1.765c-1.646,0-3.06-0.588-4.234-1.765c-1.177-1.177-1.766-2.603-1.766-4.278
	c0-1.647,0.58-3.052,1.744-4.217C152.891,17.192,154.312,16.609,155.984,16.609z"/>
<path fill="#80559F" d="M108.214,92.991l-39.121,22.642v45.158l39.121,22.517l39.121-22.517v-45.158L108.214,92.991z
	 M137.648,117.269l-29.435,17.233l-29.435-17.233l29.435-16.982L137.648,117.269z M75.383,122.552l29.687,17.359v34.215
	l-29.687-16.982V122.552z M111.358,174.251v-34.34l29.687-17.359v34.466L111.358,174.251z"/>
</svg>
