<?xml version="1.0" encoding="utf-8"?>
<!-- Generator: Adobe Illustrator 16.0.0, SVG Export Plug-In . SVG Version: 6.00 Build 0)  -->
<!DOCTYPE svg PUBLIC "-//W3C//DTD SVG 1.1//EN" "http://www.w3.org/Graphics/SVG/1.1/DTD/svg11.dtd">
<svg version="1.1" id="图层_1" xmlns="http://www.w3.org/2000/svg" xmlns:xlink="http://www.w3.org/1999/xlink" x="0px" y="0px"
	 width="200px" height="200px" viewBox="0 0 200 200" enable-background="new 0 0 200 200" xml:space="preserve">
<path fill="#5280C1" d="M192.499,0C196.643,0,200,3.357,200,7.5v185.002c0,4.141-3.357,7.498-7.501,7.498H7.5
	c-4.142,0-7.5-3.357-7.5-7.498V7.5C0,3.357,3.357,0,7.5,0H192.499z"/>
<rect x="11" y="9" fill="#FFFFFF" width="178" height="180"/>
<path fill="#5280C1" d="M100,23.829L34.879,61.519v75.171L100,174.172l65.121-37.482V61.519L100,23.829z M148.997,64.243
	L99.999,92.928L51,64.243l48.998-28.269L148.997,64.243z M45.349,73.036l49.418,28.896v56.954l-49.418-28.268V73.036z
	 M105.232,159.095v-57.162l49.418-28.896v57.372L105.232,159.095z"/>
</svg>
