<?xml version="1.0" encoding="utf-8"?>
<!-- Generator: Adobe Illustrator 16.0.0, SVG Export Plug-In . SVG Version: 6.00 Build 0)  -->
<!DOCTYPE svg PUBLIC "-//W3C//DTD SVG 1.1//EN" "http://www.w3.org/Graphics/SVG/1.1/DTD/svg11.dtd">
<svg version="1.1" id="图层_1" xmlns="http://www.w3.org/2000/svg" xmlns:xlink="http://www.w3.org/1999/xlink" x="0px" y="0px"
	 width="200px" height="200px" viewBox="0 0 200 200" enable-background="new 0 0 200 200" xml:space="preserve">
<path fill="#FFFFFF" fill-opacity="0" d="M523-106h200V94H523V-106z"/>
<path fill="#5280C1" d="M695.266-84.125c3.236,0,5.859,2.623,5.859,5.859V66.266c0,3.235-2.623,5.858-5.859,5.858H550.734
	c-3.236,0-5.859-2.623-5.859-5.858V-78.266c0-3.236,2.623-5.859,5.859-5.859H695.266z"/>
<rect x="557.375" y="-71.625" fill="#BDCDE8" width="131.25" height="131.25"/>
<path fill="#727272" d="M658.156-45.453c0,6.903-5.598,12.5-12.5,12.5H629.25v66.406h-12.5v-66.406h-28.906
	c0-6.903,5.598-12.5,12.5-12.5H658.156z"/>
<path fill="#5280C1" d="M192.499,0C196.642,0,200,3.357,200,7.5v185.002c0,4.141-3.358,7.498-7.501,7.498H7.5
	c-4.142,0-7.5-3.357-7.5-7.498V7.5C0,3.357,3.357,0,7.5,0H192.499z"/>
<rect x="11" y="9" fill="#BDCDE8" width="178" height="180"/>
<g>
	<path fill="#727272" d="M66.764,23.685l0.384,15.786h-1.432c-0.676-3.958-2.334-7.142-4.977-9.552s-5.5-3.615-8.574-3.615
		c-2.375,0-4.255,0.635-5.64,1.903c-1.385,1.27-2.078,2.73-2.078,4.383c0,1.047,0.245,1.979,0.733,2.794
		c0.675,1.094,1.758,2.177,3.248,3.248c1.094,0.769,3.62,2.13,7.579,4.086c5.541,2.724,9.278,5.297,11.21,7.718
		c1.909,2.422,2.864,5.192,2.864,8.312c0,3.958-1.542,7.364-4.627,10.215c-3.085,2.853-7.002,4.278-11.752,4.278
		c-1.49,0-2.898-0.152-4.226-0.454c-1.327-0.303-2.992-0.873-4.994-1.711c-1.118-0.465-2.038-0.698-2.759-0.698
		c-0.605,0-1.246,0.233-1.92,0.698c-0.676,0.466-1.223,1.176-1.642,2.13h-1.292V55.326h1.292c1.024,5.029,2.998,8.865,5.919,11.507
		c2.922,2.643,6.071,3.964,9.447,3.964c2.607,0,4.685-0.71,6.234-2.13c1.548-1.42,2.322-3.073,2.322-4.959
		c0-1.118-0.297-2.2-0.891-3.248s-1.496-2.043-2.707-2.986c-1.211-0.943-3.353-2.171-6.426-3.685
		c-4.308-2.119-7.404-3.923-9.29-5.413c-1.886-1.49-3.335-3.155-4.348-4.994c-1.013-1.839-1.519-3.865-1.519-6.077
		c0-3.771,1.385-6.984,4.156-9.639c2.771-2.654,6.263-3.981,10.478-3.981c1.537,0,3.026,0.187,4.47,0.559
		c1.094,0.28,2.427,0.798,3.999,1.554c1.572,0.757,2.672,1.135,3.3,1.135c0.605,0,1.083-0.186,1.432-0.559
		c0.349-0.372,0.675-1.269,0.978-2.689H66.764z"/>
	<path fill="#727272" d="M118.067,24.767v12.817h-1.258c-0.745-2.957-1.571-5.082-2.479-6.374c-0.908-1.292-2.153-2.322-3.736-3.09
		c-0.886-0.419-2.434-0.629-4.646-0.629h-3.527v36.53c0,2.422,0.134,3.935,0.401,4.541s0.792,1.135,1.572,1.589
		c0.779,0.454,1.845,0.681,3.195,0.681h1.571v1.292H84.365v-1.292h1.572c1.374,0,2.479-0.245,3.318-0.733
		c0.605-0.326,1.083-0.885,1.432-1.677c0.256-0.559,0.384-2.025,0.384-4.4v-36.53h-3.422c-3.19,0-5.507,0.676-6.95,2.025
		c-2.025,1.886-3.306,4.575-3.841,8.068H75.53V24.767H118.067z"/>
	<path fill="#727272" d="M139.65,50.541v13.271c0,2.562,0.157,4.173,0.471,4.837c0.314,0.664,0.867,1.193,1.659,1.589
		c0.791,0.396,2.271,0.594,4.436,0.594v1.292h-24.237v-1.292c2.188,0,3.673-0.204,4.453-0.611c0.779-0.407,1.327-0.937,1.641-1.589
		c0.314-0.652,0.472-2.258,0.472-4.82V33.079c0-2.561-0.157-4.173-0.472-4.837c-0.313-0.664-0.867-1.193-1.658-1.589
		c-0.792-0.396-2.271-0.593-4.436-0.593v-1.292h22.002c5.728,0,9.919,0.396,12.572,1.188c2.654,0.792,4.82,2.252,6.496,4.383
		c1.677,2.13,2.515,4.627,2.515,7.491c0,3.493-1.257,6.38-3.771,8.661c-1.606,1.444-3.854,2.527-6.74,3.248l11.385,16.03
		c1.49,2.072,2.55,3.365,3.178,3.876c0.955,0.722,2.061,1.118,3.318,1.188v1.292H158.02l-15.262-21.583H139.65z M139.65,27.316
		v20.745h1.99c3.236,0,5.657-0.297,7.265-0.891c1.606-0.594,2.869-1.665,3.789-3.213c0.919-1.548,1.379-3.568,1.379-6.06
		c0-3.608-0.844-6.274-2.531-7.998c-1.688-1.723-4.407-2.584-8.155-2.584H139.65z"/>
</g>
<path fill="#80559F" d="M142.49,94c0,6.903-5.598,12.5-12.5,12.5h-16.406v66.406h-12.5V106.5H72.177c0-6.903,5.598-12.5,12.5-12.5
	H142.49z"/>
</svg>
