<?xml version="1.0" encoding="utf-8"?>
<!-- Generator: Adobe Illustrator 21.0.0, SVG Export Plug-In . SVG Version: 6.00 Build 0)  -->
<svg version="1.1" xmlns="http://www.w3.org/2000/svg" xmlns:xlink="http://www.w3.org/1999/xlink" x="0px" y="0px"
	 viewBox="0 0 200 200" style="enable-background:new 0 0 200 200;" xml:space="preserve">
<style type="text/css">
	.st0{fill:#727272;}
	.st1{fill:#BFD1EB;}
	.st2{fill:#497CAD;}
</style>
<path class="st0" d="M57.8,25h-25c-4.3,0-7.8,3.5-7.8,7.8v25c0,4.3,3.5,7.8,7.8,7.8h25c4.3,0,7.8-3.5,7.8-7.8v-25
	C65.6,28.5,62.1,25,57.8,25z"/>
<rect x="39.1" y="39.1" class="st1" width="12.5" height="12.5"/>
<path class="st0" d="M57.8,79.7h-25c-4.3,0-7.8,3.5-7.8,7.8v25c0,4.3,3.5,7.8,7.8,7.8h25c4.3,0,7.8-3.5,7.8-7.8v-25
	C65.6,83.2,62.1,79.7,57.8,79.7z"/>
<rect x="39.1" y="93.8" class="st1" width="12.5" height="12.5"/>
<path class="st0" d="M57.8,134.6h-25c-4.3,0-7.8,3.5-7.8,7.8v25c0,4.3,3.5,7.8,7.8,7.8h25c4.3,0,7.8-3.5,7.8-7.8v-25
	C65.6,138.1,62.1,134.6,57.8,134.6z"/>
<rect x="39.1" y="148.6" class="st1" width="12.5" height="12.5"/>
<path class="st2" d="M174.2,147.9H80.5c-0.4,0-0.8,0.3-0.8,0.8v12.5c0,0.4,0.3,0.8,0.8,0.8h93.8c0.4,0,0.8-0.3,0.8-0.8v-12.5
	C175,148.2,174.7,147.9,174.2,147.9z"/>
<path class="st2" d="M174.2,93H80.5c-0.4,0-0.8,0.3-0.8,0.8v12.5c0,0.4,0.3,0.8,0.8,0.8h93.8c0.4,0,0.8-0.3,0.8-0.8V93.8
	C175,93.3,174.7,93,174.2,93z"/>
<path class="st2" d="M174.2,38.3H80.5c-0.4,0-0.8,0.3-0.8,0.8v12.5c0,0.4,0.3,0.8,0.8,0.8h93.8c0.4,0,0.8-0.3,0.8-0.8V39.1
	C175,38.6,174.7,38.3,174.2,38.3z"/>
</svg>
