<?xml version="1.0" encoding="utf-8"?>
<!-- Generator: Adobe Illustrator 16.0.0, SVG Export Plug-In . SVG Version: 6.00 Build 0)  -->
<!DOCTYPE svg PUBLIC "-//W3C//DTD SVG 1.1//EN" "http://www.w3.org/Graphics/SVG/1.1/DTD/svg11.dtd">
<svg version="1.1" id="图层_1" xmlns="http://www.w3.org/2000/svg" xmlns:xlink="http://www.w3.org/1999/xlink" x="0px" y="0px"
	 width="64px" height="64px" viewBox="0 0 64 64" enable-background="new 0 0 64 64" xml:space="preserve">
<g id="图层_1_1_">
	<path fill="#497CAD" d="M59.813,7.645H4.5V4.188h55.313V7.645z"/>
	<path fill="#497CAD" d="M51.713,11.102h-3.457V7.645h3.457V11.102z"/>
	<path fill="#497CAD" d="M44.799,11.102h-3.457V7.645h3.457V11.102z"/>
	<path fill="#497CAD" d="M37.885,11.102h-3.457V7.645h3.457V11.102z"/>
	<path fill="#497CAD" d="M30.971,11.102h-3.457V7.645h3.457V11.102z"/>
	<path fill="#497CAD" d="M24.057,11.102H20.6V7.645h3.457V11.102z"/>
	<path fill="#497CAD" d="M17.143,11.102h-3.457V7.645h3.457V11.102z"/>
</g>
<g id="图层_2">
	<path fill="#497CAD" d="M4.5,4.186h3.457v55.313H4.5V4.186z"/>
	<path fill="#497CAD" d="M7.959,47.669h3.457v3.458H7.959V47.669z"/>
	<path fill="#497CAD" d="M7.959,40.756h3.457v3.457H7.959V40.756z"/>
	<path fill="#497CAD" d="M7.959,33.842h3.457v3.457H7.959V33.842z"/>
	<path fill="#497CAD" d="M7.959,26.927h3.457v3.458H7.959V26.927z"/>
	<path fill="#497CAD" d="M7.959,20.014h3.457v3.457H7.959V20.014z"/>
	<path fill="#497CAD" d="M7.959,13.1h3.457v3.457H7.959V13.1z"/>
</g>
</svg>
