<?xml version="1.0" encoding="utf-8"?>
<!-- Generator: Adobe Illustrator 16.0.0, SVG Export Plug-In . SVG Version: 6.00 Build 0)  -->
<!DOCTYPE svg PUBLIC "-//W3C//DTD SVG 1.1//EN" "http://www.w3.org/Graphics/SVG/1.1/DTD/svg11.dtd">
<svg version="1.1" id="图层_1" xmlns="http://www.w3.org/2000/svg" xmlns:xlink="http://www.w3.org/1999/xlink" x="0px" y="0px"
	 width="64px" height="64px" viewBox="0 0 64 64" enable-background="new 0 0 64 64" xml:space="preserve">
<path fill="#BDCDE8" d="M59.813,59.5h-3.457V4.188h3.457V59.5z"/>
<path fill="#497CAD" d="M51.713,11.102h-3.457V7.645h3.457V11.102z"/>
<path fill="#497CAD" d="M44.799,11.102h-3.457V7.645h3.457V11.102z"/>
<path fill="#497CAD" d="M37.885,11.102h-3.457V7.645h3.457V11.102z"/>
<path fill="#497CAD" d="M30.971,11.102h-3.457V7.645h3.457V11.102z"/>
<path fill="#497CAD" d="M24.057,11.102H20.6V7.645h3.457V11.102z"/>
<path fill="#497CAD" d="M17.143,11.102h-3.457V7.645h3.457V11.102z"/>
<g id="图层_2">
</g>
<path fill="#BDCDE8" d="M4.5,56.043h55.313V59.5H4.5V56.043z"/>
<path fill="#BDCDE8" d="M4.5,4.186h3.457v55.313H4.5V4.186z"/>
<path fill="#497CAD" d="M59.813,7.645H4.5V4.188h55.313V7.645z"/>
</svg>
