<?xml version="1.0" encoding="utf-8"?>
<!-- Generator: Adobe Illustrator 16.0.0, SVG Export Plug-In . SVG Version: 6.00 Build 0)  -->
<!DOCTYPE svg PUBLIC "-//W3C//DTD SVG 1.1//EN" "http://www.w3.org/Graphics/SVG/1.1/DTD/svg11.dtd">
<svg version="1.1" id="图层_1" xmlns="http://www.w3.org/2000/svg" xmlns:xlink="http://www.w3.org/1999/xlink" x="0px" y="0px"
	 width="64px" height="64px" viewBox="0 0 64 64" enable-background="new 0 0 64 64" xml:space="preserve">
<g id="图层_1_1_">
	<path fill="#497CAD" d="M59.813,7.645H4.5V4.188h55.313V7.645z"/>
	<path fill="#497CAD" d="M59.813,59.5h-3.457V4.188h3.457V59.5z"/>
	<path fill="#497CAD" d="M51.713,11.102h-3.457V7.645h3.457V11.102z"/>
	<path fill="#497CAD" d="M44.799,11.102h-3.457V7.645h3.457V11.102z"/>
	<path fill="#497CAD" d="M37.885,11.102h-3.457V7.645h3.457V11.102z"/>
	<path fill="#497CAD" d="M30.971,11.102h-3.457V7.645h3.457V11.102z"/>
	<path fill="#497CAD" d="M24.057,11.102H20.6V7.645h3.457V11.102z"/>
	<path fill="#497CAD" d="M17.143,11.102h-3.457V7.645h3.457V11.102z"/>
	<path fill="#497CAD" d="M56.354,16.017h-3.457v-3.458h3.457V16.017z"/>
	<path fill="#497CAD" d="M56.354,22.93h-3.457v-3.457h3.457V22.93z"/>
	<path fill="#497CAD" d="M56.354,29.844h-3.457v-3.457h3.457V29.844z"/>
	<path fill="#497CAD" d="M56.354,36.759h-3.457v-3.458h3.457V36.759z"/>
	<path fill="#497CAD" d="M56.354,43.672h-3.457v-3.457h3.457V43.672z"/>
	<path fill="#497CAD" d="M56.354,50.586h-3.457v-3.457h3.457V50.586z"/>
</g>
<g id="图层_2">
</g>
</svg>
