<?xml version="1.0" encoding="utf-8"?>
<!-- Generator: Adobe Illustrator 16.0.0, SVG Export Plug-In . SVG Version: 6.00 Build 0)  -->
<!DOCTYPE svg PUBLIC "-//W3C//DTD SVG 1.1//EN" "http://www.w3.org/Graphics/SVG/1.1/DTD/svg11.dtd">
<svg version="1.1" id="图层_1" xmlns="http://www.w3.org/2000/svg" xmlns:xlink="http://www.w3.org/1999/xlink" x="0px" y="0px"
	 width="64px" height="64px" viewBox="0 0 64 64" enable-background="new 0 0 64 64" xml:space="preserve">
<g id="图层_1_1_">
</g>
<path fill="#BDCDE8" d="M4.5,56.041h55.313v3.457H4.5V56.041z"/>
<path fill="#497CAD" d="M7.959,47.669h3.457v3.458H7.959V47.669z"/>
<path fill="#497CAD" d="M7.959,40.756h3.457v3.457H7.959V40.756z"/>
<path fill="#497CAD" d="M7.959,33.842h3.457v3.457H7.959V33.842z"/>
<path fill="#497CAD" d="M7.959,26.927h3.457v3.458H7.959V26.927z"/>
<path fill="#497CAD" d="M7.959,20.014h3.457v3.457H7.959V20.014z"/>
<path fill="#497CAD" d="M7.959,13.1h3.457v3.457H7.959V13.1z"/>
<path fill="#BDCDE8" d="M56.355,4.343h3.457v55.313h-3.457V4.343z"/>
<path fill="#BDCDE8" d="M59.813,4.186v3.457H4.5V4.186H59.813z"/>
<path fill="#497CAD" d="M4.5,4.186h3.457v55.313H4.5V4.186z"/>
</svg>
