<?xml version="1.0" encoding="utf-8"?>
<!-- Generator: Adobe Illustrator 16.0.0, SVG Export Plug-In . SVG Version: 6.00 Build 0)  -->
<!DOCTYPE svg PUBLIC "-//W3C//DTD SVG 1.1//EN" "http://www.w3.org/Graphics/SVG/1.1/DTD/svg11.dtd">
<svg version="1.1" id="图层_1" xmlns="http://www.w3.org/2000/svg" xmlns:xlink="http://www.w3.org/1999/xlink" x="0px" y="0px"
	 width="64px" height="64px" viewBox="0 0 64 64" enable-background="new 0 0 64 64" xml:space="preserve">
<path fill="#BDCDE8" d="M4.5,56.041h55.313v3.457H4.5V56.041z"/>
<path fill="#BDCDE8" d="M4.5,4.186h3.457v55.313H4.5V4.186z"/>
<g id="图层_1_1_">
	<path fill="#BDCDE8" d="M59.813,4.188v3.457H4.5V4.188H59.813z"/>
	<path fill="#497CAD" d="M59.813,59.5h-3.457V4.188h3.457V59.5z"/>
	<path fill="#497CAD" d="M56.354,16.017h-3.457v-3.458h3.457V16.017z"/>
	<path fill="#497CAD" d="M56.354,22.93h-3.457v-3.457h3.457V22.93z"/>
	<path fill="#497CAD" d="M56.354,29.844h-3.457v-3.457h3.457V29.844z"/>
	<path fill="#497CAD" d="M56.354,36.759h-3.457v-3.458h3.457V36.759z"/>
	<path fill="#497CAD" d="M56.354,43.672h-3.457v-3.457h3.457V43.672z"/>
	<path fill="#497CAD" d="M56.354,50.586h-3.457v-3.457h3.457V50.586z"/>
</g>
</svg>
