<?xml version="1.0" encoding="utf-8"?>
<!-- Generator: Adobe Illustrator 16.0.0, SVG Export Plug-In . SVG Version: 6.00 Build 0)  -->
<!DOCTYPE svg PUBLIC "-//W3C//DTD SVG 1.1//EN" "http://www.w3.org/Graphics/SVG/1.1/DTD/svg11.dtd">
<svg version="1.1" id="图层_1" xmlns="http://www.w3.org/2000/svg" xmlns:xlink="http://www.w3.org/1999/xlink" x="0px" y="0px"
	 width="200px" height="200px" viewBox="0 0 200 200" enable-background="new 0 0 200 200" xml:space="preserve">
<path fill="#BDCDE8" d="M52.709,35.829h108.6c8,0,14.5,6.5,14.5,14.5v94.101c0,8-6.5,14.5-14.5,14.5h-108.6
	c-8,0-14.5-6.501-14.5-14.5V50.329C38.209,42.329,44.709,35.829,52.709,35.829z"/>
<path fill="#5280C1" d="M188.109,185.229h-160c-1.8,0-3.5-0.399-5.1-1.1c-5.7-3-9.9-8.4-11.3-14.699c-0.8-2.801-1.2-5.701-1.3-8.5
	c-0.8-46.801,0-93.601,0-140.301c0-0.8,0.1-1.6,0.3-2.4c0.3-1.7,1.3-3.2,2.6-4.2c0.5-0.3,1.1-0.6,1.7-0.7h1.2
	c0.6,0.1,1.1,0.4,1.7,0.7c1.3,1,2.3,2.5,2.6,4.2c0.1,0.5,0.2,1.1,0.2,1.6c1.8,46.7-0.7,93.601,0.1,140.399
	c0.2,5.601,3.4,10.101,7.3,10.5c53.4,1.9,106.9,0,160.3,0c1.5,0.101,2.8,0.9,3.6,2.201c1.101,1.799,1.601,3.899,1.4,6
	c-0.101,2-0.9,3.899-2.3,5.399C190.109,184.829,189.109,185.229,188.109,185.229z M172.409,21.429c0.899,0.2,1.7,0.6,2.3,1.3
	c2.2,2.7,2.8,6.4,1.5,9.6c-0.4,1.2-1.2,2.2-2.2,2.9c-9.6,6.1-19.8,10.4-29.5,16.3c-4.6,3.2-8,7.8-9.8,13.2c-3.9,11-7.2,22.5-11,33.7
	c-1.5,4.4-3.6,8.5-6.3,12.2c-5.2,8.301-14.601,12.9-24.4,11.9c-3.4-0.6-6.6-1.801-9.5-3.7c-1.7-1.101-3.3-2.3-5-3.4
	c-9.8-5.899-21.1,0-26.1,13.4c-1.9,5.399-3.7,11.399-5.4,16.7c-0.3,1-0.9,2-1.5,2.8c-1,1.2-2.7,1.7-4.3,1.2
	c-1.7-0.7-2.9-2.101-3.4-3.9c-0.6-1.8-0.7-3.7-0.2-5.6c1.6-5.801,3.6-11.4,5.5-17.101c1.4-4.1,3.3-8,5.7-11.5
	c5-8.5,14.4-13.5,24.2-12.9c3.7,0.5,7.2,1.8,10.3,3.8c1.7,1.1,3.3,2.3,5,3.399c1.9,1.2,4.1,1.9,6.4,2.2c6.1,0.4,11.9-2.5,15.4-7.5
	c1.8-2.4,3.3-5.1,4.3-8c4-11,7.2-22.5,11-33.7c2.1-6.5,5.8-12.3,10.6-17.1c1.601-1.5,3.3-2.8,5.2-3.9c9.6-5.5,19.2-10.6,28.8-15.9
	c0.5-0.2,0.9-0.4,1.4-0.5C171.709,21.429,172.009,21.429,172.409,21.429L172.409,21.429z"/>
</svg>
