<?xml version="1.0" encoding="utf-8"?>
<!-- Generator: Adobe Illustrator 16.0.0, SVG Export Plug-In . SVG Version: 6.00 Build 0)  -->
<!DOCTYPE svg PUBLIC "-//W3C//DTD SVG 1.1//EN" "http://www.w3.org/Graphics/SVG/1.1/DTD/svg11.dtd">
<svg version="1.1" id="图层_1" xmlns="http://www.w3.org/2000/svg" xmlns:xlink="http://www.w3.org/1999/xlink" x="0px" y="0px"
	 width="64px" height="64px" viewBox="0 0 64 64" enable-background="new 0 0 64 64" xml:space="preserve">
<path fill="#727272" d="M56.331,31.55l-4.769-9.375c-0.838-1.644-2.5-2.662-4.344-2.662h-7.281c-0.068,0-0.125-0.057-0.125-0.125
	V7.538c0-1.944-1.581-3.519-3.519-3.519h-5.625c-1.944,0-3.519,1.582-3.519,3.519v11.85c0,0.068-0.056,0.125-0.125,0.125h-7.288
	c-1.844,0-3.506,1.019-4.344,2.662l-4.769,9.375c-0.575,1.132-0.525,2.456,0.138,3.538c0.644,1.05,1.744,1.688,2.962,1.725
	c-0.3,6.313-2.394,12.869-5.638,17.469c-0.781,1.112-0.881,2.55-0.256,3.756c0.625,1.207,1.856,1.957,3.219,1.957h37.594
	c2.188,0,4.125-1.476,4.7-3.588c0.969-3.531,1.775-6.744,1.838-10.307c0.068-3.287-0.557-6.35-1.875-9.287
	c1.188-0.068,2.256-0.7,2.887-1.725C56.856,34.006,56.906,32.682,56.331,31.55z"/>
<path fill="#497CAD" d="M13.744,33.138l4.769-9.375c0.237-0.463,0.706-0.75,1.225-0.75h7.275c2,0,3.625-1.625,3.625-3.625V7.538
	c0-0.006,0.012-0.019,0.019-0.019h5.625c0.006,0,0.019,0.013,0.019,0.019v11.85c0,2,1.625,3.625,3.625,3.625H47.2
	c0.519,0,0.987,0.287,1.225,0.75l4.769,9.375c0.013,0.019,0.031,0.063-0.006,0.125s-0.081,0.063-0.106,0.063H13.856
	c-0.025,0-0.069,0-0.106-0.063S13.731,33.156,13.744,33.138z"/>
<path fill="#BDCDE8" d="M51.688,46.037c-0.057,3.156-0.807,6.145-1.713,9.444c-0.162,0.594-0.706,1.013-1.324,1.013h-7.913
	c0.706-1.395,1.156-2.75,1.444-3.825c0.443-1.669,0.668-3.344,0.662-4.875c-0.006-1.069-0.969-1.882-2.025-1.713
	c-0.85,0.138-1.475,0.875-1.475,1.737c0.006,2.669-0.881,6.138-2.669,8.676H25.388c0.95-1.356,1.631-2.738,2.1-3.869
	c0.625-1.519,1.088-3.106,1.325-4.531c0.175-1.063-0.65-2.031-1.725-2.031c-0.85,0-1.581,0.612-1.725,1.456
	c-0.175,1.038-0.519,2.356-1.106,3.775c-0.631,1.537-1.738,3.631-3.475,5.206h-9.725c-0.031,0-0.075,0-0.112-0.068
	c-0.038-0.069-0.013-0.101,0.006-0.125c1.856-2.632,3.425-5.906,4.531-9.463c1.012-3.256,1.606-6.682,1.75-10.019h32.162
	C51,39.725,51.75,42.75,51.688,46.037z"/>
</svg>
