<?xml version="1.0" encoding="utf-8"?>
<!-- Generator: Adobe Illustrator 16.0.0, SVG Export Plug-In . SVG Version: 6.00 Build 0)  -->
<!DOCTYPE svg PUBLIC "-//W3C//DTD SVG 1.1//EN" "http://www.w3.org/Graphics/SVG/1.1/DTD/svg11.dtd">
<svg version="1.1" id="图层_1" xmlns="http://www.w3.org/2000/svg" xmlns:xlink="http://www.w3.org/1999/xlink" x="0px" y="0px"
	 width="200px" height="200px" viewBox="0 0 200 200" enable-background="new 0 0 200 200" xml:space="preserve">
<path fill="#727272" d="M78.75,25c1.375,0,2.5,1.125,2.5,2.5V85c0,1.381-1.119,2.5-2.5,2.5h-57.5c-1.381,0-2.5-1.119-2.5-2.5V27.5
	c0-1.375,1.125-2.5,2.5-2.5H78.75z"/>
<rect x="33.75" y="40" fill="#669E8B" width="32.5" height="32.5"/>
<path fill="#727272" d="M96.25,50c-1.381,0-2.5,1.119-2.5,2.5v11.875c0,1.375,1.125,2.5,2.5,2.5h82.5c1.381,0,2.5-1.119,2.5-2.5
	V52.5c0-1.381-1.119-2.5-2.5-2.5H96.25z"/>
<path fill="#727272" d="M96.25,154.638c-1.381,0-2.5,1.119-2.5,2.5v11.875c0,1.375,1.125,2.5,2.5,2.5h82.5c1.381,0,2.5-1.12,2.5-2.5
	v-11.875c0-1.381-1.119-2.5-2.5-2.5H96.25z"/>
<path fill="#5280C1" d="M31.25,139.75c0.003-1.242,1.013-2.247,2.256-2.244c0.523,0.002,1.029,0.186,1.432,0.52l28,23.324
	c0.953,0.799,1.078,2.217,0.28,3.17c-0.085,0.102-0.179,0.195-0.28,0.28l-28,23.325c-0.956,0.794-2.375,0.662-3.168-0.293
	c-0.334-0.402-0.518-0.909-0.519-1.432V139.75z"/>
</svg>
