<?xml version="1.0" standalone="no"?><!DOCTYPE svg PUBLIC "-//W3C//DTD SVG 1.1//EN" "http://www.w3.org/Graphics/SVG/1.1/DTD/svg11.dtd"><svg t="1766675439065" class="icon" viewBox="0 0 1024 1024" version="1.1" xmlns="http://www.w3.org/2000/svg" p-id="17470" xmlns:xlink="http://www.w3.org/1999/xlink" width="200" height="200"><path d="M403.2 128c7.04 0 12.8 5.76 12.8 12.8v294.4a12.8 12.8 0 0 1-12.8 12.8H108.8a12.8 12.8 0 0 1-12.8-12.8V140.8c0-7.04 5.76-12.8 12.8-12.8h294.4z m-64 76.8H172.8v166.4h166.4V204.8zM492.8 256a12.8 12.8 0 0 0-12.8 12.8v60.8c0 7.04 5.76 12.8 12.8 12.8h422.4a12.8 12.8 0 0 0 12.8-12.8V268.8a12.8 12.8 0 0 0-12.8-12.8H492.8zM492.8 791.744a12.8 12.8 0 0 0-12.8 12.8v60.8c0 7.04 5.76 12.8 12.8 12.8h422.4a12.8 12.8 0 0 0 12.8-12.8v-60.8a12.8 12.8 0 0 0-12.8-12.8H492.8zM160 715.52a11.52 11.52 0 0 1 18.88-8.832l143.36 119.424a11.52 11.52 0 0 1 0 17.664l-143.36 119.424a11.52 11.52 0 0 1-18.88-8.832V715.52z" p-id="17471" fill="#515151"></path></svg>