<?xml version="1.0" encoding="utf-8"?>
<!-- Generator: Adobe Illustrator 16.0.0, SVG Export Plug-In . SVG Version: 6.00 Build 0)  -->
<!DOCTYPE svg PUBLIC "-//W3C//DTD SVG 1.1//EN" "http://www.w3.org/Graphics/SVG/1.1/DTD/svg11.dtd">
<svg version="1.1" id="图层_1" xmlns="http://www.w3.org/2000/svg" xmlns:xlink="http://www.w3.org/1999/xlink" x="0px" y="0px"
	 width="64px" height="64px" viewBox="0 0 64 64" enable-background="new 0 0 64 64" xml:space="preserve">
<path fill="#727272" d="M47.646,61.5H7.015c-2.489,0-4.515-2.025-4.515-4.515V26.994l15.155-15.155h29.992
	c2.488,0,4.514,2.026,4.514,4.515v40.631C52.16,59.475,50.135,61.5,47.646,61.5z M7.015,28.864v28.121h40.634l-0.002-40.631H19.525
	L7.015,28.864z"/>
<path fill="#727272" d="M18.752,30.35h-0.026L4.731,30.187c-0.911-0.01-1.726-0.567-2.067-1.412
	c-0.341-0.844-0.141-1.811,0.507-2.451l13.995-13.833c0.647-0.641,1.617-0.828,2.456-0.478c0.84,0.351,1.387,1.172,1.388,2.083
	v13.995c0,0.604-0.242,1.181-0.671,1.605C19.917,30.115,19.347,30.35,18.752,30.35z M10.188,25.735l6.307,0.074v-6.308
	L10.188,25.735z M59.242,46.292c-1.246,0-2.257-1.011-2.257-2.257V7.015h-27.99c-1.247,0-2.258-1.01-2.258-2.257
	c0-1.247,1.011-2.257,2.258-2.257h30.247c1.247,0,2.258,1.011,2.258,2.257v39.278C61.5,45.281,60.489,46.292,59.242,46.292z
	 M40.423,50.664H13.787c-1.247,0-2.257-1.01-2.257-2.257s1.011-2.257,2.257-2.257h26.636c1.246,0,2.257,1.01,2.257,2.257
	S41.669,50.664,40.423,50.664z M40.423,40.732H13.787c-1.247,0-2.257-1.01-2.257-2.257s1.011-2.257,2.257-2.257h26.636
	c1.246,0,2.257,1.01,2.257,2.257S41.669,40.732,40.423,40.732z M40.423,30.35H26.427c-1.247,0-2.257-1.011-2.257-2.258
	c0-1.247,1.01-2.257,2.257-2.257h13.996c1.246,0,2.257,1.011,2.257,2.257C42.68,29.339,41.669,30.35,40.423,30.35z"/>
</svg>
