<?xml version="1.0" encoding="utf-8"?>
<!-- Generator: Adobe Illustrator 16.0.0, SVG Export Plug-In . SVG Version: 6.00 Build 0)  -->
<!DOCTYPE svg PUBLIC "-//W3C//DTD SVG 1.1//EN" "http://www.w3.org/Graphics/SVG/1.1/DTD/svg11.dtd">
<svg version="1.1" xmlns="http://www.w3.org/2000/svg" xmlns:xlink="http://www.w3.org/1999/xlink" x="0px" y="0px" width="200px"
	 height="200px" viewBox="0 0 200 200" enable-background="new 0 0 200 200" xml:space="preserve">
<g id="图层_1">
	<path fill="#727272" d="M175.195,19.531H25.41c-3.535,0.215-6.23,3.223-6.055,6.758v148.203c-0.02,2.148,0.918,4.18,2.598,5.527
		v1.074h2.168c0.43,0.098,0.859,0.156,1.289,0.156h149.785c0.43,0,0.859-0.059,1.289-0.156h0.293v-0.098
		c2.754-0.957,4.551-3.594,4.473-6.504V26.289C181.426,22.754,178.711,19.746,175.195,19.531z M43.262,175.332H24.961
		c-0.254-0.176-0.41-0.488-0.41-0.801v-17.559h18.73v18.359H43.262z M43.262,151.172h-18.73V132.09h18.73V151.172z M43.262,126.328
		h-18.73v-20.137h18.73V126.328z M43.262,100.43h-18.73V78.633h18.73V100.43z M43.262,72.871h-18.73v-21.27h18.73V72.871z
		 M86.914,175.293H48.457v-18.359h38.457V175.293z M86.914,151.133H48.457V132.09h38.457V151.133z M86.914,126.289H48.457v-20.098
		h38.457V126.289z M86.914,100.391H48.457V78.633h38.457V100.391z M86.914,72.852H48.457v-21.27h38.457V72.852z M86.914,45.781
		H48.457V25.313h38.457V45.781z M130.977,175.293H92.09v-18.359h38.887V175.293z M130.977,151.133H92.09V132.09h38.887V151.133z
		 M130.977,126.289H92.09v-20.098h38.887V126.289z M130.977,100.391H92.09V78.633h38.887V100.391z M130.977,72.852H92.09v-21.27
		h38.887V72.852z M130.977,45.781H92.09V25.313h38.887V45.781z M176.055,174.492c0,0.313-0.156,0.625-0.41,0.801h-39.473v-18.359
		h39.883V174.492z M176.055,151.133h-39.883V132.09h39.883V151.133z M176.055,126.289h-39.883v-20.098h39.883V126.289z
		 M176.055,100.391h-39.883V78.633h39.883V100.391z M176.055,72.852h-39.883v-21.27h39.883V72.852z M176.055,45.781h-39.883V25.313
		h39.023c0.508,0.039,0.898,0.469,0.859,0.977V45.781z M127.012,67.48H95.898V55.371h31.113V67.48z"/>
</g>
<g id="图层_2">
</g>
</svg>
