<?xml version="1.0" standalone="no"?><!DOCTYPE svg PUBLIC "-//W3C//DTD SVG 1.1//EN" "http://www.w3.org/Graphics/SVG/1.1/DTD/svg11.dtd"><svg t="1717375311101" class="icon" viewBox="0 0 1024 1024" version="1.1" xmlns="http://www.w3.org/2000/svg" p-id="4246" xmlns:xlink="http://www.w3.org/1999/xlink" width="200" height="200"><path d="M989.866667 238.933333A102.4 102.4 0 0 0 887.466667 136.533333h-107.861334v-34.133333A102.4 102.4 0 0 0 677.205333 0h-341.333333a102.4 102.4 0 0 0-102.4 102.4V136.533333H136.533333A102.4 102.4 0 0 0 102.4 335.189333V887.466667a136.533333 136.533333 0 0 0 136.533333 136.533333h546.133334a136.533333 136.533333 0 0 0 136.533333-136.533333V335.189333a102.4 102.4 0 0 0 68.266667-96.256z m-688.128-136.533333a34.133333 34.133333 0 0 1 34.133333-34.133333h341.333333a34.133333 34.133333 0 0 1 34.133334 34.133333V136.533333h-409.6zM853.333333 887.466667a68.266667 68.266667 0 0 1-68.266666 68.266666H238.933333a68.266667 68.266667 0 0 1-68.266666-68.266666V341.333333h682.666666z m34.133334-614.4h-750.933334a34.133333 34.133333 0 0 1 0-68.266667h750.933334a34.133333 34.133333 0 0 1 0 68.266667z" fill="#ce6043" p-id="4247"></path><path d="M341.333333 836.266667a34.133333 34.133333 0 0 0 34.133334-34.133334v-307.2a34.133333 34.133333 0 0 0-68.266667 0v307.2a34.133333 34.133333 0 0 0 34.133333 34.133334zM512 836.266667a34.133333 34.133333 0 0 0 34.133333-34.133334v-307.2a34.133333 34.133333 0 0 0-68.266666 0v307.2a34.133333 34.133333 0 0 0 34.133333 34.133334zM682.666667 836.266667a34.133333 34.133333 0 0 0 34.133333-34.133334v-307.2a34.133333 34.133333 0 0 0-68.266667 0v307.2a34.133333 34.133333 0 0 0 34.133334 34.133334z" fill="#ce6043" p-id="4248"></path></svg>