<?xml version="1.0" encoding="utf-8"?>
<!-- Generator: Adobe Illustrator 16.0.0, SVG Export Plug-In . SVG Version: 6.00 Build 0)  -->
<!DOCTYPE svg PUBLIC "-//W3C//DTD SVG 1.1//EN" "http://www.w3.org/Graphics/SVG/1.1/DTD/svg11.dtd">
<svg version="1.1" id="图层_1" xmlns="http://www.w3.org/2000/svg" xmlns:xlink="http://www.w3.org/1999/xlink" x="0px" y="0px"
	 width="200px" height="200px" viewBox="0 0 200 200" enable-background="new 0 0 200 200" xml:space="preserve">
<path fill="#5280C1" fill-opacity="0.7" d="M87.5,25c3.452,0,6.25,2.798,6.25,6.25V87.5c0,3.452-2.798,6.25-6.25,6.25H67.35v25.075
	h106.312c0.808,0.002,1.522,0.521,1.775,1.287l0.1,0.588v11.175c0,1.035-0.839,1.875-1.875,1.875H67.337v30.075h106.325
	c0.808,0.002,1.522,0.521,1.775,1.287l0.1,0.588v11.087c0,1.036-0.839,1.875-1.875,1.875H58.75c-3.019,0.002-5.606-2.155-6.15-5.125
	l-0.1-1.125V93.75H31.25c-3.452,0-6.25-2.798-6.25-6.25V31.25c0-3.452,2.798-6.25,6.25-6.25H87.5z"/>
<rect x="39.063" y="39.063" fill="#669E8B" fill-opacity="0.7" width="40.625" height="40.625"/>
<path fill="#727272" fill-opacity="0.7" d="M173.638,50c0.75,0,1.362,0.888,1.362,1.975v12.3c0,1.087-0.612,1.975-1.375,1.975
	h-59.75c-0.763,0-1.375-0.888-1.375-1.975v-12.3c0-1.1,0.612-1.975,1.375-1.975H173.638z"/>
</svg>
