<?xml version="1.0" standalone="no"?><!DOCTYPE svg PUBLIC "-//W3C//DTD SVG 1.1//EN" "http://www.w3.org/Graphics/SVG/1.1/DTD/svg11.dtd"><svg t="1766675376415" class="icon" viewBox="0 0 1024 1024" version="1.1" xmlns="http://www.w3.org/2000/svg" p-id="14755" xmlns:xlink="http://www.w3.org/1999/xlink" width="200" height="200"><path d="M448 128a32 32 0 0 1 32 32V448a32 32 0 0 1-32 32H344.832v128.384h544.32a9.6 9.6 0 0 1 9.088 6.592l0.512 3.008v57.216a9.6 9.6 0 0 1-9.6 9.6H344.768v153.984h544.384a9.6 9.6 0 0 1 9.088 6.592l0.512 3.008v56.768a9.6 9.6 0 0 1-9.6 9.6H300.8a32 32 0 0 1-31.488-26.24l-0.512-5.76V480H160A32 32 0 0 1 128 448V160a32 32 0 0 1 32-32H448z m-40 72h-208v208h208v-208zM889.024 256c3.84 0 6.976 4.544 6.976 10.112v62.976c0 5.568-3.136 10.112-7.04 10.112H583.04c-3.904 0-7.04-4.544-7.04-10.112v-62.976C576 260.48 579.136 256 583.04 256z" fill="#497cad" fill-opacity=".7" p-id="14756"></path></svg>