<?xml version="1.0" encoding="utf-8"?>
<!-- Generator: Adobe Illustrator 16.0.0, SVG Export Plug-In . SVG Version: 6.00 Build 0)  -->
<!DOCTYPE svg PUBLIC "-//W3C//DTD SVG 1.1//EN" "http://www.w3.org/Graphics/SVG/1.1/DTD/svg11.dtd">
<svg version="1.1" id="图层_1" xmlns="http://www.w3.org/2000/svg" xmlns:xlink="http://www.w3.org/1999/xlink" x="0px" y="0px"
	 width="200px" height="200px" viewBox="0 0 200 200" enable-background="new 0 0 200 200" xml:space="preserve">
<path fill="#FFFFFF" d="M17.385,12.642h165.23c4.589,0,6.885,2.295,6.885,6.885v165.231c0,4.588-2.296,6.885-6.885,6.885H17.385
	c-4.59,0-6.885-2.297-6.885-6.885V19.527C10.5,14.937,12.795,12.642,17.385,12.642z"/>
<path fill="#CE6043" d="M100,184.758h6.885v6.885H24.269v-6.885h6.885v-27.539h6.885v27.539h13.769v-41.309h6.885v41.309h13.769
	V129.68h6.885v55.078h13.769v-34.424H100V184.758z"/>
<path fill="#5280C1" d="M127.538,88.373l40.075,22.266c-14.198,20.227-42.108,25.117-62.336,10.918
	c-20.229-14.199-25.118-42.108-10.919-62.337c7.681-10.943,19.851-17.878,33.18-18.908V88.373z M93.115,84.931
	c-0.003,20.912,16.947,37.868,37.86,37.87c9.626,0.002,18.892-3.662,25.912-10.248l-36.233-20.132v-43.93
	C104.363,53.118,93.12,67.995,93.115,84.931z M72.461,129.68h6.885v55.078h-6.885V129.68z"/>
<path fill="#669E8B" d="M134.423,40.181c22.814-0.006,41.313,18.483,41.318,41.296c0.003,7.174-1.864,14.225-5.415,20.458
	l-35.903-20.447V40.181z M141.308,77.488l25.838,14.712c5.913-18.076-3.947-37.524-22.023-43.437
	c-1.251-0.409-2.524-0.747-3.814-1.01V77.488z M51.808,143.449h6.885v41.309h-6.885V143.449z"/>
<path fill="#E6C27C" d="M93.115,150.334H100v34.424h-6.885V150.334z"/>
<path fill="#727272" d="M182.615,12.642c3.802,0,6.885,3.083,6.885,6.885v165.231c0,3.801-3.083,6.885-6.885,6.885H17.385
	c-3.802,0-6.885-3.084-6.885-6.885V19.527c0-3.802,3.083-6.885,6.885-6.885H182.615z M182.615,19.527H17.385v165.231h165.23V19.527z
	"/>
</svg>
