<?xml version="1.0" standalone="no"?><!DOCTYPE svg PUBLIC "-//W3C//DTD SVG 1.1//EN" "http://www.w3.org/Graphics/SVG/1.1/DTD/svg11.dtd"><svg t="1777958079303" class="icon" viewBox="0 0 1024 1024" version="1.1" xmlns="http://www.w3.org/2000/svg" p-id="10386" xmlns:xlink="http://www.w3.org/1999/xlink" width="200" height="200"><path d="M70.38 342.2c-93.82 92-93.82 245.8 0 339.6L342.2 953.6c92 93.8 245.8 93.8 339.6 0l271.8-271.8c93.8-93.8 93.8-247.6 0-339.6L681.8 70.38c-93.8-93.82-247.6-93.82-339.6 0L70.38 342.2zM631 631c-65.8 65.6-172.2 65.6-237.8 0-65.8-65.8-65.8-172.2 0-237.8 65.6-65.8 172-65.8 237.8 0 65.6 65.6 65.6 172 0 237.8z" p-id="10387" fill="#497cad"></path></svg>