<?xml version="1.0" encoding="utf-8"?>
<!-- Generator: Adobe Illustrator 16.0.0, SVG Export Plug-In . SVG Version: 6.00 Build 0)  -->
<!DOCTYPE svg PUBLIC "-//W3C//DTD SVG 1.1//EN" "http://www.w3.org/Graphics/SVG/1.1/DTD/svg11.dtd">
<svg version="1.1" id="图层_1" xmlns="http://www.w3.org/2000/svg" xmlns:xlink="http://www.w3.org/1999/xlink" x="0px" y="0px"
	 width="200px" height="200px" viewBox="0 0 200 200" enable-background="new 0 0 200 200" xml:space="preserve">
<path fill="#BDCDE8" d="M33.333,33.333h88.889v33.333H33.333V33.333z M44.444,55.556h66.667V44.444H44.444V55.556z"/>
<path fill="#727272" d="M55.556,11.111H100v33.333H55.556V11.111z M66.667,22.222v11.111h22.222V22.222H66.667z"/>
<path fill="#727272" d="M22.222,166.666V44.444h111.112v38.889h11.11v-50H11.111v144.444h72.222v-11.111H22.222z"/>
<path fill="#5280C1" d="M188.889,77.778v77.778l-33.333,33.333H77.778V77.778H188.889L188.889,77.778z M88.889,177.777H150
	l27.777-26.666V88.889H88.889V177.777z"/>
<path fill="#5280C1" d="M144.444,144.444h44.444v-11.11h-55.555v55.555h11.11V144.444z"/>
</svg>
