<?xml version="1.0" standalone="no"?><!DOCTYPE svg PUBLIC "-//W3C//DTD SVG 1.1//EN" "http://www.w3.org/Graphics/SVG/1.1/DTD/svg11.dtd"><svg t="1689922196309" class="icon" viewBox="0 0 1024 1024" version="1.1" xmlns="http://www.w3.org/2000/svg" p-id="2341" xmlns:xlink="http://www.w3.org/1999/xlink" width="200" height="200"><path d="M905.846154 701.046154c-7.876923 0-16.541538-3.150769-22.055385-9.452308L748.307692 556.898462 652.209231 652.209231c-12.603077 12.603077-32.295385 12.603077-44.898462 0L354.461538 399.36 140.209231 612.824615c-8.664615 8.664615-22.843077 11.815385-34.658462 7.089231C94.523077 615.187692 86.646154 603.372308 86.646154 590.769231V196.923077c0-60.652308 49.624615-110.276923 110.276923-110.276923h630.153846c60.652308 0 110.276923 49.624615 110.276923 110.276923v472.615385a31.704615 31.704615 0 0 1-31.507692 31.507692zM748.307692 480.492308c7.876923 0 15.753846 3.150769 22.055385 9.452307L874.338462 593.132308V196.923077c0-25.993846-21.267692-47.261538-47.261539-47.261539H196.923077c-25.993846 0-47.261538 21.267692-47.261539 47.261539v317.44l182.744616-182.744615c12.603077-12.603077 32.295385-12.603077 44.898461 0L630.153846 585.255385l96.098462-96.098462C732.553846 483.643077 740.430769 480.492308 748.307692 480.492308z" fill="#7F7F7F" p-id="2342"></path><path d="M630.153846 630.153846l252.849231 252.849231c14.178462-14.178462 22.843077-33.870769 22.843077-55.926154V669.538462L748.307692 512 630.153846 630.153846z" fill="#BFBFBF" p-id="2343"></path><path d="M883.003077 914.510769c-7.876923 0-15.753846-3.150769-22.055385-9.452307L608.098462 652.209231c-12.603077-12.603077-12.603077-32.295385 0-44.898462l118.153846-118.153846c12.603077-12.603077 32.295385-12.603077 44.898461 0l157.538462 157.538462c6.301538 6.301538 9.452308 14.178462 9.452307 22.055384v157.538462c0 29.144615-11.815385 56.713846-32.295384 77.981538-7.089231 7.089231-14.966154 10.24-22.843077 10.24zM675.052308 630.153846l199.286154 199.286154V682.929231l-126.03077-126.030769-73.255384 73.255384z" fill="#7F7F7F" p-id="2344"></path><path d="M827.076923 937.353846H196.923077c-60.652308 0-110.276923-49.624615-110.276923-110.276923V590.769231c0-8.664615 3.150769-16.541538 9.452308-22.055385l236.307692-236.307692c12.603077-12.603077 32.295385-12.603077 44.898461 0l528.541539 528.541538c12.603077 12.603077 12.603077 32.295385 0 44.898462-22.055385 19.692308-49.624615 31.507692-78.769231 31.507692zM149.661538 604.16V827.076923c0 25.993846 21.267692 47.261538 47.261539 47.261539h632.516923L354.461538 399.36l-204.8 204.8z" fill="#7F7F7F" p-id="2345"></path><path d="M708.923077 315.076923m-78.769231 0a78.769231 78.769231 0 1 0 157.538462 0 78.769231 78.769231 0 1 0-157.538462 0Z" fill="#BFBFBF" p-id="2346"></path><path d="M708.923077 425.353846c-60.652308 0-110.276923-49.624615-110.276923-110.276923s49.624615-110.276923 110.276923-110.276923 110.276923 49.624615 110.276923 110.276923-49.624615 110.276923-110.276923 110.276923z m0-157.538461c-25.993846 0-47.261538 21.267692-47.261539 47.261538s21.267692 47.261538 47.261539 47.261539 47.261538-21.267692 47.261538-47.261539-21.267692-47.261538-47.261538-47.261538z" fill="#7F7F7F" p-id="2347"></path></svg>