<?xml version="1.0" encoding="utf-8"?>
<!-- Generator: Adobe Illustrator 16.0.0, SVG Export Plug-In . SVG Version: 6.00 Build 0)  -->
<!DOCTYPE svg PUBLIC "-//W3C//DTD SVG 1.1//EN" "http://www.w3.org/Graphics/SVG/1.1/DTD/svg11.dtd">
<svg version="1.1" id="图层_1" xmlns="http://www.w3.org/2000/svg" xmlns:xlink="http://www.w3.org/1999/xlink" x="0px" y="0px"
	 width="200px" height="200px" viewBox="0 0 200 200" enable-background="new 0 0 200 200" xml:space="preserve">
<path opacity="0.3" fill="#BDCDE8" enable-background="new    " d="M46,100c-0.01,29.823,24.159,54.008,53.982,54.018
	c29.824,0.01,54.008-24.158,54.018-53.981c0-0.012,0-0.024,0-0.036c0-29.823-24.177-54-54-54S46,70.177,46,100z"/>
<path fill="#727272" d="M188.334,193.334H11.667c-2.667,0-5-2.334-5-5V11.667c0-2.667,2.333-5,5-5c2.667,0,5,2.333,5,5v171.667
	h171.667c2.666,0,5,2.332,5,5C193.334,191,191,193.334,188.334,193.334z"/>
<path fill="#5280C1" d="M51,154c-0.667,0-1.667-0.334-2.333-0.666c-2.333-1.334-3.333-4.334-2.333-6.668L85.667,68
	c0.667-1.333,2-2.333,3.667-2.667c1.667-0.333,3,0,4.333,1.333l44,40l46-97C185,7.333,188,6,190.334,7.333
	c2.332,1.333,3.666,4.333,2.332,6.667l-49,103c-0.666,1.334-2,2.334-3.666,2.666c-1.666,0.334-3,0-4.334-1.332l-44-39.667
	l-36.333,72.667C54.667,153,52.667,154,51,154z"/>
</svg>
