<?xml version="1.0" encoding="utf-8"?>
<!-- Generator: Adobe Illustrator 16.0.0, SVG Export Plug-In . SVG Version: 6.00 Build 0)  -->
<!DOCTYPE svg PUBLIC "-//W3C//DTD SVG 1.1//EN" "http://www.w3.org/Graphics/SVG/1.1/DTD/svg11.dtd">
<svg version="1.1" id="图层_1" xmlns="http://www.w3.org/2000/svg" xmlns:xlink="http://www.w3.org/1999/xlink" x="0px" y="0px"
	 width="200px" height="200px" viewBox="0 0 200 200" enable-background="new 0 0 200 200" xml:space="preserve">
<path opacity="0.3" fill="#727272" enable-background="new    " d="M154.666,167.666h-43c-7.332,0-13.333-6-13.333-13.332v-42.668
	c0-7.332,6-13.333,13.333-13.333h43c7.334,0,13.334,6,13.334,13.333v42.668C168,161.666,162,167.666,154.666,167.666z"/>
<path fill="#5280C1" d="M100,193.334c-51.333,0-93.333-42-93.333-93.334c0-51.333,42-93.333,93.333-93.333
	c51.334,0,93.334,42,93.334,93.333c0,2.666-2.334,5-5,5h-79C107,105,105,107,105,109.334v79C105,191,102.666,193.334,100,193.334
	L100,193.334z M100,16.667C54,16.667,16.667,54,16.667,100c0,44.334,34.667,80.666,78.333,83.334v-74
	c0-8,6.334-14.334,14.334-14.334h74C180.666,51.333,144.334,16.667,100,16.667z"/>
<path fill="#727272" d="M183.666,188.666H128c-2.666,0-5-2.332-5-5V128c0-2.666,2.334-5,5-5h55.666c2.668,0,5,2.334,5,5v55.666
	C188.666,186.334,186.334,188.666,183.666,188.666L183.666,188.666z M133,178.666h45.666V133H133V178.666z"/>
</svg>
