<?xml version="1.0" encoding="utf-8"?>
<!-- Generator: Adobe Illustrator 21.0.0, SVG Export Plug-In . SVG Version: 6.00 Build 0)  -->
<svg version="1.1" xmlns="http://www.w3.org/2000/svg" xmlns:xlink="http://www.w3.org/1999/xlink" x="0px" y="0px"
	 viewBox="0 0 200 200" style="enable-background:new 0 0 200 200;" xml:space="preserve">
<style type="text/css">
	.st0{fill:#497CAD;}
	.st1{fill:#BFD1EB;}
</style>
<circle class="st0" cx="100" cy="100" r="100"/>
<path class="st1" d="M109.7,157.7c0,2.8-2.2,5-5,5h-15c-2.8,0-5-2.2-5-5v-15c0-2.8,2.2-5,5-5h15c2.8,0,5,2.2,5,5V157.7z"/>
<path class="st1" d="M134.5,88.9c-2,2.9-6.6,6.5-12.3,11l-6.3,4.4c-3.1,2.4-5.8,5.2-6.8,8.3c-0.3,1.1-0.6,2.9-0.8,4.8
	c-0.1,1-1,2.9-3,2.9c-5,0-14.4,0-16.3,0c-2.6,0-3.1-2.1-3.1-3.1c0.3-6.6,0.9-12.5,3.6-15.7c5.5-6.4,18-14.4,18-14.4
	c1.9-1.4,3.4-3,4.6-4.7c2.1-2.9,3.9-6.1,3.9-9.6c0-4-1.2-7.7-3.5-11c-2.4-3.3-6.7-5-12.9-5c-6.1,0-10.5,2-13.1,6.1
	c-1.9,3-3.1,5.8-3.6,8.8c-0.2,1.1-0.9,3.3-3.1,3.3c-4.8,0-13.7,0-15.9,0c-3.4,0-4.1-2.2-4-3.2c1.2-13.3,6.4-22.4,15.6-28.2
	c6.3-4,13.9-6,23.1-6c12,0,21.9,2.9,29.9,8.6c7.9,5.7,11.9,14.2,11.9,25.4C140.3,78.4,137.9,84.2,134.5,88.9z"/>
</svg>
