<?xml version="1.0" standalone="no"?><!DOCTYPE svg PUBLIC "-//W3C//DTD SVG 1.1//EN" "http://www.w3.org/Graphics/SVG/1.1/DTD/svg11.dtd"><svg t="1672299949372" class="icon" viewBox="0 0 1024 1024" version="1.1" xmlns="http://www.w3.org/2000/svg" p-id="2927" xmlns:xlink="http://www.w3.org/1999/xlink" width="200" height="200"><path d="M746.6 900.6c-4.9 0-9.9-1.4-14.3-4.1l-221-138.6-221 138.6c-9.4 5.9-21.2 5.5-30.1-1-8.9-6.5-13-17.6-10.3-28.3l63.6-253-200.1-167.4c-8.5-7.1-11.8-18.4-8.3-29s12.7-17.8 23.8-18.5l260.2-17.7 97.3-242c4.1-10.3 13.9-16.9 25-16.9s20.9 6.6 25 16.9l97.3 242 260.2 17.7c11 0.7 20.4 8 23.8 18.5 3.4 10.5 0.1 21.9-8.3 29l-47.1 39.4c-7.4 6.2-18.4 5.2-24.5-2.2-6.2-7.4-5.2-18.4 2.2-24.5l32-26.7-245.6-16.7c-10.2-0.7-19.3-7.3-23.1-16.8l-91.8-228.4-91.8 228.4c-3.8 9.5-12.9 16.1-23.1 16.8L151 432.8l188.8 157.9c7.9 6.6 11.3 17.2 8.8 27.2l-60 238.7L497 725.7c8.7-5.5 19.9-5.4 28.6 0l208.5 130.8-20.4-81c-2.3-9.3 3.3-18.8 12.7-21.1 9.3-2.3 18.8 3.3 21.1 12.7l25.2 100.1c2.7 10.7-1.3 21.8-10.3 28.3-4.7 3.3-10.2 5.1-15.8 5.1z" p-id="2928" fill="#E6C27C"></path><path d="M827.8 619.5H511.3c-9.4 0-17.1-7.6-17.1-17.1s7.6-17.1 17.1-17.1h316.5c9.4 0 17.1 7.6 17.1 17.1s-7.7 17.1-17.1 17.1z" p-id="2929" fill="#E6C27C"></path><path d="M748.4 698.9c-4.4 0-8.7-1.7-12.1-5-6.7-6.7-6.7-17.5 0-24.1l67.4-67.4-67.4-67.4c-6.7-6.7-6.7-17.5 0-24.1 6.7-6.7 17.5-6.7 24.1 0l79.4 79.4c6.7 6.7 6.7 17.5 0 24.1l-79.4 79.4c-3.3 3.4-7.6 5.1-12 5.1z" p-id="2930" fill="#E6C27C"></path></svg>