<?xml version="1.0" standalone="no"?><!DOCTYPE svg PUBLIC "-//W3C//DTD SVG 1.1//EN" "http://www.w3.org/Graphics/SVG/1.1/DTD/svg11.dtd"><svg class="icon" width="200px" height="200.00px" viewBox="0 0 1024 1024" version="1.1" xmlns="http://www.w3.org/2000/svg"><path d="M895.9 288.5v62.4h2.8c21.9 0 42.9 5.8 61.3 16.7v-79.1h-64.1z m-211.2 164v-164h-64.1v164H404.4v-164h-64.1v164H129.1v-164H65v388h-1v64h1v219h279.1l60.2-119.3v-99.7h49.9l30.4-60.8 17.6 17.5 20.7-20.7H404.4v-160h216.2V579l108.3-108.1 18.4-18.4h-62.6z m-344.4 443H129.1v-155h211.2v155z m0-219H129.1v-160h211.2v160zM898.7 640.7v-0.1l-2.8 2.8v33.1h-33.1l-64.1 64h97.2v155H684.7v-8.6l-145.3 72.6H960V579.4z" fill="#B2B2B2" /><path d="M684.7 879.3v-24.9l-12.5 12.5z" fill="#B2B2B2" /><path d="M896 288.5v62.4h1.8c22.3 0 43.6 6 62.2 17.3v-79.7h-64z m-767 0H65v608h-1v63h280.3l31.5-63H129v-608z m768.8 352.1l-1.8 1.8v254.1H664.9l-126 63H960V578.4l-62.2 62.2z" fill="#727272" /><path d="M937.4 431.3c-21.9-21.9-57.3-21.9-79.2 0l-39.6 39.6 39.1 39.1c0.2 0.2 0.4 0.4 0.5 0.6 0.2 0.2 0.4 0.4 0.6 0.5l39 39.1 39.6-39.6c21.9-22 21.9-57.4 0-79.3zM541.4 748.105l237.586-237.586 79.195 79.196L620.595 827.3zM422.6 946.1L581 866.9l-79.2-79.2z" fill="#5280C1" /><path d="M65 64.5h895v224H65z" fill="#5280C1" /></svg>