<?xml version="1.0" standalone="no"?><!DOCTYPE svg PUBLIC "-//W3C//DTD SVG 1.1//EN" "http://www.w3.org/Graphics/SVG/1.1/DTD/svg11.dtd"><svg t="1717395134777" class="icon" viewBox="0 0 1024 1024" version="1.1" xmlns="http://www.w3.org/2000/svg" p-id="4384" xmlns:xlink="http://www.w3.org/1999/xlink" width="200" height="200"><path d="M63.791373 162.429393l99.374288 0L163.165662 63.054081C108.480178 63.054081 63.791373 107.793028 63.791373 162.429393L63.791373 162.429393z" p-id="4385" fill="#497cad"></path><path d="M63.791373 559.926546 163.165662 559.926546 163.165662 460.552258 63.791373 460.552258 63.791373 559.926546Z" p-id="4386" fill="#497cad"></path><path d="M262.53995 957.423699 361.914238 957.423699 361.914238 858.04941 262.53995 858.04941 262.53995 957.423699Z" p-id="4387" fill="#497cad"></path><path d="M63.791373 361.177969 163.165662 361.177969 163.165662 261.803681 63.791373 261.803681 63.791373 361.177969Z" p-id="4388" fill="#497cad"></path><path d="M560.663838 63.054081 461.288526 63.054081 461.288526 162.429393 560.663838 162.429393 560.663838 63.054081Z" p-id="4389" fill="#497cad"></path><path d="M858.786703 63.054081l0 99.374288 99.374288 0C958.160991 107.793028 913.471163 63.054081 858.786703 63.054081L858.786703 63.054081z" p-id="4390" fill="#497cad"></path><path d="M163.165662 957.423699l0-99.374288L63.791373 858.04941C63.791373 912.686798 108.480178 957.423699 163.165662 957.423699L163.165662 957.423699z" p-id="4391" fill="#497cad"></path><path d="M63.791373 758.676146 163.165662 758.676146 163.165662 659.300834 63.791373 659.300834 63.791373 758.676146Z" p-id="4392" fill="#497cad"></path><path d="M361.914238 63.054081 262.53995 63.054081 262.53995 162.429393 361.914238 162.429393 361.914238 63.054081Z" p-id="4393" fill="#497cad"></path><path d="M461.288526 957.423699 560.663838 957.423699 560.663838 858.04941 461.288526 858.04941 461.288526 957.423699Z" p-id="4394" fill="#497cad"></path><path d="M858.786703 559.926546 958.160991 559.926546 958.160991 460.552258 858.786703 460.552258 858.786703 559.926546Z" p-id="4395" fill="#497cad"></path><path d="M858.786703 957.423699c54.68446 0 99.374288-44.737924 99.374288-99.374288l-99.374288 0L858.786703 957.423699 858.786703 957.423699z" p-id="4396" fill="#497cad"></path><path d="M858.786703 361.177969 958.160991 361.177969 958.160991 261.803681 858.786703 261.803681 858.786703 361.177969Z" p-id="4397" fill="#497cad"></path><path d="M858.786703 758.676146 958.160991 758.676146 958.160991 659.300834 858.786703 659.300834 858.786703 758.676146Z" p-id="4398" fill="#497cad"></path><path d="M660.038126 957.423699 759.411391 957.423699 759.411391 858.04941 660.038126 858.04941 660.038126 957.423699Z" p-id="4399" fill="#497cad"></path><path d="M660.038126 162.429393 759.411391 162.429393 759.411391 63.054081 660.038126 63.054081 660.038126 162.429393Z" p-id="4400" fill="#497cad"></path><path d="M262.53995 261.803681l0 496.872464 496.871441 0L759.411391 261.803681 262.53995 261.803681zM660.038126 659.300834 361.914238 659.300834 361.914238 361.177969l298.122865 0L660.037103 659.300834z" p-id="4401" fill="#497cad"></path></svg>