<?xml version="1.0" encoding="utf-8"?>
<!-- Generator: Adobe Illustrator 16.0.0, SVG Export Plug-In . SVG Version: 6.00 Build 0)  -->
<!DOCTYPE svg PUBLIC "-//W3C//DTD SVG 1.1//EN" "http://www.w3.org/Graphics/SVG/1.1/DTD/svg11.dtd">
<svg version="1.1" id="图层_1" xmlns="http://www.w3.org/2000/svg" xmlns:xlink="http://www.w3.org/1999/xlink" x="0px" y="0px"
	 width="200px" height="200px" viewBox="0 0 200 200" enable-background="new 0 0 200 200" xml:space="preserve">
<path fill="#727272" d="M38.565,101.226c-17.374,0-31.492-14.118-31.492-31.492c0-17.374,14.118-31.492,31.492-31.492
	s31.47,14.118,31.47,31.492C70.036,87.108,55.917,101.226,38.565,101.226z"/>
<path fill="#BDCDE8" d="M38.565,58.18c-6.356,0-11.531,5.175-11.531,11.531c0,6.356,5.174,11.531,11.531,11.531
	c6.357,0,11.531-5.175,11.531-11.531C50.097,63.355,44.922,58.18,38.565,58.18z"/>
<path fill="#727272" d="M99.989,157.229c-17.375,0-31.492-14.118-31.492-31.491c0-17.375,14.118-31.493,31.492-31.493
	c17.374,0,31.492,14.118,31.492,31.493C131.481,143.111,117.363,157.229,99.989,157.229z"/>
<path fill="#BDCDE8" d="M99.989,114.207c-6.357,0-11.531,5.174-11.531,11.531c0,6.355,5.174,11.529,11.531,11.529
	c6.356,0,11.53-5.174,11.53-11.529C111.542,119.381,106.368,114.207,99.989,114.207z"/>
<path fill="#727272" d="M161.435,101.226c-17.374,0-31.492-14.118-31.492-31.492c0-17.374,14.141-31.492,31.492-31.492
	c17.353,0,31.492,14.118,31.492,31.492C192.927,87.108,178.809,101.226,161.435,101.226z"/>
<path fill="#BDCDE8" d="M161.435,58.18c-6.356,0-11.53,5.175-11.53,11.531c0,6.356,5.174,11.531,11.53,11.531
	c6.357,0,11.53-5.175,11.53-11.531C172.965,63.355,167.792,58.18,161.435,58.18z"/>
<path fill="#5280C1" d="M161.435,192.269c-5.509,0-9.97-4.461-9.97-9.971V115.79c0-5.509,4.461-9.97,9.97-9.97
	c5.51,0,9.97,4.461,9.97,9.97v66.486C171.404,187.808,166.944,192.269,161.435,192.269z"/>
<path fill="#5280C1" d="M161.435,33.692c-5.509,0-9.97-4.461-9.97-9.97V17.7c0-5.509,4.461-9.97,9.97-9.97
	c5.51,0,9.97,4.46,9.97,9.97v6.022C171.404,29.23,166.944,33.692,161.435,33.692z"/>
<path fill="#5280C1" d="M38.565,192.269c-5.509,0-9.97-4.461-9.97-9.971V115.79c0-5.509,4.461-9.97,9.97-9.97
	c5.509,0,9.97,4.461,9.97,9.97v66.486C48.535,187.808,44.075,192.269,38.565,192.269z"/>
<path fill="#5280C1" d="M38.565,33.692c-5.509,0-9.97-4.461-9.97-9.97V17.7c0-5.509,4.461-9.97,9.97-9.97
	c5.509,0,9.97,4.46,9.97,9.97v6.022C48.535,29.23,44.075,33.692,38.565,33.692z"/>
<path fill="#5280C1" d="M99.989,89.65c-5.51,0-9.97-4.46-9.97-9.969V17.7c0-5.509,4.46-9.97,9.97-9.97c5.509,0,9.97,4.46,9.97,9.97
	v61.959C109.98,85.168,105.498,89.65,99.989,89.65z"/>
<path fill="#5280C1" d="M99.989,192.269c-5.51,0-9.97-4.461-9.97-9.971v-10.526c0-5.509,4.46-9.97,9.97-9.97
	c5.509,0,9.97,4.461,9.97,9.97v10.526C109.98,187.808,105.498,192.269,99.989,192.269z"/>
</svg>
