<?xml version="1.0" standalone="no"?><!DOCTYPE svg PUBLIC "-//W3C//DTD SVG 1.1//EN" "http://www.w3.org/Graphics/SVG/1.1/DTD/svg11.dtd"><svg t="1655281375898" class="icon" viewBox="0 0 1024 1024" version="1.1" xmlns="http://www.w3.org/2000/svg" p-id="9116" xmlns:xlink="http://www.w3.org/1999/xlink" width="200" height="200"><defs><style type="text/css">@font-face { font-family: feedback-iconfont; src: url("//at.alicdn.com/t/font_1031158_u69w8yhxdu.woff2?t=1630033759944") format("woff2"), url("//at.alicdn.com/t/font_1031158_u69w8yhxdu.woff?t=1630033759944") format("woff"), url("//at.alicdn.com/t/font_1031158_u69w8yhxdu.ttf?t=1630033759944") format("truetype"); }
</style></defs><path d="M298.666667 768h298.666666v-128a85.333333 85.333333 0 0 1 85.333334-85.333333h128V256a85.333333 85.333333 0 0 1-85.333334-85.333333h-298.666666v128a85.333333 85.333333 0 0 1-85.333334 85.333333H85.333333a85.333333 85.333333 0 0 1-85.333333-85.333333V128a85.333333 85.333333 0 0 1 85.333333-85.333333h256a85.333333 85.333333 0 0 1 85.333334 85.333333h310.101333A85.333333 85.333333 0 1 1 853.333333 244.565333V554.666667h85.333334a85.333333 85.333333 0 0 1 85.333333 85.333333v170.666667a85.333333 85.333333 0 0 1-85.333333 85.333333h-256a85.333333 85.333333 0 0 1-85.333334-85.333333H287.232A85.333333 85.333333 0 1 1 170.666667 694.101333V469.333333H106.666667a21.333333 21.333333 0 1 1 0-42.666666h213.333333a21.333333 21.333333 0 1 1 0 42.666666H213.333333v213.333334a85.333333 85.333333 0 0 1 85.333334 85.333333zM85.333333 85.333333a42.666667 42.666667 0 0 0-42.666666 42.666667v170.666667a42.666667 42.666667 0 0 0 42.666666 42.666666h256a42.666667 42.666667 0 0 0 42.666667-42.666666V128a42.666667 42.666667 0 0 0-42.666667-42.666667H85.333333z m597.333334 512a42.666667 42.666667 0 0 0-42.666667 42.666667v170.666667a42.666667 42.666667 0 0 0 42.666667 42.666666h256a42.666667 42.666667 0 0 0 42.666666-42.666666v-170.666667a42.666667 42.666667 0 0 0-42.666666-42.666667h-256z m21.333333 341.333334h213.333333a21.333333 21.333333 0 1 1 0 42.666666h-213.333333a21.333333 21.333333 0 1 1 0-42.666666zM810.666667 213.333333a42.666667 42.666667 0 1 0 0-85.333333 42.666667 42.666667 0 0 0 0 85.333333zM213.333333 810.666667a42.666667 42.666667 0 1 0 0-85.333334 42.666667 42.666667 0 0 0 0 85.333334z" p-id="9117" fill="#497cad"></path></svg>