<?xml version="1.0" standalone="no"?><!DOCTYPE svg PUBLIC "-//W3C//DTD SVG 1.1//EN" "http://www.w3.org/Graphics/SVG/1.1/DTD/svg11.dtd"><svg t="1684245826996" class="icon" viewBox="0 0 1024 1024" version="1.1" xmlns="http://www.w3.org/2000/svg" p-id="2389" xmlns:xlink="http://www.w3.org/1999/xlink" width="64" height="64"><path d="M358.4 479.992686H121.592686C57.636571 479.992686 0 422.414629 0 358.4V121.592686C0 57.636571 57.607314 0 121.592686 0h230.4c70.392686 0 121.592686 57.607314 121.592685 121.592686v230.4c6.436571 70.392686-51.2 128-115.185371 128zM121.592686 64.014629a57.344 57.344 0 0 0-57.578057 57.578057v230.4A57.344 57.344 0 0 0 121.563429 409.6h230.4A57.344 57.344 0 0 0 409.6 351.992686V121.592686c6.407314-31.978057-19.192686-57.578057-51.2-57.578057H121.592686zM358.4 1024H121.592686C57.636571 1024 0 966.392686 0 902.407314v-230.4c0-70.421943 57.607314-121.621943 121.592686-121.621943h230.4c70.392686 0 121.592686 57.636571 121.592685 121.621943v230.4C480.021943 966.363429 422.414629 1024 358.4 1024zM121.592686 607.992686a57.344 57.344 0 0 0-57.578057 57.607314v230.4c0 38.414629 25.570743 64.014629 57.578057 64.014629h230.4A57.344 57.344 0 0 0 409.6 902.378057V672.036571A57.344 57.344 0 0 0 351.992686 614.4H121.592686v-6.407314zM780.814629 1024a243.0976 243.0976 0 0 1-243.214629-243.214629 243.0976 243.0976 0 0 1 243.214629-243.185371A243.0976 243.0976 0 0 1 1024 780.814629 243.0976 243.0976 0 0 1 780.785371 1024z m0-416.007314c-96.021943 0-179.2 76.8-179.2 179.2s76.8 179.2 179.2 179.2 179.2-76.8 179.2-179.2-76.829257-179.2-179.229258-179.2z m121.592685-128h-230.4c-70.421943 0-121.621943-57.578057-121.621943-121.592686V121.592686C544.036571 57.636571 601.614629 0 665.6 0h230.4C966.392686 0 1024 57.607314 1024 121.592686v230.4c0 70.392686-57.607314 128-121.592686 128zM665.6 64.014629a57.344 57.344 0 0 0-57.607314 57.578057v230.4A57.344 57.344 0 0 0 665.6 409.6h230.4a57.344 57.344 0 0 0 57.607314-57.607314V121.592686c6.378057-31.978057-19.221943-57.578057-51.2-57.578057H665.6z" fill="#497cad" p-id="2390"></path></svg>