<?xml version="1.0" encoding="utf-8"?>
<!-- Generator: Adobe Illustrator 21.0.0, SVG Export Plug-In . SVG Version: 6.00 Build 0)  -->
<svg version="1.1" xmlns="http://www.w3.org/2000/svg" xmlns:xlink="http://www.w3.org/1999/xlink" x="0px" y="0px"
	 viewBox="0 0 200 200" style="enable-background:new 0 0 200 200;" xml:space="preserve">
<style type="text/css">
	.st0{fill:#727272;}
	.st1{fill:#BFD1EB;}
	.st2{fill:#497CAD;}
</style>
<path class="st0" d="M167.2,78.7h-59.4c-4.3,0-7.8,3.5-7.8,7.8V93H41.8V61.7c8.4-3.9,12.1-13.9,8.2-22.3s-13.9-12.1-22.3-8.2
	s-12.1,13.9-8.2,22.3c1.7,3.6,4.6,6.5,8.2,8.2v98c0,0.4,0.3,0.8,0.8,0.8H100v6.4c0,4.3,3.5,7.8,7.8,7.8h59.4c4.3,0,7.8-3.5,7.8-7.8
	v-27c0-4.3-3.5-7.8-7.8-7.8h-59.4c-4.3,0-7.8,3.5-7.8,7.8v6.4H41.8V107H100v6.4c0,4.3,3.5,7.8,7.8,7.8h59.4c4.3,0,7.8-3.5,7.8-7.8
	v-27C175,82.2,171.5,78.7,167.2,78.7z"/>
<rect x="114.1" y="146.3" class="st1" width="46.9" height="14.5"/>
<rect x="114.1" y="92.8" class="st1" width="46.9" height="14.5"/>
<path class="st2" d="M167.2,25.2H70.3c-4.3,0-7.8,3.5-7.8,7.8v27c0,4.3,3.5,7.8,7.8,7.8h96.9c4.3,0,7.8-3.5,7.8-7.8V33
	C175,28.7,171.5,25.2,167.2,25.2z"/>
<rect x="76.6" y="39.3" class="st1" width="84.4" height="14.5"/>
</svg>
