<?xml version="1.0" encoding="utf-8"?>
<!-- Generator: Adobe Illustrator 16.0.0, SVG Export Plug-In . SVG Version: 6.00 Build 0)  -->
<!DOCTYPE svg PUBLIC "-//W3C//DTD SVG 1.1//EN" "http://www.w3.org/Graphics/SVG/1.1/DTD/svg11.dtd">
<svg version="1.1"
	 id="svg709" xmlns:inkscape="http://www.inkscape.org/namespaces/inkscape" xmlns:sodipodi="http://sodipodi.sourceforge.net/DTD/sodipodi-0.dtd" xmlns:svg="http://www.w3.org/2000/svg" inkscape:version="1.2 (dc2aedaf03, 2022-05-15)" sodipodi:docname="zoomIn.svg"
	 xmlns="http://www.w3.org/2000/svg" xmlns:xlink="http://www.w3.org/1999/xlink" x="0px" y="0px" width="200px" height="200px"
	 viewBox="0 0 200 200" enable-background="new 0 0 200 200" xml:space="preserve">
<sodipodi:namedview  id="namedview711" bordercolor="#000000" inkscape:cy="100" pagecolor="#ffffff" inkscape:cx="103.49162" inkscape:zoom="3.58" showgrid="false" borderopacity="0.25" inkscape:window-maximized="1" inkscape:pagecheckerboard="0" inkscape:current-layer="svg709" inkscape:window-y="-8" inkscape:window-x="-8" inkscape:window-height="961" inkscape:window-width="1280" inkscape:deskcolor="#d1d1d1" inkscape:pageopacity="0.0" inkscape:showpageshadow="2">
	</sodipodi:namedview>
<path id="path701" fill="#727272" d="M152.45,154.4c33.036-31.39,34.37-83.617,2.98-116.652
	C124.041,4.712,71.814,3.377,38.778,34.767c-0.324,0.308-0.646,0.619-0.966,0.933c-32.364,32.082-32.592,84.325-0.51,116.688
	c31.49,31.767,82.555,32.658,115.135,2.012H152.45z M161.125,163.4c-37.748,36.45-97.899,35.398-134.35-2.351
	S-8.624,63.151,29.125,26.7c37.749-36.451,97.899-35.399,134.35,2.35C199.926,66.799,198.873,126.949,161.125,163.4L161.125,163.4z"
	/>
<path id="path703" fill="#727272" d="M156.375,164.95c-2.398-2.485-2.329-6.444,0.156-8.844s6.445-2.329,8.844,0.156L197,189.013
	c2.398,2.485,2.329,6.444-0.156,8.844s-6.445,2.329-8.844-0.156l0,0L156.375,164.95z"/>
<path id="path705" fill="#669E8B" d="M131.45,89.175c3.452,0,6.25,2.798,6.25,6.25c0,3.452-2.798,6.25-6.25,6.25h-68.3
	c-3.452,0-6.25-2.798-6.25-6.25c0-3.452,2.798-6.25,6.25-6.25H131.45L131.45,89.175z"/>
<path id="path707" fill="#669E8B" d="M103.55,129.575c0,3.452-2.798,6.25-6.25,6.25c-3.452,0-6.25-2.798-6.25-6.25v-68.3
	c0-3.452,2.798-6.25,6.25-6.25c3.452,0,6.25,2.798,6.25,6.25V129.575z"/>
</svg>
