<?xml version="1.0" standalone="no"?><!DOCTYPE svg PUBLIC "-//W3C//DTD SVG 1.1//EN" "http://www.w3.org/Graphics/SVG/1.1/DTD/svg11.dtd"><svg t="1710001140509" class="icon" viewBox="0 0 1024 1024" version="1.1" xmlns="http://www.w3.org/2000/svg" p-id="20415" xmlns:xlink="http://www.w3.org/1999/xlink" width="200" height="200"><path d="M485.9904 848.808229c57.870629 4.622629 109.919086 27.677257 156.233143 78.379885v4.622629s28.906057 36.864 75.190857 36.864c40.491886 0 80.983771-18.432 127.268571-55.296 0 0 69.4272-55.354514 179.346286-41.515886v64.541257c-75.190857-18.432-121.504914 18.432-121.504914 18.432C844.682971 1000.945371 792.605257 1024 734.763886 1024h-17.349486c-75.190857-4.622629-121.504914-55.296-127.268571-64.541257-34.728229-32.270629-69.4272-50.702629-98.362515-50.702629-34.728229 0-63.634286 13.809371-69.4272 18.432C352.928914 991.729371 295.087543 1024 237.216914 1024c-69.4272 0-115.682743-46.109257-144.618057-73.757257-5.792914-9.216-17.349486-18.432-23.1424-18.432-17.349486-13.838629-57.870629 0-69.4272 4.593371V871.862857c34.698971-9.216 80.983771-13.838629 121.504914 13.838629 11.556571 9.216 17.349486 18.432 28.906058 27.648 23.1424 23.054629 52.077714 50.731886 86.776685 50.731885 34.728229 0 75.220114-27.677257 121.504915-73.786514v-4.593371s52.077714-41.486629 127.268571-36.864z m5.792914-234.057143c57.841371 4.622629 109.919086 27.677257 156.203886 78.379885v4.622629s28.935314 36.864 75.190857 36.864c34.728229 0 75.220114-18.432 121.504914-55.296 0 0 69.4272-55.354514 179.346286-41.515886v64.541257c-75.190857-18.432-121.504914 18.432-121.504914 18.432C844.682971 766.888229 792.605257 789.942857 734.763886 789.942857h-17.349486c-75.190857-4.622629-121.504914-55.296-127.268571-64.541257-34.728229-32.270629-69.4272-50.702629-98.362515-50.702629-40.491886-4.622629-69.4272 13.809371-75.190857 18.432C352.899657 757.672229 295.058286 789.942857 237.216914 789.942857c-69.456457 0-115.712-46.109257-144.647314-73.757257-5.792914-9.216-17.349486-18.432-23.1424-18.432-17.349486-13.838629-57.870629 0-69.4272 4.593371v-69.134628c34.698971-9.245257 80.983771-13.838629 121.504914 13.809371 5.763657 9.216 17.349486 18.432 28.906057 32.270629 23.1424 23.054629 52.077714 50.731886 86.776686 50.731886 34.728229 0 75.220114-27.677257 121.504914-73.786515l5.792915-4.593371s52.077714-41.486629 127.268571-36.864zM121.534171 415.744l1.170286 0.994743A234.847086 234.847086 0 0 0 117.057829 468.114286c0 12.990171 1.521371 25.951086 4.5056 38.560914-11.117714-8.894171-20.743314-17.788343-28.964572-25.248914l-23.1424-17.525029c-17.349486-13.136457-57.870629 0-69.4272 4.388572V402.578286c34.698971-8.777143 80.983771-13.136457 121.504914 13.165714z m902.495086 0v56.963657c-63.546514-14.804114-106.437486 7.899429-118.198857 15.301486 0.789943-6.524343 1.170286-13.165714 1.170286-19.8656 0-15.242971-1.462857-30.164114-4.242286-44.617143 30.427429-9.333029 71.738514-15.681829 121.270857-7.7824z" fill="#455166" p-id="20416"></path><path d="M750.767543 324.169143V272.676571H541.2864V216.502857h87.771429V0h-246.345143v217.088H468.143543v56.173714H263.343543v131.657143H175.572114v224.109714h246.345143v-224.109714h-86.016v-65.887086h341.138286v65.887086h-85.430857v224.109714h246.345143v-224.109714h-87.771429z" fill="#455166" p-id="20417"></path><path d="M433.620114 55.647086h146.285715v106.408228h-146.285715z" fill="#0078FF" p-id="20418"></path><path d="M228.820114 468.114286h146.285715v103.541028h-146.285715zM638.420114 468.114286h146.285715v103.570285h-146.285715z" fill="#FFFFFF" p-id="20419"></path></svg>