<?xml version="1.0" encoding="utf-8"?>
<!-- Generator: Adobe Illustrator 16.0.0, SVG Export Plug-In . SVG Version: 6.00 Build 0)  -->
<!DOCTYPE svg PUBLIC "-//W3C//DTD SVG 1.1//EN" "http://www.w3.org/Graphics/SVG/1.1/DTD/svg11.dtd">
<svg version="1.1" id="图层_1" xmlns="http://www.w3.org/2000/svg" xmlns:xlink="http://www.w3.org/1999/xlink" x="0px" y="0px"
	 width="32px" height="32px" viewBox="0 0 32 32" enable-background="new 0 0 32 32" xml:space="preserve">
<polygon fill="#727272" points="2.937,2.937 28.993,2.937 28.993,18.333 30.93,18.333 30.93,1 1,1 1,30.929 18.334,30.929 
	18.334,28.993 2.937,28.993 "/>
<rect x="5.76" y="12.516" fill="#E6C27C" width="3.449" height="2.071"/>
<rect x="5.76" y="6.533" fill="#669E8B" width="20.027" height="2.071"/>
<path fill="#5280C1" d="M26.329,24.641c0.73-1.08,1.12-2.354,1.116-3.658c0-3.617-2.934-6.55-6.552-6.55
	c-3.618,0-6.551,2.933-6.551,6.551c0,3.618,2.934,6.552,6.552,6.551c1.313,0,2.594-0.394,3.68-1.132l-0.023,0.016l0.311-0.213
	l5.619,5.618l1.227-1.228l-5.618-5.617L26.329,24.641z"/>
<path fill="#BDCDE8" d="M24.302,24.373c-1.876,1.88-4.921,1.883-6.801,0.007s-1.883-4.921-0.007-6.801
	c1.876-1.88,4.921-1.883,6.801-0.007c0.904,0.902,1.412,2.127,1.412,3.404v0.024c0.002,1.265-0.5,2.479-1.396,3.373L24.302,24.373z"
	/>
</svg>
