<?xml version="1.0" encoding="utf-8"?>
<!-- Generator: Adobe Illustrator 16.0.0, SVG Export Plug-In . SVG Version: 6.00 Build 0)  -->
<!DOCTYPE svg PUBLIC "-//W3C//DTD SVG 1.1//EN" "http://www.w3.org/Graphics/SVG/1.1/DTD/svg11.dtd">
<svg version="1.1" id="图层_1" xmlns="http://www.w3.org/2000/svg" xmlns:xlink="http://www.w3.org/1999/xlink" x="0px" y="0px"
	 width="287.709px" height="283.592px" viewBox="3.104 -90.939 287.709 283.592"
	 enable-background="new 3.104 -90.939 287.709 283.592" xml:space="preserve">
<rect x="14.891" y="-25.167" fill="#5280C1" width="119.333" height="114"/>
<rect x="26.558" y="-11.167" fill="#BDCDE8" width="94" height="89.667"/>
<path fill="#727272" d="M181.466,130.351l29.552-12.181l4.477,9.979l-29.552,12.181L181.466,130.351z"/>
<path fill="#BDCDE8" d="M7.294,146.16c0,16.781,13.604,30.383,30.383,30.383c16.781,0,30.383-13.602,30.383-30.383
	c0-16.78-13.603-30.384-30.383-30.384C20.898,115.776,7.294,129.38,7.294,146.16L7.294,146.16z"/>
<path fill="#727272" d="M37.678,180.574c-19.05,0.043-34.529-15.363-34.574-34.414c-0.044-19.05,15.362-34.528,34.413-34.574
	c19.05-0.044,34.529,15.363,34.574,34.414c0,0.053,0,0.107,0,0.16C72.047,165.148,56.666,180.528,37.678,180.574z M37.678,119.727
	c-14.599-0.045-26.47,11.755-26.515,26.354s11.755,26.47,26.354,26.515c14.599,0.044,26.47-11.755,26.515-26.354
	c0-0.026,0-0.054,0-0.081C64.032,131.593,52.246,119.771,37.678,119.727z"/>
<text transform="matrix(1.0677 0 0 1 143.8369 25.2656)" fill="#727272" font-family="'TimesNewRomanPS-BoldMT'" font-size="136.2479">Z</text>
<path fill="#727272" d="M39.487,116.374l16.101-51.746l9.932,2.904l-16.103,51.745L39.487,116.374z"/>
<path fill="#727272" d="M128.634,125.688L89.834,63.445l7.901-5.053l38.799,62.244L128.634,125.688z"/>
<path fill="#E6C27C" d="M42.174,33.905c0,18.329,14.858,33.185,33.185,33.185c18.328,0,33.185-14.856,33.185-33.185
	c0-18.327-14.857-33.185-33.185-33.185C57.032,0.72,42.174,15.578,42.174,33.905L42.174,33.905z"/>
<path fill="#CE6043" d="M75.359,71.493c-20.807,0.047-37.713-16.78-37.762-37.588C37.549,13.098,54.377-3.806,75.184-3.857
	c20.807-0.049,37.712,16.78,37.762,37.588c0,0.057,0,0.117,0,0.174C112.898,54.644,96.098,71.442,75.359,71.493z M75.359,5.034
	C59.415,4.986,46.448,17.873,46.4,33.818s12.839,28.911,28.784,28.959c15.945,0.049,28.911-12.838,28.959-28.783
	c0-0.028,0-0.059,0-0.089C104.144,17.995,91.271,5.083,75.359,5.034z"/>
<path fill="#BDCDE8" d="M211.515,107.687c0,19.214,15.575,34.787,34.788,34.787c19.214,0,34.787-15.573,34.787-34.787
	c0-19.213-15.573-34.788-34.787-34.788C227.09,72.898,211.515,88.474,211.515,107.687L211.515,107.687z"/>
<path fill="#727272" d="M246.303,147.089c-21.812,0.049-39.534-17.59-39.585-39.402c-0.052-21.812,17.588-39.534,39.401-39.586
	c21.812-0.05,39.534,17.59,39.586,39.402c0,0.061,0,0.123,0,0.184C285.653,129.427,268.043,147.036,246.303,147.089z
	 M246.303,77.421c-16.716-0.051-30.307,13.459-30.358,30.174c-0.051,16.715,13.459,30.307,30.175,30.358
	c16.714,0.05,30.307-13.459,30.357-30.174c0-0.03,0-0.062,0-0.093C276.477,91.008,262.982,77.471,246.303,77.421z"/>
<path fill="#BDCDE8" d="M116.354,151.868c0,19.214,15.575,34.787,34.788,34.787c19.214,0,34.787-15.573,34.787-34.787
	c0-19.213-15.573-34.788-34.787-34.788C131.93,117.08,116.354,132.655,116.354,151.868L116.354,151.868z"/>
<path fill="#727272" d="M151.143,191.271c-21.812,0.049-39.534-17.59-39.585-39.402c-0.052-21.812,17.588-39.534,39.401-39.586
	c21.812-0.05,39.534,17.59,39.586,39.402c0,0.061,0,0.123,0,0.184C190.493,173.608,172.883,191.218,151.143,191.271z
	 M151.143,121.603c-16.716-0.052-30.307,13.459-30.358,30.174c-0.051,16.715,13.459,30.307,30.175,30.358
	c16.714,0.05,30.307-13.459,30.357-30.174c0-0.03,0-0.062,0-0.093C181.316,135.189,167.822,121.652,151.143,121.603z"/>
</svg>
