<?xml version="1.0" encoding="utf-8"?>
<!-- Generator: Adobe Illustrator 16.0.0, SVG Export Plug-In . SVG Version: 6.00 Build 0)  -->
<!DOCTYPE svg PUBLIC "-//W3C//DTD SVG 1.1//EN" "http://www.w3.org/Graphics/SVG/1.1/DTD/svg11.dtd">
<svg version="1.1" id="图层_1" xmlns="http://www.w3.org/2000/svg" xmlns:xlink="http://www.w3.org/1999/xlink" x="0px" y="0px"
	 width="128px" height="128px" viewBox="0 0 128 128" enable-background="new 0 0 128 128" xml:space="preserve">
<path fill="#5280C1" d="M16,21.333c-2.945,0-5.333,2.388-5.333,5.333V36c0,2.945,2.388,5.333,5.333,5.333s5.333-2.388,5.333-5.333
	v-9.333C21.333,23.721,18.945,21.333,16,21.333"/>
<path fill="#5280C1" d="M16,49.333c-2.945,0-5.333,2.388-5.333,5.333v18.667c0,2.945,2.388,5.332,5.333,5.332
	s5.333-2.387,5.333-5.332V54.667C21.333,51.721,18.945,49.333,16,49.333"/>
<path fill="#5280C1" d="M16,86.666c-2.945,0-5.333,2.389-5.333,5.334v9.334c0,2.945,2.388,5.332,5.333,5.332
	s5.333-2.387,5.333-5.332V92C21.333,89.055,18.945,86.666,16,86.666"/>
<path fill="#5280C1" d="M112,21.333c-2.945,0-5.334,2.388-5.334,5.333v74.667c0,2.945,2.389,5.332,5.334,5.332
	s5.334-2.387,5.334-5.332V26.667C117.334,23.721,114.945,21.333,112,21.333"/>
<path fill="#669E8B" d="M28.229,67.771c-2.082-2.083-2.082-5.458,0-7.541l26.667-26.667c2.046-2.119,5.423-2.177,7.542-0.131
	c2.119,2.046,2.178,5.423,0.131,7.542c-0.043,0.044-0.086,0.088-0.131,0.131L44.875,58.667H96c2.945,0,5.334,2.388,5.334,5.333
	S98.945,69.334,96,69.334H44.875l17.563,17.563c2.046,2.118,1.987,5.494-0.131,7.541c-2.067,1.996-5.343,1.996-7.41,0L28.229,67.771
	z"/>
</svg>
