<?xml version="1.0" encoding="utf-8"?>
<!-- Generator: Adobe Illustrator 16.0.0, SVG Export Plug-In . SVG Version: 6.00 Build 0)  -->
<!DOCTYPE svg PUBLIC "-//W3C//DTD SVG 1.1//EN" "http://www.w3.org/Graphics/SVG/1.1/DTD/svg11.dtd">
<svg version="1.1" id="图层_1" xmlns="http://www.w3.org/2000/svg" xmlns:xlink="http://www.w3.org/1999/xlink" x="0px" y="0px"
	 width="200px" height="200px" viewBox="0 0 200 200" enable-background="new 0 0 200 200" xml:space="preserve">
<path fill="#727272" d="M111.628,69.652H78.593L67.582,91.411c-1.058,1.674-2.996,2.378-4.317,1.321
	c-1.674-1.058-2.378-2.995-1.321-4.317l29.423-58.141c1.938-4.053,7.047-4.053,8.985,0l27.749,58.141
	c0.617,1.674,0,3.701-1.673,4.317c-1.674,0.616-3.7,0-4.316-1.674L111.628,69.652z M108.633,62.957L95.947,36.265L82.293,62.957
	H108.633L108.633,62.957z M68.198,167.611l43.782-45.456H71.458c-1.938,0-3.347-1.321-3.347-3.348s1.321-3.348,3.347-3.348h45.016
	c4.668,0,6.695,4.669,3.348,8.017l-43.783,45.456h43.783c1.938,0,3.347,1.322,3.347,3.348c0,1.938-1.321,3.348-3.347,3.348H71.458
	C66.877,175.628,64.763,170.959,68.198,167.611z"/>
<path fill="#727272" stroke="#727272" stroke-miterlimit="10" d="M119.821,176.509H71.458c-2.554,0-4.669-1.322-5.462-3.348
	c-0.88-2.026-0.264-4.405,1.586-6.167l42.373-43.958H71.458c-2.467,0-4.228-1.762-4.228-4.229c0-2.554,1.674-4.229,4.228-4.229
	h45.016c2.555,0,4.668,1.233,5.55,3.348c0.881,2.026,0.264,4.404-1.498,6.166l-42.373,43.959h41.668
	c2.466,0,4.229,1.762,4.229,4.229C124.05,174.746,122.287,176.509,119.821,176.509z M71.458,116.342
	c-1.585,0-2.467,0.881-2.467,2.466c0,1.498,0.969,2.467,2.467,2.467h42.637l-45.28,46.953c-1.321,1.321-1.762,2.907-1.233,4.229
	c0.616,1.409,2.114,2.289,3.875,2.289h48.364c1.496,0,2.466-0.969,2.466-2.466c0-1.498-0.97-2.467-2.466-2.467H73.924l45.191-46.953
	c1.322-1.321,1.763-2.907,1.146-4.316c-0.616-1.41-2.026-2.202-3.875-2.202H71.458z M64.674,94.142
	c-0.705,0-1.409-0.265-1.938-0.616c-1.145-0.705-1.938-1.851-2.114-3.083c-0.176-0.882,0.088-1.763,0.617-2.467l29.423-58.053
	c1.057-2.203,2.995-3.524,5.285-3.524c2.291,0,4.229,1.321,5.285,3.524l27.749,58.141c0.882,2.291-0.087,4.757-2.202,5.55
	c-2.202,0.793-4.668-0.177-5.462-2.114L111.1,70.533H79.122L68.375,91.852c-0.792,1.233-1.938,2.025-3.083,2.29
	C65.115,94.054,64.851,94.142,64.674,94.142z M95.859,28.16c-1.585,0-2.907,0.969-3.7,2.555L62.648,88.856v0.088
	c-0.265,0.353-0.353,0.705-0.265,1.146c0.088,0.704,0.617,1.409,1.41,1.85l0.088,0.088c0.353,0.265,0.705,0.353,1.145,0.265
	c0.705-0.089,1.41-0.617,1.85-1.41l11.188-22.199h34.093l10.747,22.023c0.44,1.233,2.025,1.586,3.171,1.146
	c1.233-0.44,1.586-2.026,1.146-3.172L99.559,30.627C98.767,29.041,97.445,28.16,95.859,28.16z M110.042,63.838H80.883l15.152-29.599
	L110.042,63.838L110.042,63.838z M83.703,62.076h23.52L95.859,38.291L83.703,62.076z"/>
<path fill="#5280C1" d="M43.532,188.577c-10.571,0-19.204-8.633-19.204-19.204V30.627c0-10.571,8.633-19.204,19.204-19.204h115.666
	c10.219,0,18.588,8.369,18.588,18.587c0,2.467-1.938,4.405-4.405,4.405s-4.404-1.938-4.404-4.405c0-5.373-4.405-9.778-9.778-9.778
	H43.532c-5.726,0-10.395,4.669-10.395,10.395v138.746c0,5.726,4.669,10.395,10.395,10.395c2.467,0,4.405,1.938,4.405,4.405
	C47.937,186.64,45.999,188.577,43.532,188.577z"/>
<path fill="#669E8B" stroke="#669E8B" stroke-miterlimit="10" d="M185.626,65.688l-16.033-21.495L168.8,43.4
	c-0.088-0.088-0.177-0.088-0.264-0.176h-0.088c-0.089,0-0.176-0.088-0.176-0.088c-0.089,0-0.177-0.088-0.265-0.088h-0.089
	c-0.088,0-0.176-0.088-0.265-0.088c-0.088,0-0.264,0-0.264-0.087h-1.497c-0.088,0-0.177,0-0.177,0.087
	c-0.088,0-0.176,0.088-0.265,0.088l-0.088,0.088c-0.089,0-0.176,0.088-0.264,0.088h-0.089c-0.087,0.088-0.175,0.088-0.264,0.176
	c0,0-0.088,0.088-0.177,0.088c-0.088,0-0.088,0.088-0.176,0.088l-0.264,0.265l-0.265,0.264c-0.088,0.088-0.176,0.176-0.176,0.264
	s-0.089,0.177-0.177,0.264c0,0.088-0.088,0.088-0.088,0.177c0,0,0,0.087-0.089,0.176c0,0.088-0.088,0.176-0.088,0.264
	c-0.176,0.353-0.264,0.705-0.264,1.057v93.907c0,0.177,0,0.266,0.088,0.353v29.6l-10.131-13.391
	c-1.146-1.498-3.26-1.762-4.757-0.704c-1.498,1.057-1.762,3.259-0.705,4.756l16.121,21.496l0.793,0.792
	c0.088,0.089,0.176,0.089,0.265,0.177l0.088,0.088c0.089,0,0.177,0.089,0.177,0.089c0.087,0,0.176,0.087,0.264,0.087h0.088
	c0.088,0,0.176,0.088,0.265,0.088c0.088,0,0.265,0,0.265,0.089h1.408c0.089,0,0.177,0,0.177-0.089c0.089,0,0.176-0.088,0.264-0.088
	l0.089-0.087c0.088,0,0.176-0.089,0.265-0.089h0.088c0.088-0.088,0.177-0.088,0.264-0.176c0,0,0.089-0.089,0.177-0.089
	c0,0,0.087-0.088,0.176-0.088l0.265-0.265l0.265-0.264c0.088-0.089,0.176-0.176,0.176-0.264v-0.089c0-0.088,0.088-0.177,0.176-0.265
	c0-0.088,0.088-0.088,0.088-0.177c0,0,0-0.088,0.088-0.175c0-0.089,0.089-0.177,0.089-0.265c0.176-0.353,0.265-0.705,0.265-1.058
	V86.302c0-0.177,0-0.265-0.089-0.353V56.35l10.131,13.39c1.146,1.497,3.26,1.762,4.757,0.705
	C186.33,69.3,186.771,67.185,185.626,65.688z"/>
<path fill="#669E8B" stroke="#669E8B" stroke-miterlimit="10" d="M167.214,184.612h-2.289v-0.175c-0.088,0-0.088,0-0.177-0.089
	h-0.177l-0.088-0.088h-0.088l-0.264-0.265c-0.089-0.088-0.177-0.088-0.353-0.264l-0.882-0.882l-16.121-21.494
	c-1.409-1.938-0.969-4.669,0.882-5.99c1.938-1.321,4.58-0.969,5.99,0.881l8.545,11.275v-26.779c-0.089-0.264-0.089-0.44-0.089-0.617
	V46.307c0-0.44,0.089-0.881,0.265-1.321c0-0.088,0-0.088,0.089-0.176v-0.177l0.176-0.176v-0.264l0.264-0.265
	c0.089-0.264,0.265-0.44,0.353-0.528l0.793-0.793h0.264c0.089-0.088,0.177-0.088,0.177-0.088l0.177-0.176h0.265l0.176-0.176h0.175
	c0.177-0.088,0.354-0.176,0.618-0.176h2.379v0.176c0.087,0,0.087,0,0.176,0.088h0.175l0.089,0.088h0.176l0.177,0.176
	c0.089,0.088,0.177,0.088,0.353,0.264l0.881,0.881l16.032,21.495c1.41,1.762,0.969,4.493-0.881,5.99
	c-1.938,1.41-4.581,0.969-5.989-0.881l-8.546-11.276v26.78c0.088,0.264,0.088,0.44,0.088,0.617v93.906
	c0,0.44-0.088,0.882-0.264,1.321c0,0.088,0,0.088-0.088,0.177v0.176l-0.177,0.177v0.264l-0.176,0.177
	c-0.088,0.353-0.265,0.528-0.44,0.705l-0.793,0.792h-0.088l-0.089,0.089h-0.176l-0.089,0.088l-0.175,0.177h-0.265l-0.176,0.175
	h-0.177C167.743,184.525,167.479,184.612,167.214,184.612z M166.07,182.851h0.439v-0.088h0.704l0.177-0.176h0.176
	c0.088,0,0.177-0.088,0.177-0.088c0.088-0.089,0.176-0.176,0.353-0.176c0,0,0.088,0,0.088-0.088l0.353-0.354
	c0.087-0.265,0.176-0.44,0.264-0.528c0-0.088,0.088-0.176,0.088-0.264v-0.089l0.089-0.176c0.088-0.265,0.177-0.44,0.177-0.704V86.39
	l-0.089-0.088V53.707l11.716,15.504c0.882,1.057,2.379,1.321,3.524,0.529c0.88-0.793,1.41-2.291,0.528-3.524L168.8,44.81
	l-0.704-0.705c-0.177,0-0.265-0.088-0.353-0.176h-0.089c-0.176,0-0.264-0.088-0.352-0.088c-0.176,0-0.264,0-0.353-0.088h-0.353
	v0.088h-0.704l-0.177,0.176h-0.176c-0.089,0-0.177,0.088-0.177,0.088c-0.089,0.088-0.264,0.176-0.439,0.264l-0.354,0.353
	c-0.088,0.176-0.176,0.353-0.265,0.44c0,0.088-0.088,0.176-0.088,0.264v0.088l-0.087,0.176c-0.089,0.264-0.177,0.44-0.177,0.705
	v93.818l0.088,0.089v32.594l-11.717-15.505c-0.88-1.057-2.378-1.32-3.523-0.527c-1.058,0.792-1.321,2.379-0.528,3.523l16.032,21.406
	l0.705,0.705c0.089,0,0.177,0.088,0.264,0.176c0,0,0.089,0,0.089,0.088h0.088c0.177,0,0.265,0.088,0.354,0.088
	C165.894,182.763,165.981,182.851,166.07,182.851L166.07,182.851z"/>
</svg>
