<?xml version="1.0" encoding="utf-8"?>
<!-- Generator: Adobe Illustrator 16.0.0, SVG Export Plug-In . SVG Version: 6.00 Build 0)  -->
<!DOCTYPE svg PUBLIC "-//W3C//DTD SVG 1.1//EN" "http://www.w3.org/Graphics/SVG/1.1/DTD/svg11.dtd">
<svg version="1.1" id="图层_1" xmlns="http://www.w3.org/2000/svg" xmlns:xlink="http://www.w3.org/1999/xlink" x="0px" y="0px"
	 width="200px" height="200px" viewBox="0 0 200 200" enable-background="new 0 0 200 200" xml:space="preserve">
<path fill="#BDCDE8" d="M158.334,25c4.602,0,8.332,3.731,8.332,8.333l0,0v45.833H25V33.333C25,28.731,28.731,25,33.333,25l0,0
	H158.334z"/>
<path fill="#5280C1" d="M37.5,162.5v-125h116.666v41.667h12.5V33.333c0-4.603-3.73-8.333-8.332-8.333l0,0h-125
	C28.731,25,25,28.731,25,33.333l0,0v133.333c0,4.604,3.731,8.334,8.333,8.334l0,0h83.333v-12.5H37.5z M58.333,68.75h58.333v12.5
	H58.333V68.75z M58.333,110.416h33.333v12.5H58.333V110.416z M143.75,143.775c-0.543-0.406-1.045-0.864-1.5-1.367l-28.133-31.275
	c-6.033-6.699-1.283-17.383,7.741-17.383h56.283c9.017,0,13.774,10.684,7.75,17.383l-28.149,31.275
	c-0.453,0.502-0.952,0.961-1.492,1.367V175h-12.5V143.775z M150,132.325l23.467-26.075h-46.934L150,132.325z"/>
</svg>
