<?xml version="1.0" standalone="no"?><!DOCTYPE svg PUBLIC "-//W3C//DTD SVG 1.1//EN" "http://www.w3.org/Graphics/SVG/1.1/DTD/svg11.dtd"><svg t="1765295472290" class="icon" viewBox="0 0 1024 1024" version="1.1" xmlns="http://www.w3.org/2000/svg" p-id="4714" xmlns:xlink="http://www.w3.org/1999/xlink" width="200" height="200"><path d="M615.088 1019.824V12.8L10.832 148.96l0.48 731.984 603.776 138.88zM261.024 314.928l38.736 73.152 38.72-73.152h77.472l-77.456 146.32 96.8 182.88h-77.44L299.76 534.4l-58.08 109.728h-77.472l96.816-182.88-77.44-146.32h77.44z m426.016 154.912H590.24v38.72h96.816v-38.72zM590.24 702.208v38.736h96.816v-38.72H590.24z m0-116.176v38.72h96.816v-38.72H590.24z m96.816-232.368H590.24v38.72h96.816v-38.72z m0-116.192H590.24v38.72h96.816v-38.72z m193.648 387.296v-38.736H745.12v38.72h135.552z m0-116.192v-38.72H745.12v38.72h135.552z m0 232.368v-38.72H745.12v38.72h135.552zM745.12 237.472v38.72h135.552v-38.72H745.12z m0 154.912h135.552v-38.72H745.12v38.72z m-139.152-200.848h377.472v658.368H605.984v38.72h413.088L1017.68 152.8H605.984v38.72z" fill="#37812E" p-id="4715"></path></svg>