<?xml version="1.0" standalone="no"?><!DOCTYPE svg PUBLIC "-//W3C//DTD SVG 1.1//EN" "http://www.w3.org/Graphics/SVG/1.1/DTD/svg11.dtd"><svg t="1710000920846" class="icon" viewBox="0 0 1024 1024" version="1.1" xmlns="http://www.w3.org/2000/svg" p-id="15584" xmlns:xlink="http://www.w3.org/1999/xlink" width="200" height="200"><path d="M528 96l374.112 208v416L528 928 153.888 720v-416z" fill="#FFFFFF" p-id="15585"></path><path d="M512 208v-96h32v96h-32z m0 128v-96h32v96h-32z m0 128v-96h32v96h-32z m-257.44 217.92L168.96 725.536l-14.496-28.48L240 653.44l14.528 28.48z m114.048-58.08l-85.536 43.584-14.528-28.512 85.536-43.584 14.528 28.48z m114.048-58.112L397.12 609.28l-14.528-28.512 85.536-43.584 14.528 28.48z m333.6 87.04l85.024 44.64-14.88 28.32-84.992-44.608 14.848-28.32z m-113.344-59.456l85.024 44.608-14.88 28.352-84.992-44.608 14.848-28.352z m-113.344-59.456l85.024 44.608-14.88 28.32-84.992-44.608 14.848-28.32z" fill="#808FA1" p-id="15586"></path><path d="M544 882.496l326.112-181.312V330.816L544 534.016v348.48z m-32 0v-348.48l-185.376-115.648v-37.728l41.376 25.824 5.664 3.872 0.128-0.256 154.24 96.224 316.8-197.44-316.8-176.224-112.96 62.912-23.36-23.616 1.856-1.056L528 96l374.112 208v416L528 928 153.888 720V576h32v125.184L512 882.496z m16-749.888l316.928 176.192L528 132.608z" fill="#5D6D7E" p-id="15587"></path><path d="M209.376 153.408L122.72 231.648a16 16 0 1 1-21.44-23.744L225.184 96l123.904 111.904a16 16 0 0 1-21.44 23.744L241.376 153.728v316.032a16 16 0 1 1-32 0V153.408z" fill="#27A2DF" p-id="15588"></path></svg>