<?xml version="1.0" encoding="utf-8"?>
<!-- Generator: Adobe Illustrator 16.0.0, SVG Export Plug-In . SVG Version: 6.00 Build 0)  -->
<!DOCTYPE svg PUBLIC "-//W3C//DTD SVG 1.1//EN" "http://www.w3.org/Graphics/SVG/1.1/DTD/svg11.dtd">
<svg version="1.1" id="图层_1" xmlns="http://www.w3.org/2000/svg" xmlns:xlink="http://www.w3.org/1999/xlink" x="0px" y="0px"
	 width="185px" height="163px" viewBox="7.5 16.5 185 163" enable-background="new 7.5 16.5 185 163" xml:space="preserve">
<path fill="#E6C27C" d="M165.664,45.762H72.988l-1.465-3.965c-1.66-4.551-5.996-7.559-10.84-7.559H34.121
	c-6.367,0-11.543,5.156-11.543,11.543v117.676h154.59V57.305C177.207,50.918,172.051,45.762,165.664,45.762z"/>
<path fill="#FFFFFF" d="M34.16,96.523c-1.27,0-2.305-1.035-2.305-2.305V45.762c0-1.27,1.035-2.305,2.305-2.305h15.02
	c1.27,0,2.305,1.035,2.305,2.305s-1.035,2.305-2.305,2.305H36.465v46.152C36.465,95.488,35.43,96.523,34.16,96.523z"/>
<path fill="#FFFFFF" d="M58.379,45.762c0,1.273,1.032,2.305,2.305,2.305s2.305-1.032,2.305-2.305s-1.032-2.305-2.305-2.305
	S58.379,44.489,58.379,45.762z"/>
<path fill="#AD925D" d="M165.664,45.762h-11.543c6.367,0,11.543,5.156,11.543,11.543v94.609H22.617v11.543h154.59V57.305
	C177.207,50.918,172.051,45.762,165.664,45.762z"/>
<path fill="#727272" d="M165.664,42.305H75.41l-0.625-1.699c-2.168-5.879-7.813-9.824-14.082-9.824H34.141c-8.262,0-15,6.719-15,15
	v117.676c0,1.914,1.543,3.457,3.457,3.457h154.59c1.914,0,3.457-1.543,3.457-3.457V57.305
	C180.664,49.023,173.945,42.305,165.664,42.305L165.664,42.305z M165.664,49.219c4.453,0,8.066,3.633,8.066,8.066v10.449
	c-2.344-1.504-5.098-2.383-8.066-2.383H89.512c-3.379,0-6.426-2.129-7.578-5.293l-3.984-10.84H165.664z M26.074,159.98v-13.848
	h95.762c1.914,0,3.457-1.543,3.457-3.457s-1.543-3.457-3.457-3.457H26.074V45.762c0-4.453,3.633-8.066,8.066-8.066h26.563
	c3.379,0,6.426,2.129,7.578,5.293L75.43,62.48c2.168,5.879,7.813,9.824,14.082,9.824h76.152c4.453,0,8.066,3.633,8.066,8.066v58.848
	h-28.828c-1.914,0-3.457,1.543-3.457,3.457s1.543,3.457,3.457,3.457h28.848v13.848H26.074z"/>
</svg>
