<?xml version="1.0" standalone="no"?><!DOCTYPE svg PUBLIC "-//W3C//DTD SVG 1.1//EN" "http://www.w3.org/Graphics/SVG/1.1/DTD/svg11.dtd"><svg t="1710001200082" class="icon" viewBox="0 0 1024 1024" version="1.1" xmlns="http://www.w3.org/2000/svg" p-id="22351" xmlns:xlink="http://www.w3.org/1999/xlink" width="200" height="200"><path d="M187.35104 567.66464c0-0.57344 0.57344-2.2528 1.10592-3.8912 16.87552-84.62336 55.00928-174.20288 111.65696-174.20288 19.61984 0 53.37088 21.13536 101.86752 120.2176 8.72448 18.35008 17.408 37.2736 25.06752 55.0912 40.30464 90.68544 81.67424 184.7296 179.73248 184.7296 3.2768 0 7.08608 0 10.89536-0.53248 130.17088-8.88832 163.4304-152.49408 196.07552-291.6352 41.94304-180.8384 133.98016-229.25312 181.37088-229.25312V161.3824c-45.75232 0-95.8464 23.3472-136.72448 64.512-50.09408 50.09408-86.58944 122.4704-108.38016 215.94112-38.66624 165.84704-65.90464 235.9296-136.72448 240.4352-57.7536 3.8912-85.48352-52.87936-126.89408-145.28512a1740.3904 1740.3904 0 0 0-26.13248-57.30304c-35.4304-72.9088-85.52448-156.95872-160.1536-156.95872-117.10464 0-161.792 159.17056-175.9232 227.65568l-0.53248 1.6384 31.5392 7.7824 32.1536 7.7824z" fill="#1296db" p-id="22352"></path><path d="M68.07552 956.66176V0.57344H2.70336v1022.85312h1020.76416v-66.7648z" p-id="22353"></path></svg>