<?xml version="1.0" encoding="utf-8"?>
<!-- Generator: Adobe Illustrator 16.0.0, SVG Export Plug-In . SVG Version: 6.00 Build 0)  -->
<!DOCTYPE svg PUBLIC "-//W3C//DTD SVG 1.1//EN" "http://www.w3.org/Graphics/SVG/1.1/DTD/svg11.dtd">
<svg version="1.1" id="图层_1" xmlns="http://www.w3.org/2000/svg" xmlns:xlink="http://www.w3.org/1999/xlink" x="0px" y="0px"
	 width="200px" height="200px" viewBox="0 0 200 200" enable-background="new 0 0 200 200" xml:space="preserve">
<path fill="#727272" d="M192.188,66.675h-31v-13.2c0-11.046-8.954-20-20-20l0,0h-11.25V20c0-11.046-8.954-20-20-20l0,0H20.013
	c-11.046,0-20,8.954-20,20v89.725c0,11.046,8.954,20,20,20l0,0h13.675v11.25c0,11.046,8.954,20,20,20l0,0h14.025v28.15
	c0,4.143,3.358,7.5,7.5,7.5l0,0c4.142,0,7.5-3.357,7.5-7.5l0,0v-102.5c0-2.761,2.239-5,5-5l0,0h104.475c4.143,0,7.5-3.358,7.5-7.5
	l0,0C199.66,70.002,196.311,66.675,192.188,66.675z M33.688,53.475v61.25H20.013c-2.762,0-5-2.238-5-5V20c0-2.761,2.238-5,5-5
	h89.925c2.762,0,5,2.239,5,5v13.475h-61.25C42.642,33.475,33.688,42.429,33.688,53.475z M67.712,86.675v59.3H53.688
	c-2.761,0-5-2.238-5-5v-87.5c0-2.762,2.239-5,5-5l0,0h87.5c2.762,0,5,2.238,5,5v13.2H87.712
	C76.667,66.675,67.712,75.629,67.712,86.675z"/>
<path fill="#CE6043" d="M181.6,99.987c-2.928-2.924-7.672-2.924-10.6,0l-26.063,25.987l-26.05-26.037
	c-2.929-2.925-7.672-2.925-10.601,0c-2.924,2.928-2.924,7.672,0,10.6l26.038,26.051l-26.038,26.037
	c-2.93,2.928-2.933,7.676-0.006,10.606c0.002,0.002,0.004,0.004,0.006,0.006c1.406,1.407,3.313,2.198,5.301,2.2
	c1.988-0.002,3.895-0.793,5.3-2.2l26.05-26.013l26.05,26.051c1.405,1.406,3.312,2.197,5.3,2.199
	c1.988-0.002,3.895-0.793,5.301-2.199c2.93-2.928,2.933-7.676,0.006-10.607c-0.002-0.002-0.004-0.004-0.006-0.006l-26.038-26.037
	l26.038-26.05C184.508,107.652,184.513,102.918,181.6,99.987L181.6,99.987z"/>
</svg>
