<?xml version="1.0" standalone="no"?><!DOCTYPE svg PUBLIC "-//W3C//DTD SVG 1.1//EN" "http://www.w3.org/Graphics/SVG/1.1/DTD/svg11.dtd"><svg t="1766848682545" class="icon" viewBox="0 0 1284 1024" version="1.1" xmlns="http://www.w3.org/2000/svg" p-id="14026" xmlns:xlink="http://www.w3.org/1999/xlink" width="250.78125" height="200"><path d="M642.236382 150.758479m-137.340185 0a137.340185 137.340185 0 1 0 274.68037 0 137.340185 137.340185 0 1 0-274.68037 0Z" fill="#446EB6" p-id="14027"></path><path d="M642.236382 301.516958a150.758479 150.758479 0 1 1 150.758479-150.758479 150.758479 150.758479 0 0 1-150.758479 150.758479z m0-274.943474a124.448099 124.448099 0 1 0 124.448099 124.184995A124.448099 124.448099 0 0 0 642.236382 26.573484zM1284.472765 1024H0L127.079137 500.160329h1038.207605z m-1251.058582-26.31038h1218.170606L1144.501542 526.470709H147.864337z" fill="#344761" p-id="14028"></path><path d="M398.076053 758.791367h476.217883" fill="#446EB6" p-id="14029"></path><path d="M398.076053 745.636177h476.217883v26.31038h-476.217883z" fill="#344761" p-id="14030"></path><path d="M313.093525 761.422405m-99.190133 0a99.190134 99.190134 0 1 0 198.380267 0 99.190134 99.190134 0 1 0-198.380267 0Z" fill="#446EB6" p-id="14031"></path><path d="M313.093525 873.767729a112.608428 112.608428 0 1 1 112.345324-112.345324 112.608428 112.608428 0 0 1-112.345324 112.345324z m0-198.643371a86.298047 86.298047 0 1 0 86.034944 86.298047 86.298047 86.298047 0 0 0-86.034944-86.298047z" fill="#344761" p-id="14032"></path><path d="M971.642343 761.422405m-99.190133 0a99.190134 99.190134 0 1 0 198.380267 0 99.190134 99.190134 0 1 0-198.380267 0Z" fill="#446EB6" p-id="14033"></path><path d="M971.642343 873.767729a112.608428 112.608428 0 1 1 112.608428-112.345324 112.608428 112.608428 0 0 1-112.608428 112.345324z m0-198.643371a86.298047 86.298047 0 1 0 86.298048 86.298047 86.298047 86.298047 0 0 0-86.298048-86.298047z" fill="#344761" p-id="14034"></path><path d="M642.236382 761.422405m-99.190133 0a99.190134 99.190134 0 1 0 198.380267 0 99.190134 99.190134 0 1 0-198.380267 0Z" fill="#446EB6" p-id="14035"></path><path d="M642.236382 873.767729a112.608428 112.608428 0 1 1 112.608428-112.345324 112.608428 112.608428 0 0 1-112.608428 112.345324z m0-198.643371a86.298047 86.298047 0 1 0 86.298048 86.298047 86.298047 86.298047 0 0 0-86.298048-86.298047z" fill="#344761" p-id="14036"></path></svg>