<?xml version="1.0" encoding="utf-8"?>
<!-- Generator: Adobe Illustrator 16.0.0, SVG Export Plug-In . SVG Version: 6.00 Build 0)  -->
<!DOCTYPE svg PUBLIC "-//W3C//DTD SVG 1.1//EN" "http://www.w3.org/Graphics/SVG/1.1/DTD/svg11.dtd">
<svg version="1.1" id="图层_1" xmlns="http://www.w3.org/2000/svg" xmlns:xlink="http://www.w3.org/1999/xlink" x="0px" y="0px"
	 width="48px" height="48px" viewBox="0 0 48 48" enable-background="new 0 0 48 48" xml:space="preserve">
<rect x="2.667" y="6.167" fill="none" stroke="#497CAD" stroke-miterlimit="10" width="42.5" height="35"/>
<g>
	<path fill="#727272" d="M17.88,19.004l-2.083,0.865h-0.353v-1.003c-0.638,0.668-1.325,1.003-2.06,1.003
		c-0.868,0-1.575-0.365-2.121-1.094c-0.495-0.663-0.743-1.441-0.743-2.333c0-1.025,0.304-1.933,0.912-2.724
		c0.659-0.856,1.485-1.285,2.481-1.285c0.618,0,1.128,0.199,1.532,0.598v-1.3c0-1.113-0.079-1.734-0.237-1.862
		c-0.082-0.066-0.184-0.1-0.306-0.1c-0.133,0-0.309,0.041-0.529,0.123l-0.1-0.268l2.091-0.857h0.345v8.106
		c0,1.118,0.082,1.746,0.245,1.883c0.082,0.071,0.179,0.107,0.291,0.107c0.138,0,0.321-0.044,0.551-0.134L17.88,19.004z
		 M15.445,18.337v-3.614c-0.066-0.769-0.361-1.305-0.882-1.607c-0.256-0.144-0.504-0.215-0.745-0.215
		c-0.45,0-0.852,0.202-1.205,0.604c-0.465,0.53-0.698,1.305-0.698,2.325c0,0.786,0.164,1.479,0.491,2.081
		c0.399,0.739,0.962,1.109,1.688,1.109C14.56,19.019,15.01,18.792,15.445,18.337z"/>
	<path fill="#727272" d="M24.772,18.651c-0.572,0.761-1.118,1.141-1.639,1.141c-0.541,0-0.817-0.383-0.827-1.148
		c-0.725,0.562-1.177,0.883-1.355,0.965c-0.276,0.127-0.569,0.191-0.881,0.191c-0.511,0-0.919-0.178-1.225-0.533
		c-0.296-0.337-0.444-0.763-0.444-1.278c0-0.724,0.441-1.346,1.325-1.867c0.516-0.306,1.376-0.678,2.581-1.117v-0.277
		c0-0.574-0.074-0.999-0.222-1.276c-0.205-0.374-0.564-0.561-1.08-0.561c-0.265,0-0.503,0.075-0.712,0.223
		c-0.24,0.164-0.355,0.376-0.345,0.638l0.015,0.446c0.016,0.492-0.202,0.738-0.651,0.738c-0.429,0-0.643-0.248-0.643-0.743
		c0-0.577,0.298-1.029,0.896-1.355c0.49-0.271,1.046-0.406,1.669-0.406c1.169,0,1.902,0.347,2.198,1.04
		c0.092,0.221,0.138,0.672,0.138,1.354v2.393c0,0.928,0.056,1.441,0.168,1.539c0.056,0.051,0.123,0.077,0.199,0.077
		c0.082,0,0.153-0.018,0.214-0.054c0.102-0.061,0.309-0.248,0.621-0.559V18.651z M22.307,18.146v-2.68
		c-0.763,0.301-1.262,0.518-1.498,0.651c-0.752,0.419-1.129,0.922-1.129,1.509c0,0.332,0.097,0.623,0.292,0.873
		c0.21,0.271,0.476,0.406,0.799,0.406C21.16,18.904,21.671,18.651,22.307,18.146z"/>
	<path fill="#727272" d="M29.184,18.253c-0.357,1.011-0.947,1.516-1.77,1.516c-0.566,0-0.962-0.252-1.187-0.758
		c-0.107-0.241-0.161-0.614-0.161-1.12v-4.724h-1.11v-0.252c0.621-0.25,1.168-0.756,1.641-1.52c0.112-0.183,0.274-0.537,0.488-1.062
		h0.245v2.305h1.639v0.528H27.33v4.549c0,0.771,0.232,1.156,0.697,1.156c0.397,0,0.684-0.207,0.857-0.62H29.184z"/>
	<path fill="#727272" d="M35.677,17.104c-0.117,0.753-0.431,1.393-0.941,1.917c-0.547,0.565-1.189,0.848-1.93,0.848
		c-0.955,0-1.718-0.375-2.29-1.125c-0.516-0.683-0.773-1.517-0.773-2.501c0-1.076,0.266-1.961,0.797-2.655
		c0.587-0.77,1.401-1.155,2.442-1.155c0.827,0,1.485,0.272,1.976,0.817c0.48,0.524,0.72,1.202,0.72,2.032h-4.839
		c-0.006,0.87,0.195,1.619,0.603,2.249c0.473,0.732,1.122,1.098,1.946,1.098c0.946,0,1.628-0.559,2.045-1.677L35.677,17.104z
		 M34.084,14.846c-0.025-0.451-0.079-0.769-0.16-0.954c-0.271-0.615-0.726-0.923-1.363-0.923c-0.49,0-0.896,0.195-1.218,0.584
		c-0.286,0.349-0.454,0.779-0.505,1.292H34.084z"/>
	<path fill="#727272" d="M14.38,37.074c-0.357,1.011-0.947,1.517-1.769,1.517c-0.566,0-0.962-0.253-1.187-0.759
		c-0.107-0.24-0.161-0.613-0.161-1.119v-4.724h-1.11v-0.252c0.621-0.25,1.167-0.756,1.641-1.52c0.112-0.184,0.274-0.537,0.488-1.063
		h0.245v2.306h1.639v0.528h-1.639v4.549c0,0.771,0.232,1.156,0.697,1.156c0.398,0,0.684-0.207,0.857-0.62H14.38z"/>
	<path fill="#727272" d="M18.34,38.476h-3.416v-0.283c0.519,0,0.846-0.143,0.979-0.429c0.066-0.152,0.1-0.446,0.1-0.879v-2.7
		c0-0.765-0.023-1.257-0.069-1.477c-0.062-0.29-0.224-0.436-0.486-0.436c-0.144,0-0.318,0.038-0.524,0.115l-0.108-0.276l2.114-0.857
		h0.337v5.63c0,0.658,0.128,1.059,0.386,1.201c0.123,0.071,0.352,0.107,0.687,0.107V38.476z M17.405,28.355
		c0,0.214-0.075,0.396-0.225,0.549c-0.15,0.152-0.332,0.229-0.545,0.229s-0.396-0.076-0.549-0.229s-0.229-0.335-0.229-0.549
		c0-0.219,0.075-0.401,0.225-0.549s0.334-0.221,0.553-0.221c0.213,0,0.395,0.075,0.545,0.225
		C17.33,27.961,17.405,28.143,17.405,28.355z"/>
	<path fill="#727272" d="M30.854,38.476h-3.47v-0.283h0.146c0.54,0,0.861-0.188,0.964-0.565c0.021-0.076,0.031-0.323,0.031-0.741
		v-3.01c0-0.575-0.069-0.978-0.208-1.206c-0.194-0.326-0.514-0.489-0.959-0.489c-0.533,0-1.137,0.318-1.813,0.955L25.53,33.22
		l0.016,0.328v3.338c0,0.372,0.008,0.596,0.023,0.673c0.04,0.239,0.16,0.409,0.359,0.512c0.148,0.081,0.401,0.122,0.759,0.122v0.283
		h-3.546v-0.283c0.623,0,0.99-0.184,1.103-0.55c0.025-0.087,0.038-0.339,0.038-0.757v-3.01c0-0.575-0.084-0.985-0.253-1.229
		c-0.225-0.326-0.539-0.489-0.942-0.489c-0.271,0-0.543,0.074-0.819,0.222c-0.429,0.229-0.755,0.481-0.98,0.757v3.75
		c0,0.662,0.127,1.063,0.383,1.199c0.123,0.071,0.375,0.107,0.758,0.107v0.283H18.96v-0.283c0.516,0,0.837-0.146,0.965-0.437
		c0.066-0.147,0.1-0.438,0.1-0.871v-2.677c0-0.775-0.023-1.272-0.069-1.492c-0.062-0.295-0.222-0.443-0.482-0.443
		c-0.143,0-0.314,0.038-0.513,0.115l-0.115-0.276l2.113-0.857h0.33v1.493c0.512-0.505,0.817-0.799,0.915-0.88
		c0.491-0.409,1.008-0.613,1.551-0.613c0.972,0,1.57,0.498,1.792,1.493c0.408-0.479,0.759-0.824,1.052-1.033
		c0.428-0.307,0.885-0.46,1.368-0.46c0.792,0,1.344,0.408,1.656,1.224c0.111,0.291,0.167,0.755,0.167,1.393v3.014
		c0,0.444,0.033,0.745,0.1,0.903c0.118,0.271,0.439,0.405,0.965,0.405V38.476z"/>
	<path fill="#727272" d="M37.431,35.925c-0.117,0.754-0.431,1.393-0.941,1.917c-0.547,0.565-1.189,0.849-1.93,0.849
		c-0.955,0-1.719-0.375-2.29-1.125c-0.516-0.684-0.773-1.518-0.773-2.502c0-1.076,0.266-1.961,0.797-2.654
		c0.587-0.771,1.401-1.155,2.442-1.155c0.827,0,1.485,0.272,1.976,0.817c0.48,0.524,0.72,1.201,0.72,2.031h-4.84
		c-0.005,0.87,0.196,1.62,0.604,2.249c0.473,0.732,1.122,1.098,1.946,1.098c0.946,0,1.628-0.559,2.045-1.677L37.431,35.925z
		 M35.838,33.666c-0.025-0.451-0.079-0.769-0.16-0.953c-0.271-0.615-0.726-0.923-1.363-0.923c-0.49,0-0.896,0.195-1.218,0.585
		c-0.286,0.349-0.454,0.778-0.506,1.291H35.838z"/>
</g>
</svg>
