<?xml version="1.0" encoding="utf-8"?>
<!-- Generator: Adobe Illustrator 16.0.0, SVG Export Plug-In . SVG Version: 6.00 Build 0)  -->
<!DOCTYPE svg PUBLIC "-//W3C//DTD SVG 1.1//EN" "http://www.w3.org/Graphics/SVG/1.1/DTD/svg11.dtd">
<svg version="1.1" id="图层_1" xmlns="http://www.w3.org/2000/svg" xmlns:xlink="http://www.w3.org/1999/xlink" x="0px" y="0px"
	 width="48px" height="48px" viewBox="0 0 48 48" enable-background="new 0 0 48 48" xml:space="preserve">
<rect x="2.667" y="6.167" fill="none" stroke="#497CAD" stroke-miterlimit="10" width="42.5" height="35"/>
<g>
	<path fill="#727272" d="M13.394,16.704c0,0.215-0.093,0.417-0.279,0.607c-0.187,0.19-0.387,0.285-0.602,0.285
		c-0.373,0-0.77-0.317-1.192-0.951c-0.451-0.662-0.942-0.994-1.472-0.994c-0.695,0-1.139,0.359-1.332,1.077
		c-0.1,0.374-0.15,1.328-0.15,2.864v0.71h2.535v0.763H8.366v6.466c0,0.917,0.101,1.497,0.301,1.74
		c0.265,0.315,0.62,0.473,1.063,0.473h0.892v0.397H4.747v-0.397h0.44c0.651,0,1.078-0.265,1.278-0.795
		c0.086-0.243,0.129-0.716,0.129-1.418v-6.466H4.682v-0.763h1.912v-0.644c0-1.934,0.641-3.315,1.922-4.146
		c0.645-0.415,1.372-0.623,2.181-0.623c0.752,0,1.443,0.244,2.073,0.73C13.186,15.941,13.394,16.303,13.394,16.704z"/>
	<path fill="#727272" d="M16.831,30.142h-4.833v-0.397c0.707,0,1.147-0.2,1.32-0.601c0.093-0.215,0.141-0.626,0.141-1.234v-8.93
		c0-1.531-0.104-2.386-0.313-2.565c-0.116-0.093-0.26-0.14-0.433-0.14c-0.188,0-0.425,0.058-0.714,0.172l-0.184-0.376l2.932-1.203
		h0.483v13.042c0,0.916,0.184,1.474,0.552,1.674c0.187,0.107,0.537,0.161,1.049,0.161V30.142z"/>
	<path fill="#727272" d="M27.508,25.039c0,0.91-0.208,1.794-0.623,2.653c-0.438,0.924-1.024,1.613-1.762,2.068
		c-0.738,0.454-1.562,0.682-2.471,0.682c-1.482,0-2.66-0.591-3.534-1.772c-0.738-0.995-1.106-2.112-1.106-3.352
		c0-0.902,0.215-1.783,0.645-2.642c0.458-0.917,1.054-1.59,1.789-2.02c0.734-0.43,1.509-0.644,2.325-0.644
		c1.489,0,2.686,0.565,3.588,1.697C27.124,22.676,27.508,23.786,27.508,25.039z M25.521,25.868c0-1.744-0.378-3.123-1.132-4.135
		c-0.518-0.689-1.168-1.034-1.952-1.034c-0.963,0-1.657,0.51-2.082,1.529C20.118,22.796,20,23.524,20,24.415
		c0,1.22,0.219,2.329,0.658,3.326c0.568,1.3,1.387,1.949,2.458,1.949C24.719,29.69,25.521,28.416,25.521,25.868z"/>
	<path fill="#727272" d="M37.991,28.734c-0.802,1.067-1.568,1.601-2.299,1.601c-0.759,0-1.146-0.537-1.159-1.611
		c-1.018,0.788-1.651,1.239-1.901,1.354c-0.387,0.179-0.799,0.269-1.235,0.269c-0.717,0-1.289-0.249-1.719-0.747
		c-0.415-0.473-0.623-1.069-0.623-1.792c0-1.017,0.619-1.889,1.858-2.618c0.723-0.43,1.93-0.951,3.62-1.567v-0.388
		c0-0.805-0.104-1.401-0.312-1.79c-0.287-0.524-0.792-0.787-1.515-0.787c-0.373,0-0.706,0.104-0.999,0.313
		c-0.337,0.23-0.498,0.528-0.483,0.895l0.021,0.625c0.021,0.69-0.283,1.035-0.913,1.035c-0.602,0-0.902-0.347-0.902-1.042
		c0-0.809,0.419-1.443,1.257-1.901c0.688-0.379,1.468-0.569,2.342-0.569c1.64,0,2.667,0.486,3.082,1.458
		c0.129,0.31,0.193,0.943,0.193,1.9v3.355c0,1.303,0.079,2.022,0.236,2.159c0.079,0.071,0.172,0.107,0.279,0.107
		c0.115,0,0.215-0.025,0.301-0.075c0.144-0.086,0.434-0.347,0.87-0.784V28.734z M34.533,28.025v-3.76
		c-1.07,0.423-1.771,0.728-2.102,0.913c-1.056,0.588-1.583,1.293-1.583,2.116c0,0.466,0.137,0.874,0.409,1.225
		c0.294,0.38,0.668,0.569,1.12,0.569C32.924,29.089,33.643,28.734,34.533,28.025z"/>
	<path fill="#727272" d="M44.179,28.176c-0.502,1.418-1.329,2.127-2.481,2.127c-0.795,0-1.351-0.354-1.665-1.063
		c-0.15-0.337-0.226-0.86-0.226-1.57v-6.625h-1.558V20.69c0.87-0.35,1.638-1.061,2.301-2.131c0.157-0.257,0.386-0.753,0.686-1.489
		h0.344v3.233h2.299v0.741h-2.299v6.38c0,1.082,0.325,1.622,0.978,1.622c0.559,0,0.959-0.29,1.203-0.87H44.179z"/>
</g>
</svg>
