<?xml version="1.0" encoding="utf-8"?>
<!-- Generator: Adobe Illustrator 16.0.0, SVG Export Plug-In . SVG Version: 6.00 Build 0)  -->
<!DOCTYPE svg PUBLIC "-//W3C//DTD SVG 1.1//EN" "http://www.w3.org/Graphics/SVG/1.1/DTD/svg11.dtd">
<svg version="1.1" id="图层_1" xmlns="http://www.w3.org/2000/svg" xmlns:xlink="http://www.w3.org/1999/xlink" x="0px" y="0px"
	 width="48px" height="48px" viewBox="0 0 48 48" enable-background="new 0 0 48 48" xml:space="preserve">
<rect x="2.667" y="6.167" fill="none" stroke="#497CAD" stroke-miterlimit="10" width="42.5" height="35"/>
<g>
	<path fill="#727272" d="M17.419,30.142h-4.791v-0.397c0.729,0,1.186-0.2,1.374-0.601c0.093-0.215,0.141-0.626,0.141-1.233v-3.787
		c0-1.073-0.033-1.763-0.098-2.07c-0.086-0.408-0.313-0.612-0.681-0.612c-0.202,0-0.447,0.054-0.735,0.161l-0.151-0.387l2.964-1.203
		h0.473v7.896c0,0.923,0.181,1.484,0.541,1.685c0.173,0.101,0.494,0.15,0.963,0.15V30.142z M16.108,15.947
		c0,0.299-0.105,0.556-0.315,0.77c-0.21,0.214-0.465,0.321-0.764,0.321c-0.3,0-0.556-0.107-0.77-0.321
		c-0.214-0.213-0.32-0.47-0.32-0.77c0-0.306,0.105-0.563,0.315-0.77c0.21-0.207,0.469-0.31,0.775-0.31
		c0.299,0,0.554,0.105,0.764,0.315C16.003,15.393,16.108,15.647,16.108,15.947z"/>
	<path fill="#727272" d="M28.848,30.142h-4.866v-0.397h0.204c0.751,0,1.199-0.275,1.343-0.826c0.027-0.107,0.043-0.443,0.043-1.008
		v-4.023c0-1.702-0.51-2.553-1.526-2.553c-0.852,0-1.701,0.465-2.546,1.395v5.182c0,0.665,0.04,1.076,0.118,1.233
		c0.193,0.4,0.688,0.601,1.482,0.601v0.397h-4.866v-0.397h0.215c0.551,0,0.917-0.175,1.096-0.525
		c0.122-0.243,0.183-0.68,0.183-1.309v-3.647c0-1.602-0.107-2.496-0.322-2.682c-0.115-0.093-0.265-0.14-0.451-0.14
		c-0.201,0-0.44,0.054-0.72,0.161l-0.161-0.387l2.965-1.203H21.5v2.083c1.153-1.389,2.252-2.083,3.298-2.083
		c1.109,0,1.879,0.576,2.309,1.727c0.158,0.422,0.236,1.08,0.236,1.974v4.195c0,0.923,0.18,1.484,0.537,1.685
		c0.172,0.101,0.494,0.15,0.967,0.15V30.142z"/>
	<path fill="#727272" d="M35.089,28.176c-0.502,1.418-1.329,2.127-2.481,2.127c-0.795,0-1.35-0.354-1.665-1.063
		c-0.15-0.337-0.226-0.86-0.226-1.57v-6.625h-1.558V20.69c0.87-0.35,1.638-1.061,2.302-2.131c0.156-0.257,0.385-0.753,0.685-1.489
		h0.343v3.233h2.3v0.741h-2.3v6.38c0,1.082,0.326,1.622,0.979,1.622c0.559,0,0.959-0.29,1.203-0.87H35.089z"/>
</g>
</svg>
