<?xml version="1.0" encoding="utf-8"?>
<!-- Generator: Adobe Illustrator 16.0.0, SVG Export Plug-In . SVG Version: 6.00 Build 0)  -->
<!DOCTYPE svg PUBLIC "-//W3C//DTD SVG 1.1//EN" "http://www.w3.org/Graphics/SVG/1.1/DTD/svg11.dtd">
<svg version="1.1" id="图层_1" xmlns="http://www.w3.org/2000/svg" xmlns:xlink="http://www.w3.org/1999/xlink" x="0px" y="0px"
	 width="48px" height="48px" viewBox="0 0 48 48" enable-background="new 0 0 48 48" xml:space="preserve">
<rect x="2.667" y="6.167" fill="none" stroke="#497CAD" stroke-miterlimit="10" width="42.5" height="35"/>
<g>
	<path fill="#727272" d="M20.236,25.039c0,0.91-0.208,1.794-0.623,2.653c-0.437,0.924-1.024,1.613-1.762,2.068
		c-0.738,0.454-1.562,0.682-2.471,0.682c-1.482,0-2.66-0.591-3.534-1.772c-0.738-0.995-1.106-2.112-1.106-3.352
		c0-0.902,0.215-1.783,0.645-2.642c0.458-0.917,1.054-1.59,1.789-2.02c0.734-0.43,1.509-0.644,2.325-0.644
		c1.489,0,2.686,0.565,3.588,1.697C19.854,22.676,20.236,23.786,20.236,25.039z M18.25,25.868c0-1.744-0.377-3.123-1.132-4.135
		C16.6,21.044,15.949,20.7,15.166,20.7c-0.963,0-1.657,0.51-2.082,1.529c-0.237,0.567-0.355,1.295-0.355,2.186
		c0,1.22,0.219,2.329,0.658,3.326c0.568,1.3,1.387,1.949,2.458,1.949C17.448,29.69,18.25,28.416,18.25,25.868z"/>
	<path fill="#727272" d="M31.236,24.846c0,1.748-0.58,3.155-1.74,4.222c-0.996,0.917-2.105,1.375-3.33,1.375
		c-1.139,0-2.324-0.415-3.556-1.246V19.003c0-1.547-0.111-2.41-0.334-2.589c-0.115-0.093-0.259-0.14-0.431-0.14
		c-0.201,0-0.453,0.058-0.754,0.172L20.94,16.07l2.958-1.203h0.484V22c0.953-1.325,1.98-1.987,3.083-1.987
		c1.203,0,2.156,0.526,2.857,1.579C30.932,22.501,31.236,23.586,31.236,24.846z M29.389,25.458c0-0.983-0.209-1.845-0.625-2.585
		c-0.51-0.897-1.224-1.346-2.143-1.346c-0.38,0-0.76,0.097-1.141,0.29c-0.287,0.144-0.652,0.43-1.098,0.859v5.905
		c0.739,0.726,1.518,1.088,2.336,1.088c0.896,0,1.593-0.506,2.088-1.519C29.194,27.347,29.389,26.449,29.389,25.458z"/>
	<path fill="#727272" d="M36.102,29.916c0,1.425-0.279,2.57-0.838,3.438c-0.674,1.023-1.684,1.536-3.029,1.536
		c-0.436,0-0.834-0.075-1.191-0.226c-0.487-0.193-0.73-0.48-0.73-0.859c0-0.244,0.086-0.457,0.258-0.64s0.379-0.273,0.623-0.273
		c0.172,0,0.361,0.047,0.568,0.141c0.107,0.051,0.361,0.249,0.764,0.597c0.322,0.281,0.594,0.423,0.816,0.423
		c0.436,0,0.727-0.287,0.869-0.86c0.078-0.315,0.119-0.992,0.119-2.032V24.15c0-1.082-0.033-1.777-0.098-2.086
		c-0.086-0.416-0.311-0.624-0.676-0.624c-0.201,0-0.445,0.054-0.73,0.161l-0.15-0.387l2.965-1.203h0.461V29.916z M36.285,15.968
		c0,0.307-0.107,0.565-0.322,0.775c-0.213,0.21-0.473,0.315-0.779,0.315c-0.299,0-0.557-0.107-0.77-0.321
		c-0.215-0.213-0.32-0.47-0.32-0.77c0-0.306,0.104-0.566,0.314-0.78s0.469-0.321,0.775-0.321s0.566,0.107,0.779,0.321
		C36.178,15.402,36.285,15.662,36.285,15.968z"/>
</g>
</svg>
