<?xml version="1.0" encoding="utf-8"?>
<!-- Generator: Adobe Illustrator 16.0.0, SVG Export Plug-In . SVG Version: 6.00 Build 0)  -->
<!DOCTYPE svg PUBLIC "-//W3C//DTD SVG 1.1//EN" "http://www.w3.org/Graphics/SVG/1.1/DTD/svg11.dtd">
<svg version="1.1" id="图层_1" xmlns="http://www.w3.org/2000/svg" xmlns:xlink="http://www.w3.org/1999/xlink" x="0px" y="0px"
	 width="48px" height="48px" viewBox="0 0 48 48" enable-background="new 0 0 48 48" xml:space="preserve">
<rect x="2.667" y="6.167" fill="none" stroke="#497CAD" stroke-miterlimit="10" width="42.5" height="35"/>
<g>
	<path fill="#727272" d="M20.798,27.453c0,0.867-0.337,1.592-1.01,2.172c-0.637,0.545-1.396,0.817-2.277,0.817
		c-0.616,0-1.303-0.107-2.062-0.322c-0.251-0.071-0.444-0.107-0.58-0.107c-0.165,0-0.294,0.093-0.387,0.279h-0.365v-3.513h0.365
		c0.171,0.862,0.5,1.566,0.986,2.113c0.55,0.618,1.236,0.927,2.058,0.927c0.458,0,0.843-0.133,1.158-0.397
		c0.343-0.28,0.514-0.642,0.514-1.087c0-0.595-0.304-1.121-0.913-1.58c-0.265-0.201-0.825-0.515-1.681-0.941
		c-0.855-0.426-1.444-0.797-1.767-1.112c-0.509-0.487-0.763-1.101-0.763-1.839c0-0.846,0.292-1.534,0.877-2.065
		c0.558-0.523,1.262-0.785,2.113-0.785c0.386,0,0.854,0.082,1.405,0.247c0.365,0.107,0.608,0.161,0.729,0.161
		c0.193,0,0.357-0.136,0.493-0.408h0.365v3.352h-0.365c-0.229-0.874-0.507-1.511-0.836-1.913c-0.436-0.544-1.046-0.816-1.832-0.816
		c-0.415,0-0.782,0.108-1.104,0.323c-0.379,0.244-0.568,0.563-0.568,0.957c0,0.76,0.565,1.416,1.697,1.968l1.568,0.764
		C20.071,25.356,20.798,26.292,20.798,27.453z"/>
	<path fill="#727272" d="M27.705,28.176c-0.502,1.418-1.328,2.127-2.481,2.127c-0.794,0-1.35-0.354-1.665-1.063
		c-0.15-0.337-0.226-0.86-0.226-1.57v-6.625h-1.558V20.69c0.871-0.35,1.638-1.061,2.301-2.131c0.157-0.257,0.385-0.753,0.685-1.489
		h0.344v3.233h2.299v0.741h-2.299v6.38c0,1.082,0.326,1.622,0.978,1.622c0.559,0,0.96-0.29,1.203-0.87H27.705z"/>
	<path fill="#727272" d="M35.139,21.205c0,0.272-0.09,0.507-0.27,0.704c-0.178,0.197-0.404,0.295-0.676,0.295
		c-0.23,0-0.51-0.124-0.844-0.371c-0.333-0.247-0.564-0.371-0.693-0.371c-0.121,0-0.261,0.072-0.418,0.215
		c-0.33,0.301-0.662,0.784-1,1.451v4.707c0,0.687,0.124,1.177,0.371,1.47s0.697,0.439,1.348,0.439v0.397H27.92v-0.397
		c0.845,0,1.343-0.261,1.493-0.783c0.036-0.121,0.054-0.469,0.054-1.04v-3.809c0-0.979,0.004-1.413,0.011-1.298
		c-0.036-0.658-0.147-1.065-0.333-1.223c-0.129-0.1-0.287-0.15-0.473-0.15c-0.223,0-0.473,0.054-0.752,0.161l-0.107-0.387
		l2.976-1.203h0.45v2.212c0.824-1.475,1.669-2.212,2.535-2.212c0.359,0,0.676,0.111,0.951,0.333
		C35,20.567,35.139,20.854,35.139,21.205z"/>
</g>
</svg>
