<?xml version="1.0" encoding="utf-8"?>
<!-- Generator: Adobe Illustrator 16.0.0, SVG Export Plug-In . SVG Version: 6.00 Build 0)  -->
<!DOCTYPE svg PUBLIC "-//W3C//DTD SVG 1.1//EN" "http://www.w3.org/Graphics/SVG/1.1/DTD/svg11.dtd">
<svg version="1.1" id="图层_1" xmlns="http://www.w3.org/2000/svg" xmlns:xlink="http://www.w3.org/1999/xlink" x="0px" y="0px"
	 width="66.125px" height="64px" viewBox="0 0 66.125 64" enable-background="new 0 0 66.125 64" xml:space="preserve">
<path fill="#497CAD" d="M58.357,28.816C56.853,16.253,45.646,6.237,34.988,5.678c-6.832-0.36-9.572,3.532-16.539,8.041
	C11.47,18.234,5.868,21.965,5.868,31.112c0,9.153,7.153,27.19,26.2,27.19C51.107,58.303,59.863,41.372,58.357,28.816z
	 M32.087,53.884c-15.85,0-21.813-15.007-21.813-22.624c0-7.623,4.664-10.723,10.466-14.48c5.809-3.756,8.086-6.992,13.766-6.696
	c8.87,0.476,18.204,8.8,19.451,19.259C55.212,39.797,47.937,53.884,32.087,53.884z"/>
<path fill="#E6C27C" d="M49.699,29.916c-1.004-8.369-8.472-15.04-15.566-15.413c-4.548-0.238-6.381,2.348-11.02,5.352
	c-4.65,3.004-8.381,5.493-8.381,11.591c0,6.092,4.76,18.108,17.458,18.108C44.881,49.555,50.696,38.271,49.699,29.916z
	 M32.209,45.039c-9.417,0-12.961-8.916-12.961-13.444s2.772-6.368,6.22-8.607c3.441-2.238,4.805-4.155,8.183-3.981
	c5.281,0.283,10.819,5.236,11.565,11.443S41.627,45.039,32.209,45.039z"/>
<path fill="#CE6043" d="M41.723,30.476c-0.521-4.361-4.412-7.835-8.117-8.034c-2.374-0.129-3.326,1.229-5.738,2.792
	c-2.419,1.563-4.368,2.862-4.368,6.04c0,3.171,2.489,9.437,9.096,9.437C39.201,40.717,42.244,34.837,41.723,30.476z M32.608,37.416
	c-4.22,0-5.809-4.001-5.809-6.027c0-2.02,1.242-2.856,2.792-3.859c1.544-1.003,2.155-1.859,3.66-1.788
	c2.367,0.128,4.851,2.348,5.185,5.126C38.771,33.66,36.828,37.41,32.608,37.416z"/>
</svg>
