<?xml version="1.0" encoding="utf-8"?>
<!-- Generator: Adobe Illustrator 16.0.0, SVG Export Plug-In . SVG Version: 6.00 Build 0)  -->
<!DOCTYPE svg PUBLIC "-//W3C//DTD SVG 1.1//EN" "http://www.w3.org/Graphics/SVG/1.1/DTD/svg11.dtd">
<svg version="1.1" id="图层_1" xmlns="http://www.w3.org/2000/svg" xmlns:xlink="http://www.w3.org/1999/xlink" x="0px" y="0px"
	 width="64px" height="64px" viewBox="0 0 64 64" enable-background="new 0 0 64 64" xml:space="preserve">
<path fill="#497CAD" fill-opacity="0.1" d="M4.916,48.219V4.917h42.072c4.646,7.749,9.072,16.667,12.095,25.178v28.989H25.129
	c-2.097-1.818-4.884-4.211-12.039-7.227C10.337,50.709,7.612,49.496,4.916,48.219z"/>
<path fill="#497CAD" fill-opacity="0.1" d="M4.916,41.51V4.917h34.854c12.413,17.871,26.938,51.987,5.581,51.987
	c-22.832,0-12.676-2.777-27.857-9.193C13.021,45.82,8.662,43.84,4.916,41.51z"/>
<path fill="#497CAD" fill-opacity="0.2" d="M4.916,34.742V11.654c1.693-2.561,3.783-4.836,6.193-6.737h22.049
	c0.488,0.501,0.963,1.05,1.423,1.643c10.006,12.932,24.248,43.573,6.355,43.573s-9.933-2.184-21.831-7.225
	C13.673,40.605,8.453,38.135,4.916,34.742z"/>
<path fill="#497CAD" fill-opacity="0.6" d="M21.6,37.791C12.908,34.065,4.117,30.454,8.207,19.7
	c4.09-10.757,14.842-17.507,22.152-7.945c7.308,9.558,21.211,33.803,8.141,33.803c-13.072,0-8.206-4.039-16.899-7.764V37.791z"/>
<path fill="#497CAD" d="M23.05,33.762c-5.486-2.414-11.036-4.75-8.454-11.712c2.582-6.96,9.366-11.33,13.981-5.141
	c4.614,6.184,13.388,21.879,5.136,21.879C25.465,38.787,28.537,36.174,23.05,33.762L23.05,33.762z"/>
</svg>
